<svg width="51" height="51" viewBox="0 0 51 51" fill="none" xmlns="http://www.w3.org/2000/svg">
<rect width="51" height="51" rx="13.6" fill="#F5DF7A" fill-opacity="0.3"/>
<path d="M26.9386 32.6714L27.0909 30.4759C25.8581 30.2196 24.5883 30.2161 23.3555 30.4673L23.5379 32.6705H26.9386V32.6714Z" fill="#E6E6E6"/>
<path d="M37.4784 39.7497L37.0147 37.8665C36.834 37.1344 36.5966 36.41 36.2215 35.7553C35.3061 34.1603 33.8617 32.9155 32.117 32.2531L29.9697 31.4375L31.6172 35.9016C31.643 35.973 31.6111 36.0521 31.5423 36.0839L29.9921 36.81C29.8914 36.8574 29.8785 36.9959 29.9688 37.0604L31.2885 38.0024C31.3359 38.036 31.3582 38.0945 31.3462 38.1512L30.8911 40.3106H37.0396C37.333 40.3106 37.548 40.0344 37.4784 39.7497Z" fill="#E6E6E6"/>
<path d="M19.1651 38.0046L20.4848 37.0625C20.5751 36.998 20.5631 36.8595 20.4615 36.8122L18.9104 36.0861C18.8425 36.0543 18.8098 35.9751 18.8356 35.9046L20.4641 31.4345L20.5734 31.3906L18.2945 32.2561C16.5498 32.9194 15.1045 34.1642 14.19 35.7583C13.8141 36.4122 13.5766 37.1365 13.3968 37.8695L12.9331 39.7527C12.8634 40.0374 13.0785 40.3127 13.3719 40.3127H19.5617L19.1066 38.1534C19.0945 38.0966 19.1186 38.039 19.1651 38.0046Z" fill="#E6E6E6"/>
<path d="M23.5391 32.6719L24.1714 40.3113H25.2063H26.4107L26.9398 32.6719H23.5391Z" fill="#1A8EAD"/>
<path d="M31.288 38.0032L29.9683 37.0612C29.878 36.9966 29.89 36.8581 29.9916 36.8108L31.5418 36.0847C31.6106 36.0529 31.6425 35.9737 31.6167 35.9023L29.9692 31.4383L29.9666 31.4323L27.1053 30.2734L27.0915 30.4756L26.9392 32.6711L26.4102 40.3105H30.8914L31.3465 38.1511C31.3586 38.0944 31.3353 38.0367 31.2889 38.0023L31.288 38.0032Z" fill="#D4D4D4"/>
<path d="M23.5393 32.6702L23.3569 30.467L23.3406 30.2734L20.5748 31.3884L20.4655 31.4323L19.0469 35.3259C20.1954 35.3698 21.115 36.3084 21.115 37.4681C21.115 38.5039 20.3829 39.3676 19.4073 39.5715L19.5631 40.3096H24.1716L23.5393 32.6702Z" fill="#D4D4D4"/>
<path d="M34.0934 19.4905C33.886 19.4543 33.6606 19.7219 33.3922 19.8733C33.2881 19.918 33.1815 19.9499 33.0903 19.9559C28.9256 20.2321 22.6153 15.1641 22.6153 15.1641L17.4174 20.9805C16.8617 19.7735 16.2569 19.6686 16.0453 19.6711C15.3252 20.2131 14.8555 21.0373 14.8555 21.9681C14.8555 23.5941 16.2664 24.9189 17.9955 24.9275C18.9642 27.1316 20.9257 28.804 23.307 29.3942C23.3147 29.3959 23.3216 29.3993 23.3294 29.4011V32.0078C23.3294 33.0487 24.1725 33.8918 25.2134 33.8918C26.2544 33.8918 27.1061 33.0487 27.1061 32.0078V29.3925C27.1061 29.3925 27.1112 29.3907 27.1147 29.3899C29.4934 28.8032 31.4437 27.1273 32.4141 24.9275C34.1433 24.9189 35.5541 23.5941 35.5541 21.9681C35.5541 20.9246 34.9674 20.0161 34.0934 19.4905Z" fill="#FFCCA8"/>
<path d="M17.4184 20.9804L22.6163 15.1639C22.6163 15.1639 28.9266 20.2319 33.0912 19.9558C33.1833 19.9498 33.2891 19.9179 33.3932 19.8732C33.6608 19.7226 33.887 19.4542 34.0943 19.4904C34.1021 19.4921 34.1098 19.4861 34.1176 19.4886C34.1976 14.0783 29.5425 9.66064 24.0306 10.2525C19.7911 10.7076 16.3964 14.1531 15.9963 18.3987C15.9559 18.8305 15.9456 19.2572 15.9636 19.6762C15.9636 19.6762 15.9981 19.6719 16.0471 19.671C16.2579 19.6684 16.8627 19.7734 17.4193 20.9804H17.4184Z" fill="#333333"/>
<path d="M22.9931 22.3725C23.4563 22.3725 23.8319 21.9218 23.8319 21.3659C23.8319 20.81 23.4563 20.3594 22.9931 20.3594C22.5298 20.3594 22.1543 20.81 22.1543 21.3659C22.1543 21.9218 22.5298 22.3725 22.9931 22.3725Z" fill="black"/>
<path d="M27.4208 22.3725C27.8841 22.3725 28.2596 21.9218 28.2596 21.3659C28.2596 20.81 27.8841 20.3594 27.4208 20.3594C26.9576 20.3594 26.582 20.81 26.582 21.3659C26.582 21.9218 26.9576 22.3725 27.4208 22.3725Z" fill="black"/>
<path d="M26.2494 25.332C26.4378 25.332 26.572 25.5127 26.5221 25.6951C26.363 26.2723 25.8348 26.6965 25.2067 26.6965C24.5787 26.6965 24.0505 26.2723 23.8914 25.6951C23.8415 25.5136 23.9757 25.332 24.1641 25.332H26.2503H26.2494Z" fill="#5C2F17"/>
<path d="M23.3089 29.3906C20.4424 30.2268 18.3398 32.8731 18.3398 36.0063H19.2432C19.2432 33.3686 20.9586 31.1284 23.3304 30.3309V29.3975C23.3227 29.3958 23.3158 29.3923 23.308 29.3906H23.3089Z" fill="#333333"/>
<path d="M29.3559 39.2314C29.4678 39.3321 29.6123 39.3974 29.7749 39.3974C30.1242 39.3974 30.4072 39.1144 30.4072 38.7651C30.4072 38.4158 30.1242 38.1328 29.7749 38.1328C29.596 38.1328 29.4368 38.2085 29.3215 38.3272C29.2123 38.4408 29.1426 38.5939 29.1426 38.7651C29.1426 38.9518 29.2269 39.1153 29.3559 39.2314Z" fill="#333333"/>
<path d="M32.7343 38.292C32.6233 38.1965 32.4831 38.1328 32.3257 38.1328C31.9764 38.1328 31.6934 38.4158 31.6934 38.7651C31.6934 39.1144 31.9764 39.3974 32.3257 39.3974C32.5012 39.3974 32.6603 39.3252 32.7747 39.2099C32.8874 39.0955 32.958 38.9389 32.958 38.766C32.958 38.575 32.8685 38.4081 32.7343 38.292Z" fill="#333333"/>
<path d="M33.2921 33.0477C32.7432 32.4232 31.9844 32.0016 31.1336 31.9199C31.0132 31.9113 30.8927 31.9027 30.7723 31.9027C29.8518 30.6725 28.5613 29.8036 27.116 29.3906H27.1074V30.3283C28.1208 30.663 29.0396 31.2557 29.7451 32.0713C29.7459 32.0722 29.7477 32.0739 29.7485 32.0747C29.5343 32.1393 29.3313 32.233 29.1369 32.3432C29.124 32.3509 29.1085 32.3543 29.0956 32.3621C28.8908 32.4825 28.6981 32.6253 28.5183 32.7888C28.3781 32.9152 28.2594 33.0606 28.1441 33.2077C27.6778 33.8005 27.4085 34.5343 27.4085 35.2922H28.3118C28.3118 35.1555 28.3325 35.0204 28.3548 34.887C28.3609 34.8509 28.3592 34.8139 28.366 34.7786C28.3755 34.7331 28.3961 34.6918 28.409 34.647C28.4951 34.3347 28.637 34.0405 28.8358 33.7816C28.9252 33.6654 29.019 33.5519 29.1291 33.4512C29.3519 33.2508 29.6066 33.1054 29.875 32.9978C30.2406 32.8516 30.6363 32.7836 31.0476 32.8232C31.5319 32.8697 31.9732 33.0692 32.3354 33.3721C32.56 33.5596 32.7561 33.785 32.9084 34.0422C33.1467 34.4449 33.2843 34.9189 33.2843 35.4213H34.1876C34.1876 34.5171 33.847 33.6792 33.2921 33.0477Z" fill="#333333"/>
<path d="M33.2916 33.0508C33.8465 33.6822 34.1872 34.5202 34.1872 35.4243H33.2856V37.6026C33.2856 37.9424 33.0473 38.2151 32.7324 38.2951C32.8666 38.4113 32.9561 38.5764 32.9561 38.7683C32.9561 38.9421 32.8856 39.0986 32.7729 39.2122C33.5703 39.1055 34.1898 38.4285 34.1898 37.6026V35.4252C34.1898 34.5202 33.8482 33.6822 33.2916 33.0508Z" fill="#9E9794"/>
<path d="M27.4082 35.2928V35.2962V37.5992C27.4082 38.4991 28.1403 39.2303 29.0393 39.2303H29.355C29.226 39.1142 29.1417 38.9507 29.1417 38.7641C29.1417 38.5937 29.2105 38.4406 29.3206 38.3262H29.0393C28.6376 38.3262 28.3115 38.0001 28.3115 37.5984V35.2954C28.3115 35.1569 28.3322 35.0209 28.3545 34.8867C28.3322 35.0201 28.3115 35.1551 28.3115 35.2919H27.4091L27.4082 35.2928Z" fill="#9E9794"/>
<path d="M19.0469 35.325C19.0194 35.3241 18.9927 35.3164 18.9643 35.3164C17.7771 35.3164 16.8145 36.2791 16.8145 37.4663C16.8145 38.6535 17.7771 39.6162 18.9643 39.6162C19.1166 39.6162 19.2637 39.5998 19.4074 39.5697C20.3821 39.3658 21.1151 38.5021 21.1151 37.4663C21.1151 36.3066 20.1954 35.3689 19.0469 35.3241V35.325ZM18.9643 38.6354C18.3191 38.6354 17.796 38.1124 17.796 37.4671C17.796 36.8219 18.3191 36.2989 18.9643 36.2989C19.6095 36.2989 20.1326 36.8219 20.1326 37.4671C20.1326 38.1124 19.6095 38.6354 18.9643 38.6354Z" fill="#9E9794"/>
<path d="M18.9632 38.6373C19.6084 38.6373 20.1315 38.1143 20.1315 37.4691C20.1315 36.8238 19.6084 36.3008 18.9632 36.3008C18.318 36.3008 17.7949 36.8238 17.7949 37.4691C17.7949 38.1143 18.318 38.6373 18.9632 38.6373Z" fill="#D4D4D4"/>
</svg>
