<svg width="712" height="712" viewBox="0 0 712 712" fill="none" xmlns="http://www.w3.org/2000/svg">
<rect width="712" height="712" rx="189.867" fill="#F5DF7A" fill-opacity="0.3"/>
<g clip-path="url(#clip0_1400_9278)">
<path d="M309.106 399.552C309.106 400.332 309.224 401.848 308.875 402.535C307.83 404.385 307.219 407.224 307.615 409.702L311.596 434.47L318.632 464.121C322.634 480.986 327.395 497.244 332.661 513.729L333.575 516.585L336.921 526.347C337.005 526.591 337.413 527.274 337.759 527.316C337.624 528.222 337.814 529.338 338.21 530.514C343.333 545.82 348.843 560.675 355.727 575.639C362.628 560.321 368.181 545.276 373.405 529.73C373.666 528.959 373.603 527.796 373.502 527.198H374.05C374.201 527.181 374.336 526.815 374.442 526.511C380.639 508.244 385.918 490.027 390.839 471.321L399.589 434.996L403.739 410.102C404.185 407.422 403.832 404.718 402.58 402.544V399.78C405.963 399.986 411.891 403.272 414.174 405.282L419.285 409.773C422.672 412.752 424.787 416.383 427.252 420.019C430.028 424.114 432.918 427.83 435.092 432.38C443.809 450.622 446.033 469.551 445.574 489.656C432.413 491.927 426.687 502.122 423.62 514.268L419.731 538.186L419.778 541.88C419.879 549.746 416.108 561.812 428.996 565.625C430.348 567.432 432.269 568.119 434.549 568.266C436.449 568.389 438.395 568.258 439.853 566.956C440.931 565.991 441.669 563.982 441.656 562.292C441.626 558.48 439.044 556.221 435.37 556.251C433.453 556.268 431.595 556.837 429.881 557.511C427.993 557.199 427.041 554.216 427.104 552.375L427.441 542.356L428.082 540.216C429.678 528.917 430.791 512.385 437.22 503.782C440.367 499.573 445.38 497.336 450.609 497.842C459.97 498.743 464.297 507.317 465.611 516.463C466.812 524.822 467.098 533.008 467.275 541.48L467.553 543.662L467.132 554.22C467.056 556.082 465.691 558.4 464.187 558.775C460.918 556.58 456.001 556.348 453.781 558.45C451.569 560.544 451.544 565.456 453.827 567.597C455.024 568.721 456.802 568.999 458.554 569.033C460.753 568.97 462.67 568.486 464.208 567.003C475.752 564.593 475.309 554.132 475.204 543.65L475.646 539.879L474.391 516.965C472.668 504.102 467.465 493.203 454.131 489.85C454.817 465.937 451.139 440.549 438.264 420.601C452.264 424.944 465.876 430.303 478.848 437.423C488.53 442.736 497.116 449.11 504.329 457.502C517.225 472.505 525.107 491.105 526.636 510.911L531.334 571.662C531.755 577.097 528.705 581.605 522.942 581.605H352.833L352.606 580.754C352.525 580.531 351.59 580.72 351.573 580.956L351.557 581.605L188.201 581.596C183.605 581.596 179.792 577.746 180.15 573.103L185.05 509.996C185.804 500.298 188.332 491.493 191.917 482.641C200.04 462.613 214.693 446.81 233.828 436.821C246.139 430.392 258.803 424.995 272.087 421.119C267.52 427.86 264.086 435.085 261.499 443.064C254.999 463.775 254.501 484.453 255.925 506.28C246.547 509.103 240.261 517.727 240.7 527.426C241.129 536.972 247.824 545.251 257.51 547.168C269.209 549.308 279.952 541.223 281.852 529.772C283.727 518.481 276 507.654 264.503 505.733C262.847 482.11 263.859 456.39 274.02 434.971C276.696 429.583 279.737 424.725 284.009 420.436C287.114 414.176 291.867 409.327 297.327 405.21C300.794 402.598 304.801 400.45 309.123 399.544L309.106 399.552Z" fill="#F1F6FA"/>
<path d="M470.367 277.439C476.004 279.579 479.91 284.323 482.037 290.28C485.391 301.849 483.091 314.724 475.402 324.098C468.695 332.275 458.023 335.127 448.148 331.909C441.517 358.337 425.638 378.888 402.681 392.673L402.576 399.78V402.544L400.225 404.878L391.58 413.544C380.736 423.175 368.8 431.201 356.127 437.853L355.352 437.803C340.135 429.928 322.52 417.707 311.078 404.709L308.874 402.531C309.224 401.849 309.106 400.328 309.106 399.548L309.085 392.374C286.587 378.087 270.886 358.097 264.532 331.803C252.361 335.97 239.832 330.603 233.748 319.725C229.88 312.807 228.178 305.089 228.836 297.126C229.725 288.325 233.887 280.531 241.972 277.443C246.762 275.863 251.898 275.939 256.406 278.618C260.547 281.188 263.374 284.988 265.438 289.315L270.292 263.173C302.011 266.889 334.666 263.144 362.544 247.147C376.548 239.113 388.42 228.353 397.288 214.922C406.33 238.102 421.025 255.628 443.404 266.017L447.689 289.353C449.075 286.396 450.604 283.737 452.892 281.441C457.459 276.567 464.258 275.117 470.367 277.434V277.439Z" fill="#FFCCA8"/>
<path d="M470.367 277.438C464.258 275.121 457.463 276.571 452.892 281.445C450.608 283.741 449.075 286.399 447.689 289.357L443.404 266.021C421.025 255.628 406.33 238.106 397.289 214.926C388.424 228.357 376.548 239.117 362.544 247.151C334.666 263.148 302.011 266.893 270.292 263.177L265.438 289.319C263.37 284.992 260.547 281.192 256.406 278.622C251.893 275.943 246.762 275.863 241.972 277.447L240.101 269.636C237.312 258.589 236.053 247.619 236.381 236.117C237.102 210.797 248.624 186.892 266.222 168.899C289.558 145.032 321.463 131.095 354.855 130.034C382.273 129.381 409.367 138.468 426.249 160.645C446.025 164.142 460.808 178.664 469.146 196.511C479.952 220.508 479.029 247.45 471.741 272.416L470.367 277.438Z" fill="#593B27"/>
<path d="M438.247 420.609C451.122 440.557 454.804 465.941 454.114 489.858C467.448 493.212 472.651 504.111 474.374 516.973L475.629 539.887L475.187 543.658C472.811 545.373 469.799 545.204 467.54 543.671L467.262 541.488C467.085 533.012 466.799 524.83 465.598 516.472C464.284 507.325 459.957 498.752 450.596 497.85C445.367 497.345 440.354 499.582 437.207 503.79C430.778 512.393 429.665 528.929 428.069 540.225L427.428 542.365C424.863 543.452 422.267 543.254 419.765 541.884L419.719 538.19L423.607 514.272C426.67 502.126 432.396 491.931 445.561 489.66C446.02 469.556 443.8 450.627 435.079 432.384C432.905 427.834 430.015 424.118 427.239 420.023C424.774 416.387 422.659 412.756 419.272 409.777L414.162 405.286C424.719 405.518 432.703 412.031 438.243 420.609H438.247Z" fill="#344658"/>
<path d="M297.31 405.219C291.85 409.331 287.097 414.184 283.992 420.445C279.72 424.733 276.683 429.591 274.003 434.979C263.842 456.398 262.831 482.119 264.486 505.741C275.984 507.662 283.71 518.49 281.835 529.781C279.935 541.231 269.192 549.32 257.493 547.176C247.807 545.259 241.112 536.981 240.683 527.434C240.249 517.736 246.535 509.111 255.909 506.289C254.485 484.461 254.977 463.784 261.482 443.073C264.069 435.093 267.507 427.864 272.07 421.127C278.216 412.052 285.926 405.648 297.306 405.219H297.31ZM273.308 521.435C271.008 515.945 265.721 512.865 260.088 513.438C254.817 513.973 250.225 517.706 248.797 523.099C247.293 528.778 249.61 534.588 254.291 537.583C259.233 540.743 265.535 540.275 269.917 536.458C274.037 532.864 275.604 526.924 273.308 521.439V521.435Z" fill="#344658"/>
<path d="M352.816 581.614H351.544L351.561 580.965C351.578 580.729 352.509 580.544 352.593 580.763L352.82 581.614H352.816Z" fill="#AFC8E7"/>
<path d="M356.128 437.853L357.826 440.09L372.82 456.096L364.55 472.623L373.494 527.199C373.595 527.797 373.658 528.96 373.397 529.731C368.173 545.277 362.62 560.325 355.719 575.64C348.839 560.675 343.325 545.82 338.201 530.514C337.81 529.339 337.616 528.222 337.751 527.317L346.762 472.547L338.501 456.264L355.344 437.803L356.119 437.853H356.128Z" fill="#3762A0"/>
<path d="M355.348 437.802L338.504 456.264L346.766 472.547L337.754 527.316C337.409 527.274 337 526.591 336.916 526.347L333.571 516.585L332.657 513.729C327.395 497.244 322.63 480.986 318.627 464.121L311.592 434.47L307.61 409.701C307.214 407.224 307.825 404.385 308.87 402.535L311.073 404.713C322.512 417.71 340.131 429.932 355.348 437.806V437.802Z" fill="#AFC8E7"/>
<path d="M373.493 527.198L364.549 472.623L372.819 456.095L357.825 440.09L356.127 437.853C368.8 431.201 380.736 423.175 391.58 413.544L400.225 404.878L402.572 402.544C403.823 404.714 404.177 407.418 403.73 410.102L399.58 434.997L390.83 471.321C385.909 490.027 380.634 508.244 374.433 526.512C374.328 526.815 374.197 527.182 374.041 527.198H373.493Z" fill="#AFC8E7"/>
<path d="M427.433 542.365L427.096 552.383C427.033 554.224 427.985 557.207 429.872 557.519C431.587 556.841 433.441 556.272 435.362 556.259C439.036 556.23 441.614 558.488 441.648 562.301C441.66 563.994 440.923 566.004 439.844 566.965C438.387 568.266 436.44 568.397 434.54 568.275C432.257 568.132 430.34 567.441 428.988 565.633C416.1 561.82 419.871 549.754 419.769 541.889C422.272 543.254 424.871 543.456 427.433 542.369V542.365Z" fill="#AFC8E7"/>
<path d="M475.187 543.658C475.293 554.14 475.735 564.601 464.191 567.011C462.654 568.494 460.741 568.978 458.537 569.042C456.785 569.008 455.007 568.73 453.81 567.605C451.527 565.465 451.552 560.552 453.764 558.458C455.989 556.356 460.905 556.588 464.17 558.783C465.678 558.408 467.044 556.087 467.115 554.229L467.536 543.671C469.795 545.209 472.807 545.373 475.183 543.658H475.187Z" fill="#AFC8E7"/>
<path d="M273.308 521.435C275.604 526.92 274.041 532.86 269.917 536.454C265.54 540.271 259.233 540.739 254.291 537.579C249.61 534.588 247.293 528.774 248.797 523.095C250.301 517.416 254.817 513.974 260.088 513.434C265.721 512.861 271.008 515.937 273.308 521.431V521.435ZM259.662 519.88C255.669 520.853 253.844 524.915 254.868 528.521C255.892 532.127 259.54 533.998 263.126 533.021C266.715 532.043 268.893 528.462 267.941 524.704C267.082 521.304 263.648 518.907 259.662 519.88Z" fill="#AFC8E7"/>
<path d="M259.663 519.88C263.648 518.911 267.082 521.304 267.941 524.704C268.893 528.462 266.715 532.043 263.126 533.021C259.54 533.998 255.846 531.967 254.868 528.521C253.891 525.075 255.669 520.853 259.663 519.88Z" fill="#F1F6FA"/>
<circle cx="321.5" cy="309.5" r="11.5" fill="#3D3835"/>
<circle cx="389.5" cy="309.5" r="11.5" fill="#3D3835"/>
</g>
<defs>
<clipPath id="clip0_1400_9278">
<rect width="403.813" height="451.613" fill="white" transform="translate(154 130)"/>
</clipPath>
</defs>
</svg>
