<svg width="35" height="35" viewBox="0 0 35 35" fill="none" xmlns="http://www.w3.org/2000/svg">
<rect width="35" height="35" rx="17.5" fill="#FFC721"/>
<path d="M6.41406 16.3C6.80173 18.9636 8.13545 21.3987 10.1712 23.1596C12.207 24.9206 14.8087 25.8897 17.5005 25.8897M17.5005 25.8897C20.1922 25.8897 22.7939 24.9206 24.8297 23.1596C26.8655 21.3987 28.1992 18.9636 28.5869 16.3M17.5005 25.8897V31.5M17.5021 3.5C16.229 3.5 15.0081 4.00571 14.1079 4.90589C13.2078 5.80606 12.7021 7.02696 12.7021 8.3V14.7C12.7021 15.973 13.2078 17.1939 14.1079 18.0941C15.0081 18.9943 16.229 19.5 17.5021 19.5C18.7751 19.5 19.996 18.9943 20.8962 18.0941C21.7964 17.1939 22.3021 15.973 22.3021 14.7V8.3C22.3021 7.02696 21.7964 5.80606 20.8962 4.90589C19.996 4.00571 18.7751 3.5 17.5021 3.5Z" stroke="#FFFCF9" stroke-width="2" stroke-linecap="round" stroke-linejoin="round"/>
</svg>
