<svg width="51" height="54" viewBox="0 0 51 54" fill="none" xmlns="http://www.w3.org/2000/svg">
<g clip-path="url(#clip0_508_68307)">
<path d="M16.4068 24.6133C16.9132 24.6133 17.276 24.3358 17.4367 23.9145C17.5974 23.4933 18.0041 23.3083 18.3936 23.3618C18.8149 23.4203 19.1387 23.7782 19.1606 24.2457C19.2166 25.5118 17.7192 26.6513 16.3192 26.5344C15.2089 26.4687 14.2155 25.9184 13.5532 25.0175C12.6231 23.7538 12.4526 22.1566 12.9688 20.6713C10.9942 21.6501 9.43102 23.1743 8.37918 25.0808C7.1642 27.277 6.88906 29.7898 7.53185 32.2222C8.95379 37.535 13.8235 41.1726 19.0486 42.3462C21.3617 39.4999 24.4125 37.2939 27.9698 36.3468C33.2485 34.954 38.3422 36.9798 41.5927 41.2968C42.9951 40.1524 44.3513 38.8839 46.1921 38.9374C47.5726 39.0299 48.5806 40.0964 48.4978 41.4891C48.454 42.2098 48.1911 42.877 47.7869 43.4784C47.317 44.1772 46.8032 44.7932 46.2067 45.4165C42.6202 49.1613 38.011 51.8128 32.9612 53.04C24.9263 54.9927 16.6308 52.9182 10.2418 47.7783C4.31545 43.006 0.62668 35.9548 0.0715389 28.3727C-0.51769 20.3061 2.55506 12.4684 8.4717 6.95595C12.1726 3.50823 16.8305 1.19027 21.856 0.362431C26.8814 -0.465411 32.5181 0.189558 37.3536 2.45638C42.1892 4.72321 46.7107 8.86729 48.9483 13.8782C49.2186 14.482 49.428 15.0566 49.4596 15.7262C49.5302 17.1506 48.6415 18.4021 47.2342 18.7697C45.5907 19.2007 43.7475 18.5068 42.8953 16.968C41.1179 13.754 38.5711 11.0659 35.3206 9.29582C32.0141 7.49648 28.2498 6.69055 24.488 6.9949C19.9909 7.33578 15.8005 9.25199 12.5987 12.4124C9.79868 15.1784 7.91899 18.7673 7.36629 22.6922C10.7629 18.4216 16.2753 16.2521 21.5394 17.9175C24.5416 18.9304 26.9788 21.0195 28.5176 23.8025C29.494 23.8707 30.3779 24.2457 31.0328 24.981C32.3038 26.4102 32.4596 28.4238 31.5076 30.0454C31.8607 31.5502 31.9045 33.0354 31.622 34.5182L29.9518 34.5718C30.2123 32.9818 30.1125 31.4625 29.6718 29.9188C30.3243 28.9473 30.4947 27.7348 29.9371 26.7048C29.4575 25.8161 28.6029 25.3243 27.6021 25.3681C25.4985 21.1145 21.3763 18.6188 16.6746 19.4344C16.0197 19.7705 15.4621 20.1746 15.0701 20.7833C14.5174 21.6477 14.3883 22.719 14.8753 23.6199C15.187 24.1945 15.7299 24.6109 16.4044 24.6109L16.4068 24.6133Z" fill="#FFFCF9"/>
<path d="M44.0849 35.1559H42.0981C41.224 35.0951 40.4789 34.4328 40.4741 33.5124L40.4619 30.6052L37.7544 30.5931C36.8169 30.5882 36.1401 29.7969 36.1133 28.9033V27.1478C36.1303 26.1982 36.8486 25.4142 37.825 25.4118L40.4668 25.3996V22.6604C40.4716 21.7084 41.2313 20.9852 42.1517 20.9414H43.9948C44.9006 21.012 45.6383 21.6719 45.6432 22.6093L45.6578 25.3996L48.3288 25.4142C49.2589 25.4191 49.9748 26.1398 50.0259 27.0528V28.9861C49.9577 29.8797 49.2565 30.5955 48.3361 30.5979L45.6602 30.6077L45.6481 33.4978C45.6432 34.3817 44.9614 35.0391 44.0922 35.1559H44.0849Z" fill="#FFFCF9"/>
<path d="M14.6884 35.1262C14.4351 34.9363 14.496 34.554 14.6275 34.3982C14.8272 34.1595 15.1072 34.1912 15.3653 34.3324C15.8863 34.6173 16.5242 34.6368 17.0696 34.3251C18.197 33.6823 17.6491 32.4795 18.421 32.5063C18.7302 32.516 18.925 32.7741 18.9128 33.1053C18.8738 34.0889 18.27 34.929 17.4568 35.3331C16.5559 35.7811 15.5089 35.7398 14.6884 35.1262Z" fill="#FFFCF9"/>
<path d="M23.0319 30.9627C22.8152 30.8239 22.8419 30.4709 22.932 30.3297C23.2973 29.7623 24.074 30.7095 25.026 30.0545C25.978 29.3996 25.4107 28.3672 26.1119 28.3672C26.3627 28.3672 26.5794 28.5644 26.5965 28.8444C26.6525 29.7185 26.1996 30.5123 25.5105 30.9408C24.7582 31.4083 23.8232 31.4643 23.0319 30.9651V30.9627Z" fill="#FFFCF9"/>
</g>
<defs>
<clipPath id="clip0_508_68307">
<rect width="50.0211" height="53.7659" fill="white"/>
</clipPath>
</defs>
</svg>
