<svg width="22" height="22" viewBox="0 0 22 22" fill="none" xmlns="http://www.w3.org/2000/svg">
<path d="M12.375 18.3252C11.2827 16.141 9.62875 14.4766 8.21875 13.3486C7.51785 12.788 6.88744 12.3683 6.43652 12.0908C6.21156 11.9524 6.03152 11.8496 5.91113 11.7832C5.8512 11.7501 5.80601 11.725 5.77734 11.71C5.76338 11.7026 5.75288 11.6973 5.74707 11.6943C5.74524 11.6935 5.74308 11.6928 5.74219 11.6924L5.74219 9.7002L5.74316 9.7002C5.74409 9.69973 5.74544 9.69817 5.74707 9.69727C5.75293 9.69426 5.76327 9.68902 5.77734 9.68164C5.80606 9.66658 5.85106 9.64154 5.91113 9.6084C6.03158 9.54194 6.2114 9.43932 6.43652 9.30078C6.88751 9.02325 7.51771 8.60379 8.21875 8.04297C9.62883 6.91489 11.2827 5.25084 12.375 3.06641L14.3691 4.0625C13.0844 6.63215 11.1725 8.53422 9.61133 9.7832C9.16858 10.1374 8.74971 10.4413 8.37695 10.6963C8.7495 10.9512 9.16888 11.2545 9.61133 11.6084C11.1724 12.8573 13.0844 14.7597 14.3691 17.3291L12.375 18.3252Z" fill="#1D160C"/>
</svg>
