<svg width="22" height="22" viewBox="0 0 22 22" fill="none" xmlns="http://www.w3.org/2000/svg">
<path d="M9.01953 18.3252C10.1118 16.141 11.7658 14.4766 13.1758 13.3486C13.8767 12.788 14.5071 12.3683 14.958 12.0908C15.183 11.9524 15.363 11.8496 15.4834 11.7832C15.5433 11.7501 15.5885 11.725 15.6172 11.71C15.6311 11.7026 15.6417 11.6973 15.6475 11.6943C15.6493 11.6935 15.6515 11.6928 15.6523 11.6924L15.6523 9.7002L15.6514 9.7002C15.6504 9.69973 15.6491 9.69817 15.6475 9.69727C15.6416 9.69426 15.6313 9.68902 15.6172 9.68164C15.5885 9.66658 15.5435 9.64154 15.4834 9.6084C15.3629 9.54194 15.1831 9.43932 14.958 9.30078C14.507 9.02325 13.8768 8.60379 13.1758 8.04297C11.7657 6.91489 10.1118 5.25084 9.01953 3.06641L7.02539 4.0625C8.31018 6.63215 10.222 8.53422 11.7832 9.7832C12.226 10.1374 12.6448 10.4413 13.0176 10.6963C12.645 10.9512 12.2257 11.2545 11.7832 11.6084C10.2221 12.8573 8.31018 14.7597 7.02539 17.3291L9.01953 18.3252Z" fill="#1D160C"/>
</svg>
