<svg width="40" height="40" viewBox="0 0 40 40" fill="none" xmlns="http://www.w3.org/2000/svg">
<g clip-path="url(#clip0_508_50595)">
<path d="M33.091 4.79883H6.909C5.302 4.79883 4 6.10083 4 7.70783V32.9198C4 34.5268 5.302 35.8288 6.909 35.8288H28.242L36 28.0708V7.70783C36 6.10083 34.698 4.79883 33.091 4.79883Z" fill="#F0F2F5"/>
<path d="M11 19.4531C11 19.0001 11.233 18.5781 11.618 18.3381L14.627 16.4561C14.934 16.2641 15.289 16.1621 15.651 16.1621C16.717 16.1621 17.582 17.0261 17.582 18.0931V29.2471C17.582 30.1261 16.869 30.8391 15.99 30.8391C15.111 30.8391 14.398 30.1261 14.398 29.2471V19.7151L13.008 20.5731C12.132 21.1141 11.002 20.4841 11.002 19.4541L11 19.4531Z" fill="#E28702"/>
<path d="M19.2344 17.6465C19.2344 16.9335 19.8124 16.3555 20.5254 16.3555H27.8384C28.4794 16.3555 28.9994 16.8755 28.9994 17.5165C28.9994 18.2625 28.8464 18.9995 28.5484 19.6835L24.1244 29.8615C23.8664 30.4545 23.2814 30.8385 22.6344 30.8385C21.4564 30.8385 20.6704 29.6255 21.1504 28.5505L25.4474 18.9385H20.5264C19.8134 18.9385 19.2354 18.3605 19.2354 17.6475L19.2344 17.6465Z" fill="#E28702"/>
<path d="M6.909 4.79883H33.091C34.697 4.79883 36 6.10283 36 7.70783V12.3938H4V7.70783C4 6.10183 5.304 4.79883 6.909 4.79883Z" fill="#FFC721"/>
<path d="M10.3038 7.223C9.6348 7.223 9.0918 6.681 9.0918 6.011V3.587C9.0918 2.917 9.6338 2.375 10.3038 2.375C10.9738 2.375 11.5158 2.917 11.5158 3.587V6.011C11.5158 6.681 10.9738 7.223 10.3038 7.223Z" fill="#4B596A"/>
<path d="M29.6964 7.223C29.0274 7.223 28.4844 6.681 28.4844 6.011V3.587C28.4844 2.917 29.0264 2.375 29.6964 2.375C30.3664 2.375 30.9084 2.917 30.9084 3.587V6.011C30.9084 6.681 30.3664 7.223 29.6964 7.223Z" fill="#4B596A"/>
<path fill-rule="evenodd" clip-rule="evenodd" d="M30.1822 28.0723H36.0002L28.2422 35.8303V30.0123C28.2422 28.9413 29.1102 28.0733 30.1812 28.0733L30.1822 28.0723Z" fill="#CFD2DA"/>
</g>
<defs>
<clipPath id="clip0_508_50595">
<rect width="40" height="40" fill="white"/>
</clipPath>
</defs>
</svg>
