<svg width="545" height="545" viewBox="0 0 545 545" fill="none" xmlns="http://www.w3.org/2000/svg">
<path fill-rule="evenodd" clip-rule="evenodd" d="M136.25 0C146.575 0 156.476 4.10139 163.777 11.4019C171.077 18.7024 175.179 28.6041 175.179 38.9286V77.8572H369.822V38.9286C369.822 28.6041 373.923 18.7024 381.223 11.4019C388.524 4.10139 398.426 0 408.75 0C419.075 0 428.976 4.10139 436.277 11.4019C443.577 18.7024 447.679 28.6041 447.679 38.9286V77.8572H486.607C502.094 77.8572 516.946 84.0093 527.897 94.9601C538.848 105.911 545 120.763 545 136.25V175.179H0V136.25C0 120.763 6.15209 105.911 17.1029 94.9601C28.0537 84.0093 42.9061 77.8572 58.3929 77.8572H97.3215V38.9286C97.3215 28.6041 101.423 18.7024 108.723 11.4019C116.024 4.10139 125.926 0 136.25 0Z" fill="#FFC721"/>
<path d="M0 175.179H545V486.607C545 502.094 538.848 516.947 527.897 527.897C516.947 538.848 502.094 545 486.607 545H58.3929C42.9061 545 28.0537 538.848 17.1029 527.897C6.15209 516.947 0 502.094 0 486.607L0 175.179Z" fill="#F0F2F5"/>
</svg>
