<svg width="14" height="14" viewBox="0 0 14 14" fill="none" xmlns="http://www.w3.org/2000/svg">
<path fill-rule="evenodd" clip-rule="evenodd" d="M7.0013 12.8346C10.2231 12.8346 12.8346 10.2231 12.8346 7.0013C12.8346 3.77955 10.2231 1.16797 7.0013 1.16797C3.77955 1.16797 1.16797 3.77955 1.16797 7.0013C1.16797 10.2231 3.77955 12.8346 7.0013 12.8346ZM9.37314 4.62947C9.45507 4.7115 9.50108 4.8227 9.50108 4.93864C9.50108 5.05457 9.45507 5.16577 9.37314 5.2478L7.61964 7.0013L9.37255 8.75422C9.44983 8.83715 9.4919 8.94685 9.4899 9.06019C9.4879 9.17353 9.44199 9.28167 9.36183 9.36183C9.28167 9.44199 9.17353 9.4879 9.06019 9.4899C8.94685 9.4919 8.83715 9.44983 8.75422 9.37255L7.0013 7.6208L5.24839 9.37372C5.20833 9.4167 5.16003 9.45118 5.10637 9.47509C5.0527 9.499 4.99477 9.51186 4.93602 9.5129C4.87728 9.51393 4.81893 9.50313 4.76445 9.48112C4.70998 9.45912 4.66049 9.42637 4.61895 9.38482C4.5774 9.34328 4.54465 9.29379 4.52265 9.23932C4.50064 9.18484 4.48984 9.12649 4.49087 9.06775C4.49191 9.009 4.50477 8.95107 4.52868 8.89741C4.55259 8.84374 4.58707 8.79544 4.63005 8.75539L6.3818 7.0013L4.62947 5.24839C4.58649 5.20833 4.55201 5.16003 4.5281 5.10637C4.50418 5.0527 4.49133 4.99477 4.49029 4.93602C4.48925 4.87728 4.50006 4.81893 4.52206 4.76445C4.54407 4.70998 4.57682 4.66049 4.61836 4.61895C4.65991 4.5774 4.70939 4.54465 4.76387 4.52265C4.81835 4.50064 4.8767 4.48984 4.93544 4.49087C4.99418 4.49191 5.05212 4.50477 5.10578 4.52868C5.15945 4.55259 5.20775 4.58707 5.2478 4.63005L7.0013 6.3818L8.75422 4.62889C8.83625 4.54696 8.94745 4.50094 9.06339 4.50094C9.17932 4.50094 9.29052 4.54696 9.37255 4.62889" fill="#B9B2A6"/>
</svg>
