<svg width="9" height="9" viewBox="0 0 9 9" fill="none" xmlns="http://www.w3.org/2000/svg">
<path d="M2.91094 3.83906C2.47031 3.39844 2.25 2.86875 2.25 2.25C2.25 1.63125 2.47031 1.10156 2.91094 0.660938C3.35156 0.220313 3.88125 0 4.5 0C5.11875 0 5.64844 0.220313 6.08906 0.660938C6.52969 1.10156 6.75 1.63125 6.75 2.25C6.75 2.86875 6.52969 3.39844 6.08906 3.83906C5.64844 4.27969 5.11875 4.5 4.5 4.5C3.88125 4.5 3.35156 4.27969 2.91094 3.83906ZM0 7.875V7.425C0 7.10625 0.0821251 6.81337 0.246375 6.54637C0.410625 6.27937 0.6285 6.07537 0.9 5.93437C1.48125 5.64375 2.07187 5.42587 2.67187 5.28075C3.27187 5.13562 3.88125 5.06287 4.5 5.0625C5.11875 5.06212 5.72812 5.13487 6.32812 5.28075C6.92812 5.42662 7.51875 5.6445 8.1 5.93437C8.37187 6.075 8.58994 6.279 8.75419 6.54637C8.91844 6.81375 9.00037 7.10662 9 7.425V7.875C9 8.18437 8.88994 8.44931 8.66981 8.66981C8.44969 8.89031 8.18475 9.00037 7.875 9H1.125C0.815625 9 0.550875 8.88994 0.33075 8.66981C0.110625 8.44969 0.000375 8.18475 0 7.875Z" fill="#AB4C0A"/>
</svg>
