<svg width="155" height="33" viewBox="0 0 155 33" fill="none" xmlns="http://www.w3.org/2000/svg">
<path d="M114.899 30.7675C111.586 32.1193 108.235 32.7418 104.732 32.9901L98.3977 32.9996C94.6976 32.7512 91.0948 32.091 87.687 30.5977C86.0145 29.8652 85.4707 27.6961 86.0994 26.1619C86.7627 24.5397 88.649 23.4394 90.4158 24.0776C92.8459 24.9579 95.2257 25.6086 97.7659 25.7784L97.747 22.3423C92.5095 21.833 87.6618 18.3497 87.621 13.0682L87.5581 4.70583C87.5613 2.4832 89.3563 0.73842 91.5224 0.829588C93.6601 0.920757 95.3986 2.76614 95.2006 5.07679H107.801C107.647 2.80386 109.263 1.07166 111.309 0.892463C113.356 0.71327 115.258 2.31658 115.405 4.55493L115.349 12.9047C115.314 18.1705 110.539 21.9336 105.279 22.3643L105.292 25.7941C107.71 25.552 109.954 25.0333 112.193 24.1499C114.019 23.43 116.031 24.304 116.789 26.0645C117.546 27.825 116.826 29.9753 114.899 30.7612V30.7675ZM107.763 12.2162H95.2823C95.3043 13.5995 96.1091 14.6181 97.3477 15.1336C100.859 16.5955 107.445 16.2717 107.763 12.2162Z" fill="#FFC721"/>
<path d="M141.485 29.1146C137.273 30.9568 132.491 31.2146 128.068 30.2306C124.512 29.4384 121.9 26.5681 121.896 23.044V18.7654C121.89 15.7694 124.569 13.2261 127.631 13.2041L133.752 13.1569C134.456 13.1506 134.946 12.6791 135.081 12.1195C135.188 11.6919 134.99 10.6576 134.365 10.6545L125.414 10.6042C123.522 10.5947 122.063 9.03545 121.981 7.25923C121.9 5.48301 123.145 3.58104 125.119 3.56533L134.519 3.48673C138.244 3.45529 141.68 5.25666 142.334 9.01973C142.655 10.8588 142.636 12.7514 142.259 14.5716C141.447 18.4824 138.285 19.8971 134.424 19.9034L129.715 19.9097C129.445 20.2901 129.344 20.8245 129.335 21.2929C129.313 22.4435 129.916 23.3206 131.064 23.5438C133.516 24.0186 136.021 23.6665 138.341 22.6825C140.165 21.9091 142.189 22.5127 143.12 24.2606C143.953 25.8262 143.456 28.2532 141.473 29.1209L141.485 29.1146Z" fill="#FFC721"/>
<path d="M60.4951 27.6987C53.9561 29.4938 47.0964 25.9413 45.3862 19.5721C44.3205 15.6078 45.3108 11.7913 47.8635 8.84248C50.6677 5.60756 54.83 4.22431 59.0395 4.85306C64.5222 5.67043 68.6563 10.1597 69.0461 15.5638C69.4453 21.0779 65.9463 26.2023 60.4951 27.6987ZM61.2339 14.4792C60.1147 12.1906 57.5494 11.3418 55.3865 12.1937C53.2236 13.0457 51.8844 15.4444 52.6294 17.8085C53.4468 20.4052 56.2982 21.6753 58.7409 20.7038C61.1836 19.7324 62.4316 16.9251 61.2339 14.4792Z" fill="#FFC721"/>
<path d="M2.7076 23.8489C-0.310401 20.2996 -0.835407 15.3105 1.28348 11.2456C3.40237 7.18078 7.64328 4.59661 12.2992 4.69407C18.9859 4.83554 24.1637 10.488 23.7896 16.9924C23.406 23.6572 17.6876 28.662 10.9631 28.049C7.74703 27.7566 4.88307 26.4017 2.71074 23.8458L2.7076 23.8489ZM13.6478 20.6392C15.4869 19.8815 16.4835 18.1619 16.4678 16.3417C16.4521 14.5749 15.3958 12.9181 13.695 12.2076C11.7302 11.384 9.63328 12.1039 8.40093 13.6915C7.16858 15.2791 7.16543 17.5426 8.38835 19.1585C9.61127 20.7743 11.6799 21.4503 13.6478 20.6423V20.6392Z" fill="#FFB521"/>
<path d="M34.5193 17.9865L34.4627 27.9019C34.4501 29.9956 32.6173 31.4638 30.709 31.4795C28.8008 31.4952 26.8454 30.0396 26.8422 27.8799L26.8359 3.62587C26.8359 1.52585 28.719 0.0482837 30.5518 0.00112746C32.3847 -0.0460288 34.4281 1.39066 34.4501 3.44353L34.5193 10.759" fill="#FFC721"/>
<path d="M154.838 27.4148C154.838 29.6626 152.873 31.1213 150.946 31.071C149.019 31.0207 147.252 29.4488 147.249 27.2891L147.227 4.45287C147.227 2.27739 148.582 0.645786 150.666 0.42258C152.599 0.218236 154.828 1.57634 154.831 3.82412L154.838 27.4117V27.4148Z" fill="#FFC721"/>
<path d="M29.1191 14.9179C31.9108 15.6095 33.272 14.4086 35.064 12.667C36.3309 11.4346 38.0002 10.8027 39.7167 11.1705C41.4332 11.5384 42.6907 12.7078 43.1748 14.1037C43.7847 15.8673 43.3792 17.6215 42.1123 18.9167C40.6064 20.4572 38.2234 20.891 36.3592 19.8158L34.1554 18.5458C32.6967 17.7032 31.0525 17.4046 29.4147 18.1717C29.6662 17.0305 29.6316 16.1911 29.1223 14.9179H29.1191Z" fill="#FFC721"/>
<path d="M16.6582 16.3887H23.8156V24.5837C23.8156 26.5601 22.2134 28.1624 20.2369 28.1624C18.2604 28.1624 16.6582 26.5601 16.6582 24.5837V16.3887Z" fill="#FFB521"/>
<rect x="73.3809" y="6.25391" width="7.56679" height="24.8038" rx="3.78339" fill="#FFB521"/>
<circle cx="77.1643" cy="4.09199" r="3.78339" fill="#FFB521"/>
</svg>
