<svg width="9" height="9" viewBox="0 0 9 9" fill="none" xmlns="http://www.w3.org/2000/svg">
<path fill-rule="evenodd" clip-rule="evenodd" d="M7.99731 4.35616C8.46893 3.86185 8.72486 3.20043 8.70881 2.51742C8.69276 1.83441 8.40604 1.18575 7.91172 0.714132C7.41741 0.242518 6.75599 -0.013414 6.07298 0.00263738C5.38997 0.0186888 4.7413 0.305409 4.26969 0.799722L0.713091 4.52695C0.241425 5.02128 -0.0145505 5.68274 0.00147797 6.3658C0.0175065 7.04887 0.304226 7.69759 0.79856 8.16926C1.29289 8.64092 1.95435 8.8969 2.63742 8.88087C3.32048 8.86484 3.9692 8.57812 4.44087 8.08379L7.99731 4.35616ZM5.87278 5.33868L7.37606 3.76326C7.68512 3.43275 7.85125 2.99361 7.83834 2.54129C7.82542 2.08898 7.63451 1.66003 7.30709 1.34769C6.97966 1.03535 6.5422 0.864864 6.08977 0.873277C5.63735 0.88169 5.20653 1.06833 4.89095 1.39262L3.38767 2.96804L5.87278 5.33868Z" fill="#AB4C0A"/>
</svg>
