<svg width="7" height="10" viewBox="0 0 7 10" fill="none" xmlns="http://www.w3.org/2000/svg">
<path d="M7 3.5C7 3.04037 6.90947 2.58525 6.73358 2.16061C6.55769 1.73597 6.29988 1.35013 5.97487 1.02513C5.64987 0.700121 5.26403 0.442313 4.83939 0.266422C4.41475 0.0905301 3.95963 0 3.5 0C3.04037 0 2.58525 0.0905301 2.16061 0.266422C1.73597 0.442313 1.35013 0.700121 1.02513 1.02513C0.700121 1.35013 0.442313 1.73597 0.266422 2.16061C0.0905301 2.58525 -6.84897e-09 3.04037 0 3.5C0 4.1935 0.2045 4.8385 0.5525 5.3825H0.5485L3.5 10L6.4515 5.3825H6.448C6.80846 4.8208 7.00005 4.16741 7 3.5ZM3.5 5C3.10218 5 2.72064 4.84196 2.43934 4.56066C2.15804 4.27936 2 3.89782 2 3.5C2 3.10218 2.15804 2.72064 2.43934 2.43934C2.72064 2.15804 3.10218 2 3.5 2C3.89782 2 4.27936 2.15804 4.56066 2.43934C4.84196 2.72064 5 3.10218 5 3.5C5 3.89782 4.84196 4.27936 4.56066 4.56066C4.27936 4.84196 3.89782 5 3.5 5Z" fill="#AB4C0A"/>
</svg>
