<svg width="46" height="46" viewBox="0 0 46 46" fill="none" xmlns="http://www.w3.org/2000/svg">
<g clip-path="url(#clip0_508_17531)">
<path d="M7.17969 13.0156L8.20894 39.2172C8.28254 41.0791 9.81319 42.5511 11.6762 42.5511H34.7118C36.5748 42.5511 38.1055 41.0791 38.1791 39.2172L39.2083 13.0156H7.17969Z" fill="#6B7683"/>
<path d="M7.38672 18.3672L8.20552 39.2178C8.27912 41.0797 9.80977 42.5517 11.6728 42.5517H34.7084C36.5714 42.5517 38.1021 41.0797 38.1757 39.2178L38.9945 18.3672H7.38672Z" fill="#8A94A0"/>
<path d="M19.2086 34.6434C18.4381 34.6434 17.8125 34.0189 17.8125 33.2473V23.5953C17.8125 22.8237 18.4381 22.1992 19.2086 22.1992C19.9791 22.1992 20.6047 22.8237 20.6047 23.5953V33.2473C20.6047 34.0189 19.9791 34.6434 19.2086 34.6434Z" fill="#4B596A"/>
<path d="M27.1774 34.6434C26.4069 34.6434 25.7812 34.0189 25.7812 33.2473V23.5953C25.7812 22.8237 26.4069 22.1992 27.1774 22.1992C27.9479 22.1992 28.5735 22.8237 28.5735 23.5953V33.2473C28.5735 34.0189 27.9479 34.6434 27.1774 34.6434Z" fill="#4B596A"/>
<path d="M31.0479 10.5233C30.2774 10.5233 29.6518 9.89884 29.6518 9.12719V7.30559C29.6518 5.94974 28.5489 4.84574 27.1931 4.84574H19.204C17.8482 4.84574 16.7453 5.94974 16.7453 7.30559V9.12719C16.7453 9.89884 16.1197 10.5233 15.3492 10.5233C14.5787 10.5233 13.9531 9.89884 13.9531 9.12719V7.30559C13.9531 4.40874 16.3095 2.05469 19.2052 2.05469H27.1942C30.0899 2.05469 32.4463 4.40989 32.4463 7.30559V9.12719C32.4463 9.89884 31.8207 10.5233 31.0502 10.5233H31.0479Z" fill="#4B596A"/>
<path d="M39.5796 9.12109H6.42285C5.46444 9.12109 4.6875 9.89804 4.6875 10.8564V13.1691C4.6875 14.1275 5.46444 14.9044 6.42285 14.9044H39.5796C40.5381 14.9044 41.315 14.1275 41.315 13.1691V10.8564C41.315 9.89804 40.5381 9.12109 39.5796 9.12109Z" fill="#8A94A0"/>
</g>
<defs>
<clipPath id="clip0_508_17531">
<rect width="46" height="46" fill="white"/>
</clipPath>
</defs>
</svg>
