<svg width="47" height="47" viewBox="0 0 47 47" fill="none" xmlns="http://www.w3.org/2000/svg">
<g opacity="0.3" clip-path="url(#clip0_648_21621)">
<path d="M46.0795 38.2041V46.5084C46.0795 46.5277 46.0423 46.5421 45.9988 46.5496H40.5735L-0.546875 46.5492L-0.546503 0L46.0576 0.00222725L46.0795 0.0393481H-0.511924L-0.508949 38.4479L0.854159 37.4828C2.21987 36.6027 3.66441 35.8918 5.20041 35.3361C5.12977 35.0091 5.09667 34.6891 5.08775 34.3461C5.17885 32.6352 6.18872 31.2328 7.62173 30.2988C6.48581 28.55 6.39137 26.3198 7.5325 24.5584C6.62859 20.9818 6.97959 17.3006 8.67623 14.0276C10.0174 11.4303 12.0531 9.25497 14.5514 7.73339C15.7662 6.99357 17.043 6.39815 18.4065 5.9824C22.2593 4.80752 26.5193 5.17725 30.071 7.08118C33.8584 9.08273 36.4831 12.6976 37.4428 16.8718C38.3184 17.2155 39.0271 17.8243 39.5428 18.6213C40.0965 19.4688 40.3746 20.4276 40.4252 21.4455C40.4691 23.0064 39.8946 24.4912 38.8401 25.6379C38.7252 26.5448 38.5214 27.4019 38.1812 28.2404L37.7626 29.272C40.1088 30.2052 41.5276 32.5298 40.8602 35.0057C42.726 35.7749 44.4111 36.8109 45.9152 38.1001L46.0788 38.2044L46.0795 38.2041ZM14.4231 31.0865C14.435 31.1845 14.5072 31.2179 14.5589 31.281C14.879 31.6715 15.0549 32.1392 15.1917 32.6203C16.8768 32.1879 18.5467 31.9273 20.2619 31.7925C23.7753 31.5164 27.2845 31.7747 30.718 32.5112L30.9013 32.0257L31.0998 31.6288C31.8773 30.0757 33.8666 28.9268 35.6283 28.9294C36.3563 27.5251 36.856 26.1097 36.9211 24.5547C37.3937 24.2195 37.7347 23.8026 37.9864 23.2974C38.5263 22.248 38.514 21.0279 37.9433 19.9926C37.4815 19.1551 36.6426 18.6503 35.671 18.5775C35.252 15.8094 34.1105 13.336 32.1659 11.2937C30.3071 9.39158 27.8813 8.0968 25.2477 7.67585C24.494 7.55521 23.7675 7.46612 23.0093 7.5463C21.548 7.70072 20.3039 8.75496 19.8707 10.1429C19.5621 11.1322 19.7618 12.1846 20.4352 12.9515C21.1576 13.7748 22.3668 13.7358 22.7267 13.0807C22.9706 12.6371 23.4231 12.3776 23.9247 12.4915C24.3706 12.5929 24.7171 13.0068 24.7219 13.5057C24.7253 13.8565 24.5829 14.1727 24.3676 14.4593C23.7812 15.2392 22.8479 15.6851 21.8559 15.691C19.5677 15.7044 17.9302 13.6931 17.7584 11.4774C17.6707 10.3434 17.9484 9.26537 18.5247 8.25717C16.4031 8.88896 14.4778 10.1084 12.9392 11.6467C10.8514 13.7344 9.50465 16.4549 9.17893 19.396C8.96774 21.3048 9.20087 23.2035 9.80471 25.0558C9.00008 25.7121 8.60781 26.7155 8.77588 27.7504C8.88222 28.4064 9.15402 29.0055 9.62586 29.4766C11.4467 29.1339 13.2668 29.6488 14.4231 31.0869V31.0865ZM38.1794 36.3699C39.3926 35.7066 39.9429 34.3227 39.5046 33.0064C39.2037 32.1044 38.5676 31.3875 37.7347 30.9206C36.2771 30.1035 34.4771 30.2409 33.1832 31.3018L32.7243 31.7654C31.7502 32.9006 31.7963 34.5528 32.8366 35.632C34.1376 36.9817 36.5393 37.2668 38.1797 36.3699H38.1794ZM13.4493 35.3053C14.0539 34.4333 14.0989 33.3457 13.5538 32.4236C13.0504 31.5713 12.1572 31.0249 11.1663 30.8853C9.72514 30.6823 8.29139 31.2242 7.34919 32.3241C6.99038 32.7428 6.74646 33.215 6.61818 33.7484C6.3408 34.9025 6.88032 36.0555 7.93295 36.603C8.3334 36.8113 8.76323 36.9308 9.22504 36.9813C10.7997 37.1535 12.5283 36.6331 13.4493 35.3053Z" fill="#FBF9F8"/>
<path d="M15.7225 26.9579C15.4916 26.7151 15.5281 26.3528 15.7203 26.1338C15.8995 25.9297 16.265 25.8432 16.5 26.0436C16.886 26.3725 17.353 26.5744 17.8628 26.5143C18.625 26.4245 19.2396 25.9334 19.4601 25.2028C19.5516 24.8999 19.8859 24.7332 20.1755 24.8127C20.4429 24.8862 20.692 25.1969 20.6053 25.5165C20.2134 26.9605 18.7723 27.8974 17.2824 27.7074C16.6889 27.6316 16.1368 27.3937 15.7222 26.9575L15.7225 26.9579Z" fill="#FBF9F8"/>
<path d="M27.5119 24.5729C27.2658 24.3427 27.2899 23.9745 27.4773 23.7451C27.6462 23.5383 28.0232 23.4366 28.2638 23.6482C28.7601 24.0836 29.4086 24.2135 30.0325 23.9648C30.588 23.7436 30.9996 23.3089 31.1789 22.7331C31.2726 22.4317 31.6061 22.287 31.8842 22.3608C32.1623 22.4347 32.3765 22.7576 32.2932 23.0765C32.059 23.9722 31.383 24.6909 30.5293 25.0562C29.5142 25.4905 28.3273 25.3349 27.5119 24.5732V24.5729Z" fill="#FBF9F8"/>
</g>
<defs>
<clipPath id="clip0_648_21621">
<rect width="46.6268" height="46.5496" fill="white" transform="translate(-0.546875)"/>
</clipPath>
</defs>
</svg>
