<svg width="122" height="79" viewBox="0 0 122 79" fill="none" xmlns="http://www.w3.org/2000/svg">
<path d="M43.9418 3.80326L43.956 20.8641L43.9619 24.3612L42.0881 24.4487L43.9655 24.5338L43.8792 57.666L53.6185 57.6624C53.5369 57.4236 53.4186 57.1056 53.4198 56.8006L53.4364 44.6342C53.4364 43.7972 54.277 43.1729 55.075 43.1729L61.5879 43.1753H63.0172L70.0799 43.1942C70.885 43.1966 71.5471 43.9757 71.5471 44.743L71.5554 56.7982C71.5554 57.1269 71.443 57.4307 71.2397 57.6648H80.5498L80.5593 47.9184L80.5711 24.6177C81.0203 24.3706 81.7592 24.6331 81.8385 24.5101L81.9082 24.3068L80.5628 24.3553L80.5805 20.8428V3.85528L79.5236 3.65666L44.3414 3.6543L43.943 3.80326H43.9418ZM60.5795 24.1259C60.2827 24.1247 59.8346 23.6069 59.8335 23.3409L59.8146 19.2847L56.0243 19.2752C55.5384 19.274 55.1672 18.852 55.0939 18.3779L55.0868 14.7059C55.0738 14.2448 55.4497 13.7352 55.9581 13.7317L59.8323 13.7104L59.8276 10.1022C59.8276 9.57021 60.2177 9.18126 60.7556 9.16116L64.3059 9.15288C64.9336 9.13278 65.3604 9.61041 65.3604 10.2169L65.3581 13.708L69.1235 13.7175C69.6319 13.7187 70.0279 14.1289 70.035 14.616L70.0314 18.58C69.9345 18.8768 69.5846 19.2728 69.2606 19.2728L65.3592 19.2799V23.231C65.3592 23.7523 64.9313 24.1425 64.4276 24.1425L60.5806 24.1259H60.5795ZM66.668 37.4769C66.1123 37.2925 65.9563 36.861 65.9563 36.3538L65.9586 31.5031C65.9586 31.0136 66.2861 30.5987 66.7921 30.5975L71.3946 30.5892C71.9502 30.5892 72.416 30.9226 72.4148 31.5161L72.3947 36.777C72.3924 37.2972 71.8048 37.4852 71.404 37.484L66.6692 37.4781L66.668 37.4769ZM52.8394 37.4734C52.37 37.3587 52.1265 37.0194 52.1265 36.5891L52.1312 31.5031C52.1312 30.9581 52.5426 30.5939 53.0782 30.5939H57.6759C58.1606 30.5939 58.5295 30.9226 58.5969 31.4073L58.5898 36.5772C58.5898 37.1128 58.2103 37.4982 57.67 37.4958L52.8394 37.4734Z" fill="#FFFCF9"/>
<path d="M53.6172 57.6633L43.8779 57.6668H41.199H35.7394H10.2729L8.41793 57.6645C5.18688 57.6621 1.57278 58.6646 0.392906 61.8508C-0.987946 65.576 1.44865 68.9253 4.93861 70.7708C6.66349 71.6823 8.4203 72.4625 10.3213 72.9366L17.2351 74.6627C22.5386 75.7456 27.7948 76.4112 33.2071 76.8817L47.2119 77.7471C46.5131 73.9876 49.3446 71.2519 52.5674 69.54C54.2355 68.6546 55.8978 67.8896 57.7219 67.3683L63.8743 65.6127C65.3178 65.2012 67.3844 64.616 67.4979 63.3558C67.5984 62.2326 65.8262 61.3601 64.6132 60.7265L57.5434 57.8737C57.4749 57.8714 57.32 57.8666 57.2987 57.8347L57.1757 57.6621H53.6149L53.6172 57.6633Z" fill="#F5DF7A"/>
<path d="M111.871 57.6674L107.293 57.6639H106.931L102.559 57.6568L101.85 57.6532L100.428 57.6426L97.2861 57.6485L89.2989 57.6615L81.9915 57.665H80.5492H71.239H69.0956L69.3061 57.9511C71.9838 58.6605 74.5257 59.559 77.0143 60.7436C78.1244 61.3323 79.1316 61.9755 79.9379 62.8988C80.8967 63.9971 80.9109 65.4453 79.9119 66.5235C78.3928 68.1633 76.5993 68.797 75.579 70.3197C73.4806 73.4503 79.8422 75.9767 82.7304 76.9107L83.3877 77.2027L84.5297 77.1519C88.9773 76.7641 93.3315 76.3988 97.7365 75.6918C103.243 74.8075 109.696 73.5401 114.693 71.2466C117.284 70.0584 119.939 68.226 120.895 65.5151C121.609 63.4887 121.171 61.3714 119.689 59.7919C118.571 58.599 117.008 57.9488 115.364 57.7726L114.431 57.6733L111.871 57.6662V57.6674Z" fill="#F5DF7A"/>
<path d="M82.3725 24.3403L82.395 29.386L82.1905 30.4371L82.1857 32.3357L82.2259 35.4391L82.4695 38.1275C82.5924 39.4847 82.3607 40.8951 82.5877 42.2216C82.7579 43.2147 82.661 43.9973 82.6977 45.0034L82.7828 47.3454C82.8466 49.0892 82.9199 50.7171 82.6941 52.4633C82.5262 53.7614 83.0772 54.8562 82.1656 56.2571L81.9919 57.6663L89.2993 57.6628C89.421 54.8739 91.847 52.7589 94.7234 53.0958C95.597 50.8318 97.5856 49.3292 99.8968 48.9781L99.9016 42.0242L99.9228 41.569L99.9027 25.61L99.9902 24.4904L99.4771 24.3379L82.3737 24.3414L82.3725 24.3403ZM87.2788 37.5506C86.8851 37.5506 86.4004 37.1947 86.3992 36.833L86.3803 31.7233C86.3791 31.3604 86.6723 30.7563 87.1086 30.7551L92.0976 30.7385C92.4972 30.7373 92.8472 31.2292 92.846 31.6146L92.8412 36.7088C92.8412 37.2089 92.4499 37.5565 91.9699 37.5553L87.2788 37.5506ZM87.0814 49.7891C86.6664 49.6685 86.3898 49.2949 86.3898 48.8894L86.3862 43.911C86.3862 43.4464 86.7456 42.9747 87.2339 42.9747H91.9664C92.3861 42.9735 92.8401 43.3577 92.8401 43.7881L92.8448 48.8882C92.8448 49.4628 92.3849 49.8045 91.847 49.8033L87.079 49.7891H87.0814Z" fill="#FFFCF9"/>
<path d="M63.0073 57.6641H61.539H57.1777L57.3007 57.8367C57.3219 57.8686 57.4768 57.8721 57.5454 57.8757L64.6152 60.7284C65.8281 61.3621 67.6003 62.2346 67.4998 63.3577C67.3875 64.618 65.3198 65.2032 63.8763 65.6146L57.7239 67.3702C55.8997 67.8904 54.2375 68.6553 52.5693 69.542C49.3466 71.2527 46.5139 73.9884 47.2138 77.7491L59.5977 78.0399L69.3465 77.9217L72.5787 77.8188L75.3038 77.7148L83.3867 77.2076L82.7294 76.9156C79.8412 75.9816 73.4796 73.4552 75.578 70.3246C76.5983 68.8019 78.3918 68.1682 79.9109 66.5285C80.9099 65.4503 80.8957 64.0009 79.937 62.9037C79.1307 61.9804 78.1222 61.3373 77.0133 60.7485C74.5247 59.5627 71.9829 58.6654 69.3051 57.9561L69.0947 57.6688L63.0073 57.6664V57.6641Z" fill="#FFFCF9"/>
<path d="M8.41934 57.6643H10.2743C10.3275 55.2407 11.8549 53.0524 14.1756 52.3477L11.8502 49.7906L10.9233 48.8081C10.6502 48.5185 10.6006 48.0669 10.8063 47.8127C11.1077 47.4391 11.635 47.4781 11.9471 47.8044L14.1697 50.1322L14.1804 44.9789C14.1804 44.5379 14.5622 44.214 14.9429 44.2128C15.3236 44.2116 15.7055 44.532 15.7055 44.9883L15.7232 52.1988L16.4054 52.1952C18.1752 49.093 21.6273 47.5148 25.0747 48.1898C25.226 47.2357 25.2899 46.1599 24.986 45.2319C24.525 43.8238 23.5898 42.255 22.2681 41.347C22.209 38.9956 21.1248 36.8912 19.4437 35.294L18.7273 34.7679C16.1878 32.9023 12.8374 33.0879 10.383 35.0552C8.5021 36.5625 7.47828 38.7497 7.34706 41.1721C6.47575 41.6686 5.79241 42.2242 5.21784 43.0116C2.13457 47.2381 3.597 53.2971 8.34841 55.6048L8.41934 57.6643Z" fill="#FFC721"/>
<path d="M99.9228 41.5705L99.9015 42.0257L99.8968 48.9796C102.176 48.6344 104.551 49.3875 106.238 51.0331C106.465 51.3051 106.735 51.266 106.977 51.4316L106.997 46.4165C107 46.0287 107.444 45.7237 107.742 45.7332C108.158 45.745 108.489 46.0666 108.49 46.5253L108.501 51.8311L110.86 49.4336C111.084 49.2054 111.603 49.2409 111.827 49.4217C112.03 49.5861 112.139 50.1583 111.921 50.3805L109.654 52.7828C110.884 53.4946 111.8 54.5858 112.199 55.9737L112.499 57.4716L111.874 57.6679L114.434 57.6749L114.573 56.5755C116.928 55.5587 118.664 53.517 119.075 50.9646C119.58 47.8399 117.948 44.7886 115.08 43.4727C115.158 39.4531 112.466 36.0365 108.519 35.4276C104.816 35.0729 101.544 37.6077 100.893 41.2442L99.9239 41.5681L99.9228 41.5705Z" fill="#FFC721"/>
<path d="M37.2241 6.68319L43.2286 4.0397L43.9415 3.80326L44.34 3.6543L79.5221 3.65666L80.5802 3.85528C80.5802 3.06318 80.6796 2.23206 80.5944 1.33475C80.5495 0.870127 79.9844 0.0189158 79.3082 0.0177336L44.7514 0C43.9557 0 43.2026 0.202163 42.5394 0.52846L38.1817 2.66713C37.5622 2.97096 37.1259 3.45568 37.1484 4.20995L37.2241 6.68319Z" fill="#FFC721"/>
<path d="M37.2234 6.68343L37.2435 20.8384L43.9551 20.8656L43.9409 3.80469L43.228 4.03995L37.2234 6.68343Z" fill="#FAF7F2"/>
<path d="M37.2435 20.8391L25.161 20.8426L20.5467 22.506C19.9367 22.7259 19.5998 23.1137 19.4402 23.7876L19.4827 26.4228L24.8903 24.5277C25.0581 24.4768 25.4081 24.3432 25.6599 24.3432L41.7052 24.3385L42.0871 24.4484L43.9609 24.361L43.955 20.8639L37.2435 20.8379V20.8391Z" fill="#FFC721"/>
<path d="M19.4834 26.4225L19.4455 35.2952C21.1255 36.8935 22.2096 38.9967 22.2699 41.3482C23.5916 42.2562 24.5268 43.825 24.9879 45.233L25.1664 45.0758L25.1699 25.0097C25.1699 24.7969 25.0304 24.5805 24.8909 24.5273L19.4834 26.4225Z" fill="#FAF7F2"/>
<path d="M80.5789 20.8449L80.5612 24.3574L81.9066 24.3089L82.3736 24.342L99.477 24.3384L99.9901 24.491C100.052 23.7024 100.083 22.8831 100.011 22.0106C99.9641 21.4384 99.354 20.8438 98.6813 20.8438H80.5789V20.8449Z" fill="#FFC721"/>
<path d="M60.5788 24.126L64.4259 24.1425C64.9295 24.1425 65.3563 23.7524 65.3563 23.231V19.28L69.2588 19.2729C69.5828 19.2729 69.9339 18.8757 70.0297 18.5801L70.0332 14.6161C70.0261 14.129 69.6301 13.7188 69.1217 13.7176L65.3563 13.7081L65.3586 10.217C65.3586 9.61048 64.9319 9.13286 64.3041 9.15296L60.7538 9.16123C60.2159 9.18133 59.8258 9.57147 59.8258 10.1023L59.8305 13.7105L55.9563 13.7318C55.4479 13.7341 55.072 14.2449 55.085 14.7059L55.0921 18.378C55.1654 18.852 55.5366 19.2741 56.0225 19.2753L59.8128 19.2847L59.8317 23.341C59.8329 23.6082 60.2809 24.1248 60.5777 24.126H60.5788Z" fill="#FFB521"/>
<path d="M63.0166 43.1777L63.0083 57.6625L69.0956 57.6649H71.239C71.4424 57.4308 71.5547 57.1281 71.5547 56.7995L71.5464 44.7442C71.5464 43.9769 70.8844 43.1978 70.0793 43.1955L63.0166 43.1777Z" fill="#FFB521"/>
<path d="M53.6173 57.6621H57.1781H61.5394L61.5879 43.1762L55.0749 43.1738C54.2769 43.1738 53.4375 43.7969 53.4364 44.6351L53.4198 56.8015C53.4198 57.1065 53.5369 57.4233 53.6184 57.6633L53.6173 57.6621Z" fill="#FFB521"/>
<path d="M41.7056 24.3379C41.1216 25.8169 41.4869 26.1101 41.4881 26.4139L41.4916 33.038L41.3935 37.1924L41.3545 38.8286L41.5105 40.1278L41.3805 41.673L41.2102 42.9487C41.1606 43.3175 41.1322 43.7786 41.2587 44.1345C41.5543 44.962 41.5152 45.8073 40.9501 46.5332C41.3911 47.5097 41.2185 48.4614 41.157 49.4829L41.0648 50.9997L41.1263 52.6678L41.3663 54.8207C41.5176 56.1814 41.0116 56.7548 41.1996 57.6663H43.8785L43.9648 24.5341L42.0875 24.449L41.7056 24.3391V24.3379Z" fill="#FAF7F2"/>
<path d="M81.9065 24.3078L81.8367 24.5112C81.7575 24.6341 81.0186 24.3717 80.5694 24.6188L80.5576 47.9195L80.5481 57.667H81.9904L82.1642 56.2566C83.0757 54.8556 82.5248 53.7609 82.6927 52.4628C82.9185 50.7155 82.8452 49.0875 82.7813 47.3449L82.6962 45.0029C82.6596 43.9956 82.7565 43.213 82.5863 42.2211C82.3593 40.8946 82.591 39.4842 82.468 38.127L82.2245 35.4386L82.1843 32.3352L82.189 30.4365L82.3936 29.3855L82.3711 24.3397L81.9041 24.3066L81.9065 24.3078Z" fill="#FAF7F2"/>
<path d="M52.8382 37.4751L57.6688 37.4976C58.2079 37.5 58.5874 37.1146 58.5886 36.579L58.5957 31.4091C58.5295 30.9232 58.1595 30.5957 57.6747 30.5957H53.077C52.5415 30.5957 52.1312 30.9586 52.13 31.5037L52.1253 36.5896C52.1253 37.0212 52.3689 37.3593 52.8382 37.474V37.4751Z" fill="#F5DF7A"/>
<path d="M66.6664 37.4768L71.4013 37.4827C71.8021 37.4827 72.3908 37.2959 72.392 36.7757L72.4121 31.5148C72.4145 30.9213 71.9475 30.5867 71.3918 30.5879L66.7894 30.5962C66.2834 30.5962 65.9559 31.0123 65.9559 31.5018L65.9535 36.3525C65.9535 36.8597 66.1084 37.2912 66.6652 37.4756L66.6664 37.4768Z" fill="#F5DF7A"/>
<path d="M61.5875 43.1777L61.539 57.6637H63.0073L63.0156 43.1789L61.5875 43.1777Z" fill="#F5DF7A"/>
<path d="M24.8909 24.5282C25.0304 24.5814 25.1699 24.7978 25.1699 25.0106L25.1663 45.0767L24.9878 45.2339C25.2917 46.162 25.2278 47.2378 25.0765 48.1919C27.5805 48.6825 29.6908 50.4689 30.5869 52.9634C33.4125 52.7932 35.706 54.907 35.7415 57.6663H41.201C41.0131 56.7548 41.519 56.1815 41.3677 54.8207L41.1277 52.6678L41.0663 50.9997L41.1585 49.4829C41.2199 48.4614 41.3937 47.5097 40.9516 46.5332C41.5167 45.8073 41.5545 44.962 41.2601 44.1345C41.1336 43.7786 41.162 43.3175 41.2117 42.9487L41.3819 41.673L41.512 40.1279L41.3559 38.8286L41.3949 37.1924L41.493 33.038L41.4895 26.4139C41.4895 26.1101 41.123 25.8169 41.707 24.3379L25.6617 24.3426C25.4099 24.3426 25.0599 24.4762 24.8921 24.527L24.8909 24.5282ZM33.5484 37.5636C33.0684 37.5648 32.5222 37.2597 32.521 36.6722L32.514 31.65C32.514 31.0494 33.0318 30.735 33.5543 30.7362L38.0622 30.7456C38.5682 30.7456 38.9855 31.0979 38.9867 31.6299L38.9985 36.4795C38.9985 36.7608 38.8898 37.1628 38.7219 37.3189C38.5646 37.4655 38.1946 37.5482 37.9499 37.5482L33.5484 37.5624V37.5636ZM33.3001 49.7926C32.6972 49.6602 32.5009 49.1779 32.5033 48.6518L32.5175 43.9252C32.5187 43.4842 32.8674 42.9688 33.3214 42.9688H38.0586C38.6178 42.9688 38.9997 43.3518 38.9997 43.9216L38.9926 48.9781C38.8992 49.477 38.5493 49.7997 38.0515 49.7997L33.3013 49.7915L33.3001 49.7926Z" fill="#FFFCF9"/>
<path d="M15.7234 52.1996C15.2398 52.2019 14.6357 52.2079 14.177 52.3474C11.8551 53.052 10.3288 55.2391 10.2756 57.6651H35.7422C35.7055 54.9069 33.4132 52.7931 30.5876 52.9633C29.6915 50.4688 27.5824 48.6824 25.0772 48.1918C21.6298 47.5156 18.1777 49.0938 16.4079 52.1972L15.7257 52.2008L15.7234 52.1996Z" fill="#FFB521"/>
<path d="M99.8958 48.9802C97.5845 49.3302 95.596 50.834 94.7223 53.098C91.846 52.761 89.42 54.8772 89.2982 57.6649L97.2854 57.6519C97.1991 57.6165 97.4852 57.5148 97.5739 57.5148H100.204C100.275 57.5148 100.561 57.6141 100.428 57.646L101.849 57.6567C102.027 57.5313 102.47 57.5302 102.558 57.6602L106.93 57.6673L107.157 57.5077C107.214 57.4805 107.351 57.6035 107.292 57.6685L111.871 57.672L112.496 57.4758L112.196 55.9779C111.796 54.5899 110.881 53.4987 109.65 52.787L108.057 52.1758L106.975 51.4345C106.734 51.269 106.463 51.308 106.236 51.0361C104.549 49.3905 102.174 48.6374 99.8946 48.9826L99.8958 48.9802Z" fill="#FFB521"/>
<path d="M97.2854 57.6508L100.428 57.6449C100.561 57.613 100.275 57.5137 100.204 57.5137H97.5739C97.4864 57.5137 97.2003 57.6153 97.2854 57.6508Z" fill="#FFC721"/>
<path d="M101.849 57.6541L102.559 57.6576C102.471 57.5288 102.029 57.5288 101.849 57.6541Z" fill="#FFC721"/>
<path d="M106.93 57.6638H107.292C107.351 57.5999 107.214 57.4758 107.157 57.5041L106.93 57.6638Z" fill="#FFC721"/>
<path d="M87.0819 49.7883L91.8498 49.8024C92.3866 49.8036 92.8477 49.462 92.8477 48.8874L92.8429 43.7872C92.8429 43.3569 92.3878 42.9727 91.9693 42.9727H87.2368C86.7485 42.9738 86.3879 43.4467 86.3891 43.9102L86.3926 48.8886C86.3926 49.2941 86.6705 49.6677 87.0843 49.7883H87.0819Z" fill="#F5DF7A"/>
<path d="M87.2785 37.5523L91.9697 37.557C92.4497 37.557 92.8398 37.2106 92.841 36.7105L92.8457 31.6163C92.8457 31.232 92.4969 30.7391 92.0973 30.7402L87.1083 30.7568C86.6732 30.758 86.3789 31.3621 86.38 31.725L86.399 36.8347C86.4001 37.1964 86.8849 37.5511 87.2785 37.5523Z" fill="#F5DF7A"/>
<path d="M14.1763 52.3486C14.6362 52.2091 15.2403 52.2032 15.7227 52.2009L15.7049 44.9904C15.7049 44.5352 15.3124 44.2137 14.9424 44.2148C14.5723 44.216 14.1798 44.54 14.1798 44.9809L14.1692 50.1343L11.9466 47.8065C11.6345 47.479 11.1072 47.4412 10.8057 47.8148C10.6 48.0689 10.6497 48.5206 10.9228 48.8102L11.8496 49.7926L14.1751 52.3498L14.1763 52.3486Z" fill="#FFB521"/>
<path d="M106.976 51.4317L108.058 52.173L109.651 52.7842L111.919 50.3819C112.138 50.1597 112.029 49.5874 111.824 49.4231C111.601 49.2422 111.083 49.2068 110.857 49.4349L108.499 51.8325L108.488 46.5266C108.488 46.0679 108.157 45.7464 107.74 45.7345C107.442 45.7263 106.997 46.0301 106.995 46.4179L106.975 51.4329L106.976 51.4317Z" fill="#FFB521"/>
<path d="M33.2997 49.7914L38.0499 49.7997C38.5488 49.7997 38.8987 49.477 38.991 48.9781L38.998 43.9216C38.998 43.3506 38.6162 42.9699 38.057 42.9688H33.3198C32.867 42.9688 32.5182 43.483 32.5158 43.924L32.5017 48.6506C32.5005 49.1767 32.6955 49.659 33.2985 49.7914H33.2997Z" fill="#F5DF7A"/>
<path d="M33.5479 37.5645L37.9494 37.5503C38.1941 37.5503 38.5642 37.4676 38.7214 37.321C38.8893 37.1649 38.9992 36.763 38.998 36.4816L38.9862 31.6321C38.985 31.1 38.5677 30.7489 38.0617 30.7477L33.5538 30.7383C33.0313 30.7383 32.5123 31.0528 32.5135 31.6522L32.5206 36.6743C32.5206 37.2619 33.0679 37.5669 33.5479 37.5657V37.5645Z" fill="#F5DF7A"/>
</svg>
