<svg width="381" height="740" viewBox="0 0 381 740" fill="none" xmlns="http://www.w3.org/2000/svg">
<g opacity="0.6">
<path d="M202.574 0L201.958 0.540717H91.3275L90.707 0H202.574Z" fill="#FCFDFD"/>
<path d="M461.585 0L460.98 0.540717H375.012L374.406 0H461.585Z" fill="#FCFDFD"/>
<path d="M88.6877 0L88.1379 0.540717H45.9053L45.3555 0H88.6877Z" fill="#FCFDFD"/>
<path d="M40.7596 0.308209L0 0.556939V0L40.7596 0.308209Z" fill="#FCFDFD"/>
<path d="M299.322 0L298.777 0.540717H262.578L262.033 0H299.322Z" fill="#FCFDFD"/>
<path d="M250.948 0L250.408 0.540717H215.208L214.668 0H250.948Z" fill="#FCFDFD"/>
<path d="M326.031 0L325.511 0.540717H300.854L300.334 0H326.031Z" fill="#FCFDFD"/>
<path d="M363.319 0L362.351 0.551532H343.631L342.662 0H363.319Z" fill="#FCFDFD"/>
<path d="M340.139 0C340.432 0.145994 339.256 0.540717 338.933 0.540717H328.234C327.921 0.540717 326.746 0.151401 327.039 0H340.139Z" fill="#FCFDFD"/>
<path d="M213.657 0C212.214 0.519089 210.06 0.519089 208.617 0H213.657Z" fill="#FCFDFD"/>
<path d="M258.005 0C256.936 0.475831 255.044 0.475831 253.975 0H258.005Z" fill="#FCFDFD"/>
<path d="M206.608 0C206.124 0.303712 205.332 0.347099 204.701 0.233207L206.608 0Z" fill="#FCFDFD"/>
<path d="M355.96 302.554C355.92 302.857 352.222 303.982 350.769 302.846C349.896 302.165 349.563 300.759 349.458 299.289C349.306 297.223 348.575 296.985 348.378 295.039C348.338 294.665 349.442 294.952 349.735 295.157C352.52 297.131 354.436 295.563 355.541 297.185C355.96 297.802 356.338 299.597 356.242 300.359L355.965 302.554H355.96Z" fill="#FFC721"/>
<path d="M118.808 302.899L114.172 303.278L114.253 299.352C114.288 297.633 116.144 295.735 117.819 295.73L121.865 295.719L121.194 300.407C121.063 301.315 119.635 302.829 118.808 302.899Z" fill="#FFC721"/>
<path d="M142.299 610.07C140.008 609.924 137.849 608.697 136.881 605.35C139.171 605.993 142.062 607.821 142.657 609.665L142.848 610.011L144.866 609.145C145.794 608.745 147.368 608.545 148.276 609.124C150.234 610.367 149.346 612.714 151.212 615.142L146.314 616.034C143.762 616.499 142.606 612.557 142.833 610.611L142.299 610.07Z" fill="#FFC721"/>
<path d="M62.2889 488.017L59.9331 486.276C59.015 485.6 57.7539 484.286 57.6682 483.302C57.542 481.88 58.2937 480.053 59.2319 479.209L60.8008 477.798C61.1539 477.484 62.3293 478.279 62.7278 478.533C64.8818 479.89 65.9613 482.491 64.4732 484.73L62.2889 488.017Z" fill="#FFC721"/>
<path d="M123.914 592.431L121.977 593.329L49.4071 593.367C42.8442 593.367 36.6193 588.69 36.5992 581.206L36.463 527.491C36.4428 518.721 41.5428 512.184 49.9721 512.205L119.864 512.384C127.536 512.405 131.552 519.981 131.511 527.432L131.229 581.282C131.204 586.365 127.587 590.36 123.909 592.431H123.914ZM93.6928 571.046C93.4607 574.496 95.9679 576.994 99.277 577.053L108.534 577.216L113.856 581.768L114.537 577.097C120.303 575.312 119.727 569.083 119.026 561.178C118.905 559.81 116.797 557.209 115.495 557.155L107.384 556.782L107.101 539.263C107.03 535.007 102.344 530.26 98.2782 530.254L60.9489 530.168C55.4504 530.157 50.5018 535.034 50.5018 540.928V560.848C50.5068 566.142 54.7745 569.986 59.3902 570.83L59.8139 578.659C63.5368 576.031 65.8522 573.793 68.7427 570.749L90.6762 570.808L93.6877 571.051L93.6928 571.046Z" fill="#FCFDFD"/>
<path d="M107.385 556.782L106.966 562.14C105.927 567.931 100.796 571.338 95.873 570.759L93.6887 571.046L90.6772 570.802L68.7437 570.743C65.8582 573.787 63.5378 576.026 59.8149 578.654L59.3912 570.824C54.7755 569.981 50.5078 566.131 50.5078 560.842V540.922C50.5028 535.029 55.4514 530.151 60.9499 530.162L98.2792 530.249C102.35 530.259 107.036 535.007 107.102 539.257L107.385 556.776V556.782ZM67.301 547.211C65.2125 547.822 64.5214 549.823 65.1974 551.812C65.7422 553.408 67.5784 554.316 69.5256 553.602C70.8573 553.11 71.841 551.045 71.1549 549.179C70.6606 547.827 68.8143 546.768 67.301 547.211ZM78.3434 547.179C76.2852 547.752 75.4478 549.936 76.0128 551.666C76.6333 553.575 78.4543 554.311 80.2855 553.77C81.7333 553.343 82.722 551.38 82.2982 549.639C81.8745 547.898 80.1695 546.67 78.3434 547.179ZM89.189 547.254C87.2519 547.811 86.5508 550.044 87.1006 551.677C87.6505 553.31 89.4059 554.305 91.2371 553.673C92.5487 553.218 93.7341 551.347 93.3104 549.769C92.8261 547.979 91.2775 546.654 89.1941 547.254H89.189Z" fill="#FAF7F2"/>
<path d="M93.6876 571.045L95.8719 570.759C100.795 571.337 105.926 567.931 106.965 562.14L107.383 556.781L115.495 557.154C116.791 557.208 118.905 559.809 119.026 561.177C119.732 569.088 120.302 575.312 114.537 577.096L113.856 581.768L108.534 577.215L99.2769 577.053C95.9627 576.993 93.4606 574.495 93.6927 571.045H93.6876Z" fill="#FFC721"/>
<path d="M78.3446 547.179C80.1707 546.671 81.8707 547.871 82.2995 549.639C82.7282 551.407 81.7345 553.343 80.2867 553.77C78.4505 554.311 76.6345 553.576 76.014 551.667C75.4541 549.937 76.2864 547.758 78.3446 547.179Z" fill="#FFB521"/>
<path d="M89.1875 547.254C91.2708 546.654 92.8245 547.978 93.3038 549.768C93.7275 551.347 92.5421 553.223 91.2305 553.672C89.4044 554.305 87.6741 553.38 87.094 551.677C86.5139 549.974 87.2453 547.811 89.1824 547.254H89.1875Z" fill="#FFB521"/>
<path d="M67.301 547.211C68.8144 546.767 70.6607 547.827 71.155 549.179C71.8411 551.039 70.8524 553.11 69.5257 553.602C67.5835 554.321 65.7423 553.413 65.1975 551.812C64.5215 549.822 65.2126 547.816 67.301 547.211Z" fill="#FFB521"/>
<path d="M61.6497 424.1L60.6357 428.896L59.1426 428.663L59.6723 424.1H61.6497Z" fill="#FFC721"/>
<path d="M61.6473 424.101H59.6749L47.3663 424.047C40.6672 424.015 35.3806 418.516 35.3906 411.195L35.5218 332.926C35.5319 326.518 41.5601 320.743 47.4873 320.732L97.9979 320.619L101.731 316.482L102.427 317.072L100.55 320.76L109.373 320.635L116.33 320.727C123.901 320.824 129.117 326.491 129.122 334.58L129.163 410.113C129.163 417.634 124.89 424.053 117.339 424.058L61.6523 424.107L61.6473 424.101ZM87.4801 338.884L77.0935 347.568C76.2864 348.277 73.7238 347.828 73.2143 346.871C72.4223 345.378 71.5244 344.421 70.3591 344.335C68.6591 344.648 67.9731 345.984 68.0992 347.941L59.0998 355.809C58.2422 356.555 56.9407 356.604 56.8903 357.993C56.855 358.885 57.6671 360.064 58.6256 360.216C59.8161 360.405 60.2146 358.453 60.9208 357.788L69.0223 350.153C70.6719 348.596 73.0932 349.866 73.9962 351.348C74.3745 351.964 75.9837 352.321 76.6092 352.127C77.2348 351.932 77.6736 350.185 78.052 349.547L87.9291 340.907L91.2887 340.501C93.2056 340.269 93.7908 337.468 93.2561 336.278C92.3834 334.337 90.5724 333.753 89.0742 334.272C87.2733 334.899 86.8849 337.23 87.4852 338.884H87.4801ZM105.988 380.098C106.619 380.119 107.769 379.865 108.168 379.427C108.501 379.065 108.793 377.821 108.798 377.237L108.813 347.466C108.813 346.13 107.522 344.865 106.432 344.919L101.514 345.173C99.7584 345.265 99.9552 347.747 99.9501 349.044L99.8442 377.746C99.8442 378.692 100.929 379.914 101.65 379.936L105.993 380.092L105.988 380.098ZM92.0858 380.082C92.9181 380.082 93.7958 378.351 93.7908 377.281L93.6697 353.603L88.6202 352.9C87.1522 352.694 85.5985 353.338 84.8822 354.657L84.8217 378.238C85.0235 378.957 86.0424 380.098 86.7083 380.098L92.0858 380.087V380.082ZM73.1285 380.217L78.849 379.465L78.7986 362.178C78.7986 361.129 76.1351 360.47 75.1716 360.664L70.1119 361.697L70.0211 377.751C70.0211 378.281 70.5407 379.508 70.9594 379.752C71.3781 379.995 72.6443 380.282 73.1285 380.222V380.217ZM64.0837 379.438L64.23 371.149C64.2502 370.024 63.1404 368.759 62.1063 368.748L57.2585 368.694C56.5069 368.683 55.1197 369.765 55.1449 370.689L55.3669 379.011C55.3971 380.087 58.106 380.217 59.0796 380.092L64.0837 379.444V379.438ZM112.35 396.146C113.601 396.146 114.625 394.768 114.509 393.719C114.428 392.967 113.298 391.794 112.35 391.794L51.9265 391.772C50.7209 391.772 49.7675 393.189 49.9087 394.194C50.0651 395.346 51.0992 396.141 52.431 396.141H112.355L112.35 396.146ZM112.975 408.026C114.095 407.307 114.584 406.025 114.357 405.182C114.196 404.576 113.096 403.63 112.355 403.63L52.431 403.619C51.3716 403.619 50.2669 404.706 50.1256 405.539C49.9995 406.301 51.079 407.993 51.9769 407.993L112.97 408.026H112.975Z" fill="#FCFDFD"/>
<path d="M105.989 380.097L101.646 379.94C100.929 379.913 99.8348 378.691 99.8399 377.75L99.9458 349.049C99.9458 347.746 99.7541 345.264 101.51 345.178L106.428 344.924C107.518 344.869 108.809 346.135 108.809 347.47L108.794 377.242C108.794 377.826 108.496 379.064 108.163 379.432C107.765 379.87 106.62 380.124 105.984 380.103L105.989 380.097Z" fill="#FFD100"/>
<path d="M112.353 396.145H52.4298C51.0981 396.14 50.064 395.345 49.9076 394.193C49.7714 393.182 50.7197 391.771 51.9254 391.771L112.348 391.792C113.297 391.792 114.422 392.966 114.507 393.717C114.623 394.766 113.599 396.145 112.348 396.145H112.353Z" fill="#FAF7F2"/>
<path d="M112.976 408.026L51.9833 407.994C51.0804 407.994 50.0008 406.301 50.132 405.539C50.2732 404.706 51.3729 403.619 52.4373 403.619L112.361 403.63C113.102 403.63 114.207 404.576 114.364 405.182C114.586 406.025 114.096 407.307 112.981 408.026H112.976Z" fill="#FAF7F2"/>
<path d="M92.0863 380.081L86.7089 380.092C86.038 380.092 85.024 378.951 84.8223 378.232L84.8828 354.651C85.5991 353.332 87.1528 352.689 88.6208 352.894L93.6703 353.597L93.7914 377.275C93.7964 378.351 92.9187 380.076 92.0863 380.076V380.081Z" fill="#FFD100"/>
<path d="M73.1328 380.214C72.6486 380.279 71.3824 379.992 70.9637 379.743C70.545 379.495 70.0204 378.273 70.0254 377.743L70.1162 361.689L75.1759 360.656C76.1394 360.461 78.8029 361.121 78.8029 362.17L78.8533 379.457L73.1328 380.208V380.214Z" fill="#FFD100"/>
<path d="M87.9266 340.912L78.0495 349.553C77.6712 350.196 77.2373 351.937 76.6068 352.132C75.9762 352.326 74.3721 351.97 73.9937 351.353C73.0908 349.872 70.6694 348.601 69.0199 350.158L60.9184 357.793C60.2122 358.458 59.8136 360.41 58.6231 360.221C57.6647 360.07 56.8525 358.891 56.8878 357.999C56.9383 356.609 58.2398 356.56 59.0973 355.814L68.0967 347.947C67.9706 345.989 68.6566 344.654 70.3566 344.34C71.5219 344.427 72.4198 345.384 73.2118 346.876C73.7163 347.833 76.2789 348.277 77.0911 347.574L87.4777 338.89L87.9216 340.917L87.9266 340.912Z" fill="#FFC721"/>
<path d="M64.0876 379.436L59.0835 380.085C58.1099 380.209 55.401 380.085 55.3707 379.004L55.1488 370.682C55.1236 369.757 56.5108 368.676 57.2624 368.687L62.1102 368.741C63.1443 368.752 64.2541 370.017 64.2339 371.141L64.0876 379.431V379.436Z" fill="#FFD100"/>
<path d="M87.9249 340.911L87.481 338.883C86.8858 337.228 87.2692 334.898 89.07 334.271C90.5632 333.751 92.3792 334.33 93.2519 336.277C93.7866 337.466 93.2015 340.267 91.2846 340.5L87.9249 340.905V340.911Z" fill="#FFB521"/>
<path d="M330.573 614.327L325.09 613.743L326.855 609.169C327.602 607.238 330.876 606.541 332.556 608.293C333.731 609.52 332.954 613.483 330.578 614.332L330.573 614.327Z" fill="#FFC721"/>
<path d="M187.405 632.846V630.932L187.395 617.582C187.389 611.212 191.703 604.978 198.22 604.972L274.574 604.886C281.656 604.88 286.6 610.147 286.61 617.712L286.675 659.363C286.685 665.397 283.018 672.535 276.551 672.54L197.584 672.578C192.817 672.578 187.672 667.474 187.637 662.575L187.41 632.852L187.405 632.846ZM211.906 632.349L203.946 640.779C201.897 642.947 201.686 646.429 202.886 649.273C205.146 654.632 212.072 657.141 216.501 653.134L223.357 645.688C223.74 645.272 224.633 644.731 224.976 644.461L231.731 637.037C234.334 634.171 233.138 628.748 230.818 626.158C228.149 623.184 224.093 621.605 220.481 624.006C217.202 626.179 214.63 629.456 211.906 632.343V632.349ZM270.836 634.982C271.537 634.982 272.525 632.635 272.177 632.003C271.88 631.457 271.229 630.673 270.609 630.078L244.342 630.067C243.015 630.278 242.183 631.673 242.319 633.09C242.405 634.009 243.737 635.155 244.841 635.144L270.841 634.977L270.836 634.982ZM261.554 647.932C262.3 647.932 263.375 646.283 263.395 645.504C263.415 644.726 262.31 642.968 261.443 642.974L243.898 643.055C242.97 643.055 242.092 645.164 242.274 646.002C242.43 646.732 243.504 647.992 244.322 647.986L261.554 647.927V647.932Z" fill="#FCFDFD"/>
<path d="M270.835 634.981L244.836 635.149C243.731 635.154 242.404 634.008 242.313 633.094C242.177 631.672 243.009 630.282 244.336 630.071L270.603 630.082C271.218 630.677 271.874 631.456 272.172 632.007C272.52 632.645 271.531 634.986 270.83 634.986L270.835 634.981Z" fill="#FAF7F2"/>
<path d="M261.555 647.932L244.323 647.991C243.511 647.991 242.431 646.736 242.275 646.007C242.098 645.174 242.976 643.065 243.899 643.06L261.444 642.979C262.312 642.979 263.416 644.73 263.396 645.509C263.376 646.288 262.301 647.937 261.555 647.937V647.932Z" fill="#FAF7F2"/>
<path d="M211.902 632.349L223.359 645.694L216.503 653.139C212.074 657.146 205.148 654.637 202.888 649.279C201.687 646.434 201.899 642.952 203.947 640.784L211.908 632.354L211.902 632.349Z" fill="#FAF7F2"/>
<path d="M223.356 645.686L211.9 632.341C214.624 629.454 217.197 626.177 220.476 624.003C224.093 621.602 228.144 623.181 230.812 626.155C233.133 628.74 234.328 634.169 231.725 637.035L224.971 644.459C224.628 644.729 223.735 645.27 223.351 645.686H223.356Z" fill="#FFB521"/>
<path d="M59.9207 441.837C59.9157 442.383 59.4718 443.502 59.1439 443.48C57.6709 443.378 57.6709 433.066 60.0569 430.974L59.9207 441.837Z" fill="#FFC721"/>
<path d="M60.2164 463.066C60.2265 463.515 59.4849 464.353 59.2478 464.234C59.0107 464.115 58.3146 463.526 58.3096 463.245L58.2793 456.745L60.1054 457.026L60.2113 463.066H60.2164Z" fill="#FFC721"/>
<path d="M159.029 271.105C158.515 271.061 158.227 269.239 158.681 269.017L163.363 266.736C163.58 266.627 164.609 266.535 164.674 266.768L165.083 268.147L159.024 271.11L159.029 271.105Z" fill="#FFC721"/>
<path d="M159.387 621.045L155.755 619.201C154.726 618.682 154.08 617.952 154.357 616.243L160.416 619.352C160.744 619.52 161.289 620.915 160.981 620.991C160.673 621.066 159.674 621.191 159.387 621.045Z" fill="#FFC721"/>
<path d="M313.901 271.689L308.599 269.104C308.347 268.98 307.934 268.028 307.858 267.742C307.757 267.363 308.892 267.087 309.225 267.244L314.083 269.515L313.896 271.689H313.901Z" fill="#FFC721"/>
<path d="M150.762 275.739C150.576 275.847 149.728 275.912 149.552 275.869C149.289 275.804 149.123 274.539 149.36 274.393L154.137 271.473C154.379 271.321 155.333 271.554 155.57 271.716C155.893 271.933 155.353 273.046 154.975 273.268L150.757 275.745L150.762 275.739Z" fill="#FFC721"/>
<path d="M133.375 287.554C133.133 287.689 132.255 287.749 132.205 287.473C132.139 287.111 132.265 285.916 132.548 285.71L137.077 282.374C137.209 282.277 138.096 282.196 138.127 282.363L138.369 283.758L133.38 287.554H133.375Z" fill="#FFC721"/>
<path d="M330.198 281.796L325.925 279.006C325.653 278.827 325.259 277.919 325.204 277.589C325.138 277.178 326.309 276.935 326.647 277.151L330.637 279.703C330.914 279.882 331.338 280.876 331.449 281.201C331.56 281.525 330.485 281.98 330.198 281.796Z" fill="#FFC721"/>
<path d="M125.074 294.15C124.913 294.285 123.98 294.42 123.955 294.247L123.758 292.885L128.283 289.121C128.485 288.954 129.377 288.829 129.635 288.802C129.892 288.775 129.932 290.122 129.731 290.284L125.074 294.144V294.15Z" fill="#FFC721"/>
<path d="M170.105 626.166L163.476 623.268C163.431 622.749 164.374 621.586 164.778 621.765L169.292 623.808C169.953 624.106 170.291 624.803 170.105 626.166Z" fill="#FFC721"/>
<path d="M294.948 262.836L290.287 261.095C290.06 261.008 289.899 260.056 289.954 259.802C290.01 259.548 290.6 259.072 290.832 259.159L295.397 260.884C295.73 261.008 296.235 261.922 296.25 262.3C296.265 262.679 295.302 262.965 294.948 262.836Z" fill="#FFC721"/>
<path d="M339.095 288.1L334.374 285.001C334.142 284.85 333.541 284.412 333.511 284.163L333.38 283.163C333.335 282.833 334.697 282.822 334.959 283.011L338.995 285.937C339.186 286.077 339.201 286.878 339.106 288.105L339.095 288.1Z" fill="#FFC721"/>
<path d="M141.879 281.389C141.722 281.492 140.547 281.486 140.532 281.313L140.451 279.967L145.496 276.766C145.662 276.658 146.55 276.847 146.575 277.058C146.61 277.371 146.454 278.334 146.202 278.501L141.879 281.389Z" fill="#FFC721"/>
<path d="M321.412 276.107L317.068 273.496C316.846 273.366 316.428 272.322 316.66 272.214C316.892 272.106 317.78 271.814 318.007 271.938L322.481 274.42C322.769 274.577 322.814 275.794 322.769 276.134C322.723 276.475 321.735 276.297 321.412 276.102V276.107Z" fill="#FFC721"/>
<path d="M61.1635 473.928C60.7449 474.204 59.4282 474.339 59.3828 473.95L58.7422 467.894C59.3576 467.553 60.5481 467.704 60.5986 468.196L61.1635 473.923V473.928Z" fill="#FFC721"/>
<path d="M304.029 266.72L299.736 264.925C299.413 264.79 298.974 263.843 298.944 263.481C298.909 263.027 300.14 262.794 300.528 262.989L305.179 265.293L305.149 266.471C305.149 266.644 304.216 266.796 304.024 266.715L304.029 266.72Z" fill="#FFC721"/>
<path d="M179.014 630.05L173.016 627.514L173.142 626.303C173.167 626.054 174.166 625.936 174.423 626.049L179.579 628.298L179.008 630.05H179.014Z" fill="#FAF7F2"/>
<path d="M178.493 262.341C178.13 262.465 177.232 262.341 176.955 262.249C176.581 262.124 177.222 260.778 177.605 260.637L181.974 259.075C182.307 258.956 183.371 259.388 183.291 259.734C183.21 260.081 182.736 260.897 182.433 261L178.493 262.335V262.341Z" fill="#FFC721"/>
<path d="M345.442 291.241L346.799 292.501C347.102 292.782 346.618 293.95 346.174 294.004C344.423 293.123 342.053 291.171 341.145 289.613C343.092 288.516 344.166 290.062 345.442 291.241Z" fill="#FFC721"/>
<path d="M168.823 266.272C168.636 266.347 167.753 266.38 167.733 266.196L167.592 264.763L173.146 262.541C173.343 262.46 174.24 263.287 174.109 263.465C173.913 263.73 173.368 264.401 173.075 264.52L168.823 266.266V266.272Z" fill="#FFC721"/>
<path d="M312.741 621.859C312.494 621.68 311.979 620.972 312.1 620.739C312.267 620.426 312.857 619.723 313.185 619.544L317.331 617.295C317.493 617.208 318.184 617.419 318.36 617.49C318.537 617.56 318.36 618.739 318.189 618.831L312.741 621.853V621.859Z" fill="#FFC721"/>
<path d="M294.903 630.013L294.348 628.396L299.427 626.146C299.68 626.033 300.441 626.179 300.684 626.298C301.011 626.46 300.547 627.817 300.159 627.969L294.903 630.013Z" fill="#FAF7F2"/>
<path d="M64.7847 495.472C64.8705 495.878 64.5577 497.181 64.2248 497.067C63.8918 496.954 63.0898 496.397 63.0191 496.034L62.096 491.341C62.0405 491.049 63.0343 490.449 63.2562 490.627C63.4782 490.806 63.9372 491.363 63.9978 491.655L64.7847 495.472Z" fill="#FFC721"/>
<path d="M59.7441 453.16L58.1198 453.366L58.0391 446.655L59.734 446.72L59.7441 453.16Z" fill="#FFC721"/>
<path d="M186.367 259.787L185.898 258.581C185.787 258.295 186.427 257.586 186.73 257.5L190.528 256.402C190.69 256.353 191.472 256.251 191.512 256.418L191.855 257.954L186.367 259.787Z" fill="#FFC721"/>
<path d="M286.906 259.794L281.977 258.264C281.8 258.21 281.261 257.599 281.155 257.436C280.993 257.193 281.528 256.301 281.8 256.377L286.472 257.658C286.82 257.755 287.006 258.615 286.911 259.799L286.906 259.794Z" fill="#FFC721"/>
<path d="M304.209 626.05C304.043 626.131 303.13 625.958 303.135 625.79L303.17 624.568L307.952 622.297C308.23 622.162 309.133 622.27 309.425 622.319C309.718 622.367 309.203 623.681 308.936 623.806L304.209 626.05Z" fill="#FFC721"/>
<path d="M123.911 592.433L126.579 595.617C127.033 596.045 127.462 597.299 127.195 597.953C125.919 597.445 124.728 596.775 124.057 596.039L121.969 593.33L123.906 592.433H123.911Z" fill="#FFC721"/>
<path d="M367.687 314.287C366.087 315.899 361.759 311.194 363.333 309.562C365.129 310.54 366.385 312.087 367.687 314.287Z" fill="#FFC721"/>
<path d="M374.088 322.392L372.04 322.3L369.775 319.391L369.114 318.418C368.917 318.126 369.397 317.342 369.735 317.32C370.073 317.299 371.021 317.72 371.253 318.056L374.088 322.392Z" fill="#FFC721"/>
<path d="M344.991 598.182C346.68 597.344 345.434 601.816 340.35 603.097C340.688 600.767 343.588 598.88 344.991 598.182Z" fill="#FFC721"/>
<path d="M65.6379 500.009C65.8749 499.971 68.3165 505.249 65.8699 506.27L64.1094 500.252L65.6379 500.009Z" fill="#FFC721"/>
<path d="M134.743 603.172C132.664 604.356 130.379 602.307 129.582 599.689C131.438 599.803 133.184 600.863 134.743 603.172Z" fill="#FFC721"/>
<path d="M105.759 313.989C105.563 314.27 104.17 314.632 104.115 314.34C103.747 312.334 106.39 309.766 108.287 310.388L105.754 313.989H105.759Z" fill="#FFC721"/>
<path d="M112.42 305.289C112.142 307.76 110.679 308.83 109.09 308.863C108.793 306.851 110.639 304.743 112.42 305.289Z" fill="#FFC721"/>
<path d="M187.4 630.925V632.839L183.355 631.45C183.052 631.358 182.568 629.828 182.881 629.811C183.193 629.795 184.021 629.79 184.313 629.876L187.4 630.92V630.925Z" fill="#FAF7F2"/>
<path d="M426.381 593.363L354.255 593.255C348.302 593.244 342.87 587.15 342.844 580.764L342.617 516.64C342.587 508.692 347.682 502.685 355.345 502.685L405.961 502.695L407.419 501.609C407.696 501.403 408.418 502.328 408.756 502.728H424.747C431.602 503.382 436.465 509.27 436.47 516.624L436.521 578.169C436.526 585.36 433.489 591.562 426.381 593.363ZM367.34 530.672L364.117 529.499C362.836 533.862 363.592 539.102 366.089 542.903L368.662 540.383C368.768 540.281 369.313 540.221 369.257 540.237C371.996 543.855 377.767 543.763 380.158 540.037C384.103 536.539 383.14 529.969 379.074 527.017C374.887 523.978 369.51 525.903 367.34 530.672ZM412.706 533.197C413.235 533.122 414.476 533.3 414.506 532.851L414.653 530.618L389.491 530.607C388.664 530.607 388.512 533.976 389.324 534.057L407.333 533.954L412.706 533.192V533.197ZM407.414 541.773C407.575 540.643 407.585 539.605 407.379 538.388L390.111 538.231C389.577 538.231 388.406 539.632 388.679 540.124L389.612 541.8L407.419 541.773H407.414ZM407.656 552.587C408.211 552.095 408.882 550.944 408.635 550.522C408.387 550.1 407.661 549.532 407.096 549.219L368.455 549.202C367.699 549.527 366.816 550.392 366.786 551.036C366.755 551.679 368.087 552.544 368.864 552.571L407.656 552.587ZM399.151 561.509C400.064 561.444 401.028 560.395 400.977 559.546C400.922 558.611 399.832 557.913 398.828 557.913L368.314 557.957C367.643 557.957 366.533 559.433 366.826 559.984C367.073 560.444 367.81 561.017 368.4 561.309L399.156 561.509H399.151ZM417.725 582.111C422.739 583.203 426.886 580.591 428.661 576.195C430.533 571.567 429.045 566.76 425.534 564.024C421.826 561.136 417.12 561.406 413.356 564.575C410.547 566.943 409.739 571.258 410.738 575.168C411.53 578.271 414.138 581.332 417.73 582.111H417.725ZM390.142 569.901C390.379 568.684 390.253 567.668 389.738 566.532L368.385 566.484C367.825 566.727 366.871 567.641 366.917 568.225C366.957 568.706 367.557 569.528 367.956 569.917L390.137 569.901H390.142Z" fill="#FCFDFD"/>
<path d="M376.333 536.262L373.064 536.295C371.879 534.97 371.273 533.283 372.101 531.774C372.741 530.612 374.361 529.509 375.718 530.287C376.505 530.736 377.64 532.304 377.645 533.148C377.65 533.991 376.969 535.413 376.333 536.268V536.262Z" fill="#FAF7F2"/>
<path d="M407.656 552.588L368.864 552.572C368.087 552.545 366.755 551.69 366.786 551.036C366.816 550.382 367.699 549.528 368.455 549.203L407.096 549.219C407.661 549.533 408.388 550.095 408.635 550.522C408.882 550.95 408.211 552.096 407.656 552.588Z" fill="#FAF7F2"/>
<path d="M380.156 540.043C379.702 539.048 378.854 538.183 378.047 537.567L376.337 536.263C376.972 535.415 377.654 533.982 377.648 533.144C377.643 532.305 376.508 530.737 375.721 530.283C374.365 529.504 372.745 530.608 372.105 531.77C371.272 533.279 371.878 534.971 373.068 536.29C372.316 538.113 370.016 537.334 369.259 540.232C369.315 540.221 368.77 540.276 368.664 540.378C366.944 537.518 365.839 533.965 367.343 530.667C369.512 525.898 374.889 523.973 379.076 527.012C383.142 529.964 384.105 536.534 380.161 540.032L380.156 540.043Z" fill="#FFD100"/>
<path d="M399.15 561.507L368.393 561.307C367.803 561.015 367.067 560.447 366.82 559.982C366.527 559.431 367.637 557.954 368.308 557.954L398.822 557.911C399.831 557.911 400.915 558.603 400.971 559.544C401.021 560.393 400.058 561.442 399.145 561.507H399.15Z" fill="#FAF7F2"/>
<path d="M390.145 569.9L367.965 569.916C367.566 569.527 366.966 568.705 366.925 568.224C366.88 567.645 367.833 566.731 368.393 566.482L389.747 566.531C390.261 567.667 390.382 568.683 390.15 569.9H390.145Z" fill="#FAF7F2"/>
<path d="M376.336 536.262L378.046 537.565C378.859 538.181 379.706 539.046 380.155 540.041C377.769 543.761 371.993 543.853 369.254 540.241C370.011 537.343 372.311 538.122 373.062 536.3L376.331 536.267L376.336 536.262Z" fill="#FFC721"/>
<path d="M367.338 530.673C365.835 533.977 366.94 537.524 368.66 540.385L366.087 542.904C363.585 539.103 362.834 533.864 364.115 529.5L367.338 530.673Z" fill="#FAF7F2"/>
<path d="M372.035 322.307L374.083 322.399L429.249 322.339C433.946 322.339 437.759 323.08 440.942 326.627C443.858 329.877 444.771 333.867 444.766 338.636L444.716 394.595L444.458 413.185L442.41 411.979L440.857 409.011C442.173 407.518 442.895 404.901 442.637 403.052C442.425 401.527 440.428 400.089 439.5 398.959C439.005 396.839 438.698 394.893 437.331 393.676C436.291 392.757 434.047 392.162 432.846 392.6L432.76 372.334C432.77 371.274 432.528 369.571 431.681 368.835L416.295 368.668L416.255 343.4C414.58 342.329 413.137 342.292 411.573 342.292C411.821 341.491 410.963 338.496 410.025 338.496L382.507 338.458C380.948 338.458 380.227 340.897 380.555 342.286L376.953 342.421C375.868 342.465 375.102 345.325 375.112 346.574L375.313 368.798H360.76C360.069 368.798 358.717 369.484 358.52 370.139C358.324 370.793 358.51 372.231 358.762 372.75L358.641 393.141C357.572 392.643 355.418 393.476 354.364 394.341C353.057 395.412 352.785 397.472 352.164 399.408C351.297 400.462 349.133 401.781 348.805 403.09C348.325 405.009 349.127 407.632 350.187 408.762L348.053 412.401L345.107 413.255L344.688 409.016L344.572 337.825C344.557 328.433 350.419 322.209 359.408 322.247L372.035 322.296V322.307Z" fill="#FCFDFD"/>
<path d="M358.644 393.146C361.141 394.303 362.957 396.936 362.594 399.986C365.923 401.911 366.776 404.198 365.565 408.134L358.11 409.4C357.802 406.523 359.638 407.269 360.556 404.452C360.657 404.149 359.613 404.241 359.34 404.387L358.316 404.933L357.847 400.651L356.889 400.905L356.551 404.993L354.876 403.727C354.664 403.571 354.054 404.803 354.276 404.944C355.416 405.669 357.504 407.794 356.758 409.805L348.051 412.406L350.185 408.767C349.125 407.637 348.323 405.014 348.802 403.095C349.13 401.781 351.294 400.461 352.162 399.412C352.788 397.477 353.055 395.417 354.361 394.346C355.421 393.481 357.57 392.648 358.639 393.146H358.644Z" fill="#FFC721"/>
<path d="M375.31 368.805L375.209 372.568L358.759 372.757C358.502 372.238 358.32 370.811 358.517 370.146C358.713 369.481 360.06 368.81 360.756 368.81H375.31V368.805Z" fill="#FFC721"/>
<path d="M370.647 398.173L364.533 398.141L364.508 391.139L370.46 391.214L370.647 398.173Z" fill="#FFC721"/>
<path d="M370.568 385.505C368.606 385.9 366.583 385.981 364.449 385.727L364.53 378.881L370.402 378.735L370.568 385.505Z" fill="#FFC721"/>
<path d="M380.562 342.285H411.58C413.139 342.291 414.587 342.328 416.262 343.404L416.302 368.672L416.272 372.538L432.772 372.338L432.858 392.604C430.341 393.518 429.019 396.168 428.949 398.936C427.526 399.904 425.892 401.499 425.609 403.186C425.367 404.646 425.957 407.339 426.936 408.209L433.302 409.496L434.376 409.707L442.417 411.978L444.465 413.184C443.875 418.699 438.69 423.988 433.428 424.052L414.012 424.28C414.325 426.421 414.597 427.6 413.21 428.93L412.398 424.215L358.326 424.188C351.894 424.188 345.78 419.959 345.119 413.26L348.065 412.405L356.772 409.805L358.124 409.399L365.58 408.134C366.79 404.197 365.938 401.91 362.608 399.985C362.972 396.935 361.156 394.302 358.659 393.145L358.78 372.755L375.23 372.565L375.331 368.802L375.129 346.578C375.119 345.329 375.886 342.464 376.97 342.426L380.572 342.291L380.562 342.285ZM399.368 372.052L399.479 364.974L405.446 364.903L405.507 357.966L399.539 357.809L399.302 351.002L392.658 351.142L392.563 357.798L386.217 357.966L386.292 364.882L392.477 365.006L392.684 372.117L399.373 372.052H399.368ZM426.83 385.786L426.714 378.816C424.555 378.448 422.567 378.529 420.519 378.87L420.55 385.699L426.835 385.786H426.83ZM370.569 385.505L370.402 378.735L364.53 378.881L364.45 385.726C366.588 385.981 368.606 385.899 370.569 385.505ZM395.14 405.846H396.401L406.516 405.906L406.536 389.62C406.536 388.89 405.396 387.451 404.72 387.451H396.755H395.302L386.918 387.473C385.949 387.473 385.152 389.641 385.162 390.598L385.278 405.863L395.135 405.841L395.14 405.846ZM426.699 398.141C426.885 395.47 426.86 393.205 426.361 390.944L420.585 391.209L420.519 398.179L426.699 398.147V398.141ZM370.649 398.174L370.463 391.22L364.51 391.144L364.535 398.147L370.644 398.174H370.649Z" fill="#FAF7F2"/>
<path d="M411.575 342.291H380.556C380.228 340.896 380.95 338.452 382.508 338.457L410.026 338.495C410.964 338.495 411.817 341.496 411.575 342.291Z" fill="#FFC721"/>
<path d="M358.114 409.395L356.762 409.801C357.514 407.795 355.425 405.664 354.28 404.94C354.058 404.799 354.669 403.561 354.881 403.723L356.555 404.988L356.893 400.901L357.852 400.646L358.321 404.929L359.345 404.383C359.612 404.237 360.657 404.145 360.561 404.448C359.643 407.265 357.801 406.519 358.114 409.395Z" fill="#FFD100"/>
<path d="M277.216 230.248L277.196 255.1L279.153 255.846C279.395 255.938 278.88 256.824 278.638 256.922L277.251 257.457L277.12 273.268C274.325 269.51 269.916 268.385 266.163 270.164C262.229 272.029 260.029 276.236 260.594 281.027C261.083 285.169 263.949 288.045 267.339 289.067C271.157 290.219 274.769 288.613 277.342 285.071C278.356 290.587 275.062 294.896 269.846 296.664L205.13 296.573C199.44 296.562 195.767 290.581 195.016 285.299L195.101 257.809C194.748 257.36 193.961 256.457 194.183 256.062L195.026 254.548L195.914 230.237L277.211 230.248H277.216ZM216.107 250.806C216.99 250.536 217.317 247.913 217.247 246.983L216.863 241.938C214.028 241.279 211.158 241.057 208.515 241.949C207.874 244.918 207.96 247.865 208.444 250.904C210.966 251.439 213.509 251.606 216.102 250.806H216.107ZM229.863 251.379C233.354 251.531 233.006 246.902 232.184 241.755C229.137 241.387 226.423 241.295 223.673 241.944C222.816 245.053 222.902 248.205 223.81 251.12L229.858 251.385L229.863 251.379ZM247.065 250.974C248.649 250.676 248.997 245.28 247.786 241.76L241.228 241.43C240.527 241.392 238.963 242.398 238.989 243.139L239.251 250.931C241.819 251.379 244.169 251.515 247.065 250.974ZM263.661 251.071L264.236 245.226C264.337 244.204 263.646 241.63 262.577 241.619L254.97 241.56L254.526 247C254.44 248.038 254.798 250.698 255.762 250.914C258.218 251.455 260.665 251.396 263.656 251.071H263.661ZM216.874 266.011C217.469 262.643 217.363 260.069 216.858 257.106C213.862 256.776 211.325 256.614 208.53 257.106C207.899 259.971 207.819 263.183 208.53 265.984C211.037 266.66 214.301 266.649 216.874 266.006V266.011ZM232.007 265.925C232.491 262.859 232.461 259.955 231.825 257.138C229.399 256.651 226.493 256.63 224.062 256.987C223.396 258.09 223.073 260.22 223.189 261.448L223.628 266.033C226.387 266.665 229.288 266.914 232.007 265.919V265.925ZM247.983 266.287L248.528 260.901C248.639 259.793 247.917 257.079 246.863 257.008L241.339 256.646C240.608 256.597 239.034 257.306 238.837 257.982C238.333 259.685 238.419 264.065 239.422 266.314L247.978 266.287H247.983ZM261.507 266.287C264.241 265.746 264.201 263.713 264.14 261.485C264.1 260.031 264.181 257.23 262.4 256.927C259.933 256.505 257.608 256.77 254.959 257.181C254.384 260.371 254.344 262.832 254.808 266.081C257.048 266.503 259.449 266.698 261.507 266.292V266.287ZM217.09 281.189C217.237 278.204 217.196 275.349 216.773 272.824C214.548 271.391 209.71 271.629 208.772 272.776C208.288 273.365 207.98 275.198 208.046 276.052L208.469 281.703C211.678 281.935 213.938 282.016 217.09 281.195V281.189ZM232.295 281.249C232.567 277.88 232.456 275.29 232.012 272.154L223.235 272.354L223.33 281.47C226.503 281.941 229.011 282.043 232.295 281.254V281.249ZM247.867 281.362C248.417 277.853 248.346 275.111 247.615 272.175L240.795 271.894C240.068 271.862 238.716 273.078 238.741 273.857L239.004 281.465C242.01 281.973 244.855 282.043 247.867 281.362Z" fill="#FCFDFD"/>
<path d="M277.116 273.27C279.563 276.557 279.724 281.791 277.343 285.068C274.771 288.61 271.159 290.216 267.34 289.064C263.95 288.042 261.085 285.165 260.596 281.023C260.031 276.227 262.23 272.026 266.165 270.16C270.099 268.295 274.322 269.512 277.121 273.264L277.116 273.27ZM265.801 281.04L268.974 283.873L274.357 277.693C274.614 277.395 274.665 276.39 274.483 276.146C274.301 275.903 273.323 275.643 273.121 275.865L268.758 280.748L267.138 279.207C266.856 278.936 266.235 278.579 265.887 278.531C265.539 278.482 264.944 279.32 265.02 279.688C265.075 279.964 265.549 280.823 265.791 281.04H265.801Z" fill="#FFB521"/>
<path d="M213.141 212.563L213.418 220.295C213.454 221.307 215.557 222.431 216.39 222.193C217.272 221.939 218.413 220.512 218.392 219.387L218.317 214.515C218.307 213.855 219.225 212.623 219.643 212.347L255.051 212.174L255.242 219.414C255.273 220.495 256.393 221.993 257.26 222.226C258.128 222.458 260.221 221.285 260.257 220.328L260.544 212.666L265.488 212.547C272.464 212.504 277.766 217.786 277.428 225.346L277.211 230.245L195.914 230.234L196.186 222.685C196.923 215.964 202.643 212.547 208.576 212.531L213.141 212.558V212.563Z" fill="#FFD100"/>
<path d="M219.647 212.345C219.223 212.621 218.31 213.853 218.32 214.513L218.396 219.385C218.411 220.51 217.271 221.932 216.393 222.191C215.561 222.435 213.457 221.304 213.422 220.293L213.145 212.561L213.311 209.144C213.377 207.846 214.834 206.332 215.924 206.332C218.451 206.337 220.434 209.495 219.647 212.345Z" fill="#FFC721"/>
<path d="M260.543 212.671L260.255 220.333C260.22 221.29 258.107 222.463 257.259 222.231C256.412 221.998 255.266 220.501 255.241 219.419L255.05 212.179L255.029 209.145C255.014 207.237 256.729 206.139 258.283 206.35C259.549 206.518 260.573 207.988 260.563 209.616L260.543 212.682V212.671Z" fill="#FFC721"/>
<path d="M247.985 266.288L239.43 266.315C238.426 264.066 238.34 259.686 238.844 257.983C239.046 257.312 240.615 256.604 241.347 256.647L246.87 257.01C247.92 257.08 248.646 259.789 248.535 260.903L247.99 266.288H247.985Z" fill="#FAF7F2"/>
<path d="M263.658 251.072C260.667 251.396 258.22 251.456 255.764 250.915C254.8 250.704 254.442 248.038 254.528 247L254.972 241.561L262.579 241.62C263.648 241.631 264.345 244.199 264.239 245.227L263.663 251.072H263.658Z" fill="#FAF7F2"/>
<path d="M247.866 281.362C244.855 282.038 242.009 281.968 239.003 281.465L238.741 273.857C238.715 273.078 240.067 271.862 240.794 271.894L247.614 272.175C248.345 275.117 248.411 277.853 247.866 281.362Z" fill="#FAF7F2"/>
<path d="M229.861 251.381L223.813 251.116C222.905 248.201 222.819 245.043 223.677 241.94C226.426 241.291 229.14 241.383 232.187 241.75C233.009 246.898 233.357 251.527 229.866 251.375L229.861 251.381Z" fill="#FAF7F2"/>
<path d="M261.507 266.288C259.449 266.693 257.047 266.499 254.808 266.077C254.339 262.827 254.384 260.367 254.959 257.177C257.607 256.76 259.933 256.495 262.4 256.923C264.18 257.225 264.1 260.026 264.14 261.481C264.206 263.709 264.241 265.742 261.507 266.282V266.288Z" fill="#FAF7F2"/>
<path d="M247.061 250.973C244.165 251.52 241.815 251.379 239.247 250.93L238.985 243.138C238.959 242.398 240.528 241.392 241.224 241.43L247.782 241.76C248.993 245.28 248.64 250.676 247.061 250.973Z" fill="#FAF7F2"/>
<path d="M217.091 281.19C213.938 282.012 211.678 281.931 208.47 281.699L208.046 276.048C207.98 275.194 208.288 273.361 208.772 272.771C209.711 271.63 214.548 271.387 216.773 272.82C217.197 275.345 217.237 278.2 217.091 281.185V281.19Z" fill="#FAF7F2"/>
<path d="M216.871 266.012C214.298 266.65 211.039 266.666 208.527 265.99C207.816 263.189 207.891 259.978 208.527 257.112C211.322 256.62 213.859 256.777 216.855 257.112C217.36 260.075 217.466 262.649 216.871 266.017V266.012Z" fill="#FAF7F2"/>
<path d="M232.005 265.926C229.286 266.915 226.386 266.672 223.626 266.039L223.187 261.454C223.071 260.227 223.394 258.096 224.06 256.993C226.491 256.631 229.397 256.658 231.823 257.145C232.459 259.962 232.489 262.865 232.005 265.931V265.926Z" fill="#FAF7F2"/>
<path d="M216.109 250.808C213.516 251.614 210.973 251.441 208.451 250.906C207.967 247.867 207.881 244.92 208.522 241.951C211.165 241.059 214.035 241.281 216.87 241.941L217.254 246.985C217.324 247.91 216.996 250.533 216.114 250.808H216.109Z" fill="#FAF7F2"/>
<path d="M232.292 281.251C229.008 282.04 226.501 281.937 223.328 281.467L223.232 272.35L232.01 272.15C232.449 275.292 232.56 277.877 232.292 281.245V281.251Z" fill="#FAF7F2"/>
<path d="M265.806 281.038C265.564 280.822 265.089 279.962 265.034 279.687C264.958 279.324 265.553 278.481 265.902 278.53C266.25 278.578 266.87 278.935 267.153 279.205L268.772 280.746L273.135 275.864C273.337 275.637 274.316 275.902 274.497 276.145C274.679 276.388 274.629 277.394 274.371 277.691L268.989 283.872L265.816 281.038H265.806Z" fill="#FAF7F2"/>
<path d="M290.154 571.793C286.295 573.783 283.248 574.805 279.102 574.8L192.881 574.702C186.671 574.697 181.864 570.388 178.514 565.667C176.426 562.72 175.674 557.281 175.674 552.69L175.664 351.327C175.664 340.529 183.019 330.471 193.567 330.439L278.693 330.185C288.509 330.158 298.462 337.782 298.462 349.185L298.508 557.524C298.508 561.574 293.493 570.074 290.154 571.793ZM180.204 531.997L180.381 556.123C180.436 563.288 186.58 569.868 193.527 569.874L281.129 569.944C288.116 569.149 293.085 563.585 293.902 556.205L294.523 555.913C294.674 555.842 294.896 555.496 294.76 555.404L294.043 554.934V532.343L294.048 349.44C294.048 348.466 293.509 346.887 293.251 346.022C291.612 340.415 287.178 335.505 281.356 335.435L265.724 335.246C264.185 335.23 263.136 336.679 263.146 338.366C263.171 342.216 260.381 346.049 256.487 346.049L217.624 346.033C213.76 346.033 211.122 342.124 211.092 338.376C211.076 336.706 210.027 335.23 208.584 335.24L193.204 335.397C185.566 335.473 180.199 343.113 180.199 351.354L180.209 531.997H180.204Z" fill="#FFD100"/>
<path d="M293.253 346.016C292.773 345.6 292.365 347.097 292.198 347.865C292.072 348.455 293.187 349.276 294.045 349.433V532.336L180.205 531.996L180.195 351.353C180.195 343.112 185.563 335.472 193.2 335.396L208.581 335.239C210.023 335.223 211.073 336.699 211.088 338.376C211.118 342.123 213.756 346.027 217.62 346.032L256.483 346.048C260.378 346.048 263.167 342.22 263.142 338.365C263.132 336.678 264.181 335.229 265.72 335.245L281.353 335.434C287.174 335.504 291.608 340.414 293.248 346.021L293.253 346.016ZM277.711 399.282C281.867 398.076 283.148 394.675 283.143 390.706L283.123 363.692C283.123 359.204 280.455 355.965 276.081 355.965L197.039 355.992C194.517 355.992 191.137 358.939 191.137 361.599L191.086 393.367C191.081 397.292 194.734 399.304 198.088 399.304L277.716 399.287L277.711 399.282ZM276.364 449.444C280.142 449.444 283.048 447.081 283.048 443.004V411.891C283.048 407.55 279.854 405.316 276.101 405.316L198.093 405.295C194.3 405.295 191.838 407.312 190.986 411.448L191.051 444.259C191.051 446.189 193.71 449.379 195.748 449.379L276.369 449.444H276.364ZM275.607 524.101C279.491 524.101 283.078 521.56 283.078 517.077L283.088 461.513C283.088 457.744 280.081 455.008 276.611 455.008L196.131 455.073C193.326 455.073 191.026 458.766 191.031 461.513L191.071 517.629C191.071 521.863 195.056 524.096 198.572 524.096L275.612 524.107L275.607 524.101Z" fill="#FAF7F2"/>
<path d="M294.042 532.337V554.928L293.895 556.199C293.078 563.585 288.114 569.149 281.123 569.939L193.52 569.869C186.574 569.863 180.429 563.283 180.374 556.118L180.197 531.991L294.036 532.332L294.042 532.337ZM233.694 560.655C239.763 562.596 245.428 558.962 247.007 553.231C248.702 547.077 245.518 540.648 239.702 539.134C233.82 537.604 228.347 541.075 226.773 547.077C225.356 552.484 228.054 558.854 233.694 560.655ZM206.065 556.853L207.68 556.989C208.073 557.021 209.082 556.837 209.44 556.686C209.798 556.534 209.864 555.566 209.919 555.015L210.56 548.743L204.451 543.363L197.989 549.278C199.856 552.117 198.297 556.399 199.361 556.605L201.112 556.94C201.586 557.032 202.998 556.816 203.029 556.302L203.15 554.328C203.18 553.831 203.367 552.944 203.523 552.538C203.679 552.133 205.046 552.138 205.218 552.538C206.06 554.48 205.309 556.789 206.06 556.848L206.065 556.853ZM275.765 556.789C275.907 552.847 273.667 551.69 270.918 551.003C272.401 549.884 273.662 548.007 272.895 546.044C272.259 544.417 270.484 543.476 269.076 543.86C267.775 544.217 266.478 546.028 266.665 547.618C266.796 548.716 268.083 549.981 269.318 551.235C266.176 551.571 263.719 553.095 264.178 556.864L275.76 556.794L275.765 556.789Z" fill="#FCFDFD"/>
<path d="M293.251 346.018C293.503 346.883 294.048 348.456 294.048 349.435C293.185 349.273 292.075 348.456 292.201 347.867C292.368 347.099 292.771 345.607 293.256 346.018H293.251Z" fill="#FCFDFD"/>
<path d="M293.898 556.198L294.04 554.928L294.756 555.398C294.892 555.485 294.67 555.836 294.519 555.906L293.898 556.198Z" fill="#FFC721"/>
<path d="M206.065 556.853C205.314 556.788 206.065 554.479 205.223 552.543C205.051 552.143 203.684 552.138 203.528 552.543C203.372 552.949 203.185 553.841 203.155 554.333L203.034 556.307C203.003 556.82 201.591 557.037 201.117 556.945L199.366 556.609C198.297 556.404 199.856 552.121 197.994 549.283L204.456 543.367L210.565 548.747L209.924 555.02C209.869 555.571 209.808 556.539 209.445 556.69C209.082 556.842 208.078 557.026 207.685 556.993L206.07 556.858L206.065 556.853Z" fill="#FFC721"/>
<path d="M275.768 556.787L264.185 556.858C263.721 553.094 266.178 551.569 269.326 551.229C268.09 549.974 266.803 548.714 266.672 547.611C266.481 546.022 267.782 544.21 269.084 543.853C270.491 543.469 272.262 544.405 272.902 546.038C273.669 548.001 272.413 549.877 270.925 550.996C273.674 551.683 275.914 552.84 275.773 556.782L275.768 556.787Z" fill="#FFC721"/>
<path d="M233.694 560.654C228.054 558.854 225.355 552.484 226.773 547.077C228.347 541.075 233.82 537.604 239.702 539.134C245.518 540.648 248.701 547.077 247.006 553.23C245.427 558.962 239.762 562.596 233.694 560.654ZM238.042 553.274C238.083 552.722 238.012 551.143 238.521 551.116L240.408 551.003C241.054 550.965 241.815 551.003 242.058 550.662C242.3 550.321 242.416 549.013 242.022 548.98L240.327 548.829C239.878 548.791 238.315 549.159 238.274 548.672L238.088 546.293C238.047 545.774 237.972 544.73 237.583 544.757L236.171 544.855C235.782 544.882 236.246 548.548 235.57 548.613L233.825 548.791L232.059 548.97C231.661 549.007 231.56 550.84 231.958 550.868L233.891 550.992C234.38 551.024 235.777 550.943 235.818 551.451L235.954 553.382L236.12 555.291C236.155 555.718 237.866 555.658 237.896 555.236L238.042 553.274Z" fill="#FFB521"/>
<path d="M238.044 553.275L237.898 555.237C237.868 555.665 236.158 555.719 236.122 555.291L235.956 553.383L235.82 551.452C235.784 550.939 234.387 551.025 233.893 550.993L231.961 550.868C231.562 550.841 231.668 549.014 232.061 548.971L233.827 548.792L235.572 548.614C236.243 548.543 235.784 544.883 236.173 544.856L237.585 544.758C237.974 544.731 238.049 545.775 238.09 546.294L238.276 548.673C238.317 549.16 239.88 548.792 240.329 548.83L242.024 548.981C242.418 549.014 242.297 550.328 242.06 550.663C241.823 550.998 241.056 550.966 240.41 551.004L238.523 551.117C238.014 551.15 238.085 552.729 238.044 553.275Z" fill="#FAF7F2"/>
<path d="M275.606 524.101L198.567 524.09C195.051 524.09 191.071 521.857 191.066 517.623L191.025 461.508C191.025 458.761 193.321 455.073 196.125 455.068L276.605 455.003C280.076 455.003 283.087 457.734 283.082 461.508L283.072 517.072C283.072 521.554 279.486 524.096 275.601 524.096L275.606 524.101ZM211.138 484.553L220.859 476.94C221.736 476.253 224.304 476.15 225.212 476.518C231.694 479.168 230.801 482.017 233.046 482.028C234.297 482.028 234.877 480.687 235.367 479.324C235.932 477.74 242.328 473.804 244.623 475.188L248.78 477.702C249.229 479.752 250.036 480.341 251.64 480.325C252.906 480.314 252.977 478.016 253.597 477.345C256.538 474.193 260.019 471.738 263.409 469.289C264.786 469.835 266.41 469.824 267.177 468.813C267.863 467.904 268.08 465.898 267.54 465.012C266.859 463.898 265.225 463.573 263.989 463.941C262.96 464.249 262.42 466.125 262.345 467.607L252.649 475.096L248.901 475.053C247.821 475.042 245.693 473.593 244.855 472.901C244.189 471.3 243.1 470.165 241.733 470.424C240.472 470.662 239.912 472.127 239.685 473.75L234.797 477.064L231.129 477.394L225.252 474.161C224.884 472.068 224.032 471.387 222.508 471.354C220.985 471.322 220.581 473.128 220.394 474.534L209.66 482.877C208.237 483.326 205.962 482.488 205.791 485.186C205.695 486.716 206.472 488.376 208.368 488.322C210.023 488.295 210.941 487.03 211.143 484.548L211.138 484.553ZM209.993 514.228L209.983 501.667L201.316 501.38L201.296 514.233H209.993V514.228ZM222.054 504.792C222.079 503.949 221.888 501.618 221.176 501.607L213.115 501.542L213.095 514.174L221.797 514.19L222.049 504.792H222.054ZM233.808 503.165C233.818 502.397 232.148 501.278 231.402 501.315L224.899 501.667L224.96 514.076C228.173 514.59 230.756 514.595 233.697 513.892L233.808 503.165ZM272.156 505.398C272.529 504.268 272.706 503.008 272.267 502.759L270.623 501.824L241.859 501.862C241.117 502.181 240.113 502.883 239.896 503.467C239.715 503.954 240.345 504.976 240.86 505.528L272.156 505.398ZM260.105 513.73C260.589 513.06 261.114 512.103 260.962 511.627C260.811 511.151 259.999 510.443 259.54 510.145L241.369 510.129C240.683 510.372 239.659 511.784 239.917 512.433C240.139 512.989 241.153 513.611 241.834 513.844L260.11 513.73H260.105Z" fill="#FCFDFD"/>
<path d="M211.135 484.553C210.934 487.035 210.016 488.3 208.361 488.327C206.464 488.387 205.687 486.721 205.783 485.191C205.955 482.488 208.225 483.326 209.652 482.882L220.387 474.539C220.574 473.133 221.018 471.327 222.501 471.36C223.984 471.392 224.877 472.073 225.245 474.166L231.122 477.4L234.789 477.07L239.677 473.755C239.904 472.133 240.469 470.668 241.725 470.43C243.092 470.17 244.182 471.3 244.848 472.906C245.685 473.593 247.814 475.042 248.894 475.058L252.642 475.101L262.337 467.613C262.408 466.131 262.953 464.255 263.982 463.946C265.218 463.579 266.847 463.903 267.533 465.017C268.078 465.904 267.856 467.91 267.17 468.818C266.403 469.829 264.784 469.84 263.401 469.294C260.012 471.744 256.536 474.193 253.59 477.351C252.969 478.016 252.899 480.319 251.633 480.33C250.029 480.341 249.221 479.757 248.772 477.708L244.616 475.193C242.326 473.804 235.924 477.74 235.359 479.33C234.875 480.692 234.29 482.039 233.039 482.033C230.789 482.023 231.687 479.173 225.205 476.524C224.292 476.15 221.729 476.253 220.851 476.945L211.13 484.559L211.135 484.553Z" fill="#FFD100"/>
<path d="M209.991 514.23H201.289L201.309 501.383L209.976 501.669L209.991 514.23Z" fill="#FAF7F2"/>
<path d="M233.809 503.165L233.698 513.892C230.762 514.595 228.174 514.585 224.961 514.076L224.9 501.667L231.403 501.315C232.149 501.278 233.819 502.397 233.809 503.165Z" fill="#FAF7F2"/>
<path d="M222.054 504.793L221.801 514.19L213.1 514.174L213.12 501.543L221.181 501.608C221.897 501.613 222.084 503.944 222.059 504.793H222.054Z" fill="#FAF7F2"/>
<path d="M272.155 505.397L240.859 505.527C240.344 504.976 239.714 503.954 239.895 503.467C240.112 502.883 241.116 502.175 241.857 501.861L270.621 501.823L272.266 502.759C272.705 503.007 272.528 504.267 272.155 505.397Z" fill="#FAF7F2"/>
<path d="M260.105 513.73L241.829 513.844C241.148 513.611 240.134 512.989 239.912 512.432C239.654 511.784 240.678 510.372 241.364 510.129L259.535 510.145C259.999 510.448 260.806 511.156 260.957 511.627C261.109 512.097 260.584 513.054 260.1 513.73H260.105Z" fill="#FAF7F2"/>
<path d="M276.362 449.445L195.741 449.38C193.703 449.38 191.049 446.189 191.044 444.259L190.979 411.448C191.836 407.312 194.293 405.295 198.086 405.295L276.094 405.317C279.852 405.317 283.041 407.55 283.041 411.892V443.005C283.041 447.076 280.135 449.445 276.357 449.445H276.362ZM201.602 427.394C199.786 427.724 198.873 429.238 199.045 430.984C199.216 432.731 200.634 433.796 202.419 434.175C204.13 439.074 208.261 441.491 212.902 441.647C217.538 441.804 221.069 438.565 223.384 434.05C224.716 433.656 226.315 432.693 226.572 431.406C226.921 429.67 226.144 428.102 224.519 427.545C224.605 420.732 220.958 416.98 215.026 414.855C214.617 414.173 213.467 412.708 213.028 413.097L210.98 414.909C205.628 416.574 200.684 421.057 201.597 427.389L201.602 427.394ZM269.093 424.534C270.334 424.534 271.605 423.339 271.615 422.29C271.62 420.884 270.465 419.667 269.128 419.667L235.824 419.716C234.437 419.716 233.362 420.943 233.418 422.268C233.463 423.404 234.538 424.539 235.844 424.539H269.098L269.093 424.534ZM259.049 436.078C260.618 434.899 260.058 431.352 258.539 431.347L234.785 431.266C233.948 431.266 233.135 433.353 233.312 434.169C233.519 435.143 234.624 436.143 235.784 436.143L259.049 436.083V436.078Z" fill="#FCFDFD"/>
<path d="M269.092 424.533H235.839C234.532 424.533 233.458 423.403 233.412 422.268C233.357 420.943 234.431 419.721 235.818 419.716L269.122 419.667C270.464 419.667 271.619 420.884 271.609 422.289C271.604 423.338 270.333 424.533 269.087 424.533H269.092Z" fill="#FAF7F2"/>
<path d="M224.518 427.549C226.137 428.106 226.919 429.674 226.571 431.41C226.313 432.697 224.714 433.659 223.383 434.054C221.067 438.569 217.536 441.808 212.9 441.651C208.259 441.494 204.123 439.077 202.418 434.178C200.632 433.8 199.209 432.708 199.043 430.988C198.876 429.269 199.784 427.733 201.6 427.398L202.559 427.225C202.655 427.209 203.754 420.952 208.91 419.741C209.727 421.147 210.575 422.456 211.508 423.05C213.147 424.099 216.921 422.007 216.91 422.039L217.491 420.185C222.697 420.823 222.752 426.949 223.665 427.263L224.518 427.555V427.549Z" fill="#FFC721"/>
<path d="M224.521 427.551L223.668 427.259C222.755 426.945 222.7 420.819 217.494 420.181L216.914 422.035C216.924 422.003 213.151 424.09 211.511 423.047C210.578 422.452 209.73 421.143 208.913 419.737C203.753 420.949 202.658 427.205 202.562 427.221L201.604 427.394C200.691 421.057 205.629 416.574 210.986 414.914L213.035 413.103C213.473 412.714 214.624 414.179 215.032 414.86C220.965 416.985 224.612 420.738 224.526 427.551H224.521Z" fill="#FFB521"/>
<path d="M259.049 436.078L235.783 436.137C234.623 436.137 233.518 435.137 233.311 434.163C233.135 433.347 233.947 431.26 234.784 431.26L258.539 431.341C260.052 431.341 260.612 434.893 259.049 436.072V436.078Z" fill="#FAF7F2"/>
<path d="M277.707 399.283L198.08 399.299C194.725 399.299 191.073 397.288 191.078 393.362L191.129 361.595C191.129 358.935 194.508 355.988 197.031 355.988L276.073 355.961C280.446 355.961 283.11 359.2 283.115 363.688L283.135 390.702C283.135 394.676 281.859 398.077 277.702 399.278L277.707 399.283ZM225.164 381.715C227.661 373.751 223.096 366.078 215.912 363.85C209.44 361.844 201.959 366.164 199.896 373.296C197.792 380.558 201.187 388.453 208.209 391.059C215.171 393.644 222.702 389.567 225.164 381.71V381.715ZM271.644 374.599C272.239 373.323 272.446 371.939 272.078 371.296C271.8 370.809 270.716 370.176 270.125 370.171L235.298 370.155C234.178 370.155 233.094 371.528 233.23 372.615C233.326 373.388 234.345 374.302 235.313 374.713L271.644 374.594V374.599ZM258.563 385.819C260.001 385.819 261.081 384.916 260.985 383.392C260.914 382.332 259.734 381.429 258.574 381.342L234.814 381.299C233.997 381.948 233.25 383.056 233.27 383.873C233.29 384.603 234.511 385.787 235.283 385.792L258.563 385.819Z" fill="#FCFDFD"/>
<path d="M271.646 374.599L235.316 374.718C234.347 374.307 233.333 373.399 233.232 372.62C233.096 371.528 234.181 370.155 235.301 370.16L270.128 370.176C270.718 370.176 271.803 370.814 272.08 371.301C272.448 371.945 272.241 373.329 271.646 374.605V374.599Z" fill="#FAF7F2"/>
<path d="M258.563 385.818L235.283 385.791C234.511 385.791 233.29 384.607 233.27 383.872C233.25 383.05 233.996 381.947 234.814 381.298L258.573 381.341C259.733 381.428 260.914 382.325 260.984 383.39C261.085 384.915 260.001 385.818 258.563 385.818Z" fill="#FAF7F2"/>
<path d="M225.166 381.716C222.7 389.578 215.173 393.655 208.212 391.065C201.19 388.458 197.795 380.564 199.899 373.302C201.962 366.165 209.443 361.844 215.915 363.856C223.098 366.083 227.664 373.756 225.166 381.721V381.716ZM219.905 377.855C221.393 375.368 219.966 372.242 218.286 371.453C216.268 370.501 214.099 371.058 212.525 373.416C210.87 371.112 208.666 370.171 206.351 371.766C205.094 372.675 203.758 376.119 205.478 378.044L212.646 386.068C215.239 383.397 218.018 381.013 219.905 377.86V377.855Z" fill="#FAF7F2"/>
<path d="M219.901 377.854C218.015 381.006 215.235 383.385 212.642 386.062L205.474 378.037C203.754 376.113 205.091 372.668 206.347 371.76C208.662 370.17 210.867 371.111 212.521 373.409C214.1 371.051 216.264 370.494 218.282 371.446C219.962 372.241 221.394 375.361 219.901 377.848V377.854Z" fill="#FFB521"/>
</g>
</svg>
