<svg width="388" height="546" viewBox="0 0 388 546" fill="none" xmlns="http://www.w3.org/2000/svg">
<path d="M81.9998 105C78.3998 89.4 83.3338 79.6667 87.0005 71.5C99.3341 73.6667 123.3 84.2 124.5 85C126 86 116.5 140 115 142C113.5 144 84.3204 167.766 74.4994 143.5C66 122.5 86.4998 124.5 81.9998 105Z" fill="#5F3010"/>
<path d="M152 137.5C155.6 127.9 152.167 119.833 150 117L123 132.5C131.167 138.167 148.4 147.1 152 137.5Z" fill="#5F3010"/>
<path d="M75.1775 291.21C110.967 296.238 144.106 312.741 169.229 339.119L177.22 338.112L189.425 337.881C198.129 337.716 206.788 339.337 215.315 341.647C240.57 320.038 272.385 310.085 304.827 307.812L325.035 307.762C346.448 308.431 367.167 312.803 387 320.487L388.884 621.041L0.884336 621.049L-1 297.5L0.884335 297.434C23.0387 290.29 46.2692 288.054 69.4255 290.632L75.1816 291.21H75.1775Z" fill="url(#paint0_linear_547_14349)"/>
<path opacity="0.5" d="M66.8031 208.488C69.2482 217.525 72.1469 226.435 76.5093 234.928C76.9422 235.769 77.8493 236.99 77.7669 237.774L76.8804 246.481L74.6662 268.256L74.225 276.253C74.126 278.019 75.095 280.234 76.6412 280.906L75.1775 291.206L69.4214 290.628C46.2692 288.05 23.0387 290.286 0.880212 297.43L-1 297.496V222.987L0.711158 221.856L5.77454 215.731C15.2622 205.993 27.867 200.012 41.6181 200.589C49.4895 200.919 56.9279 203.064 63.6117 206.995L66.799 208.484L66.8031 208.488Z" fill="#FFECC7"/>
<path opacity="0.5" d="M387 243.301V320.491C367.167 312.807 346.444 308.434 325.032 307.766L304.823 307.816L303.021 288.875L304.663 287.46C311.722 279.425 322.092 275.115 332.726 276.55C334.148 266.676 338.853 258.286 345.833 251.55C356.913 240.859 372.837 237.625 386.996 243.301H387Z" fill="#FFECC7"/>
<path opacity="0.5" d="M195.842 252.697L195.941 258.406L197.235 260.893C193.763 286.512 191.125 312.205 189.422 337.89L177.217 338.121L173.098 278.766L174.133 276.893C174.454 276.307 175.085 274.86 175.027 274.055L174.075 262.395C178.264 260.567 181.765 257.56 185.204 254.611C187.896 255.721 193.677 253.98 195.838 252.706L195.842 252.697Z" fill="#FFECC7"/>
<g opacity="0.05" filter="url(#filter0_f_547_14349)">
<path d="M359.577 106.85L306.197 106.809C302.424 106.809 298.779 103.48 298.779 99.6562V45.2385C298.783 42.2274 302.387 38.709 305.372 38.709H359.75C363.086 38.709 366.001 42.4666 366.005 45.6221L366.059 98.3899C366.063 102.531 364.055 105.988 359.577 106.846V106.85ZM358.505 52.5104C356.13 48.7899 352.077 47.1235 348.147 48.233C344.572 49.2436 341.546 52.267 341.266 56.3299C340.977 60.4711 343.43 64.0514 346.832 65.4332C350.695 67.0006 354.81 66.0148 357.359 63.1357C359.923 60.2319 360.74 56.0082 358.505 52.5104ZM331.984 57.0558C332.986 57.1755 333.827 56.433 333.79 55.7442C333.745 54.8862 333.089 54.2056 332.227 54.1479L311.071 54.1355C310.555 54.2304 309.603 54.9069 309.533 55.373C309.463 55.839 309.949 56.6516 310.407 57.0558H331.98H331.984ZM333.398 67.4667C333.922 66.1592 333.761 65.3012 333.011 64.435L310.72 64.2288C310.168 64.5835 309.529 65.491 309.541 66.0478C309.553 66.4974 310.242 67.211 310.724 67.4873L333.398 67.4708V67.4667ZM352.695 78.2158C353.483 78.2199 354.349 77.4115 354.357 76.7721C354.365 76.1328 353.59 75.2666 352.769 75.2666L311.137 75.3037C310.349 75.3037 309.525 76.1163 309.52 76.768C309.52 77.3455 310.403 78.2075 311.129 78.2075L343.525 78.158L352.695 78.2117V78.2158ZM353.788 86.7169C354.155 85.9992 354.518 85.0917 354.237 84.8442L353.017 83.7636L310.461 83.7553C309.999 84.1059 309.43 84.9391 309.496 85.3928C309.549 85.7723 310.069 86.3663 310.469 86.7004L353.788 86.7169ZM337.122 94.657C337.715 94.657 338.66 94.0837 338.779 93.6093C338.903 93.1061 338.437 92.0997 337.963 91.8357L310.737 91.8274C310.114 92.1038 309.5 93.0236 309.595 93.5763C309.669 94.0177 310.588 94.6282 311.124 94.6282L337.126 94.657H337.122Z" fill="#FDFDFD"/>
<path d="M65.4298 89.7691L65.2855 120.552C65.2649 124.891 61.3931 127.238 57.5709 127.234L22.923 127.222C18.474 127.222 15.0269 124.549 15.0352 119.838L15.1465 72.8659C15.1547 70.2178 18.2843 66.7819 20.882 66.7819L59.5542 66.7695C62.3951 66.7695 65.1989 70.2714 65.269 72.7504L65.4504 79.1025C69.0047 81.0906 73.2104 80.5214 72.8847 81.6929C72.8022 81.9981 72.4889 82.889 72.1755 83.1943L65.4298 89.7691ZM29.6769 88.0078C29.6604 90.4002 26.2752 92.1408 26.2835 94.3434L26.3206 111.964C26.3247 114.348 29.3347 115.083 31.0994 115.087L45.267 115.074C44.5207 117.005 45.267 119.067 47.3204 119.426C49.4851 119.801 51.8065 118.461 52.5281 116.378C54.5031 116.184 56.8122 114.889 56.9854 112.393C57.0472 111.49 56.404 109.939 55.8185 109.386C55.0268 108.64 53.5136 108.458 52.223 108.471L52.1075 93.8938C52.0952 92.2068 49.279 90.6807 49.0893 88.0202C49.6129 88.0202 50.685 87.7397 51.1179 87.5087V81.2144C51.1179 80.2244 49.9181 79.4572 48.9367 79.4572H29.4749C28.8069 79.4572 27.6194 80.4843 27.6235 81.1113L27.6812 87.8016L29.6728 88.0078H29.6769Z" fill="#FDFDFD"/>
<path d="M374.787 188.648L337.673 188.566C335.059 188.562 332.746 185.369 332.742 182.977L332.676 142.958C332.672 139.869 334.317 136.371 337.974 136.367L374.626 136.334C377.636 136.334 380.258 138.829 380.258 141.845L380.295 182.543C380.295 185.711 378.448 188.656 374.791 188.648H374.787ZM348.204 153.674C350.29 153.575 348.546 148.894 350.426 146.53C350.703 146.184 350.459 145.008 350.068 145.066C349.754 145.111 348.798 145.421 348.456 145.371C346.439 145.078 343.194 144.773 340.815 145.429L340.522 152.482C340.494 153.184 342.151 153.967 342.84 153.934L348.204 153.674ZM371.975 150.008C372.395 149.793 373.055 148.386 372.655 148.205L371.303 147.59L355.218 147.636C354.777 147.607 353.692 148.127 353.832 148.535L354.335 149.999L371.979 150.008H371.975ZM348.431 166.696C350.229 166.618 348.567 162.002 350.369 160.002C350.641 159.701 350.727 158.43 350.332 158.451L348.851 158.529L344.048 158.146C343.145 158.076 341.071 158.414 340.638 159.243L340.531 165.587C340.522 166.152 341.883 166.989 342.423 166.964L348.435 166.7L348.431 166.696ZM372.346 163.198C372.606 162.802 372.956 161.656 372.659 161.433L371.731 160.744L354.513 160.818C353.911 161.491 353.861 162.505 354.447 163.182L372.346 163.198ZM347.87 180.316C348.431 180.168 349.532 179.128 349.528 178.555L349.495 172.599C349.495 172.034 348.464 171.035 347.92 171.04L342.023 171.081C341.178 171.431 340.407 172.491 340.407 173.378L340.419 178.584C340.419 179.318 341.561 180.3 342.32 180.3L347.87 180.316ZM372.218 176.307C372.548 175.845 372.964 174.847 372.672 174.62L371.727 173.894L355.201 173.964C354.542 173.989 353.671 174.797 353.779 175.354C353.861 175.779 354.69 176.319 355.185 176.406L372.218 176.303V176.307Z" fill="#FDFDFD"/>
<path d="M174.3 5.8886C177.021 9.99685 175.314 15.4044 170.771 17.4585C167.043 19.1414 162.652 17.244 160.97 13.7669C159.098 9.89373 160.318 5.58337 164.008 3.19927C167.699 0.815165 171.81 2.12683 174.3 5.88448V5.8886Z" fill="#FDFDFD"/>
<path d="M306.238 4.92308C308.411 6.03676 309.755 7.93827 310.171 9.7944C310.703 12.1579 309.961 14.3935 308.398 16.0681C306.518 18.0728 303.999 19.1493 301.286 18.6255C298.989 18.18 296.676 16.5342 295.822 13.9604C294.841 10.9906 295.703 7.85577 297.971 5.90477C300.238 3.95377 303.306 3.4258 306.242 4.92721L306.238 4.92308Z" fill="#FDFDFD"/>
<path d="M66.6786 45.3003C66.2003 46.4223 64.6252 48.1093 63.582 48.7156C59.8752 50.8605 55.0674 49.0002 53.5006 45.2385C52.2059 42.1325 53.1625 38.8327 55.5829 36.9065C58.0032 34.9802 61.3802 34.7699 63.982 36.7044C66.6085 38.6595 68.1836 41.7572 66.6786 45.3003Z" fill="#FDFDFD"/>
<path d="M296.103 26.4297C296.458 28.4013 295.761 30.5132 294.326 31.5526C292.602 32.7983 290.24 32.7488 288.516 31.7506C286.793 30.7524 286.071 28.4797 286.471 26.3059C286.912 23.9012 288.949 22.2637 291.155 22.1977C293.633 22.1234 295.637 23.8063 296.107 26.4297H296.103Z" fill="#FDFDFD"/>
<path d="M177.526 34.7994C175.934 35.9131 174.087 35.1665 172.821 33.8301C171.671 32.6174 170.924 31.1201 171.089 29.4537C171.221 28.0802 172.648 26.1416 174.173 25.8363C176.693 25.329 178.309 27.28 179.101 29.231C179.958 31.3553 179.62 33.3351 177.526 34.7994Z" fill="#FDFDFD"/>
<path d="M72.1378 59.4816C71.6884 60.257 70.4266 61.181 69.6515 61.2387C68.5382 61.3212 67.1033 60.7603 66.3075 60.0549C64.7035 58.6319 63.9036 56.5736 65.0499 54.8536C66.4229 52.7995 68.8144 52.4654 70.8678 53.5708C72.7975 54.6103 73.4201 57.2748 72.1378 59.4857V59.4816Z" fill="#FDFDFD"/>
<path d="M358.505 52.5105C360.739 56.0083 359.923 60.232 357.358 63.1359C354.81 66.0191 350.695 67.0007 346.832 65.4333C343.43 64.0515 340.977 60.4754 341.265 56.33C341.546 52.2672 344.572 49.2396 348.147 48.2331C352.076 47.1236 356.126 48.79 358.505 52.5105ZM349.409 61.7376C349.421 62.2449 351.491 62.48 351.545 61.9644L351.751 60.0382C351.796 59.6051 351.701 58.3759 352.109 58.3511L353.619 58.2728C354.287 58.2398 355.041 58.1985 355.396 57.9634C355.75 57.7283 355.754 56.528 355.449 56.2269C354.505 55.2988 351.94 56.1733 351.887 55.6824L351.697 53.9913C351.648 53.5499 351.693 52.3373 351.26 52.3414L349.697 52.3496C348.976 52.3496 349.631 55.7072 349.083 55.7278L347.351 55.7979C346.922 55.8144 345.615 55.8681 345.595 56.297L345.512 58.1408L349.322 58.38L349.4 61.7293L349.409 61.7376Z" fill="#FFB521"/>
<path d="M353.788 86.7174L310.469 86.7009C310.069 86.3709 309.549 85.7729 309.495 85.3934C309.43 84.9397 309.999 84.1065 310.46 83.7559L353.017 83.7641L354.237 84.8448C354.517 85.0923 354.155 86.0038 353.788 86.7174Z" fill="#FFF4DE"/>
<path d="M352.694 78.2156L343.524 78.162L311.128 78.2114C310.402 78.2114 309.52 77.3494 309.52 76.7719C309.52 76.1243 310.348 75.3076 311.136 75.3076L352.769 75.2705C353.589 75.2705 354.364 76.112 354.356 76.776C354.348 77.4401 353.478 78.2238 352.694 78.2197V78.2156Z" fill="#FFF4DE"/>
<path d="M337.121 94.6577L311.119 94.6288C310.588 94.6288 309.668 94.0184 309.59 93.577C309.495 93.0243 310.113 92.1045 310.732 91.8281L337.958 91.8364C338.432 92.1004 338.898 93.1068 338.774 93.61C338.659 94.0802 337.71 94.6577 337.117 94.6577H337.121Z" fill="#FFF4DE"/>
<path d="M333.396 67.4667L310.723 67.4832C310.24 67.2109 309.552 66.4932 309.539 66.0436C309.527 65.4909 310.166 64.5835 310.718 64.2246L333.009 64.4308C333.759 65.3012 333.92 66.155 333.396 67.4625V67.4667Z" fill="#F8B31A"/>
<path d="M331.983 57.0558H310.41C309.953 56.6516 309.466 55.8432 309.536 55.3771C309.606 54.911 310.559 54.2304 311.074 54.1396L332.231 54.152C333.088 54.2139 333.748 54.8945 333.793 55.7483C333.83 56.4371 332.989 57.1796 331.987 57.06L331.983 57.0558Z" fill="#FFF4DE"/>
<path d="M49.089 88.0161C49.2787 90.6765 52.0949 92.2027 52.1073 93.8897L52.2227 108.467C53.5133 108.45 55.0307 108.636 55.8182 109.382C56.4078 109.935 57.0511 111.486 56.9851 112.389C56.8119 114.885 54.5029 116.18 52.5278 116.374C51.6455 114.406 49.2375 111.874 48.4582 112.067C47.2418 112.364 45.675 114.018 45.2668 115.074L31.0992 115.087C29.3344 115.083 26.3244 114.353 26.3203 111.964L26.2832 94.3434C26.2791 92.1367 29.6602 90.4002 29.6767 88.0078L49.0932 88.0161H49.089ZM33.903 107.633C34.9256 108.058 35.9152 109.139 36.7852 109.259C37.9108 109.415 39.5766 108.788 40.2487 108.054L42.4959 105.604C45.0977 104.251 47.9098 101.727 46.8707 99.3344C46.2069 97.8082 44.6112 96.5378 42.7062 97.2431C41.362 97.7422 39.8694 99.025 38.6365 100.04C37.4738 98.6084 36.2368 97.4452 34.6741 97.4782C33.4412 97.503 31.4744 98.7322 31.4332 100.242L31.3012 104.973C31.26 106.379 32.7279 107.147 33.9071 107.633H33.903Z" fill="#FFF4DE"/>
<path d="M49.0888 88.0169L29.6723 88.0086L27.6808 87.8024L27.6231 81.112C27.6189 80.4851 28.8064 79.458 29.4744 79.458H48.9363C49.9217 79.458 51.1175 80.2293 51.1175 81.2193V87.5136C50.6845 87.7446 49.6166 88.0251 49.0888 88.0251V88.0169Z" fill="#FFB521"/>
<path d="M52.5283 116.374C51.8067 118.457 49.4853 119.802 47.3206 119.422C45.2672 119.063 44.5209 117.001 45.2672 115.071C45.6754 114.015 47.2423 112.361 48.4586 112.064C49.242 111.874 51.6459 114.403 52.5283 116.37V116.374Z" fill="#FEF7E5"/>
<path d="M348.203 153.674L342.839 153.934C342.151 153.967 340.493 153.183 340.522 152.482L340.815 145.429C343.198 144.773 346.439 145.078 348.455 145.371C348.797 145.42 349.754 145.111 350.067 145.066C350.459 145.008 350.702 146.183 350.426 146.53C348.546 148.889 350.29 153.571 348.203 153.674ZM344.554 151.517L347.729 148.171L347.136 147.549L344.686 149.891L342.81 148.596L342.32 149.145L344.554 151.517Z" fill="#FFB521"/>
<path d="M348.432 166.696L342.42 166.96C341.88 166.984 340.519 166.147 340.527 165.582L340.635 159.238C341.068 158.409 343.142 158.071 344.045 158.141L348.848 158.524L350.328 158.446C350.724 158.425 350.638 159.696 350.366 159.997C348.568 161.997 350.225 166.613 348.428 166.691L348.432 166.696ZM344.576 164.699L347.859 161.14L347.384 160.492L344.634 162.897C343.756 162.34 343.418 162.105 342.181 161.977L344.572 164.699H344.576Z" fill="#FFB521"/>
<path d="M372.346 163.198L354.447 163.182C353.861 162.505 353.911 161.491 354.513 160.818L371.731 160.744L372.659 161.433C372.956 161.656 372.605 162.802 372.346 163.198Z" fill="#F8B31A"/>
<path d="M371.975 150.007L354.332 149.999L353.829 148.534C353.689 148.126 354.777 147.61 355.214 147.635L371.299 147.59L372.652 148.204C373.056 148.386 372.396 149.792 371.971 150.007H371.975Z" fill="#FFF4DE"/>
<path d="M372.218 176.306L355.185 176.409C354.69 176.319 353.861 175.782 353.779 175.358C353.671 174.801 354.541 173.992 355.201 173.968L371.727 173.897L372.671 174.623C372.964 174.85 372.552 175.848 372.218 176.31V176.306Z" fill="#FFF4DE"/>
<path d="M347.869 180.316L342.319 180.299C341.561 180.299 340.423 179.317 340.419 178.583L340.406 173.378C340.406 172.491 341.177 171.431 342.023 171.08L347.919 171.039C348.463 171.039 349.49 172.033 349.494 172.598L349.527 178.554C349.527 179.128 348.43 180.167 347.869 180.316ZM348.117 178.542L347.919 172.672L342.002 172.644L342.117 178.703L348.121 178.538L348.117 178.542Z" fill="#FFF4DE"/>
<path d="M349.408 61.7375L349.329 58.3882L345.52 58.149L345.602 56.3052C345.623 55.8763 346.93 55.8226 347.358 55.8061L349.09 55.736C349.639 55.7154 348.987 52.362 349.705 52.3579L351.267 52.3496C351.696 52.3496 351.655 53.5582 351.704 53.9995L351.894 55.6907C351.948 56.1774 354.512 55.3071 355.457 56.2351C355.762 56.5362 355.762 57.7365 355.403 57.9716C355.044 58.2067 354.294 58.248 353.626 58.281L352.117 58.3594C351.709 58.38 351.803 59.6133 351.758 60.0464L351.552 61.9726C351.498 62.4882 349.424 62.2572 349.416 61.7458L349.408 61.7375Z" fill="#F8B31A"/>
<path d="M42.4964 105.609L38.2783 100.725L35.1899 103.361C34.0602 104.326 33.6396 106.227 33.9035 107.638C32.7242 107.151 31.2605 106.384 31.2976 104.978L31.4295 100.247C31.4707 98.741 33.4375 97.5118 34.6704 97.4829C36.2331 97.4499 37.4701 98.6131 38.6329 100.044C39.8657 99.0339 41.3542 97.7469 42.7025 97.2478C44.6075 96.5425 46.2032 97.8129 46.867 99.3391C47.9061 101.731 45.094 104.256 42.4923 105.609H42.4964Z" fill="#FFCD00"/>
<path d="M42.4971 105.608L40.2499 108.058C39.5779 108.793 37.912 109.42 36.7864 109.263C35.9205 109.143 34.9268 108.058 33.9042 107.638C33.6362 106.227 34.0568 104.33 35.1907 103.36L38.279 100.725L42.4971 105.608Z" fill="#FDFDFD"/>
<path d="M344.555 151.517L342.32 149.149L342.807 148.597L344.683 149.892L347.132 147.549L347.73 148.172L344.555 151.517Z" fill="#F8B31A"/>
<path d="M344.575 164.699L342.184 161.977C343.416 162.105 343.759 162.344 344.637 162.897L347.387 160.492L347.861 161.14L344.579 164.699H344.575Z" fill="#FEF7E5"/>
<path d="M348.117 178.542L342.113 178.707L342.002 172.647L347.919 172.676L348.117 178.542Z" fill="#FDFDFD"/>
</g>
<path d="M210.185 153.681L209.86 153.38C209.794 144.974 205.984 137.389 199.098 132.757C196.508 138.465 190.946 142.722 184.885 143.027L186.266 138.317C181.384 142.532 176.094 145.201 169.509 145.77C168.351 149.478 166.281 152.539 163.126 155.014L162.306 158.606C160.388 156 158.385 154.346 155.498 154.614C152.95 154.849 150.542 157.014 149.99 159.815C148.113 157.241 147.095 153.945 146.592 150.666L147.561 147.049C147.986 145.465 147.408 143.46 146.514 142.26L148.035 135.99C148.959 132.208 151.857 129.482 154.439 126.475L157.226 123.228L161.168 120.349C171.864 112.537 190.439 111.584 198.846 119.991C199.943 121.088 200.999 121.632 202.359 122.35C213.026 127.98 216.989 143.229 210.185 153.681Z" fill="#5F3010"/>
<path d="M166.117 176.994C167.304 177.712 168.1 178.524 168.484 180.141C169.787 185.631 177.905 188.634 184.173 187.764L189.657 194.462C194.073 193.514 197.755 191.022 201.029 188.044C200.86 184.241 198.608 181.024 199.012 180.781L199.825 180.29C206.158 183.07 210.908 187.987 214.297 194.087C216.569 198.171 218.239 202.572 217.872 207.299C217.88 212.974 214.689 217.256 210.092 219.871C205.515 221.067 200.686 220.683 196.872 217.021L193.038 220.337L180.581 229.811C180.157 230.133 179.67 231.074 179.856 231.626C179.398 231.742 178.425 232.076 177.951 232.043L171.807 231.63L157.037 226.961C151.896 225.394 146.713 225.188 141.513 225.493L141.357 223.831L131.321 223.925C129.444 223.67 129.914 218.056 130.916 214.682C132.083 210.768 133.625 207.092 135.642 203.743L136.866 201.71L138.417 199.144C144.857 188.482 153.289 179.123 166.125 176.994H166.117ZM149.125 205.385C150.114 202.766 151.945 200.551 151.743 197.374C146.779 205.051 143.719 213.478 141.068 222.078C141.134 222.523 141.225 223.373 141.484 223.332L142.392 223.195L149.129 205.385H149.125Z" fill="#FFB521"/>
<path d="M210.09 219.876C214.568 230.881 210.84 243.139 200.916 249.71L195.844 252.696C193.683 253.967 187.903 255.707 185.21 254.602C186.191 253.138 187.56 251.892 189.333 250.733C190.261 244.538 188.274 238.115 183.911 233.566C182.81 232.419 180.967 231.347 179.85 231.627C179.668 231.075 180.151 230.134 180.576 229.812L193.032 220.338L196.867 217.021C200.681 220.688 205.509 221.072 210.086 219.872L210.09 219.876Z" fill="#FEF7E5"/>
<path d="M141.508 225.493C146.708 225.188 151.891 225.39 157.032 226.962L171.802 231.631C167.98 231.375 164.207 232.889 160.323 233.805L150.493 236.119C149.726 236.3 149.083 237.946 149.244 238.771C149.429 239.715 150.46 240.776 151.614 241.085C156.657 242.442 160.158 240.111 163.881 240.941C162.384 242.524 161.222 243.263 159.527 243.787L144.114 248.58C143.339 248.819 142.288 249.52 142.102 250.122C141.875 250.844 142.465 252.597 143.261 252.688L147.4 253.166L160.937 251.719C155.251 254.928 149.235 255.431 143.096 256.66C142.436 257.242 141.768 258.627 141.533 259.547L143.986 261.164C143.966 262.517 145.425 263.198 146.629 263.136C147.124 263.359 147.743 264.534 147.941 265.198C147.161 267.19 145.528 269.253 144.193 270.857L141.727 269.921L136 268.717L116.913 260.826C116.76 260.034 116.773 258.78 116.987 257.741C119.251 246.649 121.49 233.429 131.472 228.451C134.548 226.916 138.102 225.7 141.512 225.498L141.508 225.493Z" fill="#FFECC7"/>
<path d="M141.507 225.493C138.097 225.695 134.543 226.912 131.467 228.447L131.311 223.926L141.347 223.831L141.503 225.493H141.507Z" fill="#FCE1C0"/>
<path d="M149.123 205.385L142.386 223.196L141.479 223.332C141.219 223.373 141.128 222.524 141.062 222.078C143.714 213.482 146.773 205.051 151.738 197.375C151.944 200.547 150.109 202.766 149.119 205.385H149.123Z" fill="#F9AA00"/>
<path d="M209.86 153.384L209.942 163.605C209.114 170.617 205.798 176.701 199.824 180.298L199.012 180.789C198.612 181.032 200.859 184.25 201.028 188.053C197.754 191.031 194.072 193.518 189.656 194.471L184.172 187.772C177.905 188.643 169.786 185.636 168.483 180.15C168.099 178.529 167.299 177.72 166.116 177.003L164.516 175.456C163.028 173.068 161.259 171.764 158.542 171.426C152.769 170.708 148.877 165.445 149.986 159.823C150.538 157.022 152.946 154.857 155.495 154.622C158.381 154.358 160.385 156.012 162.302 158.614L163.123 155.022C166.277 152.543 168.347 149.482 169.505 145.778C176.09 145.209 181.38 142.54 186.262 138.325L184.881 143.035C190.942 142.73 196.505 138.473 199.094 132.765C205.976 137.397 209.79 144.978 209.856 153.388L209.86 153.384ZM204.203 150.823C204.388 150.551 203.939 149.202 203.522 149.095L199.778 148.125C199.473 148.047 198.591 148.34 198.64 148.633L198.822 149.746C200.822 149.301 201.964 149.746 204.203 150.823ZM178.267 151.891C180.428 150.348 182.003 151.231 182.993 149.804C183.125 149.614 182.168 149.09 181.954 149.173L177.072 151.004C176.832 151.095 176.482 151.903 176.494 152.155C176.507 152.407 177.018 152.782 177.224 152.634L178.263 151.891H178.267ZM202.562 159.328C202.636 157.798 201.593 156.296 200.273 156.647C198.117 157.22 197.746 160.306 199.098 161.778C199.56 162.281 201.119 162.265 201.597 161.869C202.075 161.473 202.516 160.306 202.562 159.328ZM183.834 160.504C183.859 158.817 182.964 157.451 181.434 157.686C180.535 157.822 179.62 159.097 179.558 160.268C179.48 161.766 180.255 163.007 181.471 163.181C182.852 163.374 183.805 162.224 183.834 160.508V160.504Z" fill="#FCE1C0"/>
<path d="M210.185 153.681L211.48 154.857C213.199 157.604 212.606 161.687 209.938 163.601L209.855 153.38L210.181 153.681H210.185Z" fill="#FFB521"/>
<path d="M171.802 231.63L177.946 232.043C178.42 232.076 179.393 231.738 179.851 231.626C180.968 231.346 182.812 232.418 183.912 233.565C188.275 238.114 190.262 244.537 189.335 250.732C187.557 251.891 186.193 253.137 185.211 254.601C181.772 257.55 178.272 260.557 174.083 262.384L170.718 263.853L163.37 266.138C159.635 267.301 153.314 267.986 152.477 265.206L147.937 265.197C147.739 264.533 147.12 263.358 146.626 263.135C145.422 263.197 143.962 262.516 143.983 261.163L141.529 259.547C141.764 258.627 142.432 257.245 143.092 256.659C149.236 255.43 155.252 254.927 160.933 251.718L147.397 253.166L143.257 252.687C142.461 252.596 141.872 250.843 142.098 250.122C142.288 249.519 143.339 248.822 144.11 248.579L159.523 243.786C161.214 243.258 162.377 242.524 163.877 240.94C160.154 240.111 156.649 242.445 151.611 241.084C150.452 240.771 149.425 239.715 149.24 238.77C149.079 237.945 149.722 236.295 150.489 236.118L160.319 233.804C164.203 232.888 167.976 231.375 171.798 231.63H171.802Z" fill="#FCE1C0"/>
<path d="M202.562 159.328C202.517 160.306 202.096 161.452 201.598 161.869C201.099 162.286 199.565 162.282 199.099 161.778C197.746 160.306 198.118 157.22 200.274 156.647C201.589 156.297 202.633 157.798 202.562 159.328Z" fill="#5F3010"/>
<path d="M183.834 160.504C183.809 162.22 182.853 163.371 181.471 163.177C180.255 163.008 179.48 161.762 179.558 160.265C179.62 159.097 180.535 157.823 181.434 157.683C182.964 157.448 183.863 158.813 183.834 160.5V160.504Z" fill="#5F3010"/>
<path d="M178.267 151.891L177.228 152.634C177.018 152.782 176.511 152.407 176.498 152.155C176.486 151.904 176.836 151.095 177.076 151.004L181.958 149.173C182.172 149.095 183.124 149.614 182.997 149.804C182.007 151.231 180.432 150.349 178.271 151.891H178.267Z" fill="#5F3010"/>
<path d="M204.203 150.823C201.964 149.742 200.822 149.301 198.822 149.746L198.641 148.633C198.591 148.336 199.474 148.047 199.779 148.125L203.523 149.095C203.939 149.202 204.393 150.551 204.203 150.823Z" fill="#5F3010"/>
<path d="M299.808 260.101L302.991 287.34L303.024 288.879L304.826 307.82C272.384 310.092 240.573 320.046 215.314 341.655C206.787 339.345 198.128 337.724 189.424 337.889C191.127 312.208 193.766 286.515 197.237 260.893C204.132 263.578 211.03 265.434 218.567 266.626C238.858 269.843 259.326 269.629 279.579 266.176C286.836 264.939 293.396 262.844 299.804 260.105L299.808 260.101Z" fill="#5F3010"/>
<path d="M266.411 52.8364L264.328 50.4481C262.139 47.932 258.799 48.1094 256.515 50.4564C253.575 53.4798 254.181 56.7013 253.035 57.8232C252.779 58.0748 251.732 57.6334 251.563 57.32L248.709 51.9743C246.607 50.3863 244.838 48.7982 243.399 46.3523C239.82 47.5278 236.121 48.658 232.377 48.1424L222.341 46.7606L221.921 47.2267L226.097 50.7492C217.026 53.2365 207.46 51.3886 200.368 45.3994C198.018 52.5064 200.158 58.644 201.502 65.6107L198.001 62.249L193.738 57.5468C185.937 46.509 185.644 33.9332 198.002 26.5004C202 10.0004 216.775 6.41649 229.025 6.15251C233.676 6.05351 239.506 9.44678 243.399 12C250.251 11.2122 254 12 260.011 15.99C266.745 22.8041 269.635 32.3199 268.555 41.9223L266.402 52.8405L266.411 52.8364Z" fill="#5F3010"/>
<path d="M272.871 97.4654L269.82 96.496C267.214 106.329 259.363 116.076 250.832 122.222L246.086 115.969C245.237 114.187 243.967 112.492 242.635 110.797C246.754 108.268 250.622 105.579 254.353 102.283C257.643 99.0163 260.46 95.5638 262.583 91.3814L261.523 89.0674C264.657 88.6466 265.663 93.782 269.391 95.5556L272.871 97.4695V97.4654Z" fill="#FDFDFD"/>
<path d="M186.159 87.0879C186.32 87.4385 186.884 88.4119 187.429 88.845C191.024 91.7159 195.741 94.929 200.462 97.4204C201.188 97.804 202.413 98.035 203.101 97.9318C204.025 99.2188 204.26 100.683 203.724 102.333L200.792 111.35C206.643 107.926 211.991 105.653 217.999 103.438L225.87 100.481C224.637 103.385 224.221 106.569 224.695 109.877C225.231 113.614 225.948 117.182 227.989 120.284L233.156 115.177C234.756 116.064 236.562 116.79 238.104 117.141C238.623 117.26 239.695 117.475 240.227 117.359L246.09 115.969L250.836 122.222C259.372 116.081 267.218 106.33 269.824 96.4964L272.875 97.4657L273.601 97.5482L274.323 97.7297L282.355 100.671C287.793 102.663 292.683 104.899 297.755 107.662C306.525 112.439 313.506 119.669 317.089 129.148C324.42 148.555 327.987 176.813 328.869 197.808C329.137 204.198 328.676 210.294 327.195 216.382C323.983 229.577 314.252 237.802 300.349 236.833L301.297 254.355C301.408 256.438 300.749 258.422 299.817 260.109C293.405 262.847 286.849 264.943 279.592 266.18C259.339 269.633 238.871 269.847 218.58 266.63C211.043 265.434 204.144 263.577 197.25 260.896L195.956 258.409L195.857 252.701L200.928 249.714C210.849 243.143 214.576 230.885 210.103 219.88C214.7 217.265 217.891 212.983 217.883 207.308C218.25 202.581 216.58 198.18 214.308 194.096C210.919 188 206.169 183.079 199.836 180.299C205.806 176.702 209.125 170.618 209.954 163.606C212.618 161.696 213.211 157.609 211.496 154.862L210.201 153.686C217.005 143.234 213.042 127.989 202.376 122.354C201.015 121.637 199.959 121.088 198.863 119.995C190.455 111.585 171.88 112.538 161.184 120.354L157.242 123.233L157.51 122.086L172.898 100.398L183.912 87.0879H186.179H186.159ZM241.419 184.906C240.524 185.03 239.444 186.684 239.205 187.546C238.965 188.408 265.804 200.209 266.641 200.535L265.857 201.941C264.765 203.03 238.025 195.668 239.448 196.963C238.062 198.666 237.403 202.428 237.988 204.02C238.846 206.342 241.11 207.159 242.8 206.087L245.992 208.962L258.98 216.605C263.14 219.055 267.115 220.87 272.162 220.713C273.77 220.664 275.143 220.767 276.764 219.406C283.089 214.101 286.317 205.348 284.635 197.078L282.718 193.205C280.714 188.074 277.464 183.912 274.191 179.499L272.97 179.041L277.502 157.786C277.361 156.181 275.155 153.587 273.667 153.319L250.935 153.364C249.48 153.364 247.084 155.468 246.791 156.891L241.827 180.885L241.419 184.906Z" fill="#FFB521"/>
<path d="M237.749 111.16C235.778 111.704 234.075 113.478 233.16 115.169L227.993 120.276C225.952 117.174 225.235 113.606 224.699 109.869C224.224 106.561 224.641 103.381 225.874 100.473L226.117 99.9736C227.449 100.436 229.42 100.493 230.974 100.625C231.98 102.993 232.71 105.653 234.429 107.534L237.745 111.16H237.749Z" fill="#FDFDFD"/>
<path d="M272.974 179.045L271.93 183.26C265.3 179.779 258.736 177.478 251.347 176.714C249.755 176.549 248.127 177.523 247.714 178.752C247.265 180.105 247.694 182.081 249.207 182.687L255.998 185.405C259.705 186.886 263.704 187.921 266.372 191.613L262.5 210C260.434 209.357 240.475 198.728 238.5 199L241.822 180.893L246.787 156.899C247.079 155.476 249.475 153.377 250.931 153.373L273.662 153.327C275.151 153.595 277.357 156.19 277.497 157.794L272.965 179.049L272.974 179.045ZM256.299 160.776C256.34 160.236 255.536 159.023 255.025 158.871C254.588 158.739 253.549 158.891 253.124 159.164C251.524 160.191 250.642 162.575 252.122 164.138C252.638 164.683 254.543 164.476 255.083 163.915C255.738 163.231 256.18 162.369 256.303 160.776H256.299Z" fill="#E28702"/>
<path d="M256.298 160.776C256.179 162.368 255.733 163.23 255.078 163.915C254.542 164.476 252.633 164.682 252.117 164.138C250.633 162.57 251.515 160.19 253.119 159.163C253.544 158.891 254.583 158.738 255.02 158.87C255.531 159.023 256.335 160.232 256.294 160.776H256.298Z" fill="#5F3010"/>
<path d="M266.409 52.8363C268.813 58.611 266.648 66.0108 260.653 68.7166L257.862 69.3064L258.266 73.592C258.761 78.8511 259.334 84.2751 261.527 89.0681L262.587 91.3821C260.463 95.5646 257.647 99.017 254.357 102.284C250.629 105.579 246.762 108.269 242.639 110.797C242.333 111.012 241.492 111.894 241.356 112.418L240.226 117.36C239.695 117.475 238.623 117.261 238.103 117.141L237.748 111.168L234.433 107.543C232.714 105.662 231.984 103.001 230.978 100.634C229.423 100.502 227.453 100.448 226.121 99.9822C220.121 97.8992 215.07 93.8652 211.289 88.2968C208.815 92.9701 203.933 94.0343 203.105 97.9363C202.416 98.0394 201.191 97.8084 200.466 97.4248C195.749 94.9335 191.032 91.7203 187.432 88.8495C186.888 88.4164 186.319 87.4429 186.162 87.0923C186.694 86.3004 187.296 85.0011 187.457 83.9864L189.881 68.729C190.516 64.7403 191.91 61.0281 193.745 57.5468L198.008 62.249L201.509 65.6107C200.165 58.644 198.025 52.5063 200.375 45.3994C207.467 51.3885 217.029 53.2364 226.104 50.7492L221.927 47.2267C221.927 47.2267 221.87 47.1401 221.659 46.8348L222.068 46.4677L222.348 46.7647L232.384 48.1465C236.132 48.6621 239.827 47.5319 243.406 46.3564C244.84 48.8023 246.613 50.3904 248.716 51.9784L251.57 57.324C251.739 57.6375 252.782 58.0789 253.042 57.8273C254.188 56.7095 253.582 53.488 256.522 50.4605C258.802 48.1135 262.142 47.9361 264.335 50.4522L266.417 52.8405L266.409 52.8363ZM234.685 57.2127C234.994 57.3282 235.592 57.522 235.6 57.3076L235.654 56.2805C230.174 53.5664 225.44 56.6765 226.686 57.2911C227.931 57.9056 230.417 55.5958 234.681 57.2127H234.685ZM206.836 62.9255C208.226 62.1005 210.856 60.9909 212.357 60.6568C212.728 60.5743 212.39 59.4648 212.023 59.4565C206.391 59.3575 204.28 64.4434 205.57 63.6762L206.836 62.9255ZM235.258 68.1185C235.283 66.0974 233.468 64.1876 231.786 64.8641C230.104 65.5405 230.31 67.7885 231.114 69.1827C231.613 70.053 232.829 70.7666 233.613 70.5604C234.573 70.3046 235.246 69.3559 235.262 68.1185H235.258ZM214.015 69.1084C213.627 68.7207 212.065 68.7042 211.677 69.1167C210.56 70.3088 210.877 72.5402 212.126 73.8107C212.609 74.3015 214.035 74.5572 214.584 74.2231C215.742 73.5178 215.928 71.0182 214.015 69.1084Z" fill="#FCE1C0"/>
<path d="M260.653 68.7129L258.265 73.5883L257.861 69.3027L260.653 68.7129Z" fill="#5F3010"/>
<path d="M246.09 115.965L240.227 117.355L241.356 112.414C241.492 111.89 242.334 111.007 242.639 110.793C243.971 112.488 245.24 114.183 246.09 115.965Z" fill="#FEF7E5"/>
<path d="M237.748 111.16L238.102 117.133C236.56 116.782 234.758 116.056 233.154 115.169C234.07 113.478 235.773 111.705 237.744 111.16H237.748Z" fill="#FFF4DE"/>
<path d="M235.259 68.1188C235.242 69.3604 234.574 70.305 233.609 70.5607C232.83 70.7669 231.614 70.0533 231.111 69.183C230.306 67.7889 230.1 65.5409 231.783 64.8644C233.465 64.188 235.279 66.0977 235.254 68.1188H235.259Z" fill="#5F3010"/>
<path d="M214.014 69.1089C215.931 71.0228 215.746 73.5182 214.583 74.2236C214.03 74.5577 212.608 74.3019 212.126 73.8111C210.876 72.5407 210.559 70.3051 211.676 69.1171C212.064 68.7047 213.626 68.7253 214.014 69.1089Z" fill="#5F3010"/>
<path d="M234.685 57.2125C230.422 55.5956 227.894 57.889 226.69 57.2909C225.486 56.6928 230.179 53.5621 235.658 56.2803L235.605 57.3074C235.592 57.5219 234.999 57.3321 234.689 57.2125H234.685Z" fill="#5F3010"/>
<path d="M206.837 62.9254L205.571 63.6761C204.281 64.4433 206.396 59.3575 212.024 59.4565C212.391 59.4648 212.729 60.5743 212.358 60.6568C210.857 60.9909 208.222 62.1005 206.837 62.9254Z" fill="#5F3010"/>
<path d="M242.803 206.083C241.112 207.159 238.845 206.339 237.991 204.016C237.406 202.428 238.065 198.667 239.451 196.959C242.485 199.714 246.39 201.645 250.278 203.484L259.811 207.993C254.398 207.118 250.159 204.668 245.425 202.424C244.584 202.024 242.914 202.482 242.523 203.2C242.16 203.868 242.226 205.559 242.803 206.079V206.083Z" fill="#E28702"/>
<path d="M272.972 179.045L274.193 179.503C277.467 183.912 280.712 188.078 282.72 193.209L284.637 197.082C286.319 205.348 283.091 214.105 276.766 219.41C275.145 220.771 273.772 220.664 272.164 220.717C267.117 220.874 263.142 219.059 258.982 216.609L245.994 208.966L242.802 206.091C242.229 205.575 242.163 203.88 242.522 203.212C242.914 202.494 244.579 202.036 245.425 202.436C250.154 204.684 254.397 207.13 259.811 208.005L250.278 203.496C246.389 201.657 242.485 199.726 239.45 196.971C238.027 195.676 238.72 193.275 239.813 192.182C241.388 191.687 242.658 192.388 244.245 193.024L263.744 200.819L263.93 199.85L240.596 190.78C239.759 190.454 238.963 188.425 239.203 187.558C239.442 186.692 240.522 185.042 241.417 184.918C243.392 184.646 245.651 185.162 247.717 185.805L266.375 191.617C263.711 187.925 259.712 186.894 256.001 185.409L249.21 182.691C247.701 182.085 247.268 180.109 247.717 178.756C248.129 177.527 249.758 176.553 251.35 176.718C258.739 177.482 265.303 179.783 271.933 183.264L272.976 179.049L272.972 179.045Z" fill="#FCE1C0"/>
<path d="M158.648 94.7759L158.648 94.7851L158.644 94.781C158.645 94.7793 158.647 94.7776 158.648 94.7759L158.842 87.6823C159.027 80.9589 152.995 72.1237 147.474 67.2607L143.916 72.6723C138.201 79.4369 130.734 84.2917 122.24 86.8243L111.284 89.1177L107.998 94.3479C106.027 89.5343 102.963 86.185 98.7452 86.9934C97.2237 87.2863 95.3971 88.7135 94.4817 90.4706C92.4572 94.352 93.154 99.1944 95.764 102.651C97.8875 105.464 101.042 106.701 104.707 106.099L105.375 110.872C87.868 101.69 81.1099 83.6978 89.2493 65.0787C95.4995 54.8028 105.493 43.5018 123.5 43.5C130.5 43.4993 136.5 45.5006 139 48.0006C144.974 48.0006 152.643 51.3515 157.609 57.749C166.333 68.9872 167.987 83.9695 158.648 94.7759Z" fill="#5F3010"/>
<path d="M158.649 94.7844L158.109 97.1314L155.198 109.926C153.285 116.485 149.525 122.4 143.76 126.05C142.474 126.863 141.563 127.597 140.713 128.896L137.909 130.055C137.753 130.121 137.328 130.459 137.2 130.575C137.072 130.69 137.2 131.165 137.369 131.156L138.416 131.099C139.728 131.029 141.002 131.194 142.09 131.99C142.804 132.513 143.282 133.701 143.265 134.716C143.249 135.529 143.591 136.473 144.259 137.063C146.168 138.754 144.762 139.917 146.519 142.264C147.418 143.469 147.991 145.469 147.566 147.053L146.597 150.671C145.966 153.026 143.723 154.036 141.492 154.408C140.066 158.058 137.963 161.597 134.681 164.059L133.007 166.303C127.741 163.577 122.447 161.51 116.646 159.898L118.332 148.645C112.77 147.726 108.061 145.519 104.214 141.691C101.513 139.002 98.9815 136.011 97.9177 132.612C99.9381 131.907 101.616 131.21 102.482 128.797C104.544 123.06 105.731 116.877 105.389 110.867L104.721 106.094C101.06 106.697 97.9012 105.459 95.7777 102.646C93.1677 99.1855 92.4709 94.3472 94.4954 90.4658C95.4108 88.7087 97.2374 87.2815 98.7588 86.9886C102.977 86.1802 106.041 89.5295 108.011 94.3431L111.298 89.1129L122.253 86.8195C130.747 84.2869 138.214 79.4321 143.929 72.6675L147.488 67.2559C153.009 72.1189 159.037 80.9541 158.856 87.6775L158.662 94.7803L158.649 94.7844ZM132.982 88.6715L134.124 88.6963C134.363 88.7004 134.285 87.7888 134.071 87.6775C132.817 87.0299 128.83 87.4135 126.574 88.4777C126.302 88.6055 125.77 89.8677 126.051 89.843L126.917 89.7728C128.863 89.0221 130.908 88.6179 132.978 88.6674L132.982 88.6715ZM154.761 90.7669C155.891 90.7669 152.992 87.3764 148.387 87.9085C147.991 87.9538 147.867 89.2407 148.283 89.2201C152.065 88.9974 153.075 90.7669 154.761 90.7669ZM132.355 99.0123C132.615 97.4284 131.757 95.9352 130.191 96.2363C129.283 96.4096 128.232 97.7212 127.985 98.5462C127.667 99.6062 127.894 101.029 128.801 101.834C129.3 102.275 130.978 102.081 131.374 101.586C131.77 101.091 132.203 99.9692 132.359 99.0081L132.355 99.0123ZM150.663 97.0406C150.308 96.8633 149.236 96.8839 148.89 97.0819C147.224 98.0388 146.506 100.868 148.11 102.312C148.642 102.791 150.374 102.539 150.729 101.966C151.879 100.101 151.574 97.4944 150.663 97.0365V97.0406Z" fill="#FCE1C0"/>
<path d="M148.037 135.991L146.516 142.26C144.763 139.909 146.169 138.746 144.256 137.059C143.588 136.469 143.246 135.524 143.262 134.712L148.037 135.991Z" fill="#FEF7E5"/>
<path d="M132.355 99.012C132.198 99.973 131.774 101.078 131.369 101.59C130.965 102.101 129.295 102.279 128.797 101.837C127.885 101.033 127.663 99.6101 127.98 98.55C128.228 97.7251 129.283 96.4134 130.186 96.2401C131.753 95.939 132.611 97.4322 132.351 99.0161L132.355 99.012Z" fill="#5F3010"/>
<path d="M150.662 97.0408C151.569 97.4986 151.874 100.105 150.728 101.97C150.378 102.543 148.642 102.791 148.11 102.316C146.506 100.873 147.223 98.0431 148.889 97.0862C149.235 96.8882 150.307 96.8676 150.662 97.0449V97.0408Z" fill="#5F3010"/>
<path d="M132.981 88.6718C130.911 88.6265 128.866 89.0307 126.92 89.7773L126.054 89.8474C125.774 89.8721 126.305 88.61 126.578 88.4821C128.833 87.4138 132.82 87.0302 134.074 87.6819C134.288 87.7933 134.366 88.7048 134.127 88.7007L132.985 88.676L132.981 88.6718Z" fill="#5F3010"/>
<path d="M154.761 90.7665C153.075 90.7665 152.064 88.997 148.283 89.2197C147.863 89.2444 147.987 87.9575 148.387 87.908C152.996 87.3718 155.895 90.7665 154.761 90.7665Z" fill="#5F3010"/>
<path d="M173.101 278.756L177.221 338.111L169.23 339.117C144.106 312.736 110.972 296.237 75.1777 291.208L76.6415 280.909C93.3572 288.189 117.091 288.214 135.423 286.89L152.885 284.572C159.132 283.743 164.859 281.437 170.755 279.362L173.101 278.756Z" fill="#FFCD00"/>
<path d="M97.9047 132.612C98.9685 136.011 101.5 139.002 104.201 141.691C108.048 145.523 112.757 147.729 118.319 148.645L116.633 159.897C122.434 161.51 127.728 163.573 132.994 166.303L134.668 164.059C137.954 161.601 140.053 158.058 141.479 154.407C143.71 154.036 145.953 153.026 146.584 150.67C147.083 153.95 148.101 157.245 149.982 159.819C148.872 165.441 152.769 170.704 158.537 171.422C161.255 171.76 163.024 173.064 164.512 175.452L166.112 176.999C153.276 179.127 144.844 188.486 138.403 199.149L136.028 200.489L136.853 201.714L135.629 203.748L132.746 204.597L134.647 184.642C134.94 181.585 135.521 178.715 134.556 175.534L130.512 193.72L123.271 220.651C121.7 226.496 119.074 231.734 116.031 236.935C113.969 240.466 111.408 243.543 108.266 246.047C101.941 251.079 93.5959 251.343 86.945 246.756C83.8897 244.649 81.4405 241.869 79.0655 239.01L77.7543 237.781C77.8326 236.997 76.9296 235.776 76.4967 234.935C72.1342 226.438 69.2356 217.533 66.7905 208.495C63.9784 198.109 61.7436 187.566 60.6468 176.669C58.981 160.079 64.4196 148.41 79.2304 140.738C85.3576 137.562 91.5714 134.831 97.8923 132.625L97.9047 132.612ZM96.0657 194.054C93.7443 199.276 91.1961 203.785 90.7962 208.842L113.458 159.873C111.685 159.93 111.128 161.622 110.452 162.913L103.075 176.945L98.0779 186.77C95.171 181.911 94.169 177.349 91.4147 172.824L96.0616 194.059L96.0657 194.054Z" fill="#FEF7E5"/>
<path d="M106.911 265.541C104.173 266.634 100.953 269.925 101.794 273.349C102.202 275.007 103.682 276.814 105.666 277.597C110.325 279.437 115.129 280.567 120.184 280.868L124.843 281.145C124.975 281.611 125.849 282.964 126.443 283.195L134.009 286.173C134.256 286.272 135.188 286.07 135.242 286.214L135.423 286.89C117.095 288.214 93.3577 288.186 76.6419 280.91C75.0957 280.237 74.1267 278.022 74.2257 276.257L74.6669 268.259L76.8811 246.484C77.6109 246.6 78.7324 247.198 79.3014 247.829C86.1337 255.406 96.846 259.737 106.338 255.72C107.228 255.344 108.358 255.212 109.142 255.373C107.958 259.135 107.216 262.051 106.907 265.545L106.911 265.541Z" fill="#FEF7E5"/>
<path d="M135.637 203.744C133.621 207.093 132.079 210.768 130.912 214.683C129.91 218.052 129.44 223.666 131.316 223.926L131.473 228.447C121.49 233.425 119.251 246.641 116.988 257.737C116.777 258.776 116.761 260.03 116.913 260.822C117.021 261.371 116.534 262.752 115.953 262.876L110.959 263.928L106.91 265.541C107.216 262.047 107.962 259.131 109.145 255.369C108.362 255.204 107.232 255.336 106.341 255.716C96.8455 259.733 86.1374 255.406 79.3051 247.825C78.7361 247.194 77.6146 246.596 76.8848 246.48L77.7713 237.773L79.0825 239.002C81.4534 241.861 83.9026 244.641 86.962 246.748C93.6129 251.339 101.958 251.075 108.283 246.039C111.425 243.539 113.986 240.458 116.048 236.927C119.091 231.726 121.717 226.488 123.288 220.643L130.529 193.712L134.573 175.526C135.538 178.707 134.957 181.577 134.664 184.634L132.763 204.589L135.646 203.74L135.637 203.744Z" fill="#FCE8B6"/>
<path d="M96.0662 194.054L91.4193 172.82C94.1736 177.345 95.1756 181.907 98.0825 186.766L103.08 176.94L110.456 162.908C111.133 161.617 111.685 159.926 113.462 159.868L90.8008 208.837C91.2007 203.78 93.7489 199.272 96.0703 194.05L96.0662 194.054Z" fill="#FCE8B6"/>
<path d="M138.412 199.145L136.862 201.71L136.037 200.485L138.412 199.145Z" fill="#FFFBF2"/>
<path d="M174.082 262.381L175.034 274.041C175.092 274.85 174.465 276.298 174.139 276.879L173.104 278.752L170.758 279.358C164.858 281.433 159.135 283.739 152.888 284.568L135.426 286.886L135.245 286.209C135.187 286.065 134.259 286.267 134.012 286.168L126.446 283.19C125.852 282.955 124.978 281.606 124.846 281.14L126.986 278.909C129.291 279.4 130.758 281.598 132.268 281.161C132.907 280.975 133.711 280.134 134.185 279.412C134.952 278.24 136.304 278.525 137.562 278.521L142.06 278.492C142.489 278.777 143.491 279.668 143.866 279.428L145.734 278.232L147.445 276.463L150.274 275.403C154.694 273.745 153.63 269.475 157.931 272.255L165.926 267.496L170.894 264.666L170.721 263.849L174.086 262.381H174.082Z" fill="#FFFBF2"/>
<path d="M144.193 270.853L141.921 273.583C141.022 274.66 139.95 275.592 140.721 277.312C141.69 277.395 143.187 277.341 144.172 277.139L147.442 276.466L145.731 278.236L143.863 279.432C143.488 279.671 142.486 278.78 142.057 278.496L137.559 278.525C136.297 278.533 134.949 278.244 134.182 279.416C133.707 280.137 132.903 280.979 132.264 281.165C130.751 281.602 129.283 279.403 126.982 278.912L124.842 281.144L120.183 280.868C115.128 280.566 110.324 279.436 105.665 277.597C103.682 276.813 102.197 275.01 101.793 273.348C100.956 269.925 104.172 266.633 106.91 265.54L110.959 263.927L115.953 262.875C116.534 262.752 117.021 261.37 116.913 260.821L136 268.712L141.727 269.916L144.193 270.853Z" fill="#FFB521"/>
<path d="M170.718 263.849L170.892 264.666L165.923 267.495L157.928 272.255C153.627 269.475 154.691 273.744 150.271 275.402L147.443 276.462L144.173 277.135C143.187 277.337 141.691 277.39 140.722 277.308C139.951 275.588 141.023 274.66 141.921 273.579L144.193 270.849C145.529 269.244 147.162 267.182 147.941 265.189L152.481 265.198C153.318 267.978 159.639 267.293 163.375 266.13L170.723 263.845L170.718 263.849Z" fill="#F9AA00"/>
<defs>
<filter id="filter0_f_547_14349" x="13.0352" y="0" width="369.26" height="190.648" filterUnits="userSpaceOnUse" color-interpolation-filters="sRGB">
<feFlood flood-opacity="0" result="BackgroundImageFix"/>
<feBlend mode="normal" in="SourceGraphic" in2="BackgroundImageFix" result="shape"/>
<feGaussianBlur stdDeviation="1" result="effect1_foregroundBlur_547_14349"/>
</filter>
<linearGradient id="paint0_linear_547_14349" x1="194" y1="35" x2="194" y2="406.5" gradientUnits="userSpaceOnUse">
<stop stop-color="#FFF4DE"/>
<stop offset="1" stop-color="#3D3835"/>
</linearGradient>
</defs>
</svg>
