<svg width="24" height="24" viewBox="0 0 24 24" fill="none" xmlns="http://www.w3.org/2000/svg">
<path d="M17.304 9.52306L20.486 12.7051C21.0023 13.2145 21.4128 13.8211 21.6937 14.4898C21.9747 15.1586 22.1206 15.8763 22.123 16.6017C22.1254 17.3271 21.9843 18.0457 21.7079 18.7164C21.4314 19.387 21.025 19.9963 20.5121 20.5092C19.9992 21.0221 19.3899 21.4285 18.7193 21.705C18.0486 21.9814 17.33 22.1225 16.6046 22.1201C15.8792 22.1177 15.1615 21.9718 14.4928 21.6908C13.824 21.4099 13.2174 20.9994 12.708 20.4831L11.648 19.4231C11.5046 19.2848 11.3903 19.1193 11.3116 18.9363C11.2329 18.7534 11.1914 18.5565 11.1896 18.3574C11.1878 18.1582 11.2256 17.9607 11.301 17.7763C11.3763 17.5919 11.4876 17.4244 11.6284 17.2835C11.7691 17.1426 11.9366 17.0311 12.1209 16.9556C12.3052 16.8801 12.5027 16.8421 12.7019 16.8437C12.901 16.8453 13.0979 16.8866 13.2809 16.9651C13.464 17.0437 13.6295 17.1579 13.768 17.3011L14.83 18.3621C15.2996 18.8274 15.9344 19.0879 16.5955 19.0863C17.2567 19.0848 17.8903 18.8214 18.3577 18.3538C18.8252 17.8863 19.0884 17.2526 19.0897 16.5914C19.0911 15.9303 18.8305 15.2955 18.365 14.8261L15.183 11.6441C14.839 11.3 14.4022 11.0637 13.926 10.9643C13.4498 10.8648 12.9549 10.9064 12.502 11.0841C12.3406 11.1481 12.1893 11.2134 12.048 11.2801L11.584 11.4971C10.964 11.7771 10.487 11.8971 9.87996 11.2911C9.00796 10.4191 9.23396 9.61406 10.297 8.88106C11.3559 8.15242 12.6365 7.81767 13.9166 7.93495C15.1966 8.05223 16.3951 8.61412 17.304 9.52306ZM11.294 3.51306L12.354 4.57306C12.6273 4.85583 12.7787 5.23466 12.7755 5.62796C12.7722 6.02126 12.6147 6.39756 12.3367 6.6758C12.0587 6.95405 11.6826 7.11198 11.2893 7.11558C10.896 7.11918 10.517 6.96816 10.234 6.69506L9.17296 5.63506C8.94241 5.39622 8.66661 5.20569 8.36163 5.07458C8.05666 4.94347 7.72863 4.87441 7.39668 4.87143C7.06474 4.86845 6.73552 4.93162 6.42824 5.05723C6.12097 5.18285 5.84179 5.3684 5.60699 5.60307C5.37219 5.83773 5.18648 6.11681 5.06069 6.42401C4.9349 6.73122 4.87155 7.0604 4.87434 7.39235C4.87713 7.72429 4.94601 8.05236 5.07694 8.35741C5.20788 8.66246 5.39825 8.93837 5.63696 9.16906L8.81896 12.3511C9.16289 12.6951 9.59974 12.9314 10.076 13.0309C10.5522 13.1303 11.0471 13.0887 11.5 12.9111C11.6613 12.8471 11.8126 12.7817 11.954 12.7151L12.418 12.4981C13.038 12.2181 13.516 12.0981 14.122 12.7041C14.994 13.5761 14.768 14.3811 13.705 15.1141C12.6461 15.8427 11.3654 16.1774 10.0854 16.0602C8.80535 15.9429 7.60683 15.381 6.69796 14.4721L3.51596 11.2901C2.99962 10.7806 2.58916 10.174 2.30821 9.50527C2.02726 8.83651 1.88137 8.11879 1.87894 7.39343C1.87651 6.66806 2.01759 5.94938 2.29405 5.27876C2.57052 4.60814 2.9769 3.99883 3.48982 3.48591C4.00273 2.973 4.61204 2.56661 5.28266 2.29014C5.95328 2.01368 6.67196 1.8726 7.39733 1.87503C8.1227 1.87746 8.84042 2.02335 9.50917 2.3043C10.1779 2.58526 10.7845 2.99672 11.294 3.51306Z" fill="#F5DF7A"/>
</svg>
