<svg width="20" height="20" viewBox="0 0 20 20" fill="none" xmlns="http://www.w3.org/2000/svg">
<path fill-rule="evenodd" clip-rule="evenodd" d="M9.41 0C10.2 0.07 10.663 0.34 10.944 0.652C11.287 1.033 11.5 1.635 11.5 2.483C11.5001 2.74833 11.4299 3.00895 11.2964 3.23827C11.1629 3.46759 10.971 3.6574 10.7402 3.78834C10.5095 3.91928 10.2481 3.98666 9.98278 3.98362C9.71747 3.98057 9.45771 3.9072 9.23 3.771L9.1 3.683C8.99494 3.60421 8.87539 3.54688 8.74818 3.51429C8.62097 3.48169 8.48858 3.47448 8.35858 3.49305C8.22858 3.51162 8.10351 3.55562 7.99051 3.62253C7.87751 3.68943 7.77879 3.77794 7.7 3.883C7.62121 3.98806 7.56388 4.10761 7.53129 4.23482C7.49869 4.36203 7.49148 4.49442 7.51005 4.62442C7.54756 4.88697 7.68783 5.12387 7.9 5.283C8.41999 5.673 9.03831 5.91048 9.68568 5.96886C10.333 6.02723 10.9839 5.90418 11.5652 5.61349C12.1466 5.32281 12.6356 4.87598 12.9773 4.32306C13.319 3.77014 13.5 3.13299 13.5 2.483C13.5 1.798 13.398 1.114 13.152 0.49C17.13 1.81 20 5.561 20 9.983C20 15.506 15.523 19.983 10 19.983C4.477 19.983 0 15.506 0 9.983C0 4.658 4.162 0.306 9.41 0ZM12.64 13.215C12.4363 13.0453 12.1735 12.9635 11.9095 12.9875C11.6455 13.0115 11.4018 13.1394 11.232 13.343C10.873 13.773 10.434 13.983 10 13.983C9.566 13.983 9.127 13.773 8.768 13.343C8.59611 13.1465 8.35419 13.025 8.09394 13.0045C7.83369 12.984 7.57573 13.0661 7.37518 13.2332C7.17463 13.4003 7.04738 13.6393 7.02063 13.899C6.99388 14.1586 7.06974 14.4185 7.232 14.623C7.904 15.43 8.876 15.983 10 15.983C11.124 15.983 12.096 15.43 12.768 14.623C12.9377 14.4193 13.0195 14.1565 12.9955 13.8925C12.9715 13.6285 12.8436 13.3848 12.64 13.215ZM6.5 7.983C6.10218 7.983 5.72064 8.14104 5.43934 8.42234C5.15804 8.70364 5 9.08518 5 9.483C5 9.88082 5.15804 10.2624 5.43934 10.5437C5.72064 10.825 6.10218 10.983 6.5 10.983C6.89782 10.983 7.27936 10.825 7.56066 10.5437C7.84196 10.2624 8 9.88082 8 9.483C8 9.08518 7.84196 8.70364 7.56066 8.42234C7.27936 8.14104 6.89782 7.983 6.5 7.983ZM13.5 7.983C13.1022 7.983 12.7206 8.14104 12.4393 8.42234C12.158 8.70364 12 9.08518 12 9.483C12 9.88082 12.158 10.2624 12.4393 10.5437C12.7206 10.825 13.1022 10.983 13.5 10.983C13.8978 10.983 14.2794 10.825 14.5607 10.5437C14.842 10.2624 15 9.88082 15 9.483C15 9.08518 14.842 8.70364 14.5607 8.42234C14.2794 8.14104 13.8978 7.983 13.5 7.983Z" fill="#3D3835"/>
</svg>
