<svg width="21" height="20" viewBox="0 0 21 20" fill="none" xmlns="http://www.w3.org/2000/svg">
<path fill-rule="evenodd" clip-rule="evenodd" d="M7.41267 4.0293C8.03499 4.08444 8.39972 4.29713 8.62107 4.54291C8.89127 4.84304 9.05906 5.31726 9.05906 5.98527C9.05916 6.19428 9.00381 6.39958 8.89867 6.58022C8.79353 6.76087 8.64235 6.91039 8.46056 7.01354C8.27877 7.11669 8.07288 7.16977 7.86388 7.16737C7.65488 7.16497 7.45025 7.10717 7.27088 6.99988L7.16847 6.93056C7.08571 6.86849 6.99154 6.82333 6.89133 6.79766C6.79112 6.77198 6.68683 6.7663 6.58442 6.78093C6.48201 6.79556 6.38349 6.83021 6.29447 6.88292C6.20546 6.93563 6.1277 7.00535 6.06563 7.08811C6.00356 7.17087 5.9584 7.26504 5.93273 7.36525C5.90705 7.46546 5.90137 7.56975 5.916 7.67216C5.94554 7.87898 6.05604 8.0656 6.22318 8.19095C6.6328 8.49817 7.11988 8.68525 7.62984 8.73123C8.1398 8.77721 8.65248 8.68028 9.11046 8.45129C9.56843 8.22231 9.95359 7.87032 10.2228 7.43476C10.492 6.99921 10.6345 6.49729 10.6345 5.98527C10.6345 5.44566 10.5542 4.90684 10.3604 4.41529C13.4941 5.45511 15.7549 8.40994 15.7549 11.8933C15.7549 16.2441 12.2282 19.7708 7.87744 19.7708C3.52673 19.7708 0 16.2441 0 11.8933C0 7.69861 3.27859 4.27035 7.41267 4.0293ZM9.95709 14.4393C9.79661 14.3057 9.58963 14.2412 9.38164 14.2601C9.17365 14.279 8.98169 14.3798 8.84794 14.5402C8.56514 14.8789 8.21932 15.0443 7.87744 15.0443C7.53556 15.0443 7.18974 14.8789 6.90694 14.5402C6.77153 14.3854 6.58097 14.2897 6.37596 14.2735C6.17094 14.2574 5.96774 14.322 5.80976 14.4537C5.65177 14.5853 5.55154 14.7736 5.53046 14.9781C5.50939 15.1827 5.56914 15.3874 5.69697 15.5485C6.22633 16.1842 6.99202 16.6198 7.87744 16.6198C8.76287 16.6198 9.52855 16.1842 10.0579 15.5485C10.1916 15.388 10.256 15.181 10.2371 14.973C10.2182 14.765 10.1175 14.5731 9.95709 14.4393ZM5.12034 10.3179C4.80695 10.3179 4.5064 10.4423 4.28481 10.6639C4.06321 10.8855 3.93872 11.1861 3.93872 11.4995C3.93872 11.8129 4.06321 12.1134 4.28481 12.335C4.5064 12.5566 4.80695 12.6811 5.12034 12.6811C5.43372 12.6811 5.73427 12.5566 5.95587 12.335C6.17746 12.1134 6.30195 11.8129 6.30195 11.4995C6.30195 11.1861 6.17746 10.8855 5.95587 10.6639C5.73427 10.4423 5.43372 10.3179 5.12034 10.3179ZM10.6345 10.3179C10.3212 10.3179 10.0206 10.4423 9.79902 10.6639C9.57742 10.8855 9.45293 11.1861 9.45293 11.4995C9.45293 11.8129 9.57742 12.1134 9.79902 12.335C10.0206 12.5566 10.3212 12.6811 10.6345 12.6811C10.9479 12.6811 11.2485 12.5566 11.4701 12.335C11.6917 12.1134 11.8162 11.8129 11.8162 11.4995C11.8162 11.1861 11.6917 10.8855 11.4701 10.6639C11.2485 10.4423 10.9479 10.3179 10.6345 10.3179Z" fill="#3D3835"/>
<path d="M18.1825 0.428571C18.1825 0.314907 18.1373 0.205898 18.057 0.125526C17.9766 0.045153 17.8676 0 17.7539 0C17.6402 0 17.5312 0.045153 17.4509 0.125526C17.3705 0.205898 17.3253 0.314907 17.3253 0.428571V2.57143H15.1825C15.0688 2.57143 14.9598 2.61658 14.8794 2.69695C14.7991 2.77733 14.7539 2.88634 14.7539 3C14.7539 3.11366 14.7991 3.22267 14.8794 3.30305C14.9598 3.38342 15.0688 3.42857 15.1825 3.42857H17.3253V5.57143C17.3253 5.68509 17.3705 5.7941 17.4509 5.87447C17.5312 5.95485 17.6402 6 17.7539 6C17.8676 6 17.9766 5.95485 18.057 5.87447C18.1373 5.7941 18.1825 5.68509 18.1825 5.57143V3.42857H20.3253C20.439 3.42857 20.548 3.38342 20.6284 3.30305C20.7088 3.22267 20.7539 3.11366 20.7539 3C20.7539 2.88634 20.7088 2.77733 20.6284 2.69695C20.548 2.61658 20.439 2.57143 20.3253 2.57143H18.1825V0.428571Z" fill="#1D1B1A"/>
</svg>
