<svg width="225" height="214" viewBox="0 0 225 214" fill="none" xmlns="http://www.w3.org/2000/svg">
<g clip-path="url(#clip0_1400_8943)">
<path d="M148.281 205.17C163.089 197.388 174.65 185.798 181.842 170.622L186.434 158.971C193.41 161.338 200.237 158.544 204.662 152.928C208.887 147.391 210.635 140.403 209.469 133.492C208.27 126.384 202.718 119.808 195.405 119.845C192.741 119.857 190.307 120.809 188.509 122.719L188.144 121.236C165.724 111.538 144.754 96.6999 130.217 76.8794C126.682 72.0625 123.868 67.0629 121.892 61.358C120.802 64.4312 119.611 67.0531 117.98 69.7736C112.021 79.7109 104.412 88.3855 95.5184 95.881C81.2426 107.912 64.5767 116.728 46.6801 121.961L37.3692 124.139C36.2692 121.762 34.0642 120.454 31.5262 120.01C27.7969 119.357 24.0652 120.652 21.2263 123.219C13.124 130.537 13.965 144.436 20.5308 152.955C24.9778 158.633 31.7975 161.336 38.8245 158.973C45.1978 179.336 58.1417 195.38 77.0422 205.157C63.6296 207.949 47.6075 208.84 35.3418 200.913L35.2752 207.397C25.4957 207.656 16.2169 204.785 10.068 196.993C4.76763 190.277 2.22718 181.561 1.17893 173.064C0.249078 165.531 -0.152955 158.186 0.0542278 150.55C0.374867 138.654 1.34172 127.104 3.01891 115.329C6.19817 93.0051 11.3185 71.7467 22.1833 51.8572C29.1288 39.1451 38.5679 27.9301 50.1282 19.1644C68.9621 4.88358 92.7535 -0.658547 116.19 0.0616579C130.007 0.485888 143.486 3.10773 156.223 8.40568C167.569 13.1265 177.846 19.7193 186.573 28.3864C191.974 33.7534 196.505 39.7617 200.491 46.2559C209.047 60.2013 215.05 77.6687 218.415 93.713C222.514 113.262 224.632 133.016 224.98 152.992C225.109 160.374 224.66 167.433 223.636 174.652C221.907 186.844 216.73 199.706 204.876 204.743C200.101 206.825 194.926 207.525 189.774 207.362L189.754 200.94C183.307 205.004 176.398 206.6 168.942 207.098C162.241 207.402 155.752 206.827 149.174 205.626L148.278 205.167L148.281 205.17Z" fill="#773C14"/>
<path d="M148.281 205.17C163.089 197.388 174.65 185.798 181.842 170.622L186.434 158.971C193.41 161.338 200.237 158.544 204.662 152.928C208.887 147.391 210.635 140.403 209.469 133.492C208.27 126.384 202.718 119.808 195.405 119.845C192.741 119.857 190.307 120.809 188.509 122.719L188.144 121.236C165.724 111.538 144.754 96.6999 130.217 76.8794C126.682 72.0625 123.868 67.0629 121.892 61.358C120.802 64.4312 119.611 67.0531 117.98 69.7736C112.021 79.7109 104.412 88.3855 95.5184 95.881C81.2426 107.912 64.5767 116.728 46.6801 121.961L37.3692 124.139C36.2692 121.762 34.0642 120.454 31.5262 120.01C27.7969 119.357 24.0652 120.652 21.2263 123.219C13.124 130.537 13.965 144.436 20.5308 152.955C24.9778 158.633 31.7975 161.336 38.8245 158.973C45.1978 179.336 58.1417 195.38 77.0422 205.157C63.6296 207.949 47.6075 208.84 35.3418 200.913L35.2752 207.397C25.4957 207.656 16.2169 204.785 10.068 196.993C4.76763 190.277 2.22718 181.561 1.17893 173.064C0.249078 165.531 -0.152955 158.186 0.0542278 150.55C0.374867 138.654 1.34172 127.104 3.01891 115.329C6.19817 93.0051 11.3185 71.7467 22.1833 51.8572C29.1288 39.1451 38.5679 27.9301 50.1282 19.1644C68.9621 4.88358 92.7535 -0.658547 116.19 0.0616579C130.007 0.485888 143.486 3.10773 156.223 8.40568C167.569 13.1265 177.846 19.7193 186.573 28.3864C191.974 33.7534 196.505 39.7617 200.491 46.2559C209.047 60.2013 215.05 77.6687 218.415 93.713C222.514 113.262 224.632 133.016 224.98 152.992C225.109 160.374 224.66 167.433 223.636 174.652C221.907 186.844 216.73 199.706 204.876 204.743C200.101 206.825 194.926 207.525 189.774 207.362L189.754 200.94C183.307 205.004 176.398 206.6 168.942 207.098C162.241 207.402 155.752 206.827 149.174 205.626L148.278 205.167L148.281 205.17Z" fill="black" fill-opacity="0.2"/>
<path d="M148.28 205.17C125.694 217.036 99.5426 216.787 77.0412 205.15C58.1407 195.375 45.1992 179.329 38.8234 158.966C31.794 161.331 24.9767 158.625 20.5297 152.947C13.9615 144.428 13.1205 130.53 21.2253 123.212C24.0666 120.647 27.7984 119.352 31.5252 120.003C34.0632 120.447 36.2682 121.754 37.3682 124.132L46.6791 121.954C64.5732 116.72 81.2391 107.902 95.5174 95.8736C104.411 88.378 112.023 79.7035 117.979 69.7661C119.61 67.0481 120.801 64.4263 121.891 61.3506C123.869 67.0555 126.684 72.055 130.215 76.872C144.753 96.6924 165.723 111.531 188.143 121.229L188.508 122.711C190.306 120.802 192.743 119.85 195.404 119.838C202.717 119.801 208.269 126.376 209.468 133.485C210.634 140.396 208.886 147.383 204.661 152.92C200.236 158.536 193.409 161.328 186.433 158.963L181.841 170.615C174.649 185.791 163.088 197.381 148.28 205.162V205.17ZM77.6627 146.273C80.9012 148.017 84.5811 147.79 87.6198 145.898C90.3107 144.224 92.0989 141.182 92.274 137.734C92.565 132.012 88.1994 127.059 82.4131 127.047C76.9055 127.035 72.6681 131.529 72.5226 136.994C72.4215 140.83 74.1899 144.406 77.6602 146.276L77.6627 146.273ZM149.681 144.988C152.221 142.699 153.191 139.518 152.946 136.257C152.618 131.891 149.525 128.367 145.594 127.37C141.27 126.275 136.981 128.078 134.719 131.815C131.303 137.465 133.91 144.882 139.835 146.87C143.303 148.034 146.963 147.437 149.681 144.988ZM126.097 175.437C127.016 174.393 126.812 172.958 125.936 172.304C124.858 171.498 123.788 171.897 122.905 172.854C117.449 178.769 107.544 178.895 102.169 172.736C101.358 171.806 100.186 171.599 99.2664 172.289C98.4401 172.911 98.1368 174.302 98.926 175.249C105.862 183.559 118.964 183.524 126.094 175.437H126.097Z" fill="#FFCCA8"/>
<path d="M149.681 144.988C146.963 147.438 143.303 148.037 139.835 146.87C133.911 144.88 131.304 137.463 134.72 131.815C136.979 128.078 141.271 126.275 145.594 127.37C149.528 128.367 152.621 131.891 152.947 136.257C153.191 139.518 152.222 142.699 149.681 144.988Z" fill="#1D1B1A"/>
<path d="M77.6634 146.273C74.1906 144.401 72.4222 140.827 72.5258 136.992C72.6713 131.526 76.9111 127.033 82.4163 127.045C88.2001 127.057 92.5682 132.01 92.2772 137.732C92.102 141.18 90.3114 144.221 87.623 145.896C84.5843 147.788 80.9019 148.017 77.6659 146.271L77.6634 146.273Z" fill="#1D1B1A"/>
<path d="M126.098 175.437C118.967 183.524 105.866 183.559 98.9299 175.249C98.1406 174.302 98.444 172.909 99.2702 172.289C100.188 171.599 101.362 171.806 102.173 172.736C107.548 178.895 117.453 178.769 122.909 172.854C123.792 171.897 124.862 171.5 125.94 172.304C126.816 172.958 127.02 174.393 126.1 175.437H126.098Z" fill="#773C14"/>
<path d="M126.098 175.437C118.967 183.524 105.866 183.559 98.9299 175.249C98.1406 174.302 98.444 172.909 99.2702 172.289C100.188 171.599 101.362 171.806 102.173 172.736C107.548 178.895 117.453 178.769 122.909 172.854C123.792 171.897 124.862 171.5 125.94 172.304C126.816 172.958 127.02 174.393 126.1 175.437H126.098Z" fill="black" fill-opacity="0.2"/>
</g>
<defs>
<clipPath id="clip0_1400_8943">
<rect width="225" height="213.975" fill="white"/>
</clipPath>
</defs>
</svg>
