<svg width="24" height="24" viewBox="0 0 24 24" fill="none" xmlns="http://www.w3.org/2000/svg">
<path d="M21.1034 11.5546C20.8771 11.5546 20.2401 11.6722 19.7071 12.8941C19.7071 12.8941 18.7263 12.2902 17.424 11.3655C15.4463 9.96631 12.7885 7.82968 11.8177 5.93945C10.8469 7.82968 8.18908 9.96631 6.2114 11.3655C4.90969 12.2902 3.92823 12.8941 3.92823 12.8941C3.37221 11.6568 2.75829 11.5546 2.53198 11.5546C1.79633 12.1201 1.32422 12.9509 1.32422 13.8939C1.32422 15.5537 2.75829 16.8932 4.51262 16.8932C4.58825 17.0445 4.66329 17.1762 4.73892 17.3275C5.15431 18.101 5.64474 18.7988 6.26694 19.4027C6.66342 19.7986 7.09713 20.12 7.56865 20.4214C8.79532 21.1948 10.2477 21.6664 11.8135 21.6664C11.8147 21.6664 11.8153 21.6664 11.8165 21.6664C11.8177 21.6664 11.8183 21.6664 11.8195 21.6664C13.3853 21.6664 14.8383 21.1948 16.0643 20.4214C16.5359 20.12 16.9702 19.7986 17.3661 19.4027C17.9888 18.7988 18.4793 18.101 18.8941 17.3275C18.9697 17.1762 19.0448 17.0445 19.1204 16.8932C20.8747 16.8932 22.3088 15.5537 22.3088 13.8939C22.3088 12.9503 21.8373 12.1201 21.101 11.5546H21.1034ZM11.8212 18.6859C11.8212 18.6859 11.8195 18.6859 11.8183 18.6859C11.8171 18.6859 11.8165 18.6859 11.8153 18.6859C11.1736 18.6859 10.6454 18.2711 10.4758 17.6862C10.438 17.4971 10.5703 17.3086 10.7588 17.3086H12.8777C13.0662 17.3086 13.1986 17.4977 13.1608 17.6862C12.9912 18.2711 12.4629 18.6859 11.8212 18.6859Z" fill="#FFCCA8"/>
<path d="M6.26836 19.4033L5.85356 20.6861C5.75902 20.988 5.4949 21.1765 5.21186 21.2333C5.00447 21.2711 4.77816 21.2522 4.58908 21.1198L2.98542 20.0633C2.49499 19.7425 2.47608 19.0257 2.94761 18.686L4.73975 17.3281C5.15514 18.1016 5.64616 18.7994 6.26836 19.4033Z" fill="#706963"/>
<path d="M20.8129 20.0628L19.1904 21.1193C18.7378 21.4212 18.0961 21.2138 17.9265 20.6856L17.4922 19.3082C18.0772 18.7049 18.5487 18.0065 18.9263 17.252L20.8508 18.6854C21.3034 19.0252 21.2845 19.7419 20.8129 20.0628Z" fill="#706963"/>
<path d="M10.4169 13.2902C10.4169 13.8562 10.0394 14.3088 9.56785 14.3088C9.09632 14.3088 8.71875 13.8562 8.71875 13.2902C8.71875 12.7241 9.09573 12.2715 9.56785 12.2715C10.04 12.2715 10.4169 12.7241 10.4169 13.2902Z" fill="#1D1B1A"/>
<path d="M14.9091 13.2902C14.9091 13.8562 14.5316 14.3088 14.06 14.3088C13.5885 14.3088 13.2109 13.8562 13.2109 13.2902C13.2109 12.7241 13.5879 12.2715 14.06 12.2715C14.5321 12.2715 14.9091 12.7241 14.9091 13.2902Z" fill="#1D1B1A"/>
<path d="M13.1543 17.6862C12.9847 18.2711 12.4564 18.6859 11.8147 18.6859C11.173 18.6859 10.6448 18.2711 10.4752 17.6862C10.4374 17.4971 10.5698 17.3086 10.7583 17.3086H12.8712C13.0597 17.3086 13.211 17.4977 13.1543 17.6862Z" fill="#706963"/>
<path d="M21.1551 10.272C20.8343 6.81952 18.5517 3.89524 15.4383 2.63135C15.0986 2.48008 14.7216 2.40445 14.3629 2.34832C13.8158 2.27268 13.2875 2.23546 12.7404 2.3105L12.325 2.36722C12.1743 2.38613 12.0171 2.42454 11.8156 2.42454C11.6141 2.42454 11.457 2.38554 11.3063 2.36722L10.8909 2.3105C10.3437 2.23546 9.8155 2.27268 9.26834 2.34832C8.90968 2.40504 8.53269 2.48067 8.19294 2.63135C5.08017 3.89524 2.79701 6.81952 2.47616 10.272C2.43834 10.7057 2.47616 11.5554 2.53288 11.5554C2.75919 11.5554 3.36307 11.6872 3.92914 12.895C3.92914 12.895 4.91 12.2911 6.2123 11.3663C8.18821 9.96832 10.8424 7.83406 11.8156 5.9456C12.7888 7.83465 15.4431 9.96832 17.419 11.3663C18.7207 12.2911 19.7021 12.895 19.7021 12.895C20.2682 11.6872 20.8721 11.5554 21.0984 11.5554C21.1551 11.5554 21.1929 10.7057 21.1551 10.272Z" fill="#706963"/>
</svg>
