<svg width="262" height="262" viewBox="0 0 262 262" fill="none" xmlns="http://www.w3.org/2000/svg">
<path fill-rule="evenodd" clip-rule="evenodd" d="M137.274 235.326H196.105V58.8313C196.105 57.0976 195.417 55.4349 194.191 54.209C192.965 52.9831 191.302 52.2944 189.569 52.2944H143.811V228.789C143.811 230.523 143.122 232.186 141.896 233.411C140.67 234.637 139.008 235.326 137.274 235.326Z" fill="#F2C94C"/>
<path d="M65.3687 57.0049C65.3681 55.6328 65.7993 54.2953 66.6012 53.1819C67.4031 52.0685 68.535 51.2357 69.8366 50.8014L135.205 29.0108C136.188 28.6829 137.235 28.5933 138.259 28.7495C139.283 28.9056 140.256 29.303 141.096 29.9089C141.937 30.5148 142.621 31.3119 143.093 32.2343C143.565 33.1567 143.811 34.1782 143.811 35.2143V228.787C143.811 230.52 143.122 232.183 141.896 233.409C140.67 234.635 139.008 235.323 137.274 235.323H65.3687V57.0049Z" fill="#F2994A"/>
<path d="M222.253 235.324H39.2212M111.182 147.926L124.145 146.223" stroke="#4F4F4F" stroke-width="13.0737" stroke-linecap="round" stroke-linejoin="round"/>
</svg>
