<svg width="49" height="49" viewBox="0 0 49 49" fill="none" xmlns="http://www.w3.org/2000/svg">
<g clip-path="url(#clip0_765_8871)">
<path d="M33.6592 1.95312H14.4095C11.7606 1.95312 9.61328 4.10046 9.61328 6.74933V41.325C9.61328 43.9739 11.7606 46.1212 14.4095 46.1212H33.6592C36.3081 46.1212 38.4554 43.9739 38.4554 41.325V6.74933C38.4554 4.10046 36.3081 1.95312 33.6592 1.95312Z" fill="#5E403B"/>
<path d="M31.8532 27.4642C33.7461 27.4642 35.2806 25.9297 35.2806 24.0368C35.2806 22.1439 33.7461 20.6094 31.8532 20.6094C29.9603 20.6094 28.4258 22.1439 28.4258 24.0368C28.4258 25.9297 29.9603 27.4642 31.8532 27.4642Z" fill="#FFDE57"/>
<path d="M31.8514 25.3785C32.5934 25.3785 33.1949 24.777 33.1949 24.035C33.1949 23.2929 32.5934 22.6914 31.8514 22.6914C31.1093 22.6914 30.5078 23.2929 30.5078 24.035C30.5078 24.777 31.1093 25.3785 31.8514 25.3785Z" fill="#CB8C00"/>
<path d="M31.8557 22.6973H26.1498C25.4091 22.6973 24.8086 23.2977 24.8086 24.0384C24.8086 24.7791 25.4091 25.3796 26.1498 25.3796H31.8557C32.5964 25.3796 33.1968 24.7791 33.1968 24.0384C33.1968 23.2977 32.5964 22.6973 31.8557 22.6973Z" fill="#CB8C00"/>
</g>
<defs>
<clipPath id="clip0_765_8871">
<rect width="48.0702" height="48.0702" fill="white"/>
</clipPath>
</defs>
</svg>
