<svg width="22" height="18" viewBox="0 0 22 18" fill="none" xmlns="http://www.w3.org/2000/svg">
<path d="M10.9627 14.063C11.0707 14.021 11.1747 13.9583 11.2747 13.875C11.808 13.3917 12.3163 12.9167 12.7997 12.45C13.283 11.9833 13.704 11.525 14.0627 11.075C14.4213 10.625 14.7087 10.1877 14.9247 9.763C15.1407 9.33833 15.249 8.92567 15.2497 8.525C15.2497 7.79167 14.9997 7.18333 14.4997 6.7C13.9997 6.21667 13.3997 5.975 12.6997 5.975C12.2663 5.975 11.8707 6.06267 11.5127 6.238C11.1547 6.41333 10.8503 6.64233 10.5997 6.925C10.3497 6.64167 10.0373 6.41267 9.66268 6.238C9.28801 6.06333 8.90035 5.97567 8.49968 5.975C7.79968 5.975 7.19968 6.21667 6.69968 6.7C6.19968 7.18333 5.94968 7.79167 5.94968 8.525C5.94968 8.925 6.05801 9.33767 6.27468 9.763C6.49135 10.1883 6.77901 10.6257 7.13768 11.075C7.49635 11.5243 7.91701 11.9827 8.39968 12.45C8.88235 12.9173 9.39068 13.3923 9.92468 13.875C10.0247 13.9583 10.129 14.021 10.2377 14.063C10.3463 14.105 10.467 14.1257 10.5997 14.125C10.7323 14.1243 10.8533 14.1037 10.9627 14.063ZM4.59968 17.475C4.04968 17.475 3.57901 17.2793 3.18768 16.888C2.79635 16.4967 2.60035 16.0257 2.59968 15.475V8.1L1.59968 8.875C1.36635 9.04167 1.11635 9.10833 0.849681 9.075C0.583014 9.04167 0.366347 8.90833 0.199681 8.675C0.0330139 8.44167 -0.0293195 8.19167 0.0126805 7.925C0.0546805 7.65833 0.18368 7.44167 0.39968 7.275L9.37468 0.4C9.55801 0.266667 9.75401 0.166667 9.96268 0.0999999C10.1713 0.0333332 10.3837 0 10.5997 0C10.8157 0 11.0283 0.0333332 11.2377 0.0999999C11.447 0.166667 11.6427 0.266667 11.8247 0.4L20.8247 7.275C21.0413 7.44167 21.1663 7.65833 21.1997 7.925C21.233 8.19167 21.1663 8.44167 20.9997 8.675C20.833 8.89167 20.6163 9.01667 20.3497 9.05C20.083 9.08333 19.8413 9.01667 19.6247 8.85L18.5997 8.1V15.475C18.5997 16.025 18.404 16.496 18.0127 16.888C17.6213 17.28 17.1503 17.4757 16.5997 17.475H4.59968Z" fill="#3D3835"/>
</svg>
