<svg width="321" height="321" viewBox="0 0 321 321" fill="none" xmlns="http://www.w3.org/2000/svg">
<path d="M189.353 40.0039H130.68C75.3675 40.0039 47.6978 40.0039 30.5225 57.5792C13.3473 75.1544 13.334 103.451 13.334 160.017C13.334 216.583 13.334 244.88 30.5225 262.455C47.7111 280.03 75.3675 280.03 130.68 280.03H189.353C244.666 280.03 272.336 280.03 289.511 262.455C306.686 244.88 306.7 216.583 306.7 160.017C306.7 103.451 306.7 75.1544 289.511 57.5792C272.322 40.0039 244.666 40.0039 189.353 40.0039Z" fill="#64A7FF"/>
<path d="M255.071 107.122C257.313 105.255 258.722 102.574 258.987 99.6677C259.252 96.7618 258.352 93.8696 256.485 91.6274C254.617 89.3852 251.936 87.9766 249.03 87.7115C246.124 87.4465 243.232 88.3466 240.99 90.2139L209.319 116.617C195.638 128.018 186.144 135.912 178.116 141.06C170.355 146.06 165.088 147.727 160.021 147.727C154.953 147.727 149.699 146.06 141.925 141.06C133.911 135.912 124.403 128.018 110.722 116.603L79.0517 90.2139C76.8095 88.3466 73.9174 87.4465 71.0115 87.7115C68.1056 87.9766 65.424 89.3852 63.5567 91.6274C61.6894 93.8696 60.7892 96.7618 61.0543 99.6677C61.3194 102.574 62.728 105.255 64.9702 107.122L97.1871 133.979C110.188 144.807 120.723 153.581 130.031 159.582C139.712 165.796 149.153 169.743 160.034 169.743C170.888 169.743 180.33 165.796 190.024 159.568C199.318 153.594 209.853 144.807 222.854 133.965L255.071 107.122Z" fill="#2085F7"/>
</svg>
