<svg width="44" height="41" viewBox="0 0 44 41" fill="none" xmlns="http://www.w3.org/2000/svg">
<path d="M39.1287 12.438C38.4399 10.8251 37.0031 9.6959 35.3271 9.35938V17.4057C35.3271 18.2641 35.0169 19.041 34.5186 19.6628C33.8535 20.4909 32.8452 21.0325 31.7003 21.0325H12.1175C10.9725 21.0325 9.96425 20.4909 9.29909 19.6628C8.80088 19.0423 8.49065 18.2641 8.49065 17.4057V9.35938C6.8146 9.6959 5.37649 10.8251 4.68898 12.438L0 23.425H43.8177L39.1287 12.438Z" fill="#2085F7"/>
<path d="M0 23.4258V36.2373C0 38.7061 2.00205 40.7081 4.47077 40.7081H39.347C41.8157 40.7081 43.8177 38.7061 43.8177 36.2373V23.4258H0Z" fill="#64A7FF"/>
<path d="M9.30063 19.6643L17.8333 12.8629L8.49219 5.07812V17.4072C8.49219 18.2656 8.80242 19.0425 9.30063 19.6643Z" fill="#D0D5DA"/>
<path d="M25.9883 12.8629L34.521 19.6643C35.0192 19.0439 35.3294 18.2656 35.3294 17.4072V5.07812L25.9883 12.8629Z" fill="#D0D5DA"/>
<path d="M17.8333 12.8629L19.441 14.2024C20.9278 15.3552 22.893 15.3552 24.3785 14.2024L25.9862 12.8629L35.3273 5.07812L24.3785 12.6223C22.8917 13.6463 20.9265 13.6463 19.441 12.6223L8.49219 5.07812L17.8333 12.8629Z" fill="#AFB7C0"/>
<path d="M24.3786 14.2028C22.8919 15.3557 20.9266 15.3557 19.4412 14.2028L17.8335 12.8633L9.30078 19.6647C9.96594 20.4929 10.9742 21.0345 12.1192 21.0345H31.7019C32.8469 21.0345 33.8552 20.4929 34.5203 19.6647L25.9876 12.8633L24.3786 14.2028Z" fill="#E5E9EE"/>
<path d="M19.4423 12.6209C20.9291 13.645 22.8943 13.645 24.3798 12.6209L35.3286 5.07677V3.62683C35.3286 1.62346 33.7052 0 31.7018 0H12.119C10.117 0 8.49219 1.62346 8.49219 3.62683V5.07677L19.4423 12.6209Z" fill="#E5E9EE"/>
</svg>
