<svg width="21" height="21" viewBox="0 0 21 21" fill="none" xmlns="http://www.w3.org/2000/svg">
<path d="M6.66316 8.78764C5.65456 7.77905 5.15027 6.56659 5.15027 5.15027C5.15027 3.73394 5.65456 2.52149 6.66316 1.51289C7.67175 0.504297 8.88421 0 10.3005 0C11.7169 0 12.9293 0.504297 13.9379 1.51289C14.9465 2.52149 15.4508 3.73394 15.4508 5.15027C15.4508 6.56659 14.9465 7.77905 13.9379 8.78764C12.9293 9.79624 11.7169 10.3005 10.3005 10.3005C8.88421 10.3005 7.67175 9.79624 6.66316 8.78764ZM0 18.0259V16.9959C0 16.2663 0.187985 15.5959 0.563954 14.9847C0.939924 14.3735 1.43864 13.9066 2.06011 13.5838C3.39059 12.9186 4.74254 12.4199 6.11594 12.0877C7.48935 11.7555 8.88421 11.589 10.3005 11.5881C11.7169 11.5872 13.1117 11.7538 14.4851 12.0877C15.8585 12.4216 17.2105 12.9203 18.541 13.5838C19.1633 13.9057 19.6624 14.3727 20.0384 14.9847C20.4144 15.5967 20.6019 16.2671 20.6011 16.9959V18.0259C20.6011 18.7341 20.3491 19.3405 19.8453 19.8453C19.3414 20.35 18.735 20.6019 18.0259 20.6011H2.57513C1.86697 20.6011 1.26096 20.3491 0.757089 19.8453C0.253221 19.3414 0.000858378 18.735 0 18.0259Z" fill="#3D3835"/>
</svg>
