<svg width="196" height="214" viewBox="0 0 196 214" fill="none" xmlns="http://www.w3.org/2000/svg">
<g clip-path="url(#clip0_1400_8933)">
<path d="M191.344 125.64C187.004 120.842 180.071 119.267 175.163 123.105C173.11 124.712 172.002 126.889 170.767 129.334L170.219 120.164C154.857 114.989 140.486 107.671 129.225 95.6141C123.034 88.9858 118.159 81.5213 114.948 72.9159C113.056 78.8237 110.16 84.0181 106.392 88.8535C98.4036 99.1102 87.4667 106.466 75.077 110.425C69.0369 112.355 62.9354 113.316 56.5433 113.016C58.4378 109.154 59.737 105.344 60.3322 101.042C51.4221 111.259 38.6167 118.008 25.6695 121.386L25.0506 129.344C23.9593 126.899 22.79 124.827 20.8294 123.212C16.0412 119.267 8.94996 120.835 4.7689 125.389C1.67679 115.523 0.330347 105.405 0.434284 95.0094C0.557117 82.6977 3.2193 70.823 7.82556 59.4892C17.4349 35.8366 36.1647 16.8896 59.8858 7.3416C86.295 -3.28823 117.457 -2.40714 143.021 10.1998C164.653 20.8675 181.217 39.3185 189.678 61.8916C197.554 82.9008 197.632 104.109 191.344 125.642V125.64Z" fill="#773C14"/>
<path d="M191.344 125.64C187.004 120.842 180.071 119.267 175.163 123.105C173.11 124.712 172.002 126.889 170.767 129.334L170.219 120.164C154.857 114.989 140.486 107.671 129.225 95.6141C123.034 88.9858 118.159 81.5213 114.948 72.9159C113.056 78.8237 110.16 84.0181 106.392 88.8535C98.4036 99.1102 87.4667 106.466 75.077 110.425C69.0369 112.355 62.9354 113.316 56.5433 113.016C58.4378 109.154 59.737 105.344 60.3322 101.042C51.4221 111.259 38.6167 118.008 25.6695 121.386L25.0506 129.344C23.9593 126.899 22.79 124.827 20.8294 123.212C16.0412 119.267 8.94996 120.835 4.7689 125.389C1.67679 115.523 0.330347 105.405 0.434284 95.0094C0.557117 82.6977 3.2193 70.823 7.82556 59.4892C17.4349 35.8366 36.1647 16.8896 59.8858 7.3416C86.295 -3.28823 117.457 -2.40714 143.021 10.1998C164.653 20.8675 181.217 39.3185 189.678 61.8916C197.554 82.9008 197.632 104.109 191.344 125.642V125.64Z" fill="black" fill-opacity="0.2"/>
<path d="M191.344 125.64C197.956 132.951 197.19 145.421 191.16 153.49C186.494 159.733 178.626 162.466 171.258 158.836C165.799 176.172 155.609 190.362 140.448 200.37C125.93 210.031 108.457 214.501 91.2086 212.838C60.1151 209.838 33.9799 188.588 24.8288 158.781C17.8391 162.438 9.79823 159.795 5.2085 153.925C1.55184 149.25 -0.30248 143.401 0.0353129 137.449C0.290429 132.942 1.81404 128.602 4.76441 125.39C8.94784 120.835 16.0391 119.267 20.8249 123.212C22.7855 124.827 23.9548 126.899 25.0461 129.344L25.665 121.386C38.6122 118.008 51.4176 111.259 60.3277 101.043C59.7325 105.344 58.4333 109.154 56.5388 113.016C62.9309 113.316 69.0324 112.355 75.0725 110.425C87.4622 106.466 98.3991 99.1103 106.388 88.8537C110.156 84.0159 113.049 78.8215 114.944 72.916C118.154 81.5215 123.032 88.986 129.221 95.6143C140.484 107.673 154.853 114.989 170.214 120.164L170.762 129.334C171.995 126.89 173.106 124.712 175.158 123.105C180.067 119.267 187 120.84 191.339 125.64H191.344ZM78.1103 135.712C77.0544 129.939 71.3095 126.46 65.8458 128.413C61.4734 129.975 59.0569 134.371 59.6852 138.958C60.4151 144.282 65.3308 147.684 70.4875 146.808C75.604 145.938 79.1 141.119 78.1103 135.715V135.712ZM136.933 135.979C136.253 131.451 132.726 128.269 128.474 127.912C124.223 127.556 120.124 130.256 118.752 134.489C117.504 138.332 118.712 142.454 121.815 144.937C124.78 147.308 129.108 147.648 132.507 145.634C135.696 143.744 137.536 139.988 136.933 135.979ZM112.277 172.591C113.276 171.433 112.601 169.792 111.698 169.298C110.349 168.563 109.504 169.142 108.512 170.12C102.701 175.862 92.9968 175.773 87.2 170.025C86.1937 169.029 85.0126 168.514 83.8528 169.447C82.9339 170.186 82.7142 171.679 83.5811 172.681C90.9015 181.116 104.98 181.033 112.275 172.588L112.277 172.591Z" fill="#FFCCA8"/>
<path d="M136.934 135.979C137.536 139.988 135.698 143.741 132.507 145.634C129.108 147.648 124.78 147.308 121.816 144.937C118.709 142.452 117.505 138.332 118.752 134.489C120.124 130.256 124.116 127.546 128.475 127.912C132.833 128.279 136.253 131.453 136.934 135.979Z" fill="#1D1B1A"/>
<path d="M78.1104 135.713C79.0978 141.117 75.6042 145.936 70.4877 146.805C65.331 147.682 60.4153 144.283 59.6854 138.956C59.0571 134.371 61.4736 129.975 65.846 128.411C71.3097 126.46 77.0546 129.937 78.1104 135.71V135.713Z" fill="#1D1B1A"/>
<path d="M112.277 172.591C104.982 181.036 90.9037 181.118 83.5833 172.683C82.714 171.681 82.9337 170.188 83.8549 169.449C85.0148 168.516 86.1959 169.029 87.2022 170.028C92.999 175.775 102.7 175.865 108.514 170.122C109.506 169.142 110.352 168.563 111.7 169.3C112.603 169.792 113.278 171.436 112.279 172.593L112.277 172.591Z" fill="#773C14"/>
<path d="M112.277 172.591C104.982 181.036 90.9037 181.118 83.5833 172.683C82.714 171.681 82.9337 170.188 83.8549 169.449C85.0148 168.516 86.1959 169.029 87.2022 170.028C92.999 175.775 102.7 175.865 108.514 170.122C109.506 169.142 110.352 168.563 111.7 169.3C112.603 169.792 113.278 171.436 112.279 172.593L112.277 172.591Z" fill="black" fill-opacity="0.2"/>
</g>
<defs>
<clipPath id="clip0_1400_8933">
<rect width="196" height="213.178" fill="white"/>
</clipPath>
</defs>
</svg>
