<svg width="2309" height="2482" viewBox="0 0 2309 2482" fill="none" xmlns="http://www.w3.org/2000/svg">
<g clip-path="url(#clip0_1402_23706)">
<path d="M757.302 1136.18C780.68 1136.18 797.427 1123.37 804.845 1103.92C812.263 1084.48 831.032 1075.94 849.015 1078.41C868.459 1081.11 883.407 1097.63 884.419 1119.21C887.004 1177.65 817.882 1230.25 753.256 1224.86C702.005 1221.82 656.149 1196.42 625.578 1154.84C582.644 1096.51 574.776 1022.78 598.604 954.216C507.453 999.398 435.297 1069.76 386.743 1157.76C330.659 1259.14 317.958 1375.13 347.63 1487.41C413.268 1732.65 638.054 1900.56 879.249 1954.74C986.022 1823.35 1126.85 1721.52 1291.06 1677.8C1534.72 1613.51 1769.85 1707.02 1919.89 1906.3C1984.63 1853.47 2047.24 1794.91 2132.2 1797.39C2195.93 1801.66 2242.46 1850.89 2238.64 1915.18C2236.62 1948.44 2224.48 1979.24 2205.82 2007C2184.13 2039.26 2160.42 2067.69 2132.88 2096.46C1967.32 2269.33 1754.56 2391.72 1521.46 2448.37C1150.57 2538.51 767.643 2442.75 472.724 2205.49C199.159 1985.2 28.8839 1659.71 3.25833 1309.71C-23.9408 937.357 117.899 575.564 391.014 321.107C561.851 161.958 776.859 54.9601 1008.84 16.7465C1240.82 -21.467 1501.01 8.76665 1724.22 113.404C1947.43 218.042 2156.14 409.335 2259.43 640.64C2271.91 668.513 2281.58 695.038 2283.04 725.946C2286.3 791.696 2245.27 849.466 2180.31 866.437C2104.44 886.331 2019.36 854.299 1980.02 783.266C1897.98 634.908 1780.42 510.826 1630.37 429.116C1477.74 346.058 1303.98 308.856 1130.33 322.905C922.745 338.64 729.317 427.093 581.52 572.979C452.268 700.657 365.501 866.325 339.987 1047.5C496.776 850.365 751.233 750.223 994.227 827.099C1132.81 873.855 1245.31 970.288 1316.34 1098.75C1361.41 1101.9 1402.21 1119.21 1432.45 1153.15C1491.12 1219.13 1498.31 1312.07 1454.36 1386.93C1470.66 1456.39 1472.68 1524.95 1459.65 1593.39L1382.54 1595.87C1394.57 1522.47 1389.96 1452.34 1369.62 1381.08C1399.74 1336.24 1407.61 1280.27 1381.87 1232.73C1359.73 1191.7 1320.28 1169 1274.08 1171.02C1176.98 974.671 986.696 859.469 769.666 897.12C739.432 912.63 713.694 931.288 695.599 959.386C670.085 999.285 664.129 1048.74 686.607 1090.32C700.994 1116.85 726.057 1136.07 757.19 1136.07L757.302 1136.18Z" fill="#FFC721"/>
<path d="M2034.99 1622.84L1943.28 1622.84C1902.93 1620.03 1868.54 1589.46 1868.31 1546.97L1867.75 1412.78L1742.77 1412.21C1699.5 1411.99 1668.25 1375.46 1667.02 1334.21L1667.02 1253.18C1667.8 1209.34 1700.96 1173.15 1746.03 1173.04L1867.97 1172.48L1867.97 1046.04C1868.2 1002.09 1903.27 968.712 1945.75 966.688L2030.83 966.688C2072.64 969.948 2106.7 1000.41 2106.92 1043.68L2107.6 1172.48L2230.89 1173.15C2273.82 1173.38 2306.87 1206.65 2309.23 1248.79L2309.23 1338.03C2306.08 1379.28 2273.71 1412.33 2231.23 1412.44L2107.71 1412.89L2107.15 1546.3C2106.92 1587.1 2075.45 1617.44 2035.33 1622.84L2034.99 1622.84Z" fill="#FFC721"/>
<path d="M678.064 1621.49C666.375 1612.72 669.185 1595.08 675.254 1587.88C684.471 1576.87 697.396 1578.33 709.309 1584.85C733.361 1598 762.808 1598.9 787.984 1584.51C840.022 1554.84 814.734 1499.32 850.363 1500.55C864.636 1501 873.628 1512.92 873.066 1528.2C871.268 1573.61 843.394 1612.38 805.855 1631.04C764.269 1651.72 715.941 1649.81 678.064 1621.49Z" fill="#FFC721"/>
<path d="M1063.12 1429.3C1053.12 1422.89 1054.35 1406.59 1058.51 1400.08C1075.37 1373.89 1111.22 1417.61 1155.17 1387.38C1199.12 1357.14 1172.93 1309.49 1205.3 1309.49C1216.87 1309.49 1226.88 1318.59 1227.66 1331.52C1230.25 1371.87 1209.34 1408.51 1177.54 1428.29C1142.81 1449.87 1099.65 1452.45 1063.12 1429.41L1063.12 1429.3Z" fill="#FFC721"/>
</g>
<defs>
<clipPath id="clip0_1402_23706">
<rect width="2309" height="2481.86" fill="white"/>
</clipPath>
</defs>
</svg>
