<svg xmlns="http://www.w3.org/2000/svg" width="40" height="40" viewBox="0 0 40 40" fill="none">
  <g clip-path="url(#clip0_765_9006)">
    <path d="M19.9973 36.5004C27.3891 36.5004 33.3813 30.5082 33.3813 23.1164C33.3813 15.7246 27.3891 9.73242 19.9973 9.73242C12.6055 9.73242 6.61328 15.7246 6.61328 23.1164C6.61328 30.5082 12.6055 36.5004 19.9973 36.5004Z" fill="#FFCCA8"/>
    <path d="M7.78378 28.5148C10.7429 28.5148 13.1418 26.2651 13.1418 23.4898C13.1418 20.7146 10.7429 18.4648 7.78378 18.4648C4.82464 18.4648 2.42578 20.7146 2.42578 23.4898C2.42578 26.2651 4.82464 28.5148 7.78378 28.5148Z" fill="#FFCCA8"/>
    <path d="M32.2135 28.5148C35.1726 28.5148 37.5715 26.2651 37.5715 23.4898C37.5715 20.7146 35.1726 18.4648 32.2135 18.4648C29.2543 18.4648 26.8555 20.7146 26.8555 23.4898C26.8555 26.2651 29.2543 28.5148 32.2135 28.5148Z" fill="#FFCCA8"/>
    <path d="M35.1348 19.2775C35.2698 10.0885 27.3638 2.58549 18.0018 3.59049C10.8008 4.36349 5.0348 10.2165 4.3558 17.4265C4.2868 18.1605 4.2688 18.8845 4.2998 19.5965C4.2998 19.5965 5.6078 19.2845 6.7718 21.8115L15.6008 11.9325C15.6008 11.9325 26.3188 20.5405 33.3928 20.0705C33.5488 20.0605 33.7288 20.0065 33.9058 19.9305C34.3778 19.6645 34.7728 19.1725 35.1348 19.2775Z" fill="#333333"/>
    <path d="M16.2404 24.1758C17.0269 24.1758 17.6644 23.4107 17.6644 22.4668C17.6644 21.523 17.0269 20.7578 16.2404 20.7578C15.454 20.7578 14.8164 21.523 14.8164 22.4668C14.8164 23.4107 15.454 24.1758 16.2404 24.1758Z" fill="black"/>
    <path d="M23.7599 24.1758C24.5464 24.1758 25.1839 23.4107 25.1839 22.4668C25.1839 21.523 24.5464 20.7578 23.7599 20.7578C22.9735 20.7578 22.3359 21.523 22.3359 22.4668C22.3359 23.4107 22.9735 24.1758 23.7599 24.1758Z" fill="black"/>
    <path d="M21.7691 29.207C22.0891 29.207 22.3171 29.515 22.2321 29.823C21.9621 30.804 21.0641 31.524 19.9981 31.524C18.9321 31.524 18.0331 30.804 17.7641 29.823C17.6791 29.514 17.9061 29.207 18.2271 29.207H21.7711H21.7691Z" fill="#5C2F17"/>
  </g>
  <defs>
    <clipPath id="clip0_765_9006">
      <rect width="40" height="40" fill="white"/>
    </clipPath>
  </defs>
</svg>