<svg width="84" height="84" viewBox="0 0 84 84" fill="none" xmlns="http://www.w3.org/2000/svg">
<path d="M41.8937 3.5L11.4857 15.9866C10.1732 16.5263 9.31641 17.8052 9.31641 19.2248V38.4986H41.8937V3.5Z" fill="#F5DF7A"/>
<path d="M9.31641 38.5V47.0281C9.31641 60.1636 26.4881 72.9274 41.8937 80.5V38.5H9.31641Z" fill="#F5DF7A"/>
<path d="M41.8906 80.5C57.2962 72.9274 74.4679 60.1636 74.4679 47.0281V38.5H41.8906V80.5Z" fill="#FFC721"/>
<path d="M41.8906 3.5V38.5007H74.4679V19.2269C74.4679 17.8073 73.6111 16.5284 72.2986 15.9887L41.8906 3.5Z" fill="#FFC721"/>
<path d="M41.8868 61.9845C50.9305 61.9845 58.2618 54.6531 58.2618 45.6094C58.2618 36.5657 50.9305 29.2344 41.8868 29.2344C32.8431 29.2344 25.5117 36.5657 25.5117 45.6094C25.5117 54.6531 32.8431 61.9845 41.8868 61.9845Z" fill="#FFCCA8"/>
<path d="M26.9421 52.2179C30.5626 52.2179 33.4975 49.4653 33.4975 46.0699C33.4975 42.6744 30.5626 39.9219 26.9421 39.9219C23.3217 39.9219 20.3867 42.6744 20.3867 46.0699C20.3867 49.4653 23.3217 52.2179 26.9421 52.2179Z" fill="#FFCCA8"/>
<path d="M56.8327 52.2179C60.4532 52.2179 63.3882 49.4653 63.3882 46.0699C63.3882 42.6744 60.4532 39.9219 56.8327 39.9219C53.2123 39.9219 50.2773 42.6744 50.2773 46.0699C50.2773 49.4653 53.2123 52.2179 56.8327 52.2179Z" fill="#FFCCA8"/>
<path d="M60.4041 40.9148C60.5693 29.6722 50.8964 20.4924 39.4422 21.722C30.6319 22.6678 23.5773 29.8288 22.7466 38.6501C22.6622 39.5482 22.6401 40.434 22.6781 41.3051C22.6781 41.3051 24.2784 40.9233 25.7025 44.0151L36.5046 31.9283C36.5046 31.9283 49.6179 42.46 58.2728 41.885C58.4636 41.8728 58.6839 41.8067 58.9004 41.7137C59.4779 41.3883 59.9612 40.7863 60.4041 40.9148Z" fill="#333333"/>
<path d="M37.2852 46.9084C38.2474 46.9084 39.0274 45.9723 39.0274 44.8175C39.0274 43.6627 38.2474 42.7266 37.2852 42.7266C36.323 42.7266 35.543 43.6627 35.543 44.8175C35.543 45.9723 36.323 46.9084 37.2852 46.9084Z" fill="black"/>
<path d="M46.4844 46.9084C47.4466 46.9084 48.2267 45.9723 48.2267 44.8175C48.2267 43.6627 47.4466 42.7266 46.4844 42.7266C45.5222 42.7266 44.7422 43.6627 44.7422 44.8175C44.7422 45.9723 45.5222 46.9084 46.4844 46.9084Z" fill="black"/>
<path d="M44.0548 53.0625C44.4463 53.0625 44.7253 53.4393 44.6213 53.8162C44.291 55.0164 43.1923 55.8973 41.888 55.8973C40.5838 55.8973 39.4839 55.0164 39.1548 53.8162C39.0508 53.4381 39.3285 53.0625 39.7213 53.0625H44.0573H44.0548Z" fill="#5C2F17"/>
</svg>
