<svg width="582" height="582" viewBox="0 0 582 582" fill="none" xmlns="http://www.w3.org/2000/svg">
<path d="M290.053 24.2402L79.5167 110.694C70.4293 114.431 64.4971 123.285 64.4971 133.114V266.56H290.053V24.2402Z" fill="#F5DF7A"/>
<path d="M64.4971 266.562V325.609C64.4971 416.555 183.389 504.928 290.053 557.358V266.562H64.4971Z" fill="#F5DF7A"/>
<path d="M290.039 557.358C396.703 504.928 515.595 416.555 515.595 325.609V266.562H290.039V557.358Z" fill="#FFC721"/>
<path d="M290.039 24.2402V266.575H515.595V133.129C515.595 123.3 509.663 114.445 500.575 110.708L290.039 24.2402Z" fill="#FFC721"/>
<g clip-path="url(#clip0_1400_9023)">
<path d="M416.791 318.604C411.027 312.011 401.679 309.719 394.947 314.802C392.132 316.929 390.582 319.852 388.854 323.133L388.322 310.708C367.648 303.35 348.363 293.115 333.397 276.538C325.169 267.424 318.741 257.208 314.593 245.487C311.896 253.44 307.857 260.405 302.646 266.863C291.598 280.563 276.625 290.269 259.764 295.344C251.544 297.818 243.263 298.98 234.618 298.427C237.271 293.243 239.116 288.115 240.021 282.306C227.726 295.931 210.238 304.772 192.636 309.048L191.616 319.806C190.194 316.471 188.659 313.64 186.042 311.408C179.652 305.959 170.017 307.919 164.253 313.988C160.294 300.562 158.704 286.836 159.083 272.767C159.531 256.105 163.407 240.093 169.901 224.857C183.451 193.062 209.237 167.845 241.564 155.465C277.555 141.682 319.715 143.589 354.028 161.239C383.065 176.175 405.063 201.529 415.998 232.278C426.177 260.896 425.796 289.604 416.791 318.607L416.791 318.604Z" fill="#513623"/>
<path d="M342.922 331.331C343.646 336.771 341.072 341.81 336.709 344.297C332.062 346.947 326.212 346.387 322.254 343.109C318.106 339.674 316.57 334.07 318.346 328.897C320.301 323.199 325.767 319.623 331.657 320.218C337.548 320.814 342.105 325.189 342.922 331.331Z" fill="#040301"/>
<path d="M263.312 329.62C264.525 336.958 259.685 343.401 252.74 344.46C245.74 345.528 239.164 340.814 238.298 333.587C237.553 327.367 240.924 321.472 246.879 319.455C254.319 316.94 262.015 321.778 263.312 329.617L263.312 329.62Z" fill="#040301"/>
<path d="M314.55 245.471C318.698 257.193 325.13 267.409 333.355 276.522C348.324 293.103 367.606 303.335 388.279 310.693L388.811 323.117C390.536 319.836 392.089 316.914 394.904 314.787C401.636 309.704 410.985 311.991 416.748 318.588L416.755 318.588C425.537 328.635 424.215 345.497 415.867 356.281C409.409 364.625 398.696 368.144 388.807 363.061C381.02 386.401 366.901 405.375 346.151 418.575C326.278 431.319 302.524 436.968 279.215 434.322C237.197 429.548 202.308 400.185 190.604 359.631C181.059 364.42 170.236 360.657 164.158 352.607C159.315 346.195 156.94 338.236 157.533 330.187C157.982 324.092 160.143 318.253 164.21 313.972C169.977 307.903 179.613 305.943 186 311.393C188.617 313.624 190.152 316.456 191.573 319.79L192.593 309.032C210.195 304.757 227.684 295.915 239.978 282.291C239.074 288.099 237.227 293.227 234.575 298.411C243.22 298.964 251.501 297.802 259.721 295.328C276.582 290.253 291.555 280.548 302.603 266.848C307.814 260.386 311.85 253.421 314.55 245.471ZM331.604 320.223C325.857 319.642 320.248 323.203 318.293 328.902C316.517 334.075 318.056 339.682 322.2 343.113C326.159 346.392 332.009 346.951 336.656 344.302C341.016 341.817 343.592 336.775 342.869 331.336C342.052 325.191 337.351 320.803 331.604 320.223ZM263.253 329.626C261.956 321.788 254.26 316.947 246.82 319.465C240.866 321.479 237.494 327.373 238.239 333.597C239.105 340.82 245.681 345.538 252.681 344.47C259.627 343.41 264.469 336.967 263.253 329.629L263.253 329.626Z" fill="#FFCCA8"/>
</g>
<defs>
<clipPath id="clip0_1400_9023">
<rect width="265.339" height="288.594" fill="white" transform="translate(160.614 144.156) rotate(0.970217)"/>
</clipPath>
</defs>
</svg>
