<svg width="24" height="24" viewBox="0 0 24 24" fill="none" xmlns="http://www.w3.org/2000/svg">
<path d="M15.3311 16.442L21.6571 22.7696C21.7302 22.8426 21.8169 22.9006 21.9123 22.9401C22.0078 22.9797 22.1101 23 22.2134 23C22.3167 23 22.419 22.9797 22.5144 22.9401C22.6098 22.9006 22.6966 22.8426 22.7696 22.7696C22.8426 22.6966 22.9006 22.6098 22.9401 22.5144C22.9797 22.419 23 22.3167 23 22.2134C23 22.1101 22.9797 22.0078 22.9401 21.9123C22.9006 21.8169 22.8426 21.7302 22.7696 21.6571L2.34287 1.2304C2.26983 1.15735 2.18311 1.09941 2.08767 1.05988C1.99223 1.02035 1.88994 1 1.78664 1C1.68333 1 1.58104 1.02035 1.4856 1.05988C1.39016 1.09941 1.30345 1.15735 1.2304 1.2304C1.15735 1.30345 1.09941 1.39016 1.05988 1.4856C1.02035 1.58104 1 1.68333 1 1.78664C1 1.88994 1.02035 1.99223 1.05988 2.08767C1.09941 2.18311 1.15735 2.26983 1.2304 2.34287L6.30566 7.41813C5.61505 7.90765 4.99352 8.48796 4.45782 9.1434C3.69952 10.0739 3.10592 11.1271 2.7027 12.2577C2.6697 12.3535 2.62885 12.4855 2.62885 12.4855L2.60056 12.5829C2.60056 12.5829 2.48114 13.3639 3.15837 13.543C3.35964 13.5962 3.57381 13.5673 3.75382 13.4628C3.93383 13.3582 4.06496 13.1864 4.11843 12.9852L4.12 12.9805L4.13257 12.9412L4.18756 12.7699C4.53004 11.8154 5.03213 10.926 5.67243 10.1396C6.17686 9.52194 6.7724 8.98469 7.43855 8.54631L9.91805 11.0258C9.41769 11.3394 8.99448 11.7618 8.67988 12.2615C8.36529 12.7613 8.1674 13.3255 8.10096 13.9123C8.03451 14.499 8.1012 15.0932 8.29608 15.6506C8.49096 16.2081 8.809 16.7144 9.22656 17.1319C9.64411 17.5495 10.1504 17.8675 10.7079 18.0624C11.2653 18.2573 11.8595 18.324 12.4462 18.2575C13.033 18.1911 13.5972 17.9932 14.097 17.6786C14.5967 17.364 15.0191 16.9408 15.3327 16.4405M14.1699 15.2777C14.0193 15.6329 13.7838 15.9457 13.484 16.1886C13.1843 16.4315 12.8295 16.5971 12.4508 16.6709C12.0721 16.7447 11.681 16.7244 11.312 16.6117C10.943 16.4991 10.6073 16.2976 10.3343 16.0249C10.0614 15.7523 9.85953 15.4167 9.74652 15.0478C9.63351 14.6789 9.6128 14.2879 9.68619 13.9091C9.75958 13.5304 9.92483 13.1754 10.1674 12.8754C10.4101 12.5754 10.7226 12.3396 11.0777 12.1886L14.1699 15.2777ZM9.36024 6.02911L10.7021 7.37099C11.1107 7.31442 11.5433 7.28614 12 7.28614C15.2117 7.28614 17.1632 8.71915 18.3291 10.1412C18.9694 10.9276 19.4715 11.817 19.814 12.7715C19.8402 12.848 19.8585 12.9051 19.869 12.9428L19.8816 12.9821V12.9868L19.8831 12.9883C19.9413 13.1844 20.0736 13.3501 20.252 13.4502C20.4303 13.5503 20.6407 13.5768 20.8384 13.5243C21.036 13.4717 21.2054 13.3441 21.3104 13.1686C21.4155 12.9931 21.448 12.7836 21.401 12.5845V12.5798L21.3994 12.5735L21.3932 12.5531C21.3666 12.4537 21.3351 12.3556 21.2989 12.2593C20.8957 11.1287 20.3021 10.0754 19.5437 9.14497C18.1359 7.42598 15.7648 5.71485 12.0031 5.71485C11.0321 5.71485 10.1537 5.82799 9.36181 6.02754" fill="#B9B2A6"/>
</svg>
