<svg width="30" height="30" viewBox="0 0 30 30" fill="none" xmlns="http://www.w3.org/2000/svg">
<path fill-rule="evenodd" clip-rule="evenodd" d="M6.46842 3.86719C6.25846 3.86719 6.0571 3.9506 5.90863 4.09906C5.76017 4.24753 5.67676 4.44889 5.67676 4.65885V21.933C5.67676 22.143 5.76017 22.3443 5.90863 22.4928C6.0571 22.6413 6.25846 22.7247 6.46842 22.7247H20.7184C20.9284 22.7247 21.1297 22.6413 21.2782 22.4928C21.4267 22.3443 21.5101 22.143 21.5101 21.933V10.7056C21.5103 10.5993 21.4891 10.494 21.4477 10.3961C21.4064 10.2982 21.3457 10.2096 21.2694 10.1356L15.0358 4.0936C14.8884 3.94985 14.6907 3.8692 14.4848 3.86877L6.46842 3.86719ZM18.7646 9.91393L15.2765 6.53035V9.91393H18.7646ZM12.0101 10.9209H8.84342V9.3376H12.0101V10.9209ZM18.3434 14.8793H8.84342V13.2959H18.3434V14.8793ZM8.84342 18.8376H18.3434V17.2543H8.84342V18.8376Z" fill="#FFC721"/>
<path d="M23.0936 14.0879V24.3795H9.63525V25.9629H23.8852C24.0952 25.9629 24.2966 25.8795 24.445 25.731C24.5935 25.5825 24.6769 25.3812 24.6769 25.1712V14.0879H23.0936Z" fill="#FFC721"/>
</svg>
