<svg width="30" height="30" viewBox="0 0 30 30" fill="none" xmlns="http://www.w3.org/2000/svg">
<path fill-rule="evenodd" clip-rule="evenodd" d="M6.4694 3.86719C6.25944 3.86719 6.05807 3.9506 5.90961 4.09906C5.76114 4.24753 5.67773 4.44889 5.67773 4.65885V21.933C5.67773 22.143 5.76114 22.3443 5.90961 22.4928C6.05807 22.6413 6.25944 22.7247 6.4694 22.7247H20.7194C20.9293 22.7247 21.1307 22.6413 21.2792 22.4928C21.4276 22.3443 21.511 22.143 21.511 21.933V10.7056C21.5113 10.5993 21.4901 10.494 21.4487 10.3961C21.4074 10.2982 21.3467 10.2096 21.2704 10.1356L15.0368 4.0936C14.8894 3.94985 14.6917 3.8692 14.4858 3.86877L6.4694 3.86719ZM18.7656 9.91393L15.2775 6.53035V9.91393H18.7656ZM12.0111 10.9209H8.8444V9.3376H12.0111V10.9209ZM18.3444 14.8793H8.8444V13.2959H18.3444V14.8793ZM8.8444 18.8376H18.3444V17.2543H8.8444V18.8376Z" fill="#7D7D7D"/>
<path d="M23.095 14.0879V24.3795H9.63672V25.9629H23.8867C24.0967 25.9629 24.298 25.8795 24.4465 25.731C24.595 25.5825 24.6784 25.3812 24.6784 25.1712V14.0879H23.095Z" fill="#7D7D7D"/>
</svg>
