<svg width="226" height="173" viewBox="0 0 226 173" fill="none" xmlns="http://www.w3.org/2000/svg">
<path d="M157.855 156.085C157.566 153.394 156.992 150.72 156.089 148.075L154.775 144.223C157.192 140.015 158.694 135.3 159.06 130.429L157.107 127.022C153.219 120.242 148.975 113.556 140.648 112.156C136.613 111.478 131.678 112.251 129.599 115.667L126.594 114.774C129.27 112.277 131.221 109.201 132.42 105.578C134.581 105.922 136.626 105.342 138.262 103.937C141.873 100.832 142.302 94.8711 139.273 92.3723L140.105 89.188C141.309 84.4568 140.566 79.5254 138.381 75.2551L141.004 73.2512L141.407 72.8716L143.176 73.9198C146.841 76.0899 151.166 76.4733 155.117 75.0322C156.18 77.6254 158.097 79.6841 160.687 80.6605C163.552 81.7409 166.704 81.5444 169.707 80.3905C174.653 78.4885 178.559 74.6923 180.947 69.963C182.314 67.2527 183.339 64.3914 183.13 61.4091L182.386 60.7707C183.275 60.2268 184.069 60.138 185.077 60.3382C191.519 61.6112 197.697 63.4659 203.613 66.348C222.847 75.7159 226.609 92.1022 225.926 112.279C225.612 121.541 224.66 130.584 223.153 139.714C222.367 144.472 221.366 148.971 219.954 153.539C218.035 159.74 215.002 165.727 209.562 169.386C200.821 175.261 188.809 171.478 179.587 167.612C171.953 164.413 164.781 160.486 157.857 156.087L157.855 156.085ZM174.495 133.899L192.116 139.395C194.885 140.258 197.325 141.373 200.003 142.668C198.085 139.714 195.14 138.211 192.126 137.14L189.425 136.422L192.349 109.078L192.979 101.125C192.339 101.642 192.313 102.218 192.122 102.894L189.351 118.814L186.65 135.837L169.176 131.232L161.193 129.158L159.608 129.098L174.495 133.899Z" fill="#FFB521"/>
<path d="M40.8451 84.8421C40.5278 85.5221 40.4843 86.2813 40.6996 86.9764L41.3871 89.2031C43.4175 94.0741 47.4706 97.9213 52.6059 99.5022C55.0329 100.248 57.5071 100.369 59.8944 99.6287C61.9191 98.9998 63.7152 97.7381 64.4745 95.8702L65.3508 93.5452C67.3113 94.2875 69.3605 94.363 71.5797 94.0816L73.034 93.8984C76.7094 95.976 80.0127 98.6409 82.3207 102.279C82.4605 102.5 82.7136 102.762 82.8288 102.73L83.7089 104.862L86.3021 111.165L88.8707 119.741L89.2843 120.544C85.9395 123.192 83.0195 126.293 80.7361 130.001L79.3309 129.876C79.3819 129.791 79.0098 129.481 78.872 129.455L76.513 129.007C75.9785 124.321 75.7821 119.573 74.2107 115.05C73.7971 118.553 74.1635 121.662 74.0653 124.911L73.8953 128.728C68.2745 128.129 62.327 128.422 57.0236 130.752C54.0451 132.061 51.2914 133.544 48.5604 135.31L42.8471 139.006C40.5674 143.257 43.4137 150.425 47.7388 152.359L49.4877 152.032C49.618 153.424 48.77 154.565 47.6821 155.4L41.0641 160.486C37.3056 163.374 33.4112 165.861 29.2258 168.077L23.1631 170.729C19.3461 172.052 15.3534 172.43 11.4325 171.482C7.90816 170.63 4.7446 167.935 2.98623 164.817C-0.428526 158.764 -0.29254 150.927 0.387389 143.96C1.30718 134.528 2.77281 125.319 4.99391 116.125C6.86182 108.398 10.1803 100.875 15.7783 95.3829C22.2924 88.9935 30.5215 86.2417 39.4946 84.6646C40.0121 84.5739 40.4598 84.6212 40.8469 84.8421H40.8451ZM23.3765 144.102C29.5866 141.274 35.7626 138.702 42.1388 136.266L43.7725 135.858C42.6695 135.561 41.6723 135.614 40.6562 135.92L33.5283 138.062L33.0939 119.883C32.4857 120.926 32.5027 122.057 32.2949 123.245L30.1588 139.49L20.5511 143.567L16.6811 145.909C15.7066 146.765 14.6659 147.496 14.1295 148.757L23.3784 144.104L23.3765 144.102Z" fill="url(#paint0_linear_508_10927)"/>
<path d="M138.379 75.2534C140.563 79.5237 141.307 84.457 140.104 89.1863L139.271 92.3706C137.718 91.0901 135.484 91.2317 134.045 92.7616C133.297 93.5567 132.813 94.4897 132.252 95.5285L131.034 95.5682L129.461 89.3147C125.408 87.0105 122.584 83.3785 120.752 78.9571C118.98 82.2548 116.389 84.9613 112.999 86.6082C111.278 87.4449 109.645 87.8755 107.682 87.6243C107.492 87.5374 107.216 87.0388 107.252 86.7857L107.813 82.7836C104.77 86.0378 100.902 88.7311 96.337 89.0616C95.8327 89.0975 95.1376 88.9577 94.707 88.6952L94.9658 85.5487C93.7003 87.3996 92.314 89.2807 91.8438 91.4622C91.4453 93.3017 91.9911 95.0828 91.772 97.0961C91.0316 96.7108 90.2761 96.0611 89.8078 95.4246C88.5952 93.7739 87.9663 91.8814 87.292 89.6981C86.4024 94.3915 85.7112 98.7015 82.8253 102.728C82.7101 102.76 82.457 102.498 82.3172 102.277C80.0092 98.6392 76.7059 95.9742 73.0305 93.8967L73.4555 93.5643C76.2186 92.6577 78.5663 91.1977 80.759 89.3128C83.441 86.9614 85.6073 84.2719 87.2297 81.0366C89.7379 76.0353 91.7191 70.8811 93.4322 65.5569C94.3482 62.5198 94.4709 59.615 93.6342 56.561C92.5369 52.5475 90.5179 48.9666 87.9209 45.7955C81.1273 53.9678 70.2522 59.1976 59.7152 59.7775C57.9361 60.8068 56.121 61.6189 54.0321 61.8569C53.6469 60.0041 53.0293 58.3798 51.7827 57.1068C49.4577 54.7328 45.9637 55.0066 43.8238 57.5375C42.1353 59.5338 41.5328 62.178 41.9124 64.8486C42.4394 68.5467 45.1119 71.5327 48.8118 72.1068C49.1348 72.9832 49.2613 74.1126 49.1159 74.7963L49.1895 75.3195C49.2047 75.4328 48.8911 75.5461 48.7457 75.6198C47.9713 78.2696 46.7191 80.6569 44.7983 82.6268L43.9824 83.3313L42.6112 84.2341L42.1202 84.4797C41.8029 84.6383 41.1664 84.7951 40.8434 84.8442C40.4562 84.6232 40.0105 84.576 39.4911 84.6666C30.5179 86.2437 22.287 88.9936 15.7748 95.385L15.2214 94.0912C11.3609 84.5722 14.7058 74.6415 22.4438 68.2142L27.9115 63.6719C30.7502 61.313 32.7277 58.3458 34.0592 54.899L36.8507 47.6672C38.7715 42.6905 41.5781 38.2331 45.1893 34.3122C50.9309 28.0795 58.7388 24.4325 67.2435 24.2323C76.9986 24.0019 87.1749 27.9077 92.2933 36.3482C94.6107 37.2548 96.4201 38.7015 97.8819 40.662C103.019 47.5576 102.402 57.647 97.693 64.6786C97.372 65.1602 97.0962 65.5077 96.93 66.029C96.5372 66.9696 96.0291 67.6835 95.7533 68.8696C102.609 63.5208 110.884 61.1468 119.439 63.4377C118.353 60.9371 115.354 59.8757 115.456 58.9578C115.558 58.0399 117.169 57.6206 118.625 58.0682C121.517 58.9578 123.358 61.6189 123.34 64.6824C129.918 65.283 135.501 69.6289 138.379 75.2609V75.2534ZM95.7382 69.0056C95.7382 68.9149 95.6646 68.8432 95.5758 68.8432C95.487 68.8432 95.4134 68.9168 95.4134 69.0056C95.4134 69.0944 95.487 69.168 95.5758 69.168C95.6646 69.168 95.7382 69.0944 95.7382 69.0056Z" fill="#773C14"/>
<path d="M138.379 75.2534C140.563 79.5237 141.307 84.457 140.104 89.1863L139.271 92.3706C137.718 91.0901 135.484 91.2317 134.045 92.7616C133.297 93.5567 132.813 94.4897 132.252 95.5285L131.034 95.5682L129.461 89.3147C125.408 87.0105 122.584 83.3785 120.752 78.9571C118.98 82.2548 116.389 84.9613 112.999 86.6082C111.278 87.4449 109.645 87.8755 107.682 87.6243C107.492 87.5374 107.216 87.0388 107.252 86.7857L107.813 82.7836C104.77 86.0378 100.902 88.7311 96.337 89.0616C95.8327 89.0975 95.1376 88.9577 94.707 88.6952L94.9658 85.5487C93.7003 87.3996 92.314 89.2807 91.8438 91.4622C91.4453 93.3017 91.9911 95.0828 91.772 97.0961C91.0316 96.7108 90.2761 96.0611 89.8078 95.4246C88.5952 93.7739 87.9663 91.8814 87.292 89.6981C86.4024 94.3915 85.7112 98.7015 82.8253 102.728C82.7101 102.76 82.457 102.498 82.3172 102.277C80.0092 98.6392 76.7059 95.9742 73.0305 93.8967L73.4555 93.5643C76.2186 92.6577 78.5663 91.1977 80.759 89.3128C83.441 86.9614 85.6073 84.2719 87.2297 81.0366C89.7379 76.0353 91.7191 70.8811 93.4322 65.5569C94.3482 62.5198 94.4709 59.615 93.6342 56.561C92.5369 52.5475 90.5179 48.9666 87.9209 45.7955C81.1273 53.9678 70.2522 59.1976 59.7152 59.7775C57.9361 60.8068 56.121 61.6189 54.0321 61.8569C53.6469 60.0041 53.0293 58.3798 51.7827 57.1068C49.4577 54.7328 45.9637 55.0066 43.8238 57.5375C42.1353 59.5338 41.5328 62.178 41.9124 64.8486C42.4394 68.5467 45.1119 71.5327 48.8118 72.1068C49.1348 72.9832 49.2613 74.1126 49.1159 74.7963L49.1895 75.3195C49.2047 75.4328 48.8911 75.5461 48.7457 75.6198C47.9713 78.2696 46.7191 80.6569 44.7983 82.6268L43.9824 83.3313L42.6112 84.2341L42.1202 84.4797C41.8029 84.6383 41.1664 84.7951 40.8434 84.8442C40.4562 84.6232 40.0105 84.576 39.4911 84.6666C30.5179 86.2437 22.287 88.9936 15.7748 95.385L15.2214 94.0912C11.3609 84.5722 14.7058 74.6415 22.4438 68.2142L27.9115 63.6719C30.7502 61.313 32.7277 58.3458 34.0592 54.899L36.8507 47.6672C38.7715 42.6905 41.5781 38.2331 45.1893 34.3122C50.9309 28.0795 58.7388 24.4325 67.2435 24.2323C76.9986 24.0019 87.1749 27.9077 92.2933 36.3482C94.6107 37.2548 96.4201 38.7015 97.8819 40.662C103.019 47.5576 102.402 57.647 97.693 64.6786C97.372 65.1602 97.0962 65.5077 96.93 66.029C96.5372 66.9696 96.0291 67.6835 95.7533 68.8696C102.609 63.5208 110.884 61.1468 119.439 63.4377C118.353 60.9371 115.354 59.8757 115.456 58.9578C115.558 58.0399 117.169 57.6206 118.625 58.0682C121.517 58.9578 123.358 61.6189 123.34 64.6824C129.918 65.283 135.501 69.6289 138.379 75.2609V75.2534ZM95.7382 69.0056C95.7382 68.9149 95.6646 68.8432 95.5758 68.8432C95.487 68.8432 95.4134 68.9168 95.4134 69.0056C95.4134 69.0944 95.487 69.168 95.5758 69.168C95.6646 69.168 95.7382 69.0944 95.7382 69.0056Z" fill="black" fill-opacity="0.2"/>
<path d="M180.976 39.2284C181.278 42.1483 180.421 45.1381 178.6 47.431C177.588 48.7058 176.222 49.637 174.705 50.2659L172.163 50.5473C173.075 51.3802 174.039 51.2027 174.96 50.9949L176.505 53.9035C177.988 56.6931 179.408 59.4487 182.383 60.767L183.127 61.4054C183.339 64.3895 182.313 67.249 180.944 69.9593C178.556 74.6886 174.651 78.4848 169.704 80.3867C166.701 81.5407 163.547 81.7372 160.684 80.6568C166.508 74.9851 170.169 66.0327 171.191 57.9378C168.741 64.4972 164.671 69.761 158.801 73.2985L155.116 75.0285C151.167 76.4696 146.84 76.0862 143.176 73.9161L141.406 72.8679C135.948 68.9054 132.506 63.6926 129.819 57.4108C127.932 53.0026 126.33 48.602 124.885 44.0276L123.735 39.1831C123.031 34.603 123.613 29.8454 125.962 25.6562C130.757 30.3081 138.32 31.9286 144.632 30.4422C145.187 30.2495 146.08 29.9719 146.271 29.4676C146.519 28.8104 145.905 28.1682 145.58 27.5544C148.987 29.1466 152.468 30.3194 156.196 30.106L158.516 29.9738L165.349 40.5864C165.64 41.0378 166.033 41.3041 166.497 41.3229C168.273 41.3947 167.117 38.0801 169.84 34.8693C171.183 33.2866 173.108 32.2761 175.198 32.4744C178.504 32.7861 180.642 36.0252 180.972 39.2265L180.976 39.2284ZM150.963 39.7176C151.165 39.7572 151.748 39.6628 151.688 39.4758L151.459 38.76C149.042 37.3095 145.897 37.4832 143.755 39.336C143.599 39.5948 143.461 40.1161 143.606 40.2861C143.727 40.4277 144.099 40.405 144.348 40.3578C146.377 39.0225 148.683 38.8658 150.963 39.7176ZM132.999 42.4694L132.58 41.9972C130.425 41.1246 128.102 42.1143 127.031 44.1843C127.048 44.4638 127.139 44.8095 127.294 44.9209C127.422 45.0135 127.826 44.8454 127.951 44.6924C130.079 42.0746 133.762 43.3325 132.999 42.4713V42.4694ZM149.833 46.8568C149.393 46.5036 148.49 46.4394 147.979 46.6755C146.87 47.1892 146.675 49.8674 148.443 51.656C148.9 52.1206 149.703 52.2981 150.317 52.0715C151.771 51.5351 151.805 48.4339 149.833 46.8549V46.8568ZM134.399 50.3924C134.01 50.1072 133.12 50.06 132.729 50.2999C132.416 50.4925 132.053 51.1026 132.004 51.571C131.77 53.8223 133.619 56.1643 135.166 55.6222C136.578 55.1274 136.463 51.9109 134.397 50.3924H134.399ZM139.919 60.9446C139.056 60.7179 138.801 60.0607 138.89 59.2334L139.336 55.1028C139.351 54.9574 139.017 54.4418 138.937 54.5438C138.884 54.6118 138.669 54.8705 138.643 54.9895L137.691 59.5186C137.451 60.6594 138.101 61.6037 139.068 61.9645C142.018 63.0637 144.437 61.226 143.842 60.8464C143.142 60.4006 141.846 61.4526 139.919 60.9465V60.9446ZM171.217 57.4845L171.123 57.5789L171.217 57.6734L171.311 57.5789L171.217 57.4845ZM153.046 63.1864C153.152 62.9579 153.031 62.38 152.812 62.3063C152.579 62.2289 152.158 62.4517 151.99 62.6916C150.487 65.1035 147.846 66.4388 145.051 65.8514L144.509 66.095C144.379 66.1536 144.622 66.656 144.783 66.7447C147.229 68.1027 151.554 66.3916 153.046 63.1846V63.1864Z" fill="#FCDEBB"/>
<path d="M180.977 39.2285C180.644 36.0272 178.508 32.7881 175.203 32.4764C173.11 32.2781 171.186 33.2905 169.845 34.8713C167.121 38.0821 168.277 41.3967 166.502 41.3249C166.037 41.3061 165.644 41.0398 165.353 40.5884L158.52 29.9758L156.201 30.108C152.471 30.3214 148.992 29.1504 145.584 27.5564C145.907 28.1702 146.523 28.8143 146.276 29.4696C146.085 29.9739 145.192 30.2515 144.636 30.4442C138.324 31.9306 130.762 30.3101 125.967 25.6583C123.617 29.8474 123.035 34.6031 123.74 39.1851C120.935 38.5278 118.365 36.9772 116.642 34.5351C113.675 30.329 113.447 24.899 115.904 20.3945C117.381 17.6842 119.638 15.6576 122.544 14.5433C124.89 8.02542 131.491 3.93263 137.92 1.80596C146.453 -1.00064 157.71 -0.979861 164.634 5.07151C171.609 4.38025 177.947 8.04809 180.901 14.294C182.822 18.3585 183.402 22.7327 183.171 27.2769C182.916 31.4188 182.114 35.3491 180.98 39.2247L180.977 39.2285Z" fill="#773C14"/>
<path d="M180.977 39.2285C180.644 36.0272 178.508 32.7881 175.203 32.4764C173.11 32.2781 171.186 33.2905 169.845 34.8713C167.121 38.0821 168.277 41.3967 166.502 41.3249C166.037 41.3061 165.644 41.0398 165.353 40.5884L158.52 29.9758L156.201 30.108C152.471 30.3214 148.992 29.1504 145.584 27.5564C145.907 28.1702 146.523 28.8143 146.276 29.4696C146.085 29.9739 145.192 30.2515 144.636 30.4442C138.324 31.9306 130.762 30.3101 125.967 25.6583C123.617 29.8474 123.035 34.6031 123.74 39.1851C120.935 38.5278 118.365 36.9772 116.642 34.5351C113.675 30.329 113.447 24.899 115.904 20.3945C117.381 17.6842 119.638 15.6576 122.544 14.5433C124.89 8.02542 131.491 3.93263 137.92 1.80596C146.453 -1.00064 157.71 -0.979861 164.634 5.07151C171.609 4.38025 177.947 8.04809 180.901 14.294C182.822 18.3585 183.402 22.7327 183.171 27.2769C182.916 31.4188 182.114 35.3491 180.98 39.2247L180.977 39.2285Z" fill="black" fill-opacity="0.2"/>
<path d="M128.98 147.86C126.927 147.943 123.547 148.731 123.605 150.464C123.62 150.944 124.03 151.473 124.417 151.741L124.542 152.074C123.641 152.185 122.842 152.774 122.727 153.724C122.612 154.674 123.348 155.53 124.345 155.656V156.087C123.792 156.047 123.405 157.028 123.552 157.538C123.887 158.695 124.831 159.167 125.834 159.309L125.807 159.647C125.596 159.825 125.312 160.142 125.254 160.386C124.721 162.586 130.565 163.897 133.494 164.086C133.683 164.773 134.101 165.546 134.75 166.006L136.596 167.321C136.148 169.395 134.431 170.456 132.399 170.265L120.978 169.191L91.4501 166.482C90.1734 166.365 89.1403 166.173 88.2129 165.413C87.7389 165.026 87.261 164.352 86.9834 163.732L86.1032 161.617C88.0543 160.884 90.5851 159.139 89.9165 157.766C89.7673 157.46 89.3254 157.156 88.7852 156.754C89.5803 156.246 90.2452 155.566 90.1318 154.669C90.0374 153.926 89.3159 153.388 88.3262 153.231C88.8721 152.702 89.2781 152.162 89.2196 151.458C89.1762 150.955 88.6228 150.164 88.0373 150.06L86.2846 149.749C86.5886 149.356 86.8889 148.576 86.7133 148.156C85.8993 146.207 82.2881 146.502 79.7572 146.683L79.2605 145.646L76.2613 138.586L74.7919 135.019C74.6049 134.563 74.7635 133.861 74.9165 133.389C75.7098 132.975 76.4879 132.718 77.4719 132.792L103.315 134.735L122.098 136.142C123.582 136.254 124.925 137.372 125.431 138.688L128.986 147.862L128.98 147.86Z" fill="#FFB521"/>
<path d="M126.592 114.777L129.597 115.671C129.578 115.943 129.578 116.617 129.733 116.925C130.157 117.763 131.497 118.179 132.666 118.043C131.616 119.412 131.345 120.685 132.467 121.622C133.351 122.36 134.382 122.241 135.459 122.122C135.064 123.267 135.414 124.109 136.262 124.672C137.17 125.277 138.239 125.273 139.448 125.071C139.07 126.07 139.412 126.971 140.268 127.46C141.252 128.023 142.383 128.1 143.545 128.119L146.549 128.168L150.07 133.696C151.896 137.145 153.538 140.607 154.771 144.224L156.085 148.077C156.986 150.721 157.562 153.395 157.851 156.087C158.592 163.003 155.094 169.5 147.722 169.92C143.788 170.144 140.015 169.153 136.59 167.319L134.745 166.004C134.097 165.542 133.678 164.771 133.489 164.084C134.645 164.157 136.014 164.146 137.17 163.662C141.758 161.749 142.689 154.58 140.013 150.149C138.186 147.127 135.561 144.672 132.556 142.915C131.746 142.441 130.771 142.409 129.97 142.624L127.557 136.393C126.763 134.344 125.107 133.249 122.907 133.088L80.7285 130.002C83.0119 126.296 85.9319 123.193 89.2767 120.545L89.866 120.187C92.7312 118.334 95.7531 116.919 98.9922 116.054C100.654 117.401 102.72 118.517 104.603 119.386L104.736 120.081L104.858 120.655C105.219 122.351 106.751 123.945 108.577 124.795C113.75 127.203 120.195 125.66 123.683 121.171C124.905 119.597 125.487 117.805 125.135 115.979L126.586 114.779L126.592 114.777Z" fill="#FFC721"/>
<path d="M73.8919 128.727L76.5115 129.007L78.8705 129.454C79.0102 129.481 79.3804 129.791 79.3294 129.876C76.9515 129.664 75.6427 131.156 74.9136 133.387C74.7607 133.857 74.602 134.561 74.789 135.017L69.2211 135.034C70.6452 136.199 71.8766 137.168 72.7738 138.622C73.7993 140.284 73.652 142.218 72.4168 143.682C71.7727 144.322 71.0362 144.866 70.292 145.159C70.3921 143.941 69.9842 142.813 69.308 141.731C68.0615 140.144 66.6053 138.885 64.7997 137.823C64.6864 138.01 64.5749 138.259 64.6562 138.326L64.9395 138.558C67.1946 140.409 69.6064 142.256 69.8954 145.149C70.037 146.564 68.052 148.602 66.3503 148.745C66.6468 147.506 66.3579 146.218 65.4947 145.17C64.5712 144.048 63.6854 142.7 62.0214 142.458L64.133 144.63C65.2813 145.81 66.0916 147.157 65.982 148.766C65.8423 150.821 61.5511 153.086 58.1817 150.808C57.787 150.542 57.4621 150.043 57.3601 149.703L59.3414 148.319L60.9845 148.702L59.6077 147.357L57.4508 148.778C57.2619 148.902 57.0428 149.299 57.1089 149.514C57.0013 149.433 56.7312 149.45 56.5367 149.467C54.3439 150.87 51.9944 151.809 49.4881 152.034L47.7391 152.36C43.4122 150.424 40.5678 143.259 42.8474 139.007L48.5607 135.311C51.2918 133.543 54.0455 132.063 57.024 130.754C62.3274 128.423 68.273 128.13 73.8956 128.729L73.8919 128.727Z" fill="#FCDEBB"/>
<path d="M79.26 145.644C77.5866 146.492 75.9605 148.039 75.7584 150.048C75.3939 153.671 76.6517 157.273 78.9994 159.971C80.839 162.085 83.6097 162.551 86.1027 161.615L86.9829 163.73C87.2605 164.349 87.7383 165.024 88.2124 165.411L87.6855 165.94C84.5483 167.67 80.9542 168.055 77.5337 166.924C70.7156 164.23 69.707 157.212 71.4843 150.477C72.5042 146.613 73.9887 143.015 75.6772 139.398L76.2608 138.582L79.26 145.642V145.644Z" fill="#FFC721"/>
<path d="M176.507 53.9041L174.962 50.9955L174.707 50.2646C176.224 49.6357 177.589 48.7046 178.602 47.4297L176.507 53.9041Z" fill="#773C14"/>
<path d="M176.507 53.9041L174.962 50.9955L174.707 50.2646C176.224 49.6357 177.589 48.7046 178.602 47.4297L176.507 53.9041Z" fill="black" fill-opacity="0.2"/>
<path d="M70.2925 145.158L69.894 145.148C69.605 142.255 67.1913 140.41 64.9381 138.557L64.6548 138.325C64.5736 138.259 64.685 138.009 64.7983 137.822C66.6058 138.884 68.062 140.143 69.3066 141.73C69.9828 142.812 70.3926 143.938 70.2906 145.158H70.2925Z" fill="#FDCD9D"/>
<path d="M66.3484 148.744L65.9801 148.765C66.0897 147.156 65.2794 145.809 64.1311 144.629L62.0195 142.457C63.6835 142.699 64.5693 144.047 65.4928 145.169C66.356 146.217 66.6468 147.506 66.3484 148.744Z" fill="#FDCD9D"/>
<path d="M57.357 149.703L57.1058 149.514C57.0397 149.299 57.2588 148.902 57.4476 148.778L59.6045 147.357L60.9814 148.702L59.3382 148.319L57.357 149.703Z" fill="#FDCD9D"/>
<path d="M139.269 92.3723C142.299 94.8729 141.87 100.834 138.259 103.937C136.623 105.342 134.58 105.924 132.417 105.578C131.218 109.202 129.267 112.277 126.591 114.774L125.14 115.973L123.865 116.865C118.041 120.546 111.377 121.798 104.835 119.418L104.606 119.379C102.723 118.51 100.657 117.394 98.995 116.047C96.3527 113.907 94.5358 111.025 93.5442 107.714C91.9747 107.731 90.698 107.117 89.6082 106.107C86.2633 103.009 86.0782 97.0638 89.0303 95.3942C89.204 95.296 89.714 95.3583 89.8065 95.4206C90.2749 96.059 91.0304 96.7068 91.7707 97.0921C91.9898 95.0769 91.4459 93.2959 91.8425 91.4582C92.3147 89.2767 93.701 87.3937 94.9645 85.5447L94.7058 88.6912C95.1364 88.9537 95.8295 89.0935 96.3357 89.0576C100.903 88.7271 104.769 86.0338 107.811 82.7796L107.25 86.7818C107.215 87.033 107.49 87.5335 107.681 87.6203C109.643 87.8715 111.275 87.4409 112.998 86.6042C116.386 84.9573 118.977 82.2508 120.751 78.9531C122.583 83.3764 125.406 87.0065 129.46 89.3107L131.033 95.5642L132.251 95.5245C132.812 94.4876 133.296 93.5546 134.043 92.7576C135.483 91.2277 137.717 91.0861 139.269 92.3666V92.3723ZM121.843 91.902C121.946 91.9908 122.507 91.9813 122.502 91.8453L122.473 91.1975C120.945 89.509 118.564 88.9519 116.46 89.8792C116.252 90.1021 116.067 90.3835 116.022 90.5912C115.833 91.4525 118.949 89.424 121.843 91.902ZM101.941 92.1475C102.104 92.14 102.595 91.8623 102.5 91.7396L102.066 91.1786C100.036 90.5365 97.8183 91.3392 96.7191 93.1863C96.7078 93.3393 96.7342 93.8587 96.874 93.8398L97.4859 93.7586C98.604 92.4799 100.145 91.8208 101.943 92.1475H101.941ZM119.81 101.84C120.715 100.584 120.581 98.9072 119.712 97.7664C119.31 97.2394 118.634 96.975 118.08 97.0714C116.511 97.3452 115.974 99.9988 117.215 101.786C117.778 102.598 119.166 102.737 119.81 101.84ZM103.067 98.8977C102.721 98.4104 101.93 98.1536 101.379 98.2593C99.9563 98.5351 99.318 101.164 100.742 102.951C101.099 103.398 101.828 103.601 102.395 103.483C103.724 103.206 104.278 100.601 103.067 98.8977ZM109.375 105.788C108.962 105.737 108.299 105.238 108.153 104.851C107.692 103.618 109.674 102.86 108.811 101.736L107.19 103.799C106.546 104.619 107.275 105.595 107.844 106.131C108.376 106.634 109.513 106.785 110.08 106.411C110.191 106.337 110.142 105.882 110.016 105.867L109.377 105.788H109.375ZM110.406 114.921C113.906 115.373 116.919 112.783 116.828 109.354C116.822 109.108 116.601 108.624 116.428 108.5C116.254 108.375 115.765 108.337 115.542 108.413C112.648 109.406 109.755 109.692 106.71 109.235C106.52 109.206 105.96 109.25 105.883 109.423L105.553 110.181C105.996 112.689 107.759 114.5 110.408 114.919L110.406 114.921Z" fill="#FCDEBD"/>
<path d="M154.776 144.221C153.542 140.603 151.901 137.141 150.075 133.694L146.554 128.166L143.549 128.117C142.388 128.098 141.257 128.02 140.273 127.457C139.417 126.968 139.075 126.067 139.453 125.068C138.244 125.27 137.175 125.276 136.267 124.67C135.42 124.107 135.069 123.265 135.464 122.12C134.387 122.239 133.356 122.358 132.472 121.62C131.35 120.683 131.622 119.408 132.671 118.04C131.501 118.178 130.162 117.763 129.737 116.922C129.581 116.614 129.581 115.938 129.601 115.668C131.681 112.252 136.618 111.481 140.65 112.157C148.979 113.557 153.221 120.241 157.11 127.023L159.063 130.43C158.697 135.299 157.193 140.013 154.778 144.223L154.776 144.221ZM140.866 114.733C137.783 114.437 134.527 115.859 132.642 118.159C135.388 116.562 137.978 115.545 140.866 114.733ZM135.857 121.825C138.763 119.744 141.787 118.89 145.249 118.547C143.538 117.806 141.882 118.396 140.263 118.79C138.729 119.353 137.364 120.029 136.029 120.979C135.732 121.191 135.541 121.688 135.855 121.823L135.857 121.825ZM135.522 121.888L135.42 121.978L135.526 122.084L135.617 121.98L135.522 121.886V121.888ZM148.126 123.129C145.296 122.001 141.715 122.488 139.572 124.719C142.458 123.516 145.151 122.964 148.126 123.129ZM139.489 124.721L139.394 124.815L139.489 124.91L139.583 124.815L139.489 124.721Z" fill="#FCDEBB"/>
<path d="M174.494 133.899L159.607 129.098L161.192 129.159L169.176 131.233L186.65 135.837L189.351 118.814L192.121 102.895C192.312 102.219 192.338 101.643 192.979 101.125L192.348 109.078L189.424 136.423L192.125 137.14C195.139 138.209 198.084 139.713 200.003 142.669C197.325 141.375 194.884 140.261 192.116 139.396L174.494 133.899Z" fill="#E28702"/>
<path d="M160.685 80.6585C158.097 79.6821 156.179 77.6234 155.115 75.0302L158.8 73.3002C164.672 69.7627 168.74 64.4989 171.19 57.9395C170.168 66.0344 166.508 74.9849 160.683 80.6585H160.685Z" fill="#FDCD9D"/>
<path d="M73.0323 93.898L71.578 94.0812C69.3588 94.3626 67.3096 94.289 65.3491 93.5448C62.0874 92.3096 59.1844 90.4323 56.6951 87.8674C55.4429 86.5774 54.2946 85.2969 53.3805 83.8426C51.7732 81.2891 50.6532 78.5429 49.724 75.5664C49.6333 75.2736 49.2915 74.8562 49.1196 74.7958C49.265 74.1121 49.1385 72.9826 48.8155 72.1063C45.1156 71.5321 42.4412 68.5461 41.9161 64.848C41.5365 62.1774 42.1371 59.5333 43.8275 57.5369C45.9693 55.008 49.4633 54.7341 51.7864 57.1063C53.033 58.3793 53.6506 60.0035 54.0359 61.8564C56.1248 61.6165 57.9398 60.8044 59.7189 59.7769C70.256 59.1971 81.131 53.9673 87.9247 45.7949C90.5197 48.966 92.5387 52.5489 93.638 56.5605C94.4728 59.6145 94.35 62.5193 93.4359 65.5563C91.7228 70.8805 89.7416 76.0348 87.2334 81.036C85.611 84.2714 83.4447 86.9608 80.7627 89.3123C78.57 91.1972 76.2242 92.6571 73.4592 93.5637L73.0342 93.8961L73.0323 93.898ZM75.0362 61.8167C75.2043 61.8488 75.7388 61.7166 75.684 61.5504L75.4763 60.9139C73.3288 59.4105 70.4788 59.5144 68.2747 60.9517L68.0764 61.6562C68.0386 61.7884 68.6279 61.8167 68.7129 61.794C70.7942 60.8875 72.9757 60.793 75.0362 61.8148V61.8167ZM90.9409 65.8339C91.0826 65.9246 91.5755 66.0474 91.6001 65.9076L91.7172 65.2806C90.82 63.2804 88.5064 62.4475 86.4553 63.2993C86.3533 63.3956 86.1002 63.8527 86.2532 63.9056L86.8708 64.1209C88.4856 63.9226 89.9323 64.4571 90.9409 65.8339ZM71.172 72.8637C73.038 71.3716 73.14 68.5178 71.8254 67.9058C71.4704 67.7415 70.7678 67.7491 70.3863 67.9738C69.0642 68.7539 68.3673 70.2629 68.6373 71.7739C68.7318 72.3046 69.1813 72.9033 69.559 73.0563C69.9368 73.2093 70.815 73.1451 71.172 72.8618V72.8637ZM87.0181 72.0553C86.9916 71.6001 86.6196 70.9844 86.2626 70.8616C84.7309 70.3347 83.0802 72.4255 83.2653 74.7542C83.2974 75.1679 83.7714 75.7439 84.1001 75.878C85.339 76.3861 87.1616 74.4974 87.0181 72.0534V72.0553ZM79.9582 81.3514C80.7136 80.7886 81.1159 79.8688 80.9233 78.949L79.9582 74.3671C78.7381 75.7722 80.3869 79.0189 79.6409 80.1332C79.4369 80.4354 78.74 80.9057 78.3396 80.8566L76.109 80.579C75.9598 80.5601 75.5726 80.6677 75.5745 80.8094C75.5896 81.7896 78.1412 82.7056 79.96 81.3514H79.9582ZM74.3261 85.4329C71.867 85.7729 69.7781 84.6075 68.5032 82.6509C68.4031 82.5451 67.8479 82.3354 67.7931 82.5092L67.5816 83.174C68.9584 85.8522 71.8462 87.1969 74.734 86.3414L75.1174 85.7275C75.2062 85.584 74.5829 85.4102 74.3261 85.4329Z" fill="#FCDEBC"/>
<path d="M79.3298 129.873L80.735 129.998L122.913 133.084C125.112 133.245 126.768 134.338 127.563 136.389L129.977 142.62L131.903 147.737L128.984 147.854L125.429 138.68C124.923 137.364 123.58 136.246 122.095 136.134L103.312 134.727L77.4695 132.784C76.4873 132.71 75.7073 132.967 74.9141 133.381C75.6431 131.15 76.9501 129.658 79.3298 129.87V129.873Z" fill="#F5DF7A"/>
<path d="M56.6946 90.3429L58.0204 91.8312C59.6579 93.6708 62.1774 95.5198 64.4741 95.8711C63.7167 97.739 61.9206 98.9988 59.894 99.6296C57.5086 100.372 55.0344 100.251 52.6055 99.5031C47.4683 97.9241 43.4152 94.075 41.3867 89.204C42.4444 88.7602 42.6937 87.4154 43.402 87.3229C43.791 87.2719 44.4653 87.4532 44.8204 87.5854L45.7987 87.6345C46.5315 87.8045 46.981 87.661 47.5722 87.3399C48.6638 86.7449 49.9142 87.3437 50.766 88.1671L54.3129 88.5392C54.26 89.4495 54.9324 90.375 55.4726 90.6866C55.5972 90.7584 55.9901 90.6168 56.1242 90.5582L56.6946 90.3429Z" fill="#FDDAB3"/>
<path d="M53.3799 83.8436C53.8086 85.9419 55.3725 88.5181 56.6945 90.3426L56.1242 90.5579C55.9901 90.6164 55.5972 90.7581 55.4726 90.6863C54.9324 90.3747 54.26 89.4492 54.3129 88.5389L50.7659 88.1668C49.916 87.3433 48.6638 86.7465 47.5722 87.3396C46.981 87.6606 46.5315 87.8061 45.7987 87.6342L44.8203 87.5851C44.4653 87.4529 43.7891 87.2716 43.4019 87.3225C42.6937 87.4151 42.4444 88.758 41.3867 89.2037L40.6992 86.9769C41.3187 87.0355 42.1554 86.9448 42.5615 86.7276C42.1894 85.6945 42.0742 85.2374 42.1214 84.4763L42.6125 84.2308L43.5304 84.2515C43.7079 84.2591 44.2386 84.1911 44.2103 84.0173L43.9818 83.328L44.7977 82.6235C46.7185 80.6536 47.9688 78.2682 48.745 75.6164C48.8905 75.5428 49.2059 75.4295 49.1889 75.3161L49.1152 74.793C49.2871 74.8534 49.629 75.2708 49.7196 75.5636C50.6488 78.5401 51.7688 81.2863 53.3761 83.8398L53.3799 83.8436Z" fill="#FCD5AB"/>
<path d="M23.3759 144.101L14.127 148.755C14.6633 147.494 15.7021 146.763 16.6786 145.907L20.5485 143.565L30.1563 139.487L32.2924 123.243C32.5001 122.055 32.4831 120.923 33.0913 119.881L33.5257 138.06L40.6536 135.918C41.6697 135.612 42.667 135.561 43.77 135.855L42.1363 136.263C35.7619 138.7 29.584 141.272 23.374 144.1L23.3759 144.101Z" fill="#FDF0DE"/>
<path d="M65.3494 93.546L64.4731 95.8709C62.1745 95.5178 59.6569 93.6687 58.0194 91.831L56.6936 90.3427C55.3715 88.5202 53.8076 85.9421 53.3789 83.8438C54.293 85.298 55.4414 86.5767 56.6936 87.8686C59.1829 90.4334 62.0858 92.3108 65.3475 93.546H65.3494Z" fill="#FDCD9D"/>
<path d="M76.5102 129.006L73.8906 128.727L74.0606 124.91C74.1588 121.659 73.7924 118.55 74.206 115.049C75.7774 119.572 75.9739 124.32 76.5084 129.006H76.5102Z" fill="#FDF0DE"/>
<path d="M40.6997 86.9792C40.4844 86.2823 40.5278 85.523 40.8451 84.845C41.1681 84.7959 41.8046 84.6391 42.1219 84.4805C42.0747 85.2397 42.1899 85.6968 42.562 86.7318C42.1559 86.949 41.3192 87.0396 40.6997 86.9811V86.9792Z" fill="#FDDAB3"/>
<path d="M42.6133 84.2329L43.9845 83.3301L44.213 84.0194C44.2413 84.1932 43.7106 84.2612 43.5331 84.2536L42.6152 84.2329H42.6133Z" fill="#FDDAB3"/>
<path d="M95.5765 69.1686C95.6662 69.1686 95.7389 69.0959 95.7389 69.0062C95.7389 68.9165 95.6662 68.8438 95.5765 68.8438C95.4868 68.8438 95.4141 68.9165 95.4141 69.0062C95.4141 69.0959 95.4868 69.1686 95.5765 69.1686Z" fill="#FCF5EB"/>
<path d="M149.834 46.8564C151.805 48.4354 151.771 51.5347 150.317 52.073C149.705 52.2996 148.903 52.1202 148.444 51.6575C146.678 49.867 146.87 47.1888 147.979 46.677C148.491 46.4409 149.394 46.5051 149.834 46.8583V46.8564Z" fill="#773C14"/>
<path d="M149.834 46.8564C151.805 48.4354 151.771 51.5347 150.317 52.073C149.705 52.2996 148.903 52.1202 148.444 51.6575C146.678 49.867 146.87 47.1888 147.979 46.677C148.491 46.4409 149.394 46.5051 149.834 46.8583V46.8564Z" fill="black" fill-opacity="0.2"/>
<path d="M134.399 50.3912C136.466 51.9097 136.581 55.1261 135.168 55.621C133.621 56.163 131.772 53.821 132.007 51.5697C132.056 51.1013 132.418 50.4894 132.732 50.2986C133.121 50.0588 134.012 50.106 134.401 50.3912H134.399Z" fill="#773C14"/>
<path d="M134.399 50.3912C136.466 51.9097 136.581 55.1261 135.168 55.621C133.621 56.163 131.772 53.821 132.007 51.5697C132.056 51.1013 132.418 50.4894 132.732 50.2986C133.121 50.0588 134.012 50.106 134.401 50.3912H134.399Z" fill="black" fill-opacity="0.2"/>
<path d="M153.046 63.1869C151.554 66.3939 147.229 68.105 144.783 66.747C144.625 66.6583 144.379 66.1559 144.509 66.0973L145.052 65.8537C147.845 66.4411 150.487 65.1058 151.991 62.6939C152.159 62.454 152.582 62.2312 152.812 62.3086C153.031 62.3823 153.152 62.9602 153.046 63.1887V63.1869Z" fill="#773C14"/>
<path d="M153.046 63.1869C151.554 66.3939 147.229 68.105 144.783 66.747C144.625 66.6583 144.379 66.1559 144.509 66.0973L145.052 65.8537C147.845 66.4411 150.487 65.1058 151.991 62.6939C152.159 62.454 152.582 62.2312 152.812 62.3086C153.031 62.3823 153.152 62.9602 153.046 63.1887V63.1869Z" fill="black" fill-opacity="0.2"/>
<path d="M139.919 60.9433C141.846 61.4494 143.143 60.3974 143.842 60.8432C144.437 61.2228 142.018 63.0624 139.067 61.9613C138.102 61.6005 137.451 60.6581 137.691 59.5154L138.642 54.9863C138.667 54.8673 138.884 54.6086 138.937 54.5406C139.015 54.4386 139.351 54.9542 139.336 55.0997L138.89 59.2302C138.801 60.0575 139.056 60.7147 139.919 60.9414V60.9433Z" fill="#FDCD9D"/>
<path d="M150.963 39.7172C148.684 38.8654 146.378 39.0222 144.349 40.3575C144.1 40.4047 143.728 40.4274 143.607 40.2857C143.461 40.1157 143.597 39.5945 143.756 39.3357C145.898 37.4829 149.042 37.3091 151.46 38.7597L151.689 39.4755C151.749 39.6624 151.165 39.755 150.963 39.7172Z" fill="#773C14"/>
<path d="M150.963 39.7172C148.684 38.8654 146.378 39.0222 144.349 40.3575C144.1 40.4047 143.728 40.4274 143.607 40.2857C143.461 40.1157 143.597 39.5945 143.756 39.3357C145.898 37.4829 149.042 37.3091 151.46 38.7597L151.689 39.4755C151.749 39.6624 151.165 39.755 150.963 39.7172Z" fill="black" fill-opacity="0.2"/>
<path d="M133 42.4693C133.763 43.3306 130.081 42.0727 127.951 44.6904C127.826 44.8434 127.424 45.0115 127.294 44.919C127.139 44.8075 127.048 44.4619 127.031 44.1824C128.102 42.1124 130.423 41.1227 132.58 41.9953L133 42.4674V42.4693Z" fill="#773C14"/>
<path d="M133 42.4693C133.763 43.3306 130.081 42.0727 127.951 44.6904C127.826 44.8434 127.424 45.0115 127.294 44.919C127.139 44.8075 127.048 44.4619 127.031 44.1824C128.102 42.1124 130.423 41.1227 132.58 41.9953L133 42.4674V42.4693Z" fill="black" fill-opacity="0.2"/>
<path d="M174.704 50.2656L174.959 50.9965C174.038 51.2043 173.074 51.3818 172.162 50.5489L174.704 50.2675V50.2656Z" fill="#FDCD9D"/>
<path d="M171.219 57.4858L171.125 57.5801L171.219 57.6743L171.314 57.5801L171.219 57.4858Z" fill="#FDCD9D"/>
<path d="M133.496 164.083C130.568 163.896 124.723 162.583 125.255 160.383C125.314 160.139 125.597 159.822 125.809 159.645C127.89 160.066 130.077 160.889 132.306 160.275C130.024 159.594 127.905 159.599 125.837 159.307C124.834 159.165 123.89 158.693 123.555 157.535C123.408 157.025 123.795 156.047 124.349 156.084C126.883 156.264 129.454 156.963 132.043 156.383C129.339 155.508 126.794 155.965 124.351 155.656C123.353 155.529 122.62 154.638 122.732 153.724C122.843 152.809 123.646 152.184 124.547 152.073C125.055 152.243 125.727 152.415 126.349 152.439C128.349 152.517 130.196 152.713 132.24 152.345C130.494 151.652 128.84 151.846 127.117 151.825L124.42 151.74C124.031 151.472 123.623 150.943 123.608 150.464C123.55 148.73 126.93 147.942 128.983 147.859L131.903 147.742L129.977 142.626C130.778 142.41 131.752 142.442 132.563 142.917C135.567 144.675 138.195 147.128 140.019 150.15C142.695 154.583 141.764 161.751 137.177 163.664C136.021 164.145 134.651 164.159 133.496 164.085V164.083Z" fill="#FCDEBB"/>
<path d="M86.1019 161.613C83.6088 162.548 80.8381 162.084 78.9985 159.97C76.6509 157.271 75.393 153.67 75.7575 150.047C75.9596 148.037 77.5858 146.489 79.2592 145.643L79.7559 146.679C82.2848 146.498 85.8979 146.204 86.7119 148.153C86.8876 148.572 86.5854 149.352 86.2832 149.745L88.0359 150.056C88.6214 150.16 89.1748 150.952 89.2182 151.454C89.2787 152.159 88.8726 152.699 88.3249 153.228C89.3145 153.384 90.0379 153.921 90.1305 154.665C90.2438 155.562 89.579 156.242 88.7838 156.75C89.324 157.15 89.7659 157.456 89.9151 157.762C90.5819 159.135 88.0529 160.881 86.1019 161.613ZM86.3229 149.813L80.1223 150.918C79.975 150.944 79.7294 151.388 79.8522 151.42L80.2772 151.533C82.1961 150.863 84.4228 151.112 86.3229 149.811V149.813ZM88.4911 153.322C86.0698 153.513 83.7863 154.11 81.4179 155.112C83.7769 155.192 86.2171 154.419 88.4911 153.322ZM88.8008 157.088L88.4363 156.816C86.5552 157.521 84.6872 157.796 82.8288 158.688C85.0763 158.96 86.8101 157.855 88.8008 157.088Z" fill="#FCDEBC"/>
<path d="M124.545 152.073L124.42 151.74L127.117 151.825C128.839 151.846 130.492 151.651 132.239 152.345C130.194 152.711 128.348 152.516 126.348 152.439C125.727 152.414 125.055 152.243 124.546 152.073H124.545Z" fill="#FDCD9D"/>
<path d="M124.346 156.085V155.654C126.792 155.964 129.336 155.507 132.04 156.381C129.451 156.961 126.882 156.262 124.346 156.083V156.085Z" fill="#FDCD9D"/>
<path d="M125.809 159.647L125.835 159.309C127.905 159.601 130.022 159.594 132.304 160.277C130.077 160.891 127.89 160.068 125.807 159.647H125.809Z" fill="#FDCD9D"/>
<path d="M125.14 115.975C125.492 117.801 124.91 119.593 123.688 121.167C120.199 125.658 113.755 127.199 108.582 124.791C106.756 123.941 105.224 122.347 104.863 120.651L105.485 120.183C105.658 120.086 106.191 120.456 106.114 120.64C105.993 120.927 105.83 121.554 106.019 121.675L106.707 122.115C108.771 123.138 111.17 123.592 113.495 123.176C115.255 122.861 116.968 122.328 118.428 121.282L123.556 117.61C123.72 117.491 123.935 117.036 123.865 116.866L125.14 115.975Z" fill="#FCD5AB"/>
<path d="M123.867 116.867C123.937 117.037 123.722 117.494 123.557 117.611L118.43 121.283C116.97 122.329 115.257 122.862 113.496 123.177C111.169 123.593 108.773 123.14 106.708 122.116L106.021 121.676C105.832 121.555 105.996 120.93 106.115 120.641C106.191 120.458 105.66 120.087 105.486 120.184L104.865 120.652L104.742 120.078L104.839 119.421C111.381 121.8 118.044 120.548 123.869 116.867H123.867Z" fill="#FDCD9D"/>
<path d="M104.742 120.078L104.609 119.383L104.838 119.421L104.742 120.078Z" fill="#FCD5AB"/>
<path d="M110.407 114.923C107.757 114.502 105.995 112.692 105.551 110.184L105.881 109.427C105.957 109.253 106.516 109.208 106.709 109.238C109.755 109.695 112.647 109.41 115.54 108.416C115.763 108.341 116.252 108.377 116.426 108.503C116.6 108.63 116.821 109.111 116.826 109.357C116.919 112.787 113.904 115.376 110.405 114.925L110.407 114.923Z" fill="#773C14"/>
<path d="M110.407 114.923C107.757 114.502 105.995 112.692 105.551 110.184L105.881 109.427C105.957 109.253 106.516 109.208 106.709 109.238C109.755 109.695 112.647 109.41 115.54 108.416C115.763 108.341 116.252 108.377 116.426 108.503C116.6 108.63 116.821 109.111 116.826 109.357C116.919 112.787 113.904 115.376 110.405 114.925L110.407 114.923Z" fill="black" fill-opacity="0.2"/>
<path d="M119.812 101.841C119.166 102.738 117.78 102.597 117.217 101.786C115.976 99.9978 116.512 97.3461 118.082 97.0723C118.635 96.9759 119.313 97.2404 119.714 97.7673C120.582 98.9081 120.717 100.585 119.812 101.841Z" fill="#773C14"/>
<path d="M119.812 101.841C119.166 102.738 117.78 102.597 117.217 101.786C115.976 99.9978 116.512 97.3461 118.082 97.0723C118.635 96.9759 119.313 97.2404 119.714 97.7673C120.582 98.9081 120.717 100.585 119.812 101.841Z" fill="black" fill-opacity="0.2"/>
<path d="M103.068 98.8983C104.277 100.602 103.726 103.208 102.396 103.484C101.829 103.601 101.1 103.401 100.743 102.951C99.3213 101.165 99.9578 98.5338 101.38 98.2599C101.931 98.1541 102.723 98.411 103.068 98.8983Z" fill="#773C14"/>
<path d="M103.068 98.8983C104.277 100.602 103.726 103.208 102.396 103.484C101.829 103.601 101.1 103.401 100.743 102.951C99.3213 101.165 99.9578 98.5338 101.38 98.2599C101.931 98.1541 102.723 98.411 103.068 98.8983Z" fill="black" fill-opacity="0.2"/>
<path d="M121.843 91.9023C118.951 89.4262 115.833 91.4528 116.022 90.5915C116.067 90.3819 116.252 90.1023 116.46 89.8795C118.564 88.9521 120.946 89.5093 122.474 91.1978L122.502 91.8456C122.508 91.9816 121.947 91.9891 121.843 91.9023Z" fill="#773C14"/>
<path d="M121.843 91.9023C118.951 89.4262 115.833 91.4528 116.022 90.5915C116.067 90.3819 116.252 90.1023 116.46 89.8795C118.564 88.9521 120.946 89.5093 122.474 91.1978L122.502 91.8456C122.508 91.9816 121.947 91.9891 121.843 91.9023Z" fill="black" fill-opacity="0.2"/>
<path d="M101.943 92.1485C100.145 91.8218 98.6041 92.4809 97.4859 93.7596L96.874 93.8408C96.7342 93.8597 96.7078 93.3403 96.7191 93.1873C97.8184 91.3401 100.036 90.5374 102.066 91.1796L102.5 91.7405C102.595 91.8633 102.104 92.1409 101.941 92.1485H101.943Z" fill="#773C14"/>
<path d="M101.943 92.1485C100.145 91.8218 98.6041 92.4809 97.4859 93.7596L96.874 93.8408C96.7342 93.8597 96.7078 93.3403 96.7191 93.1873C97.8184 91.3401 100.036 90.5374 102.066 91.1796L102.5 91.7405C102.595 91.8633 102.104 92.1409 101.941 92.1485H101.943Z" fill="black" fill-opacity="0.2"/>
<path d="M109.376 105.788L110.015 105.867C110.141 105.882 110.192 106.337 110.079 106.411C109.512 106.785 108.375 106.634 107.843 106.131C107.274 105.595 106.545 104.618 107.189 103.799L108.81 101.736C109.673 102.86 107.692 103.617 108.152 104.851C108.298 105.238 108.961 105.737 109.374 105.788H109.376Z" fill="#FDCD9D"/>
<path d="M135.856 121.828C135.543 121.692 135.734 121.194 136.03 120.984C137.366 120.034 138.729 119.356 140.265 118.795C141.883 118.4 143.54 117.811 145.251 118.551C141.787 118.895 138.763 119.749 135.858 121.83L135.856 121.828Z" fill="#FDCD9D"/>
<path d="M148.124 123.13C145.15 122.966 142.456 123.517 139.57 124.72C141.714 122.49 145.295 122.002 148.124 123.13Z" fill="#FDCD9D"/>
<path d="M140.864 114.734C137.976 115.546 135.387 116.562 132.641 118.16C134.526 115.861 137.784 114.439 140.864 114.734Z" fill="#FDCD9D"/>
<path d="M139.487 124.724L139.393 124.818L139.487 124.913L139.581 124.818L139.487 124.724Z" fill="#FDCD9D"/>
<path d="M135.522 121.889L135.616 121.983L135.528 122.087L135.422 121.981L135.522 121.889Z" fill="#FDCD9D"/>
<path d="M71.1715 72.8616C70.8146 73.1468 69.9533 73.2167 69.5586 73.0562C69.1639 72.8956 68.7314 72.3045 68.6369 71.7737C68.3687 70.2609 69.0657 68.7537 70.3859 67.9737C70.7693 67.7471 71.4718 67.7395 71.825 67.9057C73.1396 68.5176 73.0376 71.3696 71.1715 72.8635V72.8616Z" fill="#773C14"/>
<path d="M71.1715 72.8616C70.8146 73.1468 69.9533 73.2167 69.5586 73.0562C69.1639 72.8956 68.7314 72.3045 68.6369 71.7737C68.3687 70.2609 69.0657 68.7537 70.3859 67.9737C70.7693 67.7471 71.4718 67.7395 71.825 67.9057C73.1396 68.5176 73.0376 71.3696 71.1715 72.8635V72.8616Z" fill="black" fill-opacity="0.2"/>
<path d="M87.0171 72.0552C87.1606 74.4991 85.338 76.3878 84.0991 75.8798C83.7704 75.7438 83.2964 75.1677 83.2643 74.756C83.0792 72.4273 84.7299 70.3365 86.2616 70.8634C86.6186 70.9862 86.9906 71.6019 87.0171 72.0571V72.0552Z" fill="#773C14"/>
<path d="M87.0171 72.0552C87.1606 74.4991 85.338 76.3878 84.0991 75.8798C83.7704 75.7438 83.2964 75.1677 83.2643 74.756C83.0792 72.4273 84.7299 70.3365 86.2616 70.8634C86.6186 70.9862 86.9906 71.6019 87.0171 72.0571V72.0552Z" fill="black" fill-opacity="0.2"/>
<path d="M79.9578 81.3496C78.139 82.7057 75.5874 81.7878 75.5723 80.8076C75.5704 80.6659 75.9557 80.5583 76.1068 80.5771L78.3373 80.8548C78.7396 80.9039 79.4365 80.4355 79.6386 80.1314C80.3865 79.0171 78.7377 75.7704 79.9559 74.3652L80.921 78.9472C81.1137 79.8651 80.7133 80.7868 79.9559 81.3496H79.9578Z" fill="#FDCD9D"/>
<path d="M74.3266 85.4316C74.5834 85.4089 75.2067 85.5827 75.1179 85.7262L74.7345 86.3401C71.8486 87.1956 68.9589 85.8509 67.582 83.1727L67.7936 82.5079C67.8483 82.3341 68.4036 82.5438 68.5037 82.6496C69.7786 84.6044 71.8675 85.7716 74.3266 85.4316Z" fill="#773C14"/>
<path d="M74.3266 85.4316C74.5834 85.4089 75.2067 85.5827 75.1179 85.7262L74.7345 86.3401C71.8486 87.1956 68.9589 85.8509 67.582 83.1727L67.7936 82.5079C67.8483 82.3341 68.4036 82.5438 68.5037 82.6496C69.7786 84.6044 71.8675 85.7716 74.3266 85.4316Z" fill="black" fill-opacity="0.2"/>
<path d="M75.0356 61.8155C72.9751 60.7937 70.7955 60.8882 68.7123 61.7947C68.6273 61.8174 68.0399 61.7891 68.0758 61.6568L68.2741 60.9524C70.4782 59.5151 73.3282 59.4112 75.4757 60.9146L75.6834 61.5511C75.7382 61.7173 75.2037 61.8495 75.0356 61.8174V61.8155Z" fill="#773C14"/>
<path d="M75.0356 61.8155C72.9751 60.7937 70.7955 60.8882 68.7123 61.7947C68.6273 61.8174 68.0399 61.7891 68.0758 61.6568L68.2741 60.9524C70.4782 59.5151 73.3282 59.4112 75.4757 60.9146L75.6834 61.5511C75.7382 61.7173 75.2037 61.8495 75.0356 61.8174V61.8155Z" fill="black" fill-opacity="0.2"/>
<path d="M90.9405 65.8333C89.9339 64.4565 88.4852 63.922 86.8704 64.1203L86.2528 63.905C86.0998 63.8521 86.3548 63.3931 86.4549 63.2987C88.506 62.4469 90.8197 63.2798 91.7168 65.2799L91.5997 65.907C91.5733 66.0467 91.0803 65.924 90.9405 65.8333Z" fill="#773C14"/>
<path d="M90.9405 65.8333C89.9339 64.4565 88.4852 63.922 86.8704 64.1203L86.2528 63.905C86.0998 63.8521 86.3548 63.3931 86.4549 63.2987C88.506 62.4469 90.8197 63.2798 91.7168 65.2799L91.5997 65.907C91.5733 66.0467 91.0803 65.924 90.9405 65.8333Z" fill="black" fill-opacity="0.2"/>
<path d="M88.4911 153.322C86.2171 154.418 83.7751 155.19 81.418 155.113C83.7864 154.112 86.0698 153.515 88.4911 153.322Z" fill="#FDCD9D"/>
<path d="M86.3223 149.812C84.4223 151.114 82.1955 150.865 80.2766 151.535L79.8516 151.422C79.7289 151.39 79.9744 150.946 80.1217 150.919L86.3223 149.814V149.812Z" fill="#FDCD9D"/>
<path d="M88.8002 157.088C86.8095 157.855 85.0757 158.96 82.8281 158.688C84.6866 157.797 86.5564 157.521 88.4357 156.816L88.8002 157.088Z" fill="#FDCD9D"/>
<defs>
<linearGradient id="paint0_linear_508_10927" x1="44.6422" y1="84.6211" x2="44.6422" y2="172.009" gradientUnits="userSpaceOnUse">
<stop stop-color="#FFF1D6"/>
<stop offset="1" stop-color="#FDF9F1"/>
</linearGradient>
</defs>
</svg>
