<svg xmlns="http://www.w3.org/2000/svg" width="30" height="30" viewBox="0 0 30 30" fill="none">
  <path d="M4.94336 23.4826V12.3595C4.94336 11.9682 5.03111 11.5974 5.20661 11.2472C5.3821 10.897 5.62393 10.6087 5.93208 10.3821L13.3475 4.82053C13.78 4.49096 14.2744 4.32617 14.8306 4.32617C15.3867 4.32617 15.8811 4.49096 16.3136 4.82053L23.729 10.3821C24.038 10.6087 24.2803 10.897 24.4557 11.2472C24.6312 11.5974 24.7186 11.9682 24.7178 12.3595V23.4826C24.7178 24.1624 24.4755 24.7445 23.9911 25.2289C23.5066 25.7134 22.9249 25.9552 22.246 25.9544H18.5383C18.1881 25.9544 17.8948 25.8358 17.6583 25.5985C17.4218 25.3612 17.3032 25.0679 17.3024 24.7185V18.539C17.3024 18.1888 17.1837 17.8955 16.9464 17.6591C16.7091 17.4226 16.4158 17.3039 16.0665 17.3031H13.5947C13.2445 17.3031 12.9512 17.4218 12.7147 17.6591C12.4782 17.8964 12.3596 18.1897 12.3588 18.539V24.7185C12.3588 25.0687 12.2401 25.3624 12.0028 25.5997C11.7655 25.837 11.4722 25.9552 11.1229 25.9544H7.41516C6.73541 25.9544 6.15372 25.7126 5.67007 25.2289C5.18642 24.7453 4.94418 24.1632 4.94336 23.4826Z" fill="#7D7D7D"/>
</svg>