<svg width="28" height="25" viewBox="0 0 28 25" fill="none" xmlns="http://www.w3.org/2000/svg">
<g clip-path="url(#clip0_508_11026)">
<path d="M26.4444 4.66667H20.2222V1.55556C20.2222 0.695139 19.5271 0 18.6667 0H9.33333C8.47292 0 7.77778 0.695139 7.77778 1.55556V4.66667H1.55556C0.695139 4.66667 0 5.36181 0 6.22222V24.1111C0 24.5389 0.35 24.8889 0.777778 24.8889H27.2222C27.65 24.8889 28 24.5389 28 24.1111V6.22222C28 5.36181 27.3049 4.66667 26.4444 4.66667ZM7.77778 21.1944C7.77778 21.5153 7.51528 21.7778 7.19444 21.7778H5.25C4.92917 21.7778 4.66667 21.5153 4.66667 21.1944V19.25C4.66667 18.9292 4.92917 18.6667 5.25 18.6667H7.19444C7.51528 18.6667 7.77778 18.9292 7.77778 19.25V21.1944ZM7.77778 14.9722C7.77778 15.2931 7.51528 15.5556 7.19444 15.5556H5.25C4.92917 15.5556 4.66667 15.2931 4.66667 14.9722V13.0278C4.66667 12.7069 4.92917 12.4444 5.25 12.4444H7.19444C7.51528 12.4444 7.77778 12.7069 7.77778 13.0278V14.9722ZM15.5556 21.1944C15.5556 21.5153 15.2931 21.7778 14.9722 21.7778H13.0278C12.7069 21.7778 12.4444 21.5153 12.4444 21.1944V19.25C12.4444 18.9292 12.7069 18.6667 13.0278 18.6667H14.9722C15.2931 18.6667 15.5556 18.9292 15.5556 19.25V21.1944ZM15.5556 14.9722C15.5556 15.2931 15.2931 15.5556 14.9722 15.5556H13.0278C12.7069 15.5556 12.4444 15.2931 12.4444 14.9722V13.0278C12.4444 12.7069 12.7069 12.4444 13.0278 12.4444H14.9722C15.2931 12.4444 15.5556 12.7069 15.5556 13.0278V14.9722ZM16.3333 6.70833C16.3333 6.86875 16.2021 7 16.0417 7H14.7778V8.26389C14.7778 8.42431 14.6465 8.55556 14.4861 8.55556H13.5139C13.3535 8.55556 13.2222 8.42431 13.2222 8.26389V7H11.9583C11.7979 7 11.6667 6.86875 11.6667 6.70833V5.73611C11.6667 5.57569 11.7979 5.44444 11.9583 5.44444H13.2222V4.18056C13.2222 4.02014 13.3535 3.88889 13.5139 3.88889H14.4861C14.6465 3.88889 14.7778 4.02014 14.7778 4.18056V5.44444H16.0417C16.2021 5.44444 16.3333 5.57569 16.3333 5.73611V6.70833ZM23.3333 21.1944C23.3333 21.5153 23.0708 21.7778 22.75 21.7778H20.8056C20.4847 21.7778 20.2222 21.5153 20.2222 21.1944V19.25C20.2222 18.9292 20.4847 18.6667 20.8056 18.6667H22.75C23.0708 18.6667 23.3333 18.9292 23.3333 19.25V21.1944ZM23.3333 14.9722C23.3333 15.2931 23.0708 15.5556 22.75 15.5556H20.8056C20.4847 15.5556 20.2222 15.2931 20.2222 14.9722V13.0278C20.2222 12.7069 20.4847 12.4444 20.8056 12.4444H22.75C23.0708 12.4444 23.3333 12.7069 23.3333 13.0278V14.9722Z" fill="#7D7D7D"/>
</g>
<defs>
<clipPath id="clip0_508_11026">
<rect width="28" height="24.8889" fill="white"/>
</clipPath>
</defs>
</svg>
