<svg width="51" height="51" viewBox="0 0 51 51" fill="none" xmlns="http://www.w3.org/2000/svg">
<rect width="51" height="51" rx="13.6" fill="#F0F2F5"/>
<path d="M26.9386 32.6694L27.0909 30.474C25.8581 30.2176 24.5883 30.2142 23.3555 30.4654L23.5379 32.6686H26.9386V32.6694Z" fill="#E6E6E6"/>
<path d="M37.4784 39.7477L37.0147 37.8645C36.834 37.1324 36.5966 36.408 36.2215 35.7534C35.3061 34.1584 33.8617 32.9135 32.117 32.2511L29.9697 31.4355L31.6172 35.8996C31.643 35.971 31.6111 36.0502 31.5423 36.082L29.9921 36.8081C29.8914 36.8554 29.8785 36.9939 29.9688 37.0584L31.2885 38.0005C31.3359 38.034 31.3582 38.0925 31.3462 38.1493L30.8911 40.3086H37.0396C37.333 40.3086 37.548 40.0325 37.4784 39.7477Z" fill="#E6E6E6"/>
<path d="M19.1651 38.0007L20.4848 37.0586C20.5751 36.9941 20.5631 36.8556 20.4615 36.8083L18.9104 36.0822C18.8425 36.0504 18.8098 35.9712 18.8356 35.9007L20.4641 31.4306L20.5734 31.3867L18.2945 32.2522C16.5498 32.9155 15.1045 34.1603 14.19 35.7544C13.8141 36.4083 13.5766 37.1326 13.3968 37.8656L12.9331 39.7488C12.8634 40.0335 13.0785 40.3088 13.3719 40.3088H19.5617L19.1066 38.1495C19.0945 38.0927 19.1186 38.0351 19.1651 38.0007Z" fill="#E6E6E6"/>
<path d="M23.5391 32.6699L24.1714 40.3093H25.2063H26.4107L26.9398 32.6699H23.5391Z" fill="#1A8EAD"/>
<path d="M31.288 38.0012L29.9683 37.0592C29.878 36.9947 29.89 36.8562 29.9916 36.8089L31.5418 36.0828C31.6106 36.0509 31.6425 35.9718 31.6167 35.9004L29.9692 31.4363L29.9666 31.4303L27.1053 30.2715L27.0915 30.4737L26.9392 32.6691L26.4102 40.3085H30.8914L31.3465 38.1492C31.3586 38.0924 31.3353 38.0348 31.2889 38.0004L31.288 38.0012Z" fill="#D4D4D4"/>
<path d="M23.5393 32.6702L23.3569 30.467L23.3406 30.2734L20.5748 31.3884L20.4655 31.4323L19.0469 35.3259C20.1954 35.3698 21.115 36.3084 21.115 37.4681C21.115 38.5039 20.3829 39.3676 19.4073 39.5715L19.5631 40.3096H24.1716L23.5393 32.6702Z" fill="#D4D4D4"/>
<path d="M34.0934 19.4885C33.886 19.4524 33.6606 19.7199 33.3922 19.8714C33.2881 19.9161 33.1815 19.9479 33.0903 19.9539C28.9256 20.2301 22.6153 15.1621 22.6153 15.1621L17.4174 20.9786C16.8617 19.7716 16.2569 19.6666 16.0453 19.6692C15.3252 20.2112 14.8555 21.0353 14.8555 21.9662C14.8555 23.5921 16.2664 24.917 17.9955 24.9256C18.9642 27.1297 20.9257 28.8021 23.307 29.3922C23.3147 29.394 23.3216 29.3974 23.3294 29.3991V32.0058C23.3294 33.0468 24.1725 33.8898 25.2134 33.8898C26.2544 33.8898 27.1061 33.0468 27.1061 32.0058V29.3905C27.1061 29.3905 27.1112 29.3888 27.1147 29.3879C29.4934 28.8012 31.4437 27.1254 32.4141 24.9256C34.1433 24.917 35.5541 23.5921 35.5541 21.9662C35.5541 20.9226 34.9674 20.0142 34.0934 19.4885Z" fill="#FFCCA8"/>
<path d="M17.4184 20.9804L22.6163 15.1639C22.6163 15.1639 28.9266 20.2319 33.0912 19.9558C33.1833 19.9498 33.2891 19.9179 33.3932 19.8732C33.6608 19.7226 33.887 19.4542 34.0943 19.4904C34.1021 19.4921 34.1098 19.4861 34.1176 19.4886C34.1976 14.0783 29.5425 9.66064 24.0306 10.2525C19.7911 10.7076 16.3964 14.1531 15.9963 18.3987C15.9559 18.8305 15.9456 19.2572 15.9636 19.6762C15.9636 19.6762 15.9981 19.6719 16.0471 19.671C16.2579 19.6684 16.8627 19.7734 17.4193 20.9804H17.4184Z" fill="#333333"/>
<path d="M22.9931 22.3725C23.4563 22.3725 23.8319 21.9218 23.8319 21.3659C23.8319 20.81 23.4563 20.3594 22.9931 20.3594C22.5298 20.3594 22.1543 20.81 22.1543 21.3659C22.1543 21.9218 22.5298 22.3725 22.9931 22.3725Z" fill="black"/>
<path d="M27.4208 22.3725C27.8841 22.3725 28.2596 21.9218 28.2596 21.3659C28.2596 20.81 27.8841 20.3594 27.4208 20.3594C26.9576 20.3594 26.582 20.81 26.582 21.3659C26.582 21.9218 26.9576 22.3725 27.4208 22.3725Z" fill="black"/>
<path d="M26.2494 25.334C26.4378 25.334 26.572 25.5146 26.5221 25.697C26.363 26.2743 25.8348 26.6984 25.2067 26.6984C24.5787 26.6984 24.0505 26.2743 23.8914 25.697C23.8415 25.5155 23.9757 25.334 24.1641 25.334H26.2503H26.2494Z" fill="#5C2F17"/>
<path d="M23.3089 29.3945C20.4424 30.2307 18.3398 32.877 18.3398 36.0102H19.2432C19.2432 33.3725 20.9586 31.1323 23.3304 30.3348V29.4014C23.3227 29.3997 23.3158 29.3963 23.308 29.3945H23.3089Z" fill="#333333"/>
<path d="M29.3559 39.2334C29.4678 39.334 29.6123 39.3994 29.7749 39.3994C30.1242 39.3994 30.4072 39.1164 30.4072 38.7671C30.4072 38.4178 30.1242 38.1348 29.7749 38.1348C29.596 38.1348 29.4368 38.2105 29.3215 38.3292C29.2123 38.4427 29.1426 38.5959 29.1426 38.7671C29.1426 38.9538 29.2269 39.1172 29.3559 39.2334Z" fill="#333333"/>
<path d="M32.7343 38.2939C32.6233 38.1984 32.4831 38.1348 32.3257 38.1348C31.9764 38.1348 31.6934 38.4178 31.6934 38.7671C31.6934 39.1164 31.9764 39.3994 32.3257 39.3994C32.5012 39.3994 32.6603 39.3271 32.7747 39.2119C32.8874 39.0974 32.958 38.9409 32.958 38.7679C32.958 38.577 32.8685 38.4101 32.7343 38.2939Z" fill="#333333"/>
<path d="M33.2921 33.0497C32.7432 32.4251 31.9844 32.0036 31.1336 31.9218C31.0132 31.9132 30.8927 31.9046 30.7723 31.9046C29.8518 30.6744 28.5613 29.8055 27.116 29.3926H27.1074V30.3303C28.1208 30.665 29.0396 31.2577 29.7451 32.0733C29.7459 32.0741 29.7477 32.0758 29.7485 32.0767C29.5343 32.1412 29.3313 32.235 29.1369 32.3451C29.124 32.3529 29.1085 32.3563 29.0956 32.364C28.8908 32.4845 28.6981 32.6273 28.5183 32.7907C28.3781 32.9172 28.2594 33.0626 28.1441 33.2097C27.6778 33.8024 27.4085 34.5363 27.4085 35.2942H28.3118C28.3118 35.1574 28.3325 35.0223 28.3548 34.889C28.3609 34.8529 28.3592 34.8159 28.366 34.7806C28.3755 34.735 28.3961 34.6937 28.409 34.649C28.4951 34.3367 28.637 34.0425 28.8358 33.7835C28.9252 33.6674 29.019 33.5538 29.1291 33.4532C29.3519 33.2527 29.6066 33.1073 29.875 32.9998C30.2406 32.8535 30.6363 32.7856 31.0476 32.8252C31.5319 32.8716 31.9732 33.0712 32.3354 33.374C32.56 33.5616 32.7561 33.787 32.9084 34.0442C33.1467 34.4468 33.2843 34.9208 33.2843 35.4232H34.1876C34.1876 34.5191 33.847 33.6811 33.2921 33.0497Z" fill="#333333"/>
<path d="M33.2916 33.0488C33.8465 33.6803 34.1872 34.5182 34.1872 35.4224H33.2856V37.6006C33.2856 37.9405 33.0473 38.2132 32.7324 38.2932C32.8666 38.4093 32.9561 38.5745 32.9561 38.7663C32.9561 38.9401 32.8856 39.0967 32.7729 39.2103C33.5703 39.1036 34.1898 38.4265 34.1898 37.6006V35.4232C34.1898 34.5182 33.8482 33.6803 33.2916 33.0488Z" fill="#9E9794"/>
<path d="M27.4082 35.2928V35.2962V37.5992C27.4082 38.4991 28.1403 39.2303 29.0393 39.2303H29.355C29.226 39.1142 29.1417 38.9507 29.1417 38.7641C29.1417 38.5937 29.2105 38.4406 29.3206 38.3262H29.0393C28.6376 38.3262 28.3115 38.0001 28.3115 37.5984V35.2954C28.3115 35.1569 28.3322 35.0209 28.3545 34.8867C28.3322 35.0201 28.3115 35.1551 28.3115 35.2919H27.4091L27.4082 35.2928Z" fill="#9E9794"/>
<path d="M19.0469 35.327C19.0194 35.3261 18.9927 35.3184 18.9643 35.3184C17.7771 35.3184 16.8145 36.281 16.8145 37.4682C16.8145 38.6554 17.7771 39.6181 18.9643 39.6181C19.1166 39.6181 19.2637 39.6018 19.4074 39.5717C20.3821 39.3678 21.1151 38.504 21.1151 37.4682C21.1151 36.3086 20.1954 35.3708 19.0469 35.3261V35.327ZM18.9643 38.6374C18.3191 38.6374 17.796 38.1143 17.796 37.4691C17.796 36.8239 18.3191 36.3008 18.9643 36.3008C19.6095 36.3008 20.1326 36.8239 20.1326 37.4691C20.1326 38.1143 19.6095 38.6374 18.9643 38.6374Z" fill="#9E9794"/>
<path d="M18.9632 38.6354C19.6084 38.6354 20.1315 38.1123 20.1315 37.4671C20.1315 36.8219 19.6084 36.2988 18.9632 36.2988C18.318 36.2988 17.7949 36.8219 17.7949 37.4671C17.7949 38.1123 18.318 38.6354 18.9632 38.6354Z" fill="#D4D4D4"/>
<path d="M34.3859 8.14648H15.0835C10.0668 8.14648 6 12.2133 6 17.23V36.5324C6 41.5491 10.0668 45.6159 15.0835 45.6159H34.3859C39.4026 45.6159 43.4694 41.5491 43.4694 36.5324V17.23C43.4694 12.2133 39.4026 8.14648 34.3859 8.14648Z" fill="#FFB521"/>
<path d="M37.3206 22.36C42.1145 22.36 46.0006 18.4738 46.0006 13.68C46.0006 8.88617 42.1145 5 37.3206 5C32.5268 5 28.6406 8.88617 28.6406 13.68C28.6406 18.4738 32.5268 22.36 37.3206 22.36Z" fill="#FF3D00"/>
<path d="M34.9551 12.2787V10.954L37.1374 9.52344H38.1974V17.4387H36.8304V11.0705L34.9551 12.2787Z" fill="white"/>
</svg>
