<svg width="90" height="20" viewBox="0 0 90 20" fill="none" xmlns="http://www.w3.org/2000/svg">
<path d="M66.7861 17.8841C64.8601 18.6698 62.9121 19.0317 60.8765 19.176L57.1944 19.1815C55.0436 19.0371 52.9495 18.6534 50.9687 17.7854C49.9966 17.3597 49.6804 16.0988 50.0459 15.2071C50.4315 14.2642 51.5279 13.6246 52.5548 13.9955C53.9674 14.5072 55.3506 14.8855 56.8271 14.9841L56.8162 12.9869C53.7718 12.6908 50.9541 10.6662 50.9303 7.59624L50.8938 2.73555C50.8956 1.44363 51.939 0.429462 53.198 0.482455C54.4406 0.535447 55.4511 1.60809 55.336 2.95117H62.6599C62.5704 1.63002 63.5097 0.623159 64.6992 0.519001C65.8888 0.414843 66.9944 1.34678 67.0803 2.64784L67.0474 7.50122C67.0273 10.562 64.2516 12.7493 61.1944 12.9996L61.2017 14.9933C62.607 14.8526 63.9117 14.5511 65.2127 14.0376C66.2744 13.6191 67.4439 14.1271 67.8843 15.1504C68.3247 16.1737 67.9062 17.4236 66.7861 17.8804V17.8841ZM62.638 7.10104H55.3835C55.3963 7.90506 55.8641 8.49711 56.5841 8.7968C58.6252 9.6465 62.4535 9.45829 62.638 7.10104Z" fill="#FFC721"/>
<path d="M82.2396 16.923C79.791 17.9938 77.0116 18.1436 74.4406 17.5717C72.3739 17.1112 70.8553 15.4428 70.8535 13.3944V10.9074C70.8499 9.16597 72.4068 7.68766 74.1866 7.67487L77.7444 7.64746C78.1537 7.64381 78.4388 7.36971 78.5173 7.04444C78.5795 6.79593 78.4643 6.19474 78.1007 6.19291L72.8983 6.16367C71.7983 6.15819 70.9504 5.25184 70.9029 4.2194C70.8554 3.18696 71.579 2.08142 72.7265 2.07229L78.1902 2.0266C80.3556 2.00833 82.3529 3.05539 82.733 5.2427C82.9194 6.31169 82.9084 7.41174 82.6891 8.46976C82.2177 10.743 80.3794 11.5653 78.1354 11.5689L75.3981 11.5726C75.2409 11.7937 75.1825 12.1043 75.177 12.3766C75.1642 13.0454 75.515 13.5552 76.182 13.685C77.6073 13.9609 79.0637 13.7562 80.4123 13.1843C81.4721 12.7347 82.6489 13.0856 83.1898 14.1016C83.6741 15.0116 83.3853 16.4223 82.2323 16.9266L82.2396 16.923Z" fill="#FFC721"/>
<path d="M35.163 16.1006C31.3621 17.144 27.3749 15.0791 26.3808 11.3769C25.7614 9.07266 26.337 6.85428 27.8208 5.14025C29.4507 3.25993 31.8701 2.4559 34.3169 2.82137C37.5038 3.29647 39.9067 5.9059 40.1333 9.04707C40.3654 12.2522 38.3316 15.2308 35.163 16.1006ZM35.5924 8.41664C34.9419 7.08635 33.4508 6.59297 32.1936 7.08818C30.9364 7.58338 30.1579 8.97763 30.591 10.3518C31.0661 11.8612 32.7235 12.5994 34.1433 12.0348C35.5632 11.4701 36.2886 9.83831 35.5924 8.41664Z" fill="#FFC721"/>
<path d="M1.57381 13.862C-0.180423 11.799 -0.485587 8.899 0.746032 6.53626C1.97765 4.17353 4.44272 2.67146 7.14899 2.72811C11.0357 2.81034 14.0453 6.09588 13.8279 9.87662C13.6049 13.7506 10.281 16.6597 6.37237 16.3033C4.50302 16.1334 2.83832 15.3458 1.57564 13.8602L1.57381 13.862ZM7.93291 11.9963C9.0019 11.5559 9.58116 10.5564 9.57203 9.49836C9.56289 8.4714 8.94891 7.5084 7.96032 7.09542C6.81824 6.61666 5.59941 7.03512 4.8831 7.95792C4.16679 8.88072 4.16496 10.1964 4.87579 11.1356C5.58662 12.0749 6.789 12.4678 7.93291 11.9981V11.9963Z" fill="#FFB521"/>
<path d="M20.0656 10.4548L20.0327 16.2182C20.0254 17.4352 18.9601 18.2886 17.8509 18.2977C16.7417 18.3068 15.6051 17.4608 15.6033 16.2054L15.5996 2.10756C15.5996 0.886909 16.6942 0.0280653 17.7595 0.000655346C18.8248 -0.0267546 20.0126 0.808334 20.0254 2.00158L20.0656 6.25377" fill="#FFC721"/>
<path d="M90.0001 15.9346C90.0001 17.2411 88.8581 18.089 87.7379 18.0598C86.6178 18.0305 85.5908 17.1169 85.589 15.8615L85.5762 2.5878C85.5762 1.32328 86.3638 0.374901 87.5753 0.245161C88.6991 0.126384 89.9947 0.91579 89.9965 2.22233L90.0001 15.9328V15.9346Z" fill="#FFC721"/>
<path d="M16.9258 8.67132C18.5484 9.07333 19.3397 8.37529 20.3813 7.36295C21.1177 6.64664 22.088 6.27935 23.0857 6.49314C24.0834 6.70694 24.8144 7.38671 25.0958 8.19804C25.4503 9.22317 25.2145 10.2428 24.4781 10.9957C23.6028 11.8911 22.2177 12.1432 21.1341 11.5183L19.8532 10.7801C19.0053 10.2903 18.0496 10.1167 17.0975 10.5626C17.2437 9.89928 17.2236 9.41139 16.9276 8.67132H16.9258Z" fill="#FFC721"/>
<path d="M9.68359 9.52637H13.8439V14.2898C13.8439 15.4386 12.9126 16.3699 11.7637 16.3699C10.6149 16.3699 9.68359 15.4386 9.68359 14.2898V9.52637Z" fill="#FFB521"/>
<rect x="42.6523" y="3.63477" width="4.39825" height="14.4174" rx="2.19913" fill="#FFB521"/>
<circle cx="44.8515" cy="2.37881" r="2.19913" fill="#FFB521"/>
</svg>
