<svg width="1266" height="1370" viewBox="0 0 1266 1370" fill="none" xmlns="http://www.w3.org/2000/svg">
<path opacity="0.5" d="M505.318 576.001H486.291C481.244 576.001 476.404 573.996 472.836 570.428C469.268 566.859 467.263 562.02 467.263 556.973C467.263 551.927 469.268 547.087 472.836 543.518C476.404 539.95 481.244 537.945 486.291 537.945H505.318C510.365 537.945 515.205 539.95 518.773 543.518C522.342 547.087 524.346 551.927 524.346 556.973C524.346 562.02 522.342 566.859 518.773 570.428C515.205 573.996 510.365 576.001 505.318 576.001ZM505.318 652.112H486.291C481.244 652.112 476.404 650.107 472.836 646.539C469.268 642.97 467.263 638.131 467.263 633.084C467.263 628.038 469.268 623.198 472.836 619.63C476.404 616.061 481.244 614.056 486.291 614.056H505.318C510.365 614.056 515.205 616.061 518.773 619.63C522.342 623.198 524.346 628.038 524.346 633.084C524.346 638.131 522.342 642.97 518.773 646.539C515.205 650.107 510.365 652.112 505.318 652.112ZM410.18 576.001H391.152C386.105 576.001 381.266 573.996 377.697 570.428C374.129 566.859 372.124 562.02 372.124 556.973C372.124 551.927 374.129 547.087 377.697 543.518C381.266 539.95 386.105 537.945 391.152 537.945H410.18C415.226 537.945 420.066 539.95 423.634 543.518C427.203 547.087 429.207 551.927 429.207 556.973C429.207 562.02 427.203 566.859 423.634 570.428C420.066 573.996 415.226 576.001 410.18 576.001ZM410.18 652.112H391.152C386.105 652.112 381.266 650.107 377.697 646.539C374.129 642.97 372.124 638.131 372.124 633.084C372.124 628.038 374.129 623.198 377.697 619.63C381.266 616.061 386.105 614.056 391.152 614.056H410.18C415.226 614.056 420.066 616.061 423.634 619.63C427.203 623.198 429.207 628.038 429.207 633.084C429.207 638.131 427.203 642.97 423.634 646.539C420.066 650.107 415.226 652.112 410.18 652.112ZM600.457 576.001H581.43C576.383 576.001 571.543 573.996 567.975 570.428C564.407 566.859 562.402 562.02 562.402 556.973C562.402 551.927 564.407 547.087 567.975 543.518C571.543 539.95 576.383 537.945 581.43 537.945H600.457C605.504 537.945 610.344 539.95 613.912 543.518C617.48 547.087 619.485 551.927 619.485 556.973C619.485 562.02 617.48 566.859 613.912 570.428C610.344 573.996 605.504 576.001 600.457 576.001ZM600.457 652.112H581.43C576.383 652.112 571.543 650.107 567.975 646.539C564.407 642.97 562.402 638.131 562.402 633.084C562.402 628.038 564.407 623.198 567.975 619.63C571.543 616.061 576.383 614.056 581.43 614.056H600.457C605.504 614.056 610.344 616.061 613.912 619.63C617.48 623.198 619.485 628.038 619.485 633.084C619.485 638.131 617.48 642.97 613.912 646.539C610.344 650.107 605.504 652.112 600.457 652.112Z" fill="#8A94A0"/>
<path d="M524.355 433.285H514.841V423.771C514.841 418.724 512.837 413.885 509.268 410.316C505.7 406.748 500.86 404.743 495.814 404.743C490.767 404.743 485.927 406.748 482.359 410.316C478.791 413.885 476.786 418.724 476.786 423.771V433.285H467.272C462.225 433.285 457.386 435.29 453.817 438.858C450.249 442.426 448.244 447.266 448.244 452.313C448.244 457.359 450.249 462.199 453.817 465.767C457.386 469.336 462.225 471.34 467.272 471.34H476.786V480.854C476.786 485.901 478.791 490.741 482.359 494.309C485.927 497.877 490.767 499.882 495.814 499.882C500.86 499.882 505.7 497.877 509.268 494.309C512.837 490.741 514.841 485.901 514.841 480.854V471.34H524.355C529.402 471.34 534.242 469.336 537.81 465.767C541.378 462.199 543.383 457.359 543.383 452.313C543.383 447.266 541.378 442.426 537.81 438.858C534.242 435.29 529.402 433.285 524.355 433.285Z" fill="#FF3D00"/>
<path d="M676.573 423.775H619.49V347.664C619.49 342.617 617.485 337.777 613.917 334.209C610.348 330.64 605.509 328.636 600.462 328.636H391.156C386.11 328.636 381.27 330.64 377.702 334.209C374.133 337.777 372.129 342.617 372.129 347.664V423.775H315.045C309.999 423.775 305.159 425.779 301.591 429.348C298.022 432.916 296.018 437.756 296.018 442.802V709.191C296.018 714.238 298.022 719.078 301.591 722.646C305.159 726.214 309.999 728.219 315.045 728.219H676.573C681.62 728.219 686.459 726.214 690.028 722.646C693.596 719.078 695.601 714.238 695.601 709.191V442.802C695.601 437.756 693.596 432.916 690.028 429.348C686.459 425.779 681.62 423.775 676.573 423.775ZM410.184 652.108H391.156C386.11 652.108 381.27 650.103 377.702 646.535C374.133 642.966 372.129 638.127 372.129 633.08C372.129 628.034 374.133 623.194 377.702 619.626C381.27 616.057 386.11 614.052 391.156 614.052H410.184C415.231 614.052 420.071 616.057 423.639 619.626C427.207 623.194 429.212 628.034 429.212 633.08C429.212 638.127 427.207 642.966 423.639 646.535C420.071 650.103 415.231 652.108 410.184 652.108ZM410.184 575.997H391.156C386.11 575.997 381.27 573.992 377.702 570.424C374.133 566.855 372.129 562.016 372.129 556.969C372.129 551.923 374.133 547.083 377.702 543.514C381.27 539.946 386.11 537.941 391.156 537.941H410.184C415.231 537.941 420.071 539.946 423.639 543.514C427.207 547.083 429.212 551.923 429.212 556.969C429.212 562.016 427.207 566.855 423.639 570.424C420.071 573.992 415.231 575.997 410.184 575.997ZM505.323 652.108H486.295C481.249 652.108 476.409 650.103 472.841 646.535C469.272 642.966 467.268 638.127 467.268 633.08C467.268 628.034 469.272 623.194 472.841 619.626C476.409 616.057 481.249 614.052 486.295 614.052H505.323C510.37 614.052 515.209 616.057 518.778 619.626C522.346 623.194 524.351 628.034 524.351 633.08C524.351 638.127 522.346 642.966 518.778 646.535C515.209 650.103 510.37 652.108 505.323 652.108ZM505.323 575.997H486.295C481.249 575.997 476.409 573.992 472.841 570.424C469.272 566.855 467.268 562.016 467.268 556.969C467.268 551.923 469.272 547.083 472.841 543.514C476.409 539.946 481.249 537.941 486.295 537.941H505.323C510.37 537.941 515.209 539.946 518.778 543.514C522.346 547.083 524.351 551.923 524.351 556.969C524.351 562.016 522.346 566.855 518.778 570.424C515.209 573.992 510.37 575.997 505.323 575.997ZM524.351 471.344H514.837V480.858C514.837 485.904 512.832 490.744 509.264 494.313C505.696 497.881 500.856 499.886 495.809 499.886C490.763 499.886 485.923 497.881 482.355 494.313C478.786 490.744 476.781 485.904 476.781 480.858V471.344H467.268C462.221 471.344 457.381 469.339 453.813 465.771C450.245 462.203 448.24 457.363 448.24 452.316C448.24 447.27 450.245 442.43 453.813 438.862C457.381 435.293 462.221 433.289 467.268 433.289H476.781V423.775C476.781 418.728 478.786 413.888 482.355 410.32C485.923 406.752 490.763 404.747 495.809 404.747C500.856 404.747 505.696 406.752 509.264 410.32C512.832 413.888 514.837 418.728 514.837 423.775V433.289H524.351C529.397 433.289 534.237 435.293 537.806 438.862C541.374 442.43 543.379 447.27 543.379 452.316C543.379 457.363 541.374 462.203 537.806 465.771C534.237 469.339 529.397 471.344 524.351 471.344ZM600.462 652.108H581.434C576.388 652.108 571.548 650.103 567.98 646.535C564.411 642.966 562.406 638.127 562.406 633.08C562.406 628.034 564.411 623.194 567.98 619.626C571.548 616.057 576.388 614.052 581.434 614.052H600.462C605.509 614.052 610.348 616.057 613.917 619.626C617.485 623.194 619.49 628.034 619.49 633.08C619.49 638.127 617.485 642.966 613.917 646.535C610.348 650.103 605.509 652.108 600.462 652.108ZM600.462 575.997H581.434C576.388 575.997 571.548 573.992 567.98 570.424C564.411 566.855 562.406 562.016 562.406 556.969C562.406 551.923 564.411 547.083 567.98 543.514C571.548 539.946 576.388 537.941 581.434 537.941H600.462C605.509 537.941 610.348 539.946 613.917 543.514C617.485 547.083 619.49 551.923 619.49 556.969C619.49 562.016 617.485 566.855 613.917 570.424C610.348 573.992 605.509 575.997 600.462 575.997Z" fill="#D0D5DA"/>
<rect x="570.158" y="530.67" width="378.577" height="378.577" rx="80.3041" transform="rotate(10.991 570.158 530.67)" fill="#FFCD00" fill-opacity="0.36"/>
<g clip-path="url(#clip0_1400_8956)">
<path d="M805.054 789.817C801.88 784.216 795.489 781.182 789.889 783.846C787.547 784.96 785.998 786.835 784.268 788.942L785.725 779.917C771.929 771.559 759.558 761.334 751.237 747.182C746.662 739.402 743.546 731.095 742.295 722.041C739.176 727.369 735.236 731.785 730.528 735.664C720.545 743.893 708.327 748.664 695.436 749.822C689.151 750.386 683.017 749.997 676.874 748.319C679.552 744.979 681.64 741.56 683.151 737.512C672.281 745.501 658.381 749.278 645.074 749.75L642.747 757.345C642.217 754.734 641.531 752.468 639.977 750.474C636.183 745.604 628.955 745.589 623.907 749.106C623.044 738.852 623.931 728.734 626.287 718.66C629.076 706.73 634.237 695.775 641.169 685.766C655.632 664.879 677.932 650.54 703.041 646.413C730.995 641.817 761.069 649.432 783.161 667.22C801.857 682.273 813.942 703.785 817.263 727.543C820.355 749.656 815.831 770.27 805.053 789.819L805.054 789.817Z" fill="#513623"/>
<path d="M749.982 788.044C749.697 792.068 747.098 795.315 743.589 796.46C739.85 797.68 735.721 796.411 733.356 793.465C730.879 790.378 730.602 786.115 732.647 782.653C734.898 778.84 739.363 777.074 743.516 778.375C747.67 779.676 750.303 783.501 749.982 788.044Z" fill="#040301"/>
<path d="M692.916 775.026C692.703 780.489 688.264 784.411 683.107 784.146C677.908 783.878 673.872 779.511 674.318 774.179C674.702 769.59 678.003 765.845 682.588 765.274C688.318 764.564 693.143 769.188 692.916 775.023L692.916 775.026Z" fill="#040301"/>
<path fill-rule="evenodd" clip-rule="evenodd" d="M742.267 722.023C743.519 731.077 746.637 739.385 751.21 747.164C759.533 761.319 771.901 771.541 785.698 779.899L784.242 788.924C785.969 786.817 787.52 784.943 789.861 783.828C795.461 781.165 801.854 784.196 805.027 789.798L805.031 789.799C809.867 798.334 806.419 810.279 798.812 816.808C792.927 821.86 784.692 822.807 778.324 817.683C769.262 833.335 756.287 844.906 739.392 851.338C723.197 857.572 705.258 858.123 688.867 852.766C659.32 843.109 638.546 816.802 636.123 785.87C628.542 787.905 621.306 783.594 618.122 776.897C615.584 771.564 615.053 765.481 616.672 759.773C617.897 755.451 620.318 751.567 623.88 749.087C628.931 745.572 636.158 745.587 639.95 750.456C641.504 752.45 642.19 754.716 642.72 757.327L645.047 749.732C658.354 749.26 672.254 745.483 683.124 737.493C681.613 741.542 679.524 744.961 676.847 748.301C682.99 749.978 689.124 750.368 695.409 749.804C708.3 748.646 720.518 743.875 730.501 735.646C735.21 731.765 739.147 727.347 742.267 722.023ZM743.48 778.37C739.428 777.102 734.861 778.835 732.61 782.648C730.565 786.11 730.844 790.376 733.319 793.46C735.684 796.406 739.814 797.675 743.552 796.456C747.059 795.312 749.661 792.063 749.946 788.04C750.267 783.494 747.532 779.639 743.48 778.37ZM692.875 775.022C693.101 769.186 688.276 764.56 682.546 765.272C677.961 765.84 674.66 769.586 674.276 774.178C673.83 779.507 677.867 783.876 683.065 784.144C688.222 784.409 692.663 780.488 692.874 775.024L692.875 775.022Z" fill="#FFCCA8"/>
</g>
<defs>
<clipPath id="clip0_1400_8956">
<rect width="195.044" height="212.138" fill="white" transform="translate(646.431 626.285) rotate(12.5894)"/>
</clipPath>
</defs>
</svg>
