<svg width="97" height="105" viewBox="0 0 97 105" fill="none" xmlns="http://www.w3.org/2000/svg">
<path d="M48.535 36.0282H26.6814C25.753 36.0282 25 36.7791 25 37.7049V59.715C25 60.7138 25.812 61.5236 26.8136 61.5236H48.4036C49.4052 61.5236 50.2173 60.7138 50.2173 59.715V37.7041C50.2173 36.7782 49.4643 36.0273 48.5359 36.0273L48.535 36.0282Z" fill="#D0D5DA"/>
<path d="M32.9854 52.1606C32.9854 52.3918 32.7976 52.58 32.5648 52.58H30.8835C30.6516 52.58 30.4629 52.3927 30.4629 52.1606V50.4838C30.4629 50.2526 30.6507 50.0645 30.8835 50.0645H32.5648C32.7967 50.0645 32.9854 50.2517 32.9854 50.4838V52.1606ZM32.9854 46.2934C32.9854 46.5246 32.7976 46.7128 32.5648 46.7128H30.8835C30.6516 46.7128 30.4629 46.5255 30.4629 46.2934V44.6167C30.4629 44.3854 30.6507 44.1973 30.8835 44.1973H32.5648C32.7967 44.1973 32.9854 44.3845 32.9854 44.6167V46.2934ZM38.8689 52.1606C38.8689 52.3918 38.6811 52.58 38.4484 52.58H36.767C36.5351 52.58 36.3464 52.3927 36.3464 52.1606V50.4838C36.3464 50.2526 36.5342 50.0645 36.767 50.0645H38.4484C38.6803 50.0645 38.8689 50.2517 38.8689 50.4838V52.1606ZM38.8689 46.2934C38.8689 46.5246 38.6811 46.7128 38.4484 46.7128H36.767C36.5351 46.7128 36.3464 46.5255 36.3464 46.2934V44.6167C36.3464 44.3854 36.5342 44.1973 36.767 44.1973H38.4484C38.6803 44.1973 38.8689 44.3845 38.8689 44.6167V46.2934ZM44.7525 52.1606C44.7525 52.3918 44.5647 52.58 44.3319 52.58H42.6505C42.4186 52.58 42.2299 52.3927 42.2299 52.1606V50.4838C42.2299 50.2526 42.4177 50.0645 42.6505 50.0645H44.3319C44.5638 50.0645 44.7525 50.2517 44.7525 50.4838V52.1606ZM44.7525 46.2934C44.7525 46.5246 44.5647 46.7128 44.3319 46.7128H42.6505C42.4186 46.7128 42.2299 46.5255 42.2299 46.2934V44.6167C42.2299 44.3854 42.4177 44.1973 42.6505 44.1973H44.3319C44.5638 44.1973 44.7525 44.3845 44.7525 44.6167V46.2934Z" fill="#8A94A0"/>
<path d="M36.4307 57.0039H38.7866C39.3879 57.0039 39.8755 57.4901 39.8755 58.0898V61.525H35.3418V58.0898C35.3418 57.4901 35.8294 57.0039 36.4307 57.0039Z" fill="#6B7683"/>
<path d="M41.1759 31H34.0395C33.2249 31 32.5645 31.6586 32.5645 32.471V39.5876C32.5645 40.4 33.2249 41.0585 34.0395 41.0585H41.1759C41.9906 41.0585 42.651 40.4 42.651 39.5876V32.471C42.651 31.6586 41.9906 31 41.1759 31Z" fill="#FF3D00"/>
<path d="M40.1307 35.0523H38.5895V33.3237C38.5895 33.0925 38.4017 32.9043 38.169 32.9043H37.0483C36.8165 32.9043 36.6278 33.0916 36.6278 33.3237V35.0523H35.0866C34.8547 35.0523 34.666 35.2396 34.666 35.4717V36.5892C34.666 36.8204 34.8538 37.0086 35.0866 37.0086H36.6278V38.7372C36.6278 38.9684 36.8156 39.1566 37.0483 39.1566H38.169C38.4009 39.1566 38.5895 38.9693 38.5895 38.7372V37.0086H40.1307C40.3626 37.0086 40.5513 36.8213 40.5513 36.5892V35.4717C40.5513 35.2404 40.3635 35.0523 40.1307 35.0523Z" fill="white"/>
<rect x="43.6973" y="40.6719" width="29.015" height="29.015" rx="6.1547" transform="rotate(10.991 43.6973 40.6719)" fill="#FFCD00" fill-opacity="0.36"/>
<path d="M53.7087 65.7426C57.1659 66.411 60.5142 64.1557 61.1873 60.7053C61.8605 57.2548 59.6036 53.9158 56.1465 53.2474C52.6893 52.579 49.341 54.8343 48.6678 58.2847C47.9946 61.7352 50.2515 65.0742 53.7087 65.7426Z" fill="#FFCCA8"/>
<path d="M48.7181 60.9089C50.1019 61.1762 51.4288 60.3424 51.6818 59.0466C51.9348 57.7509 51.0182 56.4837 49.6344 56.2164C48.2507 55.9491 46.9238 56.7829 46.6708 58.0787C46.4177 59.3744 47.3344 60.6416 48.7181 60.9089Z" fill="#FFCCA8"/>
<path d="M60.1498 63.1218C61.5335 63.3891 62.8604 62.5553 63.1134 61.2595C63.3665 59.9637 62.4498 58.6966 61.0661 58.4293C59.6823 58.162 58.3554 58.9958 58.1024 60.2915C57.8494 61.5873 58.766 62.8545 60.1498 63.1218Z" fill="#FFCCA8"/>
<path d="M62.355 59.0747C63.2551 54.7966 60.2403 50.5784 55.7694 50.2008C52.3305 49.9104 49.1002 52.1217 48.1259 55.4266C48.0267 55.7631 47.9524 56.0995 47.902 56.4347C47.902 56.4347 48.5423 56.4073 48.8566 57.6925L53.8864 53.8785C53.8864 53.8785 58.116 58.867 61.4679 59.2874C61.5418 59.2968 61.6309 59.2879 61.7206 59.2684C61.9656 59.1869 62.1952 58.9929 62.355 59.0747Z" fill="#333333"/>
<path d="M53.0713 59.6503C53.439 59.7214 53.8068 59.4218 53.8927 58.9812C53.9787 58.5405 53.7503 58.1256 53.3826 58.0545C53.0149 57.9834 52.6471 58.283 52.5612 58.7237C52.4752 59.1643 52.7036 59.5792 53.0713 59.6503Z" fill="black"/>
<path d="M56.5905 60.3317C56.9582 60.4028 57.3261 60.1031 57.4121 59.6625C57.4982 59.2219 57.2698 58.8071 56.9021 58.736C56.5344 58.665 56.1666 58.9646 56.0805 59.4053C55.9945 59.8459 56.2228 60.2607 56.5905 60.3317Z" fill="black"/>
<path d="M55.2022 62.4967C55.3519 62.5256 55.4305 62.6901 55.3627 62.8262C55.147 63.2598 54.6614 63.5148 54.1627 63.4184C53.664 63.322 53.3091 62.9045 53.2726 62.4221C53.261 62.2701 53.3951 62.1473 53.5453 62.1763L55.2032 62.4969L55.2022 62.4967Z" fill="#5C2F17"/>
</svg>
