<svg width="19" height="19" viewBox="0 0 19 19" fill="none" xmlns="http://www.w3.org/2000/svg">
<circle cx="9.5" cy="9.5" r="9.5" fill="#773C14"/>
<circle cx="9.5" cy="9.5" r="9.5" fill="black" fill-opacity="0.2"/>
<path d="M9.85714 4.85714C9.85714 4.62981 9.76684 4.4118 9.60609 4.25105C9.44535 4.09031 9.22733 4 9 4C8.77267 4 8.55465 4.09031 8.39391 4.25105C8.23316 4.4118 8.14286 4.62981 8.14286 4.85714V9.14286H3.85714C3.62981 9.14286 3.4118 9.23316 3.25105 9.39391C3.09031 9.55465 3 9.77267 3 10C3 10.2273 3.09031 10.4453 3.25105 10.6061C3.4118 10.7668 3.62981 10.8571 3.85714 10.8571H8.14286V15.1429C8.14286 15.3702 8.23316 15.5882 8.39391 15.7489C8.55465 15.9097 8.77267 16 9 16C9.22733 16 9.44535 15.9097 9.60609 15.7489C9.76684 15.5882 9.85714 15.3702 9.85714 15.1429V10.8571H14.1429C14.3702 10.8571 14.5882 10.7668 14.7489 10.6061C14.9097 10.4453 15 10.2273 15 10C15 9.77267 14.9097 9.55465 14.7489 9.39391C14.5882 9.23316 14.3702 9.14286 14.1429 9.14286H9.85714V4.85714Z" fill="#FFC721"/>
</svg>
