<svg width="30" height="30" viewBox="0 0 30 30" fill="none" xmlns="http://www.w3.org/2000/svg">
<rect width="29.697" height="29.697" rx="6.05021" fill="#FFC721"/>
<path d="M14.3854 21.1545C14.3854 21.3632 14.3024 21.5633 14.1549 21.7109C14.0073 21.8584 13.8072 21.9413 13.5985 21.9413C9.61995 21.9413 6.36328 18.7885 6.36328 14.8593C6.36328 10.9301 9.61995 7.77734 13.5985 7.77734C16.8562 7.77734 19.6302 9.89145 20.5283 12.8145L21.161 11.7443C21.2671 11.5646 21.4404 11.4343 21.6425 11.3823C21.8447 11.3302 22.0593 11.3606 22.239 11.4668C22.4188 11.573 22.549 11.7462 22.6011 11.9483C22.6531 12.1505 22.6227 12.3651 22.5165 12.5448L20.8064 15.4353C20.7016 15.6127 20.5316 15.7419 20.3327 15.7952C20.1338 15.8486 19.9219 15.8218 19.7425 15.7207L16.7817 14.0515C16.6917 14.0007 16.6125 13.9327 16.5487 13.8513C16.485 13.77 16.4379 13.6768 16.4101 13.5773C16.3823 13.4777 16.3745 13.3736 16.3869 13.271C16.3994 13.1684 16.4319 13.0692 16.4827 12.9792C16.5334 12.8892 16.6015 12.81 16.6828 12.7463C16.7642 12.6825 16.8573 12.6354 16.9569 12.6076C17.0564 12.5799 17.1605 12.572 17.2631 12.5844C17.3657 12.5969 17.4649 12.6294 17.5549 12.6802L19.0993 13.551C18.4971 11.1505 16.276 9.35112 13.5995 9.35112C10.4541 9.35112 7.93706 11.8345 7.93706 14.8593C7.93706 17.8841 10.4541 20.3676 13.5985 20.3676C13.8072 20.3676 14.0073 20.4505 14.1549 20.598C14.3024 20.7456 14.3854 20.9458 14.3854 21.1545Z" fill="#AB4C0A"/>
</svg>
