<svg width="21" height="21" viewBox="0 0 21 21" fill="none" xmlns="http://www.w3.org/2000/svg">
<path d="M6.79219 8.95781C5.76406 7.92969 5.25 6.69375 5.25 5.25C5.25 3.80625 5.76406 2.57031 6.79219 1.54219C7.82031 0.514063 9.05625 0 10.5 0C11.9437 0 13.1797 0.514063 14.2078 1.54219C15.2359 2.57031 15.75 3.80625 15.75 5.25C15.75 6.69375 15.2359 7.92969 14.2078 8.95781C13.1797 9.98594 11.9437 10.5 10.5 10.5C9.05625 10.5 7.82031 9.98594 6.79219 8.95781ZM0 18.375V17.325C0 16.5812 0.191625 15.8979 0.574875 15.2749C0.958125 14.6519 1.4665 14.1759 2.1 13.8469C3.45625 13.1687 4.83437 12.6604 6.23437 12.3217C7.63437 11.9831 9.05625 11.8134 10.5 11.8125C11.9437 11.8116 13.3656 11.9814 14.7656 12.3217C16.1656 12.6621 17.5437 13.1705 18.9 13.8469C19.5344 14.175 20.0432 14.651 20.4264 15.2749C20.8097 15.8987 21.0009 16.5821 21 17.325V18.375C21 19.0969 20.7432 19.7151 20.2296 20.2296C19.7159 20.7441 19.0977 21.0009 18.375 21H2.625C1.90312 21 1.28537 20.7432 0.77175 20.2296C0.258125 19.7159 0.000875 19.0977 0 18.375Z" fill="#B9B2A6"/>
</svg>
