<svg width="35" height="35" viewBox="0 0 35 35" fill="none" xmlns="http://www.w3.org/2000/svg">
<g clip-path="url(#clip0_508_8135)">
<path d="M30.9885 13.5059H26.9828C25.4929 13.5059 24.2852 14.7136 24.2852 16.2035V20.2092C24.2852 21.6991 25.4929 22.9069 26.9828 22.9069H30.9885C32.4784 22.9069 33.6862 21.6991 33.6862 20.2092V16.2035C33.6862 14.7136 32.4784 13.5059 30.9885 13.5059Z" fill="#FFC721"/>
<path d="M20.4007 5.08509C20.4007 3.48264 19.1016 2.18359 17.4992 2.18359C15.8967 2.18359 14.5977 3.48264 14.5977 5.08509V8.68309C14.5977 10.2855 15.8967 11.5846 17.4992 11.5846C19.1016 11.5846 20.4007 10.2855 20.4007 8.68309V5.08509Z" fill="#E28702"/>
<path d="M8.01587 13.5059H4.01012C2.52027 13.5059 1.3125 14.7136 1.3125 16.2035V20.2092C1.3125 21.6991 2.52027 22.9069 4.01012 22.9069H8.01587C9.50573 22.9069 10.7135 21.6991 10.7135 20.2092V16.2035C10.7135 14.7136 9.50573 13.5059 8.01587 13.5059Z" fill="#FFC721"/>
<path d="M25.7904 5.3457H9.06303C6.57961 5.3457 4.56641 7.35891 4.56641 9.84233V26.5697C4.56641 29.0531 6.57961 31.0663 9.06303 31.0663H25.7904C28.2738 31.0663 30.287 29.0531 30.287 26.5697V9.84233C30.287 7.35891 28.2738 5.3457 25.7904 5.3457Z" fill="#EBE4D9"/>
<path d="M21.8824 17.9094C23.0041 17.9094 23.9133 17.0002 23.9133 15.8785C23.9133 14.7569 23.0041 13.8477 21.8824 13.8477C20.7608 13.8477 19.8516 14.7569 19.8516 15.8785C19.8516 17.0002 20.7608 17.9094 21.8824 17.9094Z" fill="black"/>
<path d="M13.1168 17.9094C14.2384 17.9094 15.1477 17.0002 15.1477 15.8785C15.1477 14.7569 14.2384 13.8477 13.1168 13.8477C11.9952 13.8477 11.0859 14.7569 11.0859 15.8785C11.0859 17.0002 11.9952 17.9094 13.1168 17.9094Z" fill="black"/>
<path d="M20.3577 24.4212H14.6422C13.8976 24.4212 13.293 23.8165 13.293 23.0719C13.293 22.3273 13.8976 21.7227 14.6422 21.7227H20.3577C21.1023 21.7227 21.707 22.3273 21.707 23.0719C21.707 23.8165 21.1023 24.4212 20.3577 24.4212Z" fill="#B9B2A6"/>
</g>
<defs>
<clipPath id="clip0_508_8135">
<rect width="35" height="35" fill="white"/>
</clipPath>
</defs>
</svg>
