<svg width="609" height="796" viewBox="0 0 609 796" fill="none" xmlns="http://www.w3.org/2000/svg">
<g filter="url(#filter0_d_1400_9393)">
<ellipse cx="310.859" cy="611.709" rx="127.632" ry="51.8506" fill="#26ACFF"/>
<path d="M310.859 544.59C347.573 544.59 381.521 550.607 406.856 560.899C419.484 566.03 430.718 572.523 439.038 580.515C447.4 588.546 453.76 599.088 453.76 611.709C453.76 624.33 447.4 634.872 439.038 642.903C430.718 650.895 419.484 657.388 406.856 662.519C381.521 672.811 347.573 678.828 310.859 678.828C274.144 678.828 240.197 672.811 214.862 662.519C202.234 657.388 191 650.895 182.68 642.903C174.318 634.872 167.958 624.33 167.958 611.709C167.958 599.088 174.318 588.546 182.68 580.515C191 572.523 202.234 566.03 214.862 560.899C240.197 550.607 274.144 544.59 310.859 544.59Z" stroke="white" stroke-width="30.5378"/>
</g>
<path d="M309.986 20.6523C365.535 20.6705 419.049 41.5685 459.91 79.2002C500.451 116.538 525.599 167.643 530.463 222.513L530.574 223.81L530.575 223.818C535.627 285.259 516.659 346.265 477.659 394.009L477.654 394.015L356.032 542.763C349.791 550.4 341.93 556.555 333.019 560.781C324.106 565.009 314.364 567.202 304.498 567.202C294.634 567.202 284.892 565.009 275.979 560.781C267.067 556.554 259.205 550.399 252.964 542.762L131.368 394.013L131.366 394.011C92.3553 346.271 73.377 285.265 78.4223 223.82L78.4233 223.81C83.0041 168.449 108.226 116.832 149.087 79.2002C189.948 41.5683 243.462 20.6704 299.012 20.6523H309.986Z" fill="#26ACFF" stroke="white" stroke-width="34.8"/>
<path d="M286.909 158.827H322.115C323.743 158.827 325.25 158.026 326.197 156.689C327.12 155.377 327.339 153.652 326.78 152.122L309.165 104.451C308.436 102.483 306.59 101.195 304.5 101.195C302.41 101.195 300.564 102.507 299.835 104.451L282.22 152.146C281.661 153.677 281.88 155.377 282.803 156.714C283.75 158.05 285.281 158.827 286.909 158.827ZM385.311 199.598C386.235 200.545 387.522 201.055 388.81 201.055C389.102 201.055 389.393 201.031 389.685 200.983C391.288 200.691 392.625 199.646 393.329 198.164L414.613 151.976C415.488 150.081 415.075 147.87 413.617 146.387C412.135 144.905 409.9 144.517 408.005 145.367L361.841 166.675C360.359 167.356 359.314 168.716 359.022 170.32C358.731 171.924 359.265 173.551 360.383 174.718L385.311 199.598ZM455.578 250.84L407.859 233.249C406.328 232.69 404.627 232.909 403.291 233.832C401.955 234.755 401.177 236.262 401.177 237.89L401.202 273.096C401.202 274.724 402.003 276.254 403.34 277.178C404.19 277.736 405.186 278.052 406.182 278.052C406.766 278.052 407.349 277.955 407.907 277.736L455.627 260.145C457.57 259.441 458.882 257.57 458.882 255.456C458.834 253.415 457.546 251.569 455.578 250.84ZM393.329 312.845C392.994 312.117 392.487 311.48 391.853 310.989C391.218 310.499 390.474 310.169 389.685 310.027C388.081 309.76 386.429 310.27 385.311 311.412L360.407 336.316C359.265 337.458 358.731 339.11 359.022 340.714C359.314 342.293 360.359 343.678 361.841 344.358L408.029 365.643C408.685 365.958 409.39 366.08 410.118 366.08C411.406 366.08 412.67 365.57 413.617 364.622C415.099 363.14 415.488 360.929 414.613 359.034L393.329 312.845ZM322.091 352.158L286.885 352.182C285.257 352.182 283.75 352.984 282.827 354.32C281.904 355.656 281.685 357.357 282.22 358.864L299.835 406.583C300.564 408.526 302.41 409.839 304.5 409.839C306.59 409.839 308.436 408.526 309.165 406.583L326.78 358.864C327.339 357.333 327.12 355.632 326.197 354.296C325.25 352.96 323.743 352.158 322.091 352.158ZM223.689 311.412C222.547 310.27 220.919 309.76 219.315 310.027C217.712 310.319 216.351 311.363 215.671 312.845L194.387 359.034C193.512 360.929 193.925 363.164 195.407 364.622C196.124 365.34 197.045 365.821 198.044 365.999C199.044 366.177 200.074 366.044 200.995 365.618L247.184 344.31C247.912 343.974 248.549 343.468 249.04 342.833C249.53 342.198 249.86 341.455 250.002 340.665C250.294 339.062 249.759 337.434 248.617 336.292L223.689 311.412ZM202.866 278.077C203.862 278.077 204.859 277.761 205.709 277.178C207.045 276.254 207.847 274.724 207.847 273.096L207.823 237.89C207.823 237.089 207.63 236.301 207.26 235.592C206.89 234.882 206.354 234.273 205.698 233.815C205.042 233.357 204.286 233.064 203.492 232.961C202.699 232.858 201.892 232.949 201.141 233.225L153.422 250.84C152.467 251.19 151.642 251.825 151.059 252.66C150.476 253.494 150.164 254.487 150.164 255.505C150.164 256.522 150.476 257.516 151.059 258.35C151.642 259.184 152.467 259.819 153.422 260.17L201.165 277.761C201.724 277.979 202.283 278.077 202.866 278.077ZM215.695 198.164C216.031 198.892 216.539 199.528 217.174 200.018C217.809 200.508 218.553 200.837 219.342 200.978C220.132 201.119 220.944 201.067 221.709 200.827C222.474 200.586 223.17 200.165 223.737 199.598L248.617 174.693C249.759 173.527 250.269 171.899 249.978 170.296C249.686 168.716 248.641 167.356 247.159 166.675L200.947 145.391C199.052 144.517 196.841 144.93 195.358 146.412C193.876 147.894 193.488 150.105 194.362 152L215.695 198.164Z" fill="#FFCD00"/>
<circle cx="303.734" cy="256.266" r="100.793" fill="#FFAA00" stroke="#FFCD00" stroke-width="30"/>
<defs>
<filter id="filter0_d_1400_9393" x="50.8964" y="427.528" width="519.925" height="368.362" filterUnits="userSpaceOnUse" color-interpolation-filters="sRGB">
<feFlood flood-opacity="0" result="BackgroundImageFix"/>
<feColorMatrix in="SourceAlpha" type="matrix" values="0 0 0 0 0 0 0 0 0 0 0 0 0 0 0 0 0 0 127 0" result="hardAlpha"/>
<feOffset/>
<feGaussianBlur stdDeviation="50.8963"/>
<feComposite in2="hardAlpha" operator="out"/>
<feColorMatrix type="matrix" values="0 0 0 0 0 0 0 0 0 0 0 0 0 0 0 0 0 0 0.15 0"/>
<feBlend mode="normal" in2="BackgroundImageFix" result="effect1_dropShadow_1400_9393"/>
<feBlend mode="normal" in="SourceGraphic" in2="effect1_dropShadow_1400_9393" result="shape"/>
</filter>
</defs>
</svg>
