<svg width="60" height="79" viewBox="0 0 60 79" fill="none" xmlns="http://www.w3.org/2000/svg">
<g filter="url(#filter0_d_508_41761)">
<ellipse cx="30.5385" cy="60.0938" rx="12.5385" ry="5.09375" fill="#26ACFF"/>
<path d="M30.5381 53.5C34.1448 53.5 37.48 54.0915 39.9688 55.1025C41.2093 55.6065 42.3135 56.2442 43.1309 57.0293C43.9522 57.8183 44.5771 58.8539 44.5771 60.0938C44.5771 61.3336 43.9522 62.3692 43.1309 63.1582C42.3135 63.9433 41.2093 64.581 39.9688 65.085C37.48 66.096 34.1448 66.6875 30.5381 66.6875C26.9314 66.6875 23.5961 66.096 21.1074 65.085C19.867 64.581 18.7636 63.9432 17.9463 63.1582C17.1248 62.3692 16.5 61.3336 16.5 60.0938C16.5 58.8539 17.1248 57.8183 17.9463 57.0293C18.7636 56.2443 19.867 55.6065 21.1074 55.1025C23.5961 54.0915 26.9314 53.5 30.5381 53.5Z" stroke="white" stroke-width="3"/>
</g>
<path d="M30.4541 2.0293C35.9109 2.03119 41.1677 4.08369 45.1816 7.78027C49.0705 11.3618 51.518 16.2329 52.0762 21.4785L52.124 21.9873C52.6204 28.0232 50.7572 34.0168 46.9258 38.707L46.9248 38.708L34.9775 53.3203C34.3645 54.0706 33.5923 54.6755 32.7168 55.0908C31.8413 55.5061 30.884 55.7216 29.915 55.7217C28.9461 55.7217 27.9888 55.506 27.1133 55.0908C26.3471 54.7274 25.6594 54.2189 25.0889 53.5947L24.8516 53.3203L12.9062 38.707C9.07404 34.0173 7.20955 28.0243 7.70508 21.9883V21.9873C8.15509 16.5487 10.6333 11.4772 14.6475 7.78027C18.6616 4.08353 23.919 2.03107 29.376 2.0293H30.4541Z" fill="#26ACFF" stroke="white" stroke-width="3.41872"/>
<g clip-path="url(#clip0_508_41761)">
<path d="M41.8838 28.3457L44.0791 26.1504C44.4371 25.7923 44.4371 25.2115 44.0791 24.8535L41.8838 22.6582C41.6519 22.4263 41.5612 22.0889 41.6462 21.7721L42.4497 18.7732C42.5809 18.284 42.2905 17.7808 41.8013 17.6496L38.8024 16.846C38.4856 16.7611 38.2389 16.5136 38.1539 16.1976L37.3504 13.1987C37.2192 12.7095 36.716 12.4191 36.2267 12.5503L33.2279 13.3538C32.9111 13.4388 32.5736 13.348 32.3418 13.1162L30.1465 10.9209C29.7884 10.5628 29.2076 10.5628 28.8496 10.9209L26.6543 13.1162C26.4224 13.348 26.085 13.4388 25.7682 13.3538L22.7693 12.5503C22.2801 12.4191 21.7769 12.7095 21.6457 13.1987L20.8421 16.1976C20.7572 16.5144 20.5097 16.7611 20.1937 16.846L17.1948 17.6496C16.7056 17.7808 16.4152 18.284 16.5464 18.7732L17.3499 21.7721C17.4349 22.0889 17.3441 22.4263 17.1123 22.6582L14.917 24.8535C14.5589 25.2115 14.5589 25.7923 14.917 26.1504L17.1123 28.3457C17.3441 28.5775 17.4349 28.915 17.3499 29.2318L16.5464 32.2306C16.4152 32.7199 16.7056 33.2231 17.1948 33.3543L20.1937 34.1578C20.5105 34.2428 20.7572 34.4903 20.8421 34.8063L21.6457 37.8052C21.7769 38.2944 22.2801 38.5848 22.7693 38.4536L25.7682 37.6501C26.085 37.5651 26.4224 37.6558 26.6543 37.8877L28.8496 40.083C29.2076 40.441 29.7884 40.441 30.1465 40.083L32.3418 37.8877C32.5736 37.6558 32.9111 37.5651 33.2279 37.6501L36.2267 38.4536C36.716 38.5848 37.2192 38.2944 37.3504 37.8052L38.1539 34.8063C38.2389 34.4895 38.4864 34.2428 38.8024 34.1578L41.8013 33.3543C42.2905 33.2231 42.5809 32.7199 42.4497 32.2306L41.6462 29.2318C41.5612 28.915 41.6519 28.5775 41.8838 28.3457Z" fill="#FFCD00"/>
<path d="M29.4997 34.2259C34.2802 34.2259 38.1556 30.3505 38.1556 25.57C38.1556 20.7894 34.2802 16.9141 29.4997 16.9141C24.7191 16.9141 20.8438 20.7894 20.8438 25.57C20.8438 30.3505 24.7191 34.2259 29.4997 34.2259Z" fill="#FFAA00"/>
</g>
<defs>
<filter id="filter0_d_508_41761" x="5" y="42" width="51.0762" height="36.1875" filterUnits="userSpaceOnUse" color-interpolation-filters="sRGB">
<feFlood flood-opacity="0" result="BackgroundImageFix"/>
<feColorMatrix in="SourceAlpha" type="matrix" values="0 0 0 0 0 0 0 0 0 0 0 0 0 0 0 0 0 0 127 0" result="hardAlpha"/>
<feOffset/>
<feGaussianBlur stdDeviation="5"/>
<feComposite in2="hardAlpha" operator="out"/>
<feColorMatrix type="matrix" values="0 0 0 0 0 0 0 0 0 0 0 0 0 0 0 0 0 0 0.15 0"/>
<feBlend mode="normal" in2="BackgroundImageFix" result="effect1_dropShadow_508_41761"/>
<feBlend mode="normal" in="SourceGraphic" in2="effect1_dropShadow_508_41761" result="shape"/>
</filter>
<clipPath id="clip0_508_41761">
<rect width="33" height="33" fill="white" transform="translate(13 9)"/>
</clipPath>
</defs>
</svg>
