<svg width="47" height="47" viewBox="0 0 47 47" fill="none" xmlns="http://www.w3.org/2000/svg">
<g clip-path="url(#clip0_508_42223)">
<path d="M38.0615 9.82149H8.93799C7.70072 9.82149 6.69727 10.8249 6.69727 12.0622V41.476C6.69727 42.8108 7.77944 43.893 9.11424 43.893H37.8865C39.2213 43.893 40.3034 42.8108 40.3034 41.476V12.061C40.3034 10.8238 39.3 9.82031 38.0627 9.82031L38.0615 9.82149Z" fill="#D0D5DA"/>
<path d="M17.3382 31.3842C17.3382 31.6932 17.088 31.9446 16.7778 31.9446H14.537C14.228 31.9446 13.9766 31.6944 13.9766 31.3842V29.1434C13.9766 28.8344 14.2268 28.583 14.537 28.583H16.7778C17.0868 28.583 17.3382 28.8332 17.3382 29.1434V31.3842ZM17.3382 23.5434C17.3382 23.8524 17.088 24.1039 16.7778 24.1039H14.537C14.228 24.1039 13.9766 23.8536 13.9766 23.5434V21.3027C13.9766 20.9936 14.2268 20.7422 14.537 20.7422H16.7778C17.0868 20.7422 17.3382 20.9925 17.3382 21.3027V23.5434ZM25.179 31.3842C25.179 31.6932 24.9287 31.9446 24.6185 31.9446H22.3778C22.0688 31.9446 21.8173 31.6944 21.8173 31.3842V29.1434C21.8173 28.8344 22.0676 28.583 22.3778 28.583H24.6185C24.9276 28.583 25.179 28.8332 25.179 29.1434V31.3842ZM25.179 23.5434C25.179 23.8524 24.9287 24.1039 24.6185 24.1039H22.3778C22.0688 24.1039 21.8173 23.8536 21.8173 23.5434V21.3027C21.8173 20.9936 22.0676 20.7422 22.3778 20.7422H24.6185C24.9276 20.7422 25.179 20.9925 25.179 21.3027V23.5434ZM33.0198 31.3842C33.0198 31.6932 32.7695 31.9446 32.4593 31.9446H30.2186C29.9096 31.9446 29.6581 31.6944 29.6581 31.3842V29.1434C29.6581 28.8344 29.9084 28.583 30.2186 28.583H32.4593C32.7683 28.583 33.0198 28.8332 33.0198 29.1434V31.3842ZM33.0198 23.5434C33.0198 23.8524 32.7695 24.1039 32.4593 24.1039H30.2186C29.9096 24.1039 29.6581 23.8536 29.6581 23.5434V21.3027C29.6581 20.9936 29.9084 20.7422 30.2186 20.7422H32.4593C32.7683 20.7422 33.0198 20.9925 33.0198 21.3027V23.5434Z" fill="#8A94A0"/>
<path d="M21.9296 37.8516H25.0692C25.8706 37.8516 26.5204 38.5013 26.5204 39.3027V43.8934H20.4785V39.3027C20.4785 38.5013 21.1283 37.8516 21.9296 37.8516Z" fill="#6B7683"/>
<path d="M28.2536 3.10156H18.7431C17.6575 3.10156 16.7773 3.98167 16.7773 5.06734V14.5778C16.7773 15.6635 17.6575 16.5436 18.7431 16.5436H28.2536C29.3392 16.5436 30.2193 15.6635 30.2193 14.5778V5.06734C30.2193 3.98167 29.3392 3.10156 28.2536 3.10156Z" fill="#FF3D00"/>
<path d="M26.8608 8.51506H24.8069V6.20501C24.8069 5.89598 24.5566 5.64453 24.2464 5.64453H22.753C22.4439 5.64453 22.1925 5.89481 22.1925 6.20501V8.51506H20.1386C19.8296 8.51506 19.5781 8.76533 19.5781 9.07553V10.569C19.5781 10.878 19.8284 11.1294 20.1386 11.1294H22.1925V13.4395C22.1925 13.7485 22.4428 14 22.753 14H24.2464C24.5554 14 24.8069 13.7497 24.8069 13.4395V11.1294H26.8608C27.1698 11.1294 27.4212 10.8792 27.4212 10.569V9.07553C27.4212 8.76651 27.171 8.51506 26.8608 8.51506Z" fill="white"/>
</g>
<defs>
<clipPath id="clip0_508_42223">
<rect width="47" height="47" fill="white"/>
</clipPath>
</defs>
</svg>
