<svg width="457" height="457" viewBox="0 0 457 457" fill="none" xmlns="http://www.w3.org/2000/svg">
<path opacity="0.5" d="M237.843 275.907H218.816C213.769 275.907 208.929 273.902 205.361 270.334C201.793 266.765 199.788 261.925 199.788 256.879C199.788 251.832 201.793 246.993 205.361 243.424C208.929 239.856 213.769 237.851 218.816 237.851H237.843C242.89 237.851 247.73 239.856 251.298 243.424C254.866 246.993 256.871 251.832 256.871 256.879C256.871 261.925 254.866 266.765 251.298 270.334C247.73 273.902 242.89 275.907 237.843 275.907ZM237.843 352.018H218.816C213.769 352.018 208.929 350.013 205.361 346.445C201.793 342.876 199.788 338.036 199.788 332.99C199.788 327.943 201.793 323.104 205.361 319.535C208.929 315.967 213.769 313.962 218.816 313.962H237.843C242.89 313.962 247.73 315.967 251.298 319.535C254.866 323.104 256.871 327.943 256.871 332.99C256.871 338.036 254.866 342.876 251.298 346.445C247.73 350.013 242.89 352.018 237.843 352.018ZM142.704 275.907H123.677C118.63 275.907 113.79 273.902 110.222 270.334C106.654 266.765 104.649 261.925 104.649 256.879C104.649 251.832 106.654 246.993 110.222 243.424C113.79 239.856 118.63 237.851 123.677 237.851H142.704C147.751 237.851 152.591 239.856 156.159 243.424C159.728 246.993 161.732 251.832 161.732 256.879C161.732 261.925 159.728 266.765 156.159 270.334C152.591 273.902 147.751 275.907 142.704 275.907ZM142.704 352.018H123.677C118.63 352.018 113.79 350.013 110.222 346.445C106.654 342.876 104.649 338.036 104.649 332.99C104.649 327.943 106.654 323.104 110.222 319.535C113.79 315.967 118.63 313.962 123.677 313.962H142.704C147.751 313.962 152.591 315.967 156.159 319.535C159.728 323.104 161.732 327.943 161.732 332.99C161.732 338.036 159.728 342.876 156.159 346.445C152.591 350.013 147.751 352.018 142.704 352.018ZM332.982 275.907H313.954C308.908 275.907 304.068 273.902 300.5 270.334C296.931 266.765 294.927 261.925 294.927 256.879C294.927 251.832 296.931 246.993 300.5 243.424C304.068 239.856 308.908 237.851 313.954 237.851H332.982C338.029 237.851 342.869 239.856 346.437 243.424C350.005 246.993 352.01 251.832 352.01 256.879C352.01 261.925 350.005 266.765 346.437 270.334C342.869 273.902 338.029 275.907 332.982 275.907ZM332.982 352.018H313.954C308.908 352.018 304.068 350.013 300.5 346.445C296.931 342.876 294.927 338.036 294.927 332.99C294.927 327.943 296.931 323.104 300.5 319.535C304.068 315.967 308.908 313.962 313.954 313.962H332.982C338.029 313.962 342.869 315.967 346.437 319.535C350.005 323.104 352.01 327.943 352.01 332.99C352.01 338.036 350.005 342.876 346.437 346.445C342.869 350.013 338.029 352.018 332.982 352.018Z" fill="#8A94A0"/>
<path d="M256.88 133.19H247.366V123.676C247.366 118.629 245.361 113.789 241.793 110.221C238.224 106.653 233.384 104.648 228.338 104.648C223.291 104.648 218.452 106.653 214.883 110.221C211.315 113.789 209.31 118.629 209.31 123.676V133.19H199.796C194.75 133.19 189.91 135.194 186.342 138.763C182.773 142.331 180.768 147.171 180.768 152.217C180.768 157.264 182.773 162.104 186.342 165.672C189.91 169.24 194.75 171.245 199.796 171.245H209.31V180.759C209.31 185.806 211.315 190.645 214.883 194.214C218.452 197.782 223.291 199.787 228.338 199.787C233.384 199.787 238.224 197.782 241.793 194.214C245.361 190.645 247.366 185.806 247.366 180.759V171.245H256.88C261.926 171.245 266.766 169.24 270.334 165.672C273.903 162.104 275.907 157.264 275.907 152.217C275.907 147.171 273.903 142.331 270.334 138.763C266.766 135.194 261.926 133.19 256.88 133.19Z" fill="#FF3D00"/>
<path d="M409.098 123.68H352.014V47.5688C352.014 42.5223 350.01 37.6825 346.441 34.1141C342.873 30.5457 338.033 28.541 332.987 28.541H123.681C118.634 28.541 113.795 30.5457 110.226 34.1141C106.658 37.6825 104.653 42.5223 104.653 47.5688V123.68H47.5698C42.5234 123.68 37.6836 125.685 34.1152 129.253C30.5468 132.821 28.5421 137.661 28.5421 142.708V409.097C28.5421 414.143 30.5468 418.983 34.1152 422.551C37.6836 426.12 42.5234 428.124 47.5698 428.124H409.098C414.144 428.124 418.984 426.12 422.552 422.551C426.121 418.983 428.125 414.143 428.125 409.097V142.708C428.125 137.661 426.121 132.821 422.552 129.253C418.984 125.685 414.144 123.68 409.098 123.68ZM142.709 352.013H123.681C118.634 352.013 113.795 350.009 110.226 346.44C106.658 342.872 104.653 338.032 104.653 332.985C104.653 327.939 106.658 323.099 110.226 319.531C113.795 315.962 118.634 313.958 123.681 313.958H142.709C147.755 313.958 152.595 315.962 156.163 319.531C159.732 323.099 161.737 327.939 161.737 332.985C161.737 338.032 159.732 342.872 156.163 346.44C152.595 350.009 147.755 352.013 142.709 352.013ZM142.709 275.902H123.681C118.634 275.902 113.795 273.897 110.226 270.329C106.658 266.761 104.653 261.921 104.653 256.874C104.653 251.828 106.658 246.988 110.226 243.42C113.795 239.851 118.634 237.847 123.681 237.847H142.709C147.755 237.847 152.595 239.851 156.163 243.42C159.732 246.988 161.737 251.828 161.737 256.874C161.737 261.921 159.732 266.761 156.163 270.329C152.595 273.897 147.755 275.902 142.709 275.902ZM237.848 352.013H218.82C213.773 352.013 208.934 350.009 205.365 346.44C201.797 342.872 199.792 338.032 199.792 332.985C199.792 327.939 201.797 323.099 205.365 319.531C208.934 315.962 213.773 313.958 218.82 313.958H237.848C242.894 313.958 247.734 315.962 251.302 319.531C254.871 323.099 256.875 327.939 256.875 332.985C256.875 338.032 254.871 342.872 251.302 346.44C247.734 350.009 242.894 352.013 237.848 352.013ZM237.848 275.902H218.82C213.773 275.902 208.934 273.897 205.365 270.329C201.797 266.761 199.792 261.921 199.792 256.874C199.792 251.828 201.797 246.988 205.365 243.42C208.934 239.851 213.773 237.847 218.82 237.847H237.848C242.894 237.847 247.734 239.851 251.302 243.42C254.871 246.988 256.875 251.828 256.875 256.874C256.875 261.921 254.871 266.761 251.302 270.329C247.734 273.897 242.894 275.902 237.848 275.902ZM256.875 171.249H247.362V180.763C247.362 185.81 245.357 190.65 241.788 194.218C238.22 197.786 233.38 199.791 228.334 199.791C223.287 199.791 218.447 197.786 214.879 194.218C211.311 190.65 209.306 185.81 209.306 180.763V171.249H199.792C194.746 171.249 189.906 169.245 186.337 165.676C182.769 162.108 180.764 157.268 180.764 152.222C180.764 147.175 182.769 142.335 186.337 138.767C189.906 135.199 194.746 133.194 199.792 133.194H209.306V123.68C209.306 118.633 211.311 113.794 214.879 110.225C218.447 106.657 223.287 104.652 228.334 104.652C233.38 104.652 238.22 106.657 241.788 110.225C245.357 113.794 247.362 118.633 247.362 123.68V133.194H256.875C261.922 133.194 266.762 135.199 270.33 138.767C273.898 142.335 275.903 147.175 275.903 152.222C275.903 157.268 273.898 162.108 270.33 165.676C266.762 169.245 261.922 171.249 256.875 171.249ZM332.987 352.013H313.959C308.912 352.013 304.072 350.009 300.504 346.44C296.936 342.872 294.931 338.032 294.931 332.985C294.931 327.939 296.936 323.099 300.504 319.531C304.072 315.962 308.912 313.958 313.959 313.958H332.987C338.033 313.958 342.873 315.962 346.441 319.531C350.01 323.099 352.014 327.939 352.014 332.985C352.014 338.032 350.01 342.872 346.441 346.44C342.873 350.009 338.033 352.013 332.987 352.013ZM332.987 275.902H313.959C308.912 275.902 304.072 273.897 300.504 270.329C296.936 266.761 294.931 261.921 294.931 256.874C294.931 251.828 296.936 246.988 300.504 243.42C304.072 239.851 308.912 237.847 313.959 237.847H332.987C338.033 237.847 342.873 239.851 346.441 243.42C350.01 246.988 352.014 251.828 352.014 256.874C352.014 261.921 350.01 266.761 346.441 270.329C342.873 273.897 338.033 275.902 332.987 275.902Z" fill="#D0D5DA"/>
</svg>
