<svg width="539" height="539" viewBox="0 0 539 539" fill="none" xmlns="http://www.w3.org/2000/svg">
<g clip-path="url(#clip0_1400_9563)">
<path d="M527.646 312.495C517.894 301.713 502.313 298.172 491.282 306.799C486.668 310.408 484.179 315.303 481.402 320.798L480.171 300.189C445.648 288.558 413.35 272.111 388.043 245.016C374.129 230.119 363.172 213.344 355.957 194.004C351.705 207.281 345.196 218.955 336.729 229.822C318.775 252.873 294.195 269.404 266.351 278.301C252.777 282.639 239.064 284.799 224.699 284.125C228.957 275.445 231.876 266.882 233.214 257.215C213.19 280.175 184.411 295.342 155.314 302.934L153.923 320.819C151.47 315.324 148.843 310.669 144.436 307.037C133.676 298.172 117.739 301.697 108.342 311.932C101.393 289.758 98.3673 267.02 98.6009 243.657C98.877 215.988 104.86 189.301 115.212 163.829C136.808 110.673 178.901 68.0918 232.211 46.634C291.562 22.7447 361.595 24.7249 419.046 53.0575C467.663 77.0317 504.888 118.498 523.904 169.228C541.603 216.444 541.778 264.106 527.646 312.5V312.495Z" fill="#773C14"/>
<path d="M527.646 312.495C517.894 301.713 502.313 298.172 491.282 306.799C486.668 310.408 484.179 315.303 481.402 320.798L480.171 300.189C445.648 288.558 413.35 272.111 388.043 245.016C374.129 230.119 363.172 213.344 355.957 194.004C351.705 207.281 345.196 218.955 336.729 229.822C318.775 252.873 294.195 269.404 266.351 278.301C252.777 282.639 239.064 284.799 224.699 284.125C228.957 275.445 231.876 266.882 233.214 257.215C213.19 280.175 184.411 295.342 155.314 302.934L153.923 320.819C151.47 315.324 148.843 310.669 144.436 307.037C133.676 298.172 117.739 301.697 108.342 311.932C101.393 289.758 98.3673 267.02 98.6009 243.657C98.877 215.988 104.86 189.301 115.212 163.829C136.808 110.673 178.901 68.0918 232.211 46.634C291.562 22.7447 361.595 24.7249 419.046 53.0575C467.663 77.0317 504.888 118.498 523.904 169.228C541.603 216.444 541.778 264.106 527.646 312.5V312.495Z" fill="black" fill-opacity="0.2"/>
<path d="M527.647 312.495C542.506 328.925 540.786 356.95 527.233 375.084C516.748 389.115 499.065 395.258 482.507 387.098C470.239 426.059 447.337 457.948 413.265 480.441C380.638 502.154 341.369 512.198 302.605 508.461C232.726 501.719 173.991 453.961 153.425 386.976C137.716 395.194 119.645 389.253 109.33 376.061C101.113 365.555 96.9452 352.411 97.7044 339.033C98.2777 328.904 101.702 319.152 108.332 311.932C117.734 301.697 133.671 298.172 144.426 307.037C148.833 310.668 151.46 315.324 153.913 320.819L155.304 302.934C184.401 295.342 213.18 280.175 233.204 257.215C231.866 266.882 228.947 275.445 224.689 284.125C239.054 284.799 252.767 282.638 266.341 278.301C294.185 269.404 318.765 252.872 336.719 229.822C345.186 218.95 351.69 207.276 355.947 194.004C363.162 213.344 374.124 230.119 388.033 245.015C413.345 272.116 445.638 288.558 480.161 300.189L481.392 320.797C484.163 315.303 486.658 310.408 491.272 306.798C502.303 298.172 517.884 301.707 527.637 312.495H527.647ZM273.168 335.131C270.795 322.156 257.884 314.337 245.605 318.727C235.779 322.236 230.348 332.116 231.76 342.425C233.401 354.391 244.448 362.036 256.037 360.066C267.536 358.112 275.393 347.283 273.168 335.136V335.131ZM405.366 335.731C403.837 325.554 395.911 318.403 386.355 317.602C376.8 316.8 367.589 322.868 364.505 332.381C361.702 341.018 364.415 350.282 371.39 355.862C378.053 361.191 387.778 361.956 395.417 357.428C402.584 353.181 406.72 344.74 405.366 335.731ZM349.954 418.011C352.199 415.409 350.681 411.72 348.653 410.61C345.622 408.959 343.721 410.26 341.491 412.458C328.432 425.363 306.624 425.162 293.596 412.245C291.335 410.005 288.68 408.848 286.074 410.945C284.009 412.606 283.515 415.962 285.463 418.212C301.915 437.17 333.555 436.984 349.948 418.005L349.954 418.011Z" fill="#FFCCA8"/>
<path d="M405.366 335.729C406.72 344.738 402.59 353.173 395.418 357.426C387.779 361.954 378.053 361.19 371.391 355.86C364.41 350.275 361.702 341.016 364.505 332.379C367.59 322.866 376.561 316.777 386.356 317.6C396.15 318.422 403.838 325.557 405.366 335.729Z" fill="#1D1B1A"/>
<path d="M273.168 335.131C275.387 347.277 267.536 358.107 256.037 360.061C244.448 362.03 233.401 354.391 231.76 342.42C230.348 332.116 235.779 322.236 245.606 318.722C257.885 314.337 270.795 322.151 273.168 335.126V335.131Z" fill="#1D1B1A"/>
<path d="M349.953 418.011C333.559 436.989 301.919 437.175 285.468 418.218C283.514 415.967 284.008 412.612 286.078 410.95C288.685 408.853 291.339 410.005 293.601 412.251C306.628 425.167 328.431 425.369 341.496 412.463C343.726 410.26 345.626 408.959 348.657 410.616C350.685 411.72 352.204 415.415 349.958 418.016L349.953 418.011Z" fill="#773C14"/>
<path d="M349.953 418.011C333.559 436.989 301.919 437.175 285.468 418.218C283.514 415.967 284.008 412.612 286.078 410.95C288.685 408.853 291.339 410.005 293.601 412.251C306.628 425.167 328.431 425.369 341.496 412.463C343.726 410.26 345.626 408.959 348.657 410.616C350.685 411.72 352.204 415.415 349.958 418.016L349.953 418.011Z" fill="black" fill-opacity="0.2"/>
</g>
<defs>
<clipPath id="clip0_1400_9563">
<rect width="538.5" height="538.5" fill="white"/>
</clipPath>
</defs>
</svg>
