<svg width="50" height="50" viewBox="0 0 50 50" fill="none" xmlns="http://www.w3.org/2000/svg">
<g clip-path="url(#clip0_508_42189)">
<path d="M24.7502 45.1684C33.8975 45.1684 41.3129 37.753 41.3129 28.6057C41.3129 19.4583 33.8975 12.043 24.7502 12.043C15.6029 12.043 8.1875 19.4583 8.1875 28.6057C8.1875 37.753 15.6029 45.1684 24.7502 45.1684Z" fill="#FFCCA8"/>
<path d="M9.63443 35.2884C13.2964 35.2884 16.265 32.5043 16.265 29.07C16.265 25.6357 13.2964 22.8516 9.63443 22.8516C5.97249 22.8516 3.00391 25.6357 3.00391 29.07C3.00391 32.5043 5.97249 35.2884 9.63443 35.2884Z" fill="#FFCCA8"/>
<path d="M39.8669 35.2884C43.5288 35.2884 46.4974 32.5043 46.4974 29.07C46.4974 25.6357 43.5288 22.8516 39.8669 22.8516C36.2049 22.8516 33.2363 25.6357 33.2363 29.07C33.2363 32.5043 36.2049 35.2884 39.8669 35.2884Z" fill="#FFCCA8"/>
<path d="M43.4811 23.8567C43.6482 12.4853 33.8645 3.20033 22.279 4.44402C13.3678 5.40061 6.23237 12.6437 5.39211 21.5661C5.30672 22.4744 5.28445 23.3703 5.32281 24.2514C5.32281 24.2514 6.94146 23.8653 8.38191 26.9925L19.3078 14.7672C19.3078 14.7672 32.5713 25.4196 41.3254 24.838C41.5185 24.8256 41.7412 24.7588 41.9602 24.6648C42.5443 24.3356 43.0332 23.7267 43.4811 23.8567Z" fill="#333333"/>
<path d="M20.0981 29.9212C21.0714 29.9212 21.8603 28.9743 21.8603 27.8063C21.8603 26.6383 21.0714 25.6914 20.0981 25.6914C19.1249 25.6914 18.3359 26.6383 18.3359 27.8063C18.3359 28.9743 19.1249 29.9212 20.0981 29.9212Z" fill="black"/>
<path d="M29.4048 29.9212C30.378 29.9212 31.167 28.9743 31.167 27.8063C31.167 26.6383 30.378 25.6914 29.4048 25.6914C28.4315 25.6914 27.6426 26.6383 27.6426 27.8063C27.6426 28.9743 28.4315 29.9212 29.4048 29.9212Z" fill="black"/>
<path d="M26.9433 36.1445C27.3393 36.1445 27.6214 36.5257 27.5162 36.9068C27.1821 38.1208 26.0708 39.0118 24.7516 39.0118C23.4325 39.0118 22.32 38.1208 21.9871 36.9068C21.8819 36.5244 22.1628 36.1445 22.56 36.1445H26.9457H26.9433Z" fill="#5C2F17"/>
</g>
<defs>
<clipPath id="clip0_508_42189">
<rect width="49.5" height="49.5" fill="white"/>
</clipPath>
</defs>
</svg>
