<svg width="33" height="33" viewBox="0 0 33 33" fill="none" xmlns="http://www.w3.org/2000/svg">
<g clip-path="url(#clip0_508_39956)">
<path d="M15.3883 14.3774L26.2924 17.2987C26.9062 17.4629 27.1116 18.2302 26.662 18.679L18.6801 26.6608C18.2313 27.1096 17.464 26.9042 17.2999 26.2912L14.3785 15.3872C14.2144 14.7734 14.7754 14.2124 15.3892 14.3766L15.3883 14.3774Z" fill="#FFCD00"/>
<path d="M20.5557 1.23828C21.2033 2.91138 21.5729 4.72391 21.5729 6.62636C21.5729 14.8813 14.8813 21.5729 6.62636 21.5729C4.72391 21.5729 2.91138 21.2033 1.23828 20.5557C3.40226 26.1442 8.81508 30.1133 15.1668 30.1133C23.4209 30.1133 30.1133 23.4217 30.1133 15.1668C30.1133 8.81426 26.1434 3.40143 20.5557 1.23828Z" fill="#FFCD00"/>
<path d="M23.4695 16.1505C23.8825 15.4351 23.734 14.5761 23.1378 14.2318C22.5416 13.8876 21.7234 14.1885 21.3104 14.9039C20.8973 15.6193 21.0458 16.4783 21.6421 16.8225C22.2383 17.1667 23.0565 16.8659 23.4695 16.1505Z" fill="black"/>
</g>
<defs>
<clipPath id="clip0_508_39956">
<rect width="33" height="33" fill="white"/>
</clipPath>
</defs>
</svg>
