<svg width="33" height="33" viewBox="0 0 33 33" fill="none" xmlns="http://www.w3.org/2000/svg">
<mask id="mask0_508_39719" style="mask-type:alpha" maskUnits="userSpaceOnUse" x="0" y="0" width="33" height="33">
<rect width="33" height="33" fill="#FF3D00"/>
</mask>
<g mask="url(#mask0_508_39719)">
<path d="M15.1246 31.5539V28.8039C12.26 28.4831 9.80221 27.2971 7.75117 25.2461C5.70013 23.1951 4.51419 20.7372 4.19336 17.8727H1.44336V15.1227H4.19336C4.51419 12.2581 5.70013 9.80026 7.75117 7.74922C9.80221 5.69818 12.26 4.51224 15.1246 4.19141V1.44141H17.8746V4.19141C20.7392 4.51224 23.197 5.69818 25.248 7.74922C27.2991 9.80026 28.485 12.2581 28.8059 15.1227H31.5559V17.8727H28.8059C28.485 20.7372 27.2991 23.1951 25.248 25.2461C23.197 27.2971 20.7392 28.4831 17.8746 28.8039V31.5539H15.1246ZM23.3059 23.3039C25.185 21.4247 26.1246 19.156 26.1246 16.4977C26.1246 13.8393 25.185 11.5706 23.3059 9.69141C21.4267 7.81224 19.1579 6.87266 16.4996 6.87266C13.8413 6.87266 11.5725 7.81224 9.69336 9.69141C7.81419 11.5706 6.87461 13.8393 6.87461 16.4977C6.87461 19.156 7.81419 21.4247 9.69336 23.3039C11.5725 25.1831 13.8413 26.1227 16.4996 26.1227C19.1579 26.1227 21.4267 25.1831 23.3059 23.3039ZM12.6152 20.382C11.5382 19.3049 10.9996 18.0102 10.9996 16.4977C10.9996 14.9852 11.5382 13.6904 12.6152 12.6133C13.6923 11.5362 14.9871 10.9977 16.4996 10.9977C18.0121 10.9977 19.3069 11.5362 20.384 12.6133C21.4611 13.6904 21.9996 14.9852 21.9996 16.4977C21.9996 18.0102 21.4611 19.3049 20.384 20.382C19.3069 21.4591 18.0121 21.9977 16.4996 21.9977C14.9871 21.9977 13.6923 21.4591 12.6152 20.382ZM18.4418 18.4398C18.9803 17.9013 19.2496 17.2539 19.2496 16.4977C19.2496 15.7414 18.9803 15.094 18.4418 14.5555C17.9033 14.0169 17.2559 13.7477 16.4996 13.7477C15.7434 13.7477 15.096 14.0169 14.5574 14.5555C14.0189 15.094 13.7496 15.7414 13.7496 16.4977C13.7496 17.2539 14.0189 17.9013 14.5574 18.4398C15.096 18.9784 15.7434 19.2477 16.4996 19.2477C17.2559 19.2477 17.9033 18.9784 18.4418 18.4398Z" fill="#FFFCF9"/>
</g>
</svg>
