<svg width="60" height="79" viewBox="0 0 60 79" fill="none" xmlns="http://www.w3.org/2000/svg">
<g filter="url(#filter0_d_508_39948)">
<ellipse cx="30.5385" cy="60.0938" rx="12.5385" ry="5.09375" fill="#473F4D"/>
<path d="M30.5381 53.5C34.1448 53.5 37.48 54.0915 39.9688 55.1025C41.2093 55.6065 42.3135 56.2442 43.1309 57.0293C43.9522 57.8183 44.5771 58.8539 44.5771 60.0938C44.5771 61.3336 43.9522 62.3692 43.1309 63.1582C42.3135 63.9433 41.2093 64.581 39.9688 65.085C37.48 66.096 34.1448 66.6875 30.5381 66.6875C26.9314 66.6875 23.5961 66.096 21.1074 65.085C19.867 64.581 18.7636 63.9432 17.9463 63.1582C17.1248 62.3692 16.5 61.3336 16.5 60.0938C16.5 58.8539 17.1248 57.8183 17.9463 57.0293C18.7636 56.2443 19.867 55.6065 21.1074 55.1025C23.5961 54.0915 26.9314 53.5 30.5381 53.5Z" stroke="white" stroke-width="3"/>
</g>
<path d="M30.4541 2.0293C35.9109 2.03119 41.1677 4.08369 45.1816 7.78027C49.0705 11.3618 51.518 16.2329 52.0762 21.4785L52.124 21.9873C52.6204 28.0232 50.7572 34.0168 46.9258 38.707L46.9248 38.708L34.9775 53.3203C34.3645 54.0706 33.5923 54.6755 32.7168 55.0908C31.8413 55.5061 30.884 55.7216 29.915 55.7217C28.9461 55.7217 27.9888 55.506 27.1133 55.0908C26.3471 54.7274 25.6594 54.2189 25.0889 53.5947L24.8516 53.3203L12.9062 38.707C9.07404 34.0173 7.20955 28.0243 7.70508 21.9883V21.9873C8.15509 16.5487 10.6333 11.4772 14.6475 7.78027C18.6616 4.08353 23.919 2.03107 29.376 2.0293H30.4541Z" fill="#473F4D" stroke="white" stroke-width="3.41872"/>
<g clip-path="url(#clip0_508_39948)">
<path d="M28.3883 23.3774L39.2924 26.2987C39.9062 26.4629 40.1116 27.2302 39.662 27.679L31.6801 35.6608C31.2313 36.1096 30.464 35.9042 30.2999 35.2912L27.3785 24.3872C27.2144 23.7734 27.7754 23.2124 28.3892 23.3766L28.3883 23.3774Z" fill="#FFCD00"/>
<path d="M33.5557 10.2383C34.2033 11.9114 34.5729 13.7239 34.5729 15.6264C34.5729 23.8813 27.8813 30.5729 19.6264 30.5729C17.7239 30.5729 15.9114 30.2033 14.2383 29.5557C16.4023 35.1442 21.8151 39.1133 28.1668 39.1133C36.4209 39.1133 43.1133 32.4217 43.1133 24.1668C43.1133 17.8143 39.1434 12.4014 33.5557 10.2383Z" fill="#FFCD00"/>
<path d="M36.4695 25.1505C36.8825 24.4351 36.734 23.5761 36.1378 23.2318C35.5416 22.8876 34.7234 23.1885 34.3104 23.9039C33.8973 24.6193 34.0458 25.4783 34.6421 25.8225C35.2383 26.1667 36.0565 25.8659 36.4695 25.1505Z" fill="black"/>
</g>
<defs>
<filter id="filter0_d_508_39948" x="5" y="42" width="51.0762" height="36.1875" filterUnits="userSpaceOnUse" color-interpolation-filters="sRGB">
<feFlood flood-opacity="0" result="BackgroundImageFix"/>
<feColorMatrix in="SourceAlpha" type="matrix" values="0 0 0 0 0 0 0 0 0 0 0 0 0 0 0 0 0 0 127 0" result="hardAlpha"/>
<feOffset/>
<feGaussianBlur stdDeviation="5"/>
<feComposite in2="hardAlpha" operator="out"/>
<feColorMatrix type="matrix" values="0 0 0 0 0 0 0 0 0 0 0 0 0 0 0 0 0 0 0.15 0"/>
<feBlend mode="normal" in2="BackgroundImageFix" result="effect1_dropShadow_508_39948"/>
<feBlend mode="normal" in="SourceGraphic" in2="effect1_dropShadow_508_39948" result="shape"/>
</filter>
<clipPath id="clip0_508_39948">
<rect width="33" height="33" fill="white" transform="translate(13 9)"/>
</clipPath>
</defs>
</svg>
