<svg width="596" height="779" viewBox="0 0 596 779" fill="none" xmlns="http://www.w3.org/2000/svg">
<g filter="url(#filter0_d_1400_9489)">
<ellipse cx="304.221" cy="598.652" rx="124.907" ry="50.7437" fill="#473F4D"/>
<path d="M304.222 532.965C340.152 532.965 373.375 538.854 398.168 548.927C410.526 553.947 421.521 560.302 429.664 568.123C437.847 575.983 444.071 586.301 444.071 598.652C444.071 611.004 437.847 621.321 429.664 629.181C421.521 637.002 410.526 643.356 398.168 648.377C373.375 658.449 340.152 664.339 304.222 664.339C268.291 664.339 235.068 658.449 210.274 648.377C197.916 643.356 186.922 637.002 178.779 629.181C170.596 621.321 164.371 611.004 164.371 598.652C164.371 586.301 170.596 575.983 178.779 568.123C186.922 560.302 197.916 553.947 210.274 548.927C235.068 538.854 268.291 532.965 304.222 532.965Z" stroke="white" stroke-width="29.8858"/>
</g>
<path d="M303.369 20.2119C357.733 20.2297 410.104 40.6813 450.092 77.5098C489.456 113.763 513.991 163.277 519.024 216.494L519.249 219.031L519.25 219.04C524.195 279.169 505.631 338.873 467.462 385.598L467.458 385.604L348.432 531.177C342.324 538.651 334.631 544.674 325.91 548.811C317.187 552.948 307.653 555.094 297.999 555.094C288.344 555.094 278.81 552.948 270.087 548.811C261.364 544.673 253.67 538.648 247.562 531.172V531.171L128.563 385.603L128.561 385.6C90.3835 338.879 71.8109 279.175 76.7485 219.042L76.7495 219.031C81.2326 164.853 105.917 114.338 145.906 77.5098C185.894 40.6813 238.266 20.2296 292.629 20.2119H303.369Z" fill="#473F4D" stroke="white" stroke-width="34.0571"/>
<g clip-path="url(#clip0_1400_9489)">
<path d="M334.275 101.974C340.727 118.641 344.409 136.697 344.409 155.649C344.409 237.885 277.748 304.546 195.512 304.546C176.56 304.546 158.504 300.864 141.836 294.413C163.394 350.085 217.316 389.625 280.591 389.625C362.819 389.625 429.488 322.964 429.488 240.729C429.488 177.445 389.94 123.523 334.275 101.974Z" fill="#FFCD00"/>
</g>
<defs>
<filter id="filter0_d_1400_9489" x="49.8092" y="418.403" width="508.824" height="360.498" filterUnits="userSpaceOnUse" color-interpolation-filters="sRGB">
<feFlood flood-opacity="0" result="BackgroundImageFix"/>
<feColorMatrix in="SourceAlpha" type="matrix" values="0 0 0 0 0 0 0 0 0 0 0 0 0 0 0 0 0 0 127 0" result="hardAlpha"/>
<feOffset/>
<feGaussianBlur stdDeviation="49.8097"/>
<feComposite in2="hardAlpha" operator="out"/>
<feColorMatrix type="matrix" values="0 0 0 0 0 0 0 0 0 0 0 0 0 0 0 0 0 0 0.15 0"/>
<feBlend mode="normal" in2="BackgroundImageFix" result="effect1_dropShadow_1400_9489"/>
<feBlend mode="normal" in="SourceGraphic" in2="effect1_dropShadow_1400_9489" result="shape"/>
</filter>
<clipPath id="clip0_1400_9489">
<rect width="328.745" height="328.745" fill="white" transform="translate(129.505 89.6572)"/>
</clipPath>
</defs>
</svg>
