<svg width="408" height="408" viewBox="0 0 408 408" fill="none" xmlns="http://www.w3.org/2000/svg">
<g clip-path="url(#clip0_1400_9159)">
<path d="M289.504 84.5928C289.557 84.6378 289.18 84.9612 289.057 85.0635H262.097C261.971 84.9489 261.594 84.6296 261.668 84.6051L289.504 84.5928Z" fill="white"/>
<path d="M188.782 84.5977C188.856 84.6345 188.48 84.9538 188.349 85.0725L168.757 85.0643C168.634 84.9661 168.258 84.6304 168.331 84.6263L188.782 84.5977Z" fill="white"/>
<path d="M149.898 84.6431C149.972 84.635 149.591 84.9706 149.468 85.0689H130.286C130.155 84.9665 129.783 84.635 129.852 84.6309L149.894 84.6431H149.898Z" fill="white"/>
<path d="M235.862 84.6378C235.94 84.6337 235.547 84.9612 235.428 85.0717H219.525C219.406 84.9653 219.018 84.6296 219.091 84.5928L235.862 84.6378Z" fill="white"/>
<path d="M166.272 84.626L165.503 85.0763H152.301L151.548 84.6383L166.272 84.626Z" fill="white"/>
<path d="M258.785 84.6094L258.02 85.076H246.038L245.289 84.6094H258.785Z" fill="white"/>
<path d="M127.797 84.6309C128.105 84.7004 127.102 85.073 126.864 85.073H118.137C117.858 85.073 116.876 84.725 117.146 84.6309H127.802H127.797Z" fill="white"/>
<path d="M242.829 84.6025C243.091 84.7008 242.162 85.0569 241.941 85.061L237.897 85.1101L237.094 84.6353L242.825 84.6066L242.829 84.6025Z" fill="white"/>
<path d="M192.877 84.6103L192.233 85.1018C192.066 85.2328 191.554 84.6963 191.656 84.5693L192.877 84.6103Z" fill="white"/>
<path d="M117.142 84.6307C116.871 84.7249 117.858 85.0687 118.132 85.0687H126.86C127.097 85.0687 128.1 84.6962 127.793 84.6307H129.848C129.774 84.6348 130.151 84.9623 130.282 85.0728H149.464C149.587 84.9705 149.968 84.6389 149.894 84.643H151.544L152.297 85.0769H165.498L166.268 84.6266H168.327C168.253 84.6348 168.63 84.9664 168.753 85.0647L188.344 85.0728C188.475 84.9582 188.852 84.6348 188.778 84.598L191.652 84.5693C191.554 84.6962 192.061 85.2325 192.229 85.1015L192.872 84.6103L193.175 84.643L214.621 84.5857L219.087 84.5939C219.009 84.6307 219.402 84.9664 219.521 85.0687H235.424C235.543 84.9623 235.936 84.6307 235.858 84.6348H237.094L237.896 85.1056L241.941 85.0565C242.158 85.0565 243.091 84.6962 242.829 84.598L245.289 84.6062L246.038 85.0728H258.02L258.786 84.6062H261.667C261.594 84.6307 261.97 84.95 262.097 85.0687H289.057C289.18 84.9623 289.557 84.6348 289.503 84.5898C303.72 84.5816 317.704 89.3997 329.407 97.3698C350.341 111.619 361.03 134.997 360.542 159.653L360.518 263.468C360.878 285.496 353.059 306.655 335.732 321.461C324.045 331.454 308.71 338.826 292.713 338.834L115.177 338.9C104.759 338.9 94.4963 335.334 85.7443 330.754C60.4423 317.519 46.8027 291.149 47.3758 263.464L47.4167 159.64C46.9132 130.982 61.8218 104.366 88.3887 91.6921C97.2676 87.4553 107.203 84.6266 117.138 84.6266L117.142 84.6307ZM288.386 264.807C307.666 264.807 323.557 247.745 323.549 230.004L323.529 193.027C323.14 175.253 308.268 158.605 289.864 158.576L118.03 158.318C99.257 159.718 84.6841 175.171 84.3566 193.973L84.4917 230.413C84.5572 247.991 100.645 264.803 119.307 264.803H288.39L288.386 264.807Z" fill="#EEEAE6"/>
<path d="M288.386 264.807H119.303C100.641 264.807 84.5531 247.999 84.4876 230.421L84.3525 193.981C84.68 175.175 99.253 159.726 118.026 158.326L289.86 158.584C308.268 158.613 323.136 175.261 323.525 193.035L323.545 230.012C323.553 247.749 307.662 264.811 288.382 264.815L288.386 264.807ZM163.64 213.617C165.142 206.306 161.839 199.274 155.518 195.688C149.722 192.401 142.652 193.158 137.519 197.235C132.668 201.087 130.27 207.477 131.67 213.847C133.356 221.514 140.041 226.733 147.671 226.774C155.252 226.815 162.015 221.518 163.636 213.617H163.64ZM276.629 207.035C275.528 201.234 271.5 196.826 266.825 194.898C261.283 192.613 255.29 193.485 250.783 196.916C244.266 201.873 242.281 210.248 245.826 217.613C249.432 225.112 258.196 228.538 265.945 225.857C273.543 223.229 278.213 215.349 276.633 207.031L276.629 207.035Z" fill="#FFB521"/>
<path d="M276.629 207.035C278.205 215.353 273.539 223.233 265.941 225.861C258.196 228.542 249.428 225.116 245.821 217.617C242.28 210.252 244.262 201.873 250.779 196.92C255.29 193.489 261.278 192.617 266.821 194.902C271.496 196.83 275.528 201.234 276.625 207.039L276.629 207.035Z" fill="#3D3835"/>
<path d="M163.64 213.616C162.015 221.521 155.257 226.814 147.675 226.773C140.045 226.732 133.364 221.513 131.674 213.846C130.27 207.476 132.673 201.086 137.523 197.234C142.657 193.157 149.726 192.396 155.523 195.687C161.843 199.273 165.146 206.305 163.644 213.616H163.64Z" fill="#3D3835"/>
<path d="M400.262 225.791C399.942 226.102 399.545 225.136 399.541 224.891L399.418 216.442L399.439 205.012L399.398 199.196C399.398 198.647 399.656 197.513 400.176 197.312L400.266 225.791H400.262Z" fill="#FFC721"/>
<path d="M7.91019 225.502L7.91838 197.612C7.86107 197.571 8.18037 197.956 8.27042 198.079L8.27861 225.031C8.16399 225.15 7.85698 225.538 7.91429 225.502H7.91019Z" fill="#FFC721"/>
<path d="M400.029 195.25C399.746 195.197 399.296 194.358 399.206 193.96L397.712 187.21C397.749 187.026 397.88 186.486 398.117 186.572C399.05 189.294 399.824 192.278 400.029 195.246V195.25Z" fill="#FFC721"/>
<path d="M400.114 227.167L399.386 232.026C399.062 232.296 398.915 231.428 398.935 231.195L399.255 227.936C399.283 227.654 399.238 227.146 399.39 227.134L400.11 227.162L400.114 227.167Z" fill="#FFC721"/>
<path d="M399.296 232.468L398.891 233.639L398.325 232.992C398.182 232.722 398.964 232.353 399.296 232.468Z" fill="#FFC721"/>
<path d="M47.421 159.644L47.38 263.468C38.2228 263.394 29.0861 260.451 21.7177 254.11C13.4202 246.967 7.90621 236.356 7.9103 225.5C7.85299 225.537 8.1641 225.148 8.27463 225.03L8.26644 198.078C8.18047 197.955 7.85709 197.566 7.9144 197.611C7.9144 186.747 13.4038 176.149 21.7137 168.977C29.037 162.657 38.2679 159.75 47.421 159.64V159.644Z" fill="#FFC721"/>
<path d="M398.117 186.575C397.879 186.489 397.748 187.03 397.712 187.214L399.206 193.964C399.292 194.361 399.746 195.2 400.029 195.254L400.172 197.317C399.652 197.521 399.39 198.651 399.394 199.2L399.435 205.017L399.415 216.446L399.537 224.895C399.537 225.14 399.938 226.106 400.258 225.795L400.11 227.171L399.39 227.142C399.238 227.15 399.284 227.658 399.255 227.944L398.936 231.203C398.911 231.432 399.058 232.3 399.386 232.034L399.296 232.476C398.964 232.361 398.182 232.73 398.326 233L398.891 233.647C394.363 251.327 378.591 263.669 360.522 263.476L360.547 159.66C377.539 159.382 392.558 170.336 398.121 186.579L398.117 186.575Z" fill="#FFC721"/>
<path d="M214.559 55.4432L210.859 56.3069C205.832 57.4817 201.083 57.5104 196.175 55.9958L193.506 55.4513C182.098 50.6455 174.836 39.5235 175.438 27.2306C176.436 13.0138 186.994 1.83441 200.842 0.262502C214.846 -1.32988 227.851 7.53259 231.621 21.4137C235.399 35.3235 227.966 49.9251 214.559 55.4391V55.4432Z" fill="#FF3D00"/>
<path d="M214.559 55.4434L214.625 84.5851L193.179 84.6424L193.506 55.4556L196.175 56.0001C201.079 57.5147 205.832 57.486 210.859 56.3112L214.559 55.4475V55.4434Z" fill="#F5DF7A"/>
</g>
<defs>
<clipPath id="clip0_1400_9159">
<rect width="392.36" height="338.821" fill="white" transform="translate(7.90186 0.0830078)"/>
</clipPath>
</defs>
</svg>
