<svg width="12" height="12" viewBox="0 0 12 12" fill="none" xmlns="http://www.w3.org/2000/svg">
<g clip-path="url(#clip0_587_6901)">
<path d="M10.6245 4.62891H9.25107C8.74026 4.62891 8.32617 5.043 8.32617 5.55381V6.92721C8.32617 7.43801 8.74026 7.85211 9.25107 7.85211H10.6245C11.1353 7.85211 11.5494 7.43801 11.5494 6.92721V5.55381C11.5494 5.043 11.1353 4.62891 10.6245 4.62891Z" fill="#F5DF7A"/>
<path d="M6.99351 1.74089C6.99351 1.19148 6.54812 0.746094 5.99871 0.746094C5.44929 0.746094 5.00391 1.19148 5.00391 1.74089V2.97449C5.00391 3.52391 5.44929 3.96929 5.99871 3.96929C6.54812 3.96929 6.99351 3.52391 6.99351 2.97449V1.74089Z" fill="#E28702"/>
<path d="M2.74752 4.62891H1.37412C0.863311 4.62891 0.449219 5.043 0.449219 5.55381V6.92721C0.449219 7.43801 0.863311 7.85211 1.37412 7.85211H2.74752C3.25833 7.85211 3.67242 7.43801 3.67242 6.92721V5.55381C3.67242 5.043 3.25833 4.62891 2.74752 4.62891Z" fill="#F5DF7A"/>
<path d="M8.84125 1.83203H3.10615C2.2547 1.83203 1.56445 2.52227 1.56445 3.37373V9.10883C1.56445 9.96029 2.2547 10.6505 3.10615 10.6505H8.84125C9.69271 10.6505 10.383 9.96029 10.383 9.10883V3.37373C10.383 2.52227 9.69271 1.83203 8.84125 1.83203Z" fill="#EBE4D9"/>
<path d="M7.50099 6.13869C7.88554 6.13869 8.19729 5.82695 8.19729 5.44239C8.19729 5.05784 7.88554 4.74609 7.50099 4.74609C7.11643 4.74609 6.80469 5.05784 6.80469 5.44239C6.80469 5.82695 7.11643 6.13869 7.50099 6.13869Z" fill="black"/>
<path d="M4.49708 6.13869C4.88164 6.13869 5.19338 5.82695 5.19338 5.44239C5.19338 5.05784 4.88164 4.74609 4.49708 4.74609C4.11253 4.74609 3.80078 5.05784 3.80078 5.44239C3.80078 5.82695 4.11253 6.13869 4.49708 6.13869Z" fill="black"/>
<path d="M6.97884 8.37442H5.01924C4.76394 8.37442 4.55664 8.16712 4.55664 7.91182C4.55664 7.65652 4.76394 7.44922 5.01924 7.44922H6.97884C7.23414 7.44922 7.44144 7.65652 7.44144 7.91182C7.44144 8.16712 7.23414 8.37442 6.97884 8.37442Z" fill="#B9B2A6"/>
</g>
<defs>
<clipPath id="clip0_587_6901">
<rect width="12" height="12" fill="white"/>
</clipPath>
</defs>
</svg>
