<svg width="33" height="33" viewBox="0 0 33 33" fill="none" xmlns="http://www.w3.org/2000/svg">
<g clip-path="url(#clip0_508_41769)">
<path d="M28.8838 19.3457L31.0791 17.1504C31.4371 16.7923 31.4371 16.2115 31.0791 15.8535L28.8838 13.6582C28.6519 13.4263 28.5612 13.0889 28.6462 12.7721L29.4497 9.77323C29.5809 9.28401 29.2905 8.78076 28.8013 8.64958L25.8024 7.84603C25.4856 7.76106 25.2389 7.51356 25.1539 7.19758L24.3504 4.19871C24.2192 3.70948 23.716 3.41908 23.2267 3.55026L20.2279 4.35381C19.9111 4.43878 19.5736 4.34803 19.3418 4.11621L17.1465 1.92088C16.7884 1.56283 16.2076 1.56283 15.8496 1.92088L13.6543 4.11621C13.4224 4.34803 13.085 4.43878 12.7682 4.35381L9.76933 3.55026C9.2801 3.41908 8.77685 3.70948 8.64568 4.19871L7.84213 7.19758C7.75715 7.51438 7.50965 7.76106 7.19368 7.84603L4.1948 8.64958C3.70557 8.78076 3.41518 9.28401 3.54635 9.77323L4.3499 12.7721C4.43488 13.0889 4.34413 13.4263 4.1123 13.6582L1.91697 15.8535C1.55892 16.2115 1.55892 16.7923 1.91697 17.1504L4.1123 19.3457C4.34413 19.5775 4.43488 19.915 4.3499 20.2318L3.54635 23.2306C3.41518 23.7199 3.70557 24.2231 4.1948 24.3543L7.19368 25.1578C7.51048 25.2428 7.75715 25.4903 7.84213 25.8063L8.64568 28.8052C8.77685 29.2944 9.2801 29.5848 9.76933 29.4536L12.7682 28.6501C13.085 28.5651 13.4224 28.6558 13.6543 28.8877L15.8496 31.083C16.2076 31.441 16.7884 31.441 17.1465 31.083L19.3418 28.8877C19.5736 28.6558 19.9111 28.5651 20.2279 28.6501L23.2267 29.4536C23.716 29.5848 24.2192 29.2944 24.3504 28.8052L25.1539 25.8063C25.2389 25.4895 25.4864 25.2428 25.8024 25.1578L28.8013 24.3543C29.2905 24.2231 29.5809 23.7199 29.4497 23.2306L28.6462 20.2318C28.5612 19.915 28.6519 19.5775 28.8838 19.3457Z" fill="#FFCD00"/>
<path d="M16.4997 25.2259C21.2802 25.2259 25.1556 21.3505 25.1556 16.57C25.1556 11.7894 21.2802 7.91406 16.4997 7.91406C11.7191 7.91406 7.84375 11.7894 7.84375 16.57C7.84375 21.3505 11.7191 25.2259 16.4997 25.2259Z" fill="#FFAA00"/>
</g>
<defs>
<clipPath id="clip0_508_41769">
<rect width="33" height="33" fill="white"/>
</clipPath>
</defs>
</svg>
