<svg width="50" height="50" viewBox="0 0 50 50" fill="none" xmlns="http://www.w3.org/2000/svg">
<g clip-path="url(#clip0_508_42208)">
<path d="M16.0882 46.4029C22.7643 46.4029 28.1763 40.9908 28.1763 34.3147C28.1763 27.6386 22.7643 22.2266 16.0882 22.2266C9.41206 22.2266 4 27.6386 4 34.3147C4 40.9908 9.41206 46.4029 16.0882 46.4029Z" fill="#EBE4D9"/>
<path d="M40.9175 7.1959C43.4476 9.51205 43.6213 13.4452 41.3051 15.9753L16.1143 43.4932L6.94731 35.1014L32.1381 7.58352C34.4542 5.0534 38.3874 4.87975 40.9175 7.1959Z" fill="#EBE4D9"/>
<path d="M16.0885 41.4777C20.0432 41.4777 23.2492 38.2718 23.2492 34.317C23.2492 30.3622 20.0432 27.1562 16.0885 27.1562C12.1337 27.1562 8.92773 30.3622 8.92773 34.317C8.92773 38.2718 12.1337 41.4777 16.0885 41.4777Z" fill="#FF3D00"/>
<path d="M37.381 11.0578C38.2143 11.8207 38.2715 13.1159 37.5086 13.9493L28.4218 23.8756L25.4035 21.1125L34.4911 11.1854C35.254 10.352 36.5493 10.2948 37.3826 11.0577L37.381 11.0578Z" fill="#F0F3F6"/>
<path d="M30.5341 18.5335C31.3675 19.2964 31.4247 20.5916 30.6618 21.425L19.4778 33.6421L16.4595 30.8791L27.6435 18.6619C28.4064 17.8286 29.7007 17.7706 30.5341 18.5335Z" fill="#FF3D00"/>
</g>
<defs>
<clipPath id="clip0_508_42208">
<rect width="49.5" height="49.5" fill="white"/>
</clipPath>
</defs>
</svg>
