<svg width="599" height="599" viewBox="0 0 599 599" fill="none" xmlns="http://www.w3.org/2000/svg">
<g clip-path="url(#clip0_1400_9580)">
<g clip-path="url(#clip1_1400_9580)">
<path d="M223.852 92.9434L212.502 137.621L251.133 162.766L211.514 186.336L221.043 231.437L176.365 220.088L151.22 258.718L127.65 219.1L82.5489 228.628L93.8983 183.951L55.2678 158.805L94.8864 135.235L85.3579 90.1344L130.035 101.484L155.181 62.8532L178.751 102.472L223.852 92.9434Z" fill="#F2C94C" stroke="#F2C94C" stroke-width="32.65" stroke-linecap="square" stroke-linejoin="round"/>
</g>
<g clip-path="url(#clip2_1400_9580)">
<path fill-rule="evenodd" clip-rule="evenodd" d="M526.893 181.672C515.469 177.603 503.137 176.796 491.28 179.341C479.424 181.886 468.51 187.683 459.762 196.082L320.19 330.104C316.363 333.779 311.01 335.287 305.74 334.678C282.606 331.994 259.208 336.517 238.741 347.628C218.274 358.739 201.736 375.897 191.385 396.759C181.034 417.621 177.374 441.169 180.907 464.188C184.439 487.207 194.991 508.575 211.121 525.373C227.251 542.171 248.174 553.581 271.031 558.044C293.888 562.506 317.565 559.805 338.829 550.308C360.094 540.812 377.908 524.983 389.84 504.983C401.772 484.983 407.24 461.788 405.496 438.565C405.107 433.28 406.819 427.981 410.646 424.306L550.218 290.284C558.245 282.574 564.169 272.941 567.426 262.298C570.683 251.656 571.167 240.358 568.83 229.476C566.493 218.594 561.413 208.491 554.074 200.124C546.734 191.757 537.378 185.406 526.893 181.672Z" fill="#F2F2F2"/>
<path d="M471.066 207.854C477.626 201.553 485.812 197.204 494.706 195.294C503.599 193.385 512.848 193.989 521.417 197.04L532.363 166.285C518.083 161.2 502.669 160.193 487.848 163.375C473.028 166.558 459.386 173.805 448.452 184.303L471.066 207.854ZM331.494 341.876L471.066 207.854L448.452 184.303L308.88 318.326L331.494 341.876ZM225.675 377.22C246.694 357.036 275.45 347.586 303.855 350.887L307.624 318.456C288.678 316.26 269.48 318.278 251.403 324.365C233.327 330.453 216.819 340.459 203.061 353.669L225.675 377.22ZM198.735 470.172C194.675 453.677 195.027 436.404 199.756 420.088C204.485 403.772 213.424 388.987 225.675 377.22L203.061 353.669C169.707 385.696 155.971 433.085 167.033 477.98L198.735 470.172ZM265.769 539.981C249.453 535.25 234.669 526.308 222.902 514.055C211.135 501.801 202.801 486.666 198.735 470.172L167.033 477.98C172.47 500.04 183.616 520.281 199.352 536.668C215.088 553.056 234.86 565.014 256.681 571.34L265.769 539.981ZM359.737 516.833C334.797 540.781 298.976 549.603 265.769 539.981L256.681 571.34C278.503 577.661 301.603 578.128 323.663 572.694C345.722 567.26 365.962 556.116 382.351 540.383L359.737 516.833ZM389.218 439.784C390.282 454.006 388.192 468.286 383.095 481.606C377.999 494.925 370.023 506.954 359.737 516.833L382.351 540.383C410.47 513.382 424.638 475.469 421.781 437.339L389.218 439.784ZM538.908 278.505L399.336 412.528L421.95 436.078L561.522 302.056L538.908 278.505ZM551.76 228.639C554.459 237.325 554.687 246.59 552.417 255.398C550.147 264.205 545.469 272.206 538.908 278.505L561.522 302.056C572.456 291.556 580.249 278.219 584.03 263.54C587.811 248.861 587.435 233.413 582.934 218.938L551.76 228.639ZM521.417 197.04C528.581 199.59 535.052 203.773 540.319 209.258C545.585 214.743 549.502 221.378 551.76 228.639L582.934 218.938C579.172 206.838 572.638 195.786 563.861 186.646C555.085 177.506 544.301 170.535 532.363 166.285L521.417 197.04ZM421.781 437.339C421.732 436.969 421.77 436.592 421.89 436.239C421.957 436.038 422.003 436.027 421.95 436.078L399.336 412.528C391.535 420.019 388.509 430.314 389.218 439.784L421.781 437.339ZM308.88 318.326C308.939 318.269 308.92 318.321 308.717 318.392C308.36 318.494 307.99 318.52 307.624 318.456L303.855 350.887C313.283 351.985 323.693 349.367 331.494 341.876L308.88 318.326Z" fill="#EBE4D9"/>
<path fill-rule="evenodd" clip-rule="evenodd" d="M518.859 231.948C521.858 235.071 523.493 239.257 523.405 243.586C523.318 247.915 521.514 252.031 518.391 255.03L352.36 414.46C347.267 419.35 346.144 426.913 347.824 433.765C350.818 445.929 349.689 458.744 344.612 470.197C339.536 481.65 330.8 491.093 319.776 497.045C308.752 502.996 296.064 505.118 283.704 503.077C271.343 501.037 260.01 494.95 251.483 485.772C242.957 476.594 237.719 464.844 236.592 452.367C235.466 439.89 238.514 427.393 245.259 416.836C252.004 406.279 262.064 398.26 273.859 394.039C285.654 389.818 298.517 389.633 310.429 393.514C317.403 395.791 325.371 395.11 330.664 390.027L495.777 231.48C498.9 228.481 503.086 226.846 507.415 226.933C511.744 227.021 515.86 228.825 518.859 231.948Z" fill="#EB5757"/>
</g>
</g>
<defs>
<clipPath id="clip0_1400_9580">
<rect width="599" height="599" fill="white"/>
</clipPath>
<clipPath id="clip1_1400_9580">
<rect width="583.134" height="583.134" fill="white" transform="translate(-0.000488281 8)"/>
</clipPath>
<clipPath id="clip2_1400_9580">
<rect width="653" height="653" fill="white" transform="translate(434.716 -18.708) rotate(46.1619)"/>
</clipPath>
</defs>
</svg>
